M48
INCH,TZ
T1C0.023
T2C0.025
T3C0.031
T4C0.032
T5C0.040
T6C0.060
%
G05
T1
X67063Y-48988
X67063Y-49776
X67063Y-50563
X67063Y-51350
X67063Y-52138
X67063Y-52925
X67063Y-53713
X67063Y-54500
X67063Y-55287
X67063Y-56075
X75724Y-48988
X75724Y-49776
X75724Y-50563
X75724Y-51350
X75724Y-52138
X75724Y-52925
X75724Y-53713
X75724Y-54500
X75724Y-55287
X75724Y-56075
T2
X48000Y-47250
X48000Y-48250
X50000Y-46000
T3
X48500Y-57000
X48500Y-58000
X55500Y-57000
X55500Y-58000
T4
X38500Y-45500
X38500Y-52500
X39500Y-45500
X39500Y-52500
X40500Y-45500
X40500Y-52500
X41500Y-45500
X41500Y-52500
X42500Y-45500
X42500Y-52500
X43500Y-45500
X43500Y-52500
X44500Y-45500
X44500Y-52500
X45500Y-45500
X45500Y-52500
X48500Y-53000
X48500Y-55000
X50000Y-48500
X50000Y-51500
X50500Y-56000
X50500Y-57000
X50500Y-58000
X50500Y-59000
X51000Y-46000
X51000Y-47000
X51000Y-48500
X51000Y-51500
X52000Y-48500
X52000Y-51500
X52000Y-53500
X53000Y-48500
X53000Y-51500
X53500Y-56000
X53500Y-57000
X53500Y-58000
X53500Y-59000
X54000Y-46000
X54000Y-47000
X54000Y-48500
X54000Y-51500
X54000Y-53000
X54000Y-54000
X55000Y-46000
X55000Y-47000
X55000Y-48500
X55000Y-51500
X56000Y-46000
X56000Y-47000
X56000Y-48500
X56000Y-51500
X56000Y-53000
X56000Y-54000
X57000Y-46000
X57000Y-47000
X57000Y-48500
X57000Y-51500
X57000Y-53000
X57000Y-54000
X58000Y-48500
X58000Y-51500
X58500Y-57000
X58500Y-58000
X59000Y-47000
X59000Y-48500
X59000Y-51500
X59000Y-53000
X59500Y-58000
X60000Y-48500
X60000Y-51500
X60000Y-53000
X60500Y-54000
X60500Y-57000
X61000Y-48500
X61000Y-51500
X61500Y-54000
X61500Y-57000
X61500Y-58000
X62000Y-48500
X62000Y-51500
X62000Y-53000
X63000Y-47000
X63000Y-48500
X63000Y-51500
X63000Y-53000
X63000Y-59000
X63500Y-54000
X64000Y-59000
X64500Y-54000
T5
X37500Y-54500
X37500Y-58500
X38500Y-54500
X38500Y-58500
X40000Y-54500
X40000Y-58500
X41000Y-54500
X41000Y-58500
X42500Y-54500
X42500Y-58500
X43500Y-54500
X43500Y-58500
X45000Y-54500
X45000Y-58500
X46000Y-54500
X46000Y-58500
T6
X38000Y-61500
X40000Y-61500
X42000Y-61500
X44000Y-61500
X47000Y-61500
X49000Y-61500
X51000Y-61500
X53000Y-61500
X56000Y-61500
X58000Y-61500
X60000Y-61500
X62000Y-61500
X65000Y-61500
X67000Y-61500
X70000Y-61500
X72000Y-61500
X74000Y-61500
X76000Y-61500
T0
M30
