G04 (created by PCBNEW-RS274X (2012-01-19 BZR 3256)-stable) date Tue 08 Jan 2013 12:07:39 GMT*
G01*
G70*
G90*
%MOIN*%
G04 Gerber Fmt 3.4, Leading zero omitted, Abs format*
%FSLAX34Y34*%
G04 APERTURE LIST*
%ADD10C,0.006000*%
%ADD11C,0.009900*%
%ADD12C,0.015000*%
%ADD13C,0.005100*%
%ADD14C,0.004700*%
%ADD15C,0.005000*%
%ADD16C,0.012000*%
%ADD17C,0.008000*%
%ADD18C,0.004900*%
%ADD19C,0.007900*%
%ADD20C,0.011300*%
G04 APERTURE END LIST*
G54D10*
G54D11*
X62842Y-38439D02*
X62870Y-38383D01*
X62898Y-38364D01*
X62955Y-38345D01*
X63039Y-38345D01*
X63095Y-38364D01*
X63124Y-38383D01*
X63152Y-38420D01*
X63152Y-38570D01*
X62561Y-38570D01*
X62561Y-38439D01*
X62589Y-38401D01*
X62617Y-38383D01*
X62673Y-38364D01*
X62730Y-38364D01*
X62786Y-38383D01*
X62814Y-38401D01*
X62842Y-38439D01*
X62842Y-38570D01*
X63124Y-38195D02*
X63152Y-38139D01*
X63152Y-38045D01*
X63124Y-38007D01*
X63095Y-37989D01*
X63039Y-37970D01*
X62983Y-37970D01*
X62927Y-37989D01*
X62898Y-38007D01*
X62870Y-38045D01*
X62842Y-38120D01*
X62814Y-38157D01*
X62786Y-38176D01*
X62730Y-38195D01*
X62673Y-38195D01*
X62617Y-38176D01*
X62589Y-38157D01*
X62561Y-38120D01*
X62561Y-38026D01*
X62589Y-37970D01*
X63124Y-37820D02*
X63152Y-37764D01*
X63152Y-37670D01*
X63124Y-37632D01*
X63095Y-37614D01*
X63039Y-37595D01*
X62983Y-37595D01*
X62927Y-37614D01*
X62898Y-37632D01*
X62870Y-37670D01*
X62842Y-37745D01*
X62814Y-37782D01*
X62786Y-37801D01*
X62730Y-37820D01*
X62673Y-37820D01*
X62617Y-37801D01*
X62589Y-37782D01*
X62561Y-37745D01*
X62561Y-37651D01*
X62589Y-37595D01*
X62814Y-37370D02*
X62786Y-37407D01*
X62758Y-37426D01*
X62701Y-37445D01*
X62673Y-37445D01*
X62617Y-37426D01*
X62589Y-37407D01*
X62561Y-37370D01*
X62561Y-37295D01*
X62589Y-37257D01*
X62617Y-37239D01*
X62673Y-37220D01*
X62701Y-37220D01*
X62758Y-37239D01*
X62786Y-37257D01*
X62814Y-37295D01*
X62814Y-37370D01*
X62842Y-37407D01*
X62870Y-37426D01*
X62927Y-37445D01*
X63039Y-37445D01*
X63095Y-37426D01*
X63124Y-37407D01*
X63152Y-37370D01*
X63152Y-37295D01*
X63124Y-37257D01*
X63095Y-37239D01*
X63039Y-37220D01*
X62927Y-37220D01*
X62870Y-37239D01*
X62842Y-37257D01*
X62814Y-37295D01*
X62758Y-36882D02*
X63152Y-36882D01*
X62533Y-36976D02*
X62955Y-37070D01*
X62955Y-36826D01*
X62617Y-36345D02*
X62589Y-36326D01*
X62561Y-36289D01*
X62561Y-36195D01*
X62589Y-36157D01*
X62617Y-36139D01*
X62673Y-36120D01*
X62730Y-36120D01*
X62814Y-36139D01*
X63152Y-36364D01*
X63152Y-36120D01*
X63152Y-35951D02*
X62561Y-35951D01*
X63152Y-35726D01*
X62561Y-35726D01*
X62561Y-35576D02*
X62561Y-35313D01*
X63152Y-35482D01*
X62561Y-35088D02*
X62561Y-35051D01*
X62589Y-35013D01*
X62617Y-34994D01*
X62673Y-34976D01*
X62786Y-34957D01*
X62927Y-34957D01*
X63039Y-34976D01*
X63095Y-34994D01*
X63124Y-35013D01*
X63152Y-35051D01*
X63152Y-35088D01*
X63124Y-35126D01*
X63095Y-35144D01*
X63039Y-35163D01*
X62927Y-35182D01*
X62786Y-35182D01*
X62673Y-35163D01*
X62617Y-35144D01*
X62589Y-35126D01*
X62561Y-35088D01*
X62561Y-34713D02*
X62561Y-34676D01*
X62589Y-34638D01*
X62617Y-34619D01*
X62673Y-34601D01*
X62786Y-34582D01*
X62927Y-34582D01*
X63039Y-34601D01*
X63095Y-34619D01*
X63124Y-34638D01*
X63152Y-34676D01*
X63152Y-34713D01*
X63124Y-34751D01*
X63095Y-34769D01*
X63039Y-34788D01*
X62927Y-34807D01*
X62786Y-34807D01*
X62673Y-34788D01*
X62617Y-34769D01*
X62589Y-34751D01*
X62561Y-34713D01*
X62617Y-34432D02*
X62589Y-34413D01*
X62561Y-34376D01*
X62561Y-34282D01*
X62589Y-34244D01*
X62617Y-34226D01*
X62673Y-34207D01*
X62730Y-34207D01*
X62814Y-34226D01*
X63152Y-34451D01*
X63152Y-34207D01*
G54D12*
X74409Y-32678D02*
X76771Y-35827D01*
X76771Y-35827D02*
X76771Y-39764D01*
X76771Y-39764D02*
X74409Y-42914D01*
X74409Y-42914D02*
X64548Y-42914D01*
X64548Y-42914D02*
X64548Y-32678D01*
X64548Y-32678D02*
X74409Y-32678D01*
G54D13*
X56811Y-37284D02*
X56811Y-39882D01*
X56811Y-39882D02*
X54213Y-39882D01*
X54213Y-39882D02*
X54213Y-37481D01*
X54213Y-37481D02*
X54410Y-37284D01*
X54410Y-37284D02*
X56811Y-37284D01*
X54740Y-37614D02*
X54736Y-37650D01*
X54725Y-37685D01*
X54708Y-37718D01*
X54685Y-37746D01*
X54657Y-37769D01*
X54624Y-37787D01*
X54589Y-37798D01*
X54553Y-37801D01*
X54517Y-37798D01*
X54482Y-37788D01*
X54450Y-37771D01*
X54421Y-37748D01*
X54397Y-37720D01*
X54380Y-37688D01*
X54369Y-37653D01*
X54365Y-37616D01*
X54368Y-37581D01*
X54378Y-37545D01*
X54394Y-37513D01*
X54417Y-37484D01*
X54445Y-37460D01*
X54477Y-37442D01*
X54512Y-37431D01*
X54549Y-37427D01*
X54584Y-37429D01*
X54619Y-37439D01*
X54652Y-37456D01*
X54681Y-37478D01*
X54705Y-37506D01*
X54723Y-37538D01*
X54735Y-37573D01*
X54739Y-37609D01*
X54740Y-37614D01*
G54D12*
X60209Y-45587D02*
X60209Y-46611D01*
X61666Y-45587D02*
X62021Y-45587D01*
X62021Y-45587D02*
X62021Y-46611D01*
X60209Y-45587D02*
X60564Y-45587D01*
X61457Y-34763D02*
X61220Y-34763D01*
X61220Y-34763D02*
X61220Y-35039D01*
X62402Y-35039D02*
X62402Y-34763D01*
X62402Y-34763D02*
X62165Y-34763D01*
X62165Y-38071D02*
X62402Y-38071D01*
X62402Y-38071D02*
X62402Y-37795D01*
X61220Y-37795D02*
X61220Y-38071D01*
X61220Y-38071D02*
X61457Y-38071D01*
G54D14*
X44606Y-43267D02*
X44606Y-42559D01*
X44606Y-42559D02*
X45158Y-42559D01*
X45158Y-42559D02*
X45158Y-43267D01*
X45158Y-43267D02*
X44606Y-43267D01*
X44606Y-42716D02*
X45158Y-42716D01*
X48543Y-43267D02*
X48543Y-42559D01*
X48543Y-42559D02*
X49095Y-42559D01*
X49095Y-42559D02*
X49095Y-43267D01*
X49095Y-43267D02*
X48543Y-43267D01*
X48543Y-42716D02*
X49095Y-42716D01*
X48307Y-42559D02*
X48307Y-43267D01*
X48307Y-43267D02*
X47755Y-43267D01*
X47755Y-43267D02*
X47755Y-42559D01*
X47755Y-42559D02*
X48307Y-42559D01*
X48307Y-43110D02*
X47755Y-43110D01*
X46574Y-43267D02*
X46574Y-42559D01*
X46574Y-42559D02*
X47126Y-42559D01*
X47126Y-42559D02*
X47126Y-43267D01*
X47126Y-43267D02*
X46574Y-43267D01*
X46574Y-42716D02*
X47126Y-42716D01*
X46339Y-42559D02*
X46339Y-43267D01*
X46339Y-43267D02*
X45787Y-43267D01*
X45787Y-43267D02*
X45787Y-42559D01*
X45787Y-42559D02*
X46339Y-42559D01*
X46339Y-43110D02*
X45787Y-43110D01*
X44370Y-42559D02*
X44370Y-43267D01*
X44370Y-43267D02*
X43818Y-43267D01*
X43818Y-43267D02*
X43818Y-42559D01*
X43818Y-42559D02*
X44370Y-42559D01*
X44370Y-43110D02*
X43818Y-43110D01*
X42637Y-43267D02*
X42637Y-42559D01*
X42637Y-42559D02*
X43189Y-42559D01*
X43189Y-42559D02*
X43189Y-43267D01*
X43189Y-43267D02*
X42637Y-43267D01*
X42637Y-42716D02*
X43189Y-42716D01*
X42402Y-42559D02*
X42402Y-43267D01*
X42402Y-43267D02*
X41850Y-43267D01*
X41850Y-43267D02*
X41850Y-42559D01*
X41850Y-42559D02*
X42402Y-42559D01*
X42402Y-43110D02*
X41850Y-43110D01*
G54D15*
X58858Y-45371D02*
X58857Y-45380D01*
X58854Y-45390D01*
X58849Y-45398D01*
X58843Y-45406D01*
X58835Y-45412D01*
X58827Y-45417D01*
X58818Y-45419D01*
X58808Y-45420D01*
X58799Y-45420D01*
X58790Y-45417D01*
X58781Y-45412D01*
X58774Y-45406D01*
X58767Y-45399D01*
X58763Y-45390D01*
X58760Y-45381D01*
X58759Y-45371D01*
X58759Y-45362D01*
X58762Y-45353D01*
X58766Y-45344D01*
X58773Y-45337D01*
X58780Y-45330D01*
X58788Y-45326D01*
X58798Y-45323D01*
X58807Y-45322D01*
X58816Y-45322D01*
X58826Y-45325D01*
X58834Y-45329D01*
X58842Y-45335D01*
X58848Y-45343D01*
X58853Y-45351D01*
X58856Y-45360D01*
X58857Y-45370D01*
X58858Y-45371D01*
X58808Y-45821D02*
X58808Y-45421D01*
X58808Y-45421D02*
X59486Y-45421D01*
X59486Y-45420D02*
X59486Y-45820D01*
X59486Y-46377D02*
X59486Y-46777D01*
X59486Y-46777D02*
X58808Y-46777D01*
X58808Y-46778D02*
X58808Y-46378D01*
X60227Y-36275D02*
X60226Y-36284D01*
X60223Y-36294D01*
X60218Y-36302D01*
X60212Y-36310D01*
X60204Y-36316D01*
X60196Y-36321D01*
X60187Y-36323D01*
X60177Y-36324D01*
X60168Y-36324D01*
X60159Y-36321D01*
X60150Y-36316D01*
X60143Y-36310D01*
X60136Y-36303D01*
X60132Y-36294D01*
X60129Y-36285D01*
X60128Y-36275D01*
X60128Y-36266D01*
X60131Y-36257D01*
X60135Y-36248D01*
X60142Y-36241D01*
X60149Y-36234D01*
X60157Y-36230D01*
X60167Y-36227D01*
X60176Y-36226D01*
X60185Y-36226D01*
X60195Y-36229D01*
X60203Y-36233D01*
X60211Y-36239D01*
X60217Y-36247D01*
X60222Y-36255D01*
X60225Y-36264D01*
X60226Y-36274D01*
X60227Y-36275D01*
X59727Y-36275D02*
X60127Y-36275D01*
X60127Y-36275D02*
X60127Y-36953D01*
X60128Y-36953D02*
X59728Y-36953D01*
X59171Y-36953D02*
X58771Y-36953D01*
X58771Y-36953D02*
X58771Y-36275D01*
X58770Y-36275D02*
X59170Y-36275D01*
X51291Y-36166D02*
X51290Y-36175D01*
X51287Y-36185D01*
X51282Y-36193D01*
X51276Y-36201D01*
X51268Y-36207D01*
X51260Y-36212D01*
X51251Y-36214D01*
X51241Y-36215D01*
X51232Y-36215D01*
X51223Y-36212D01*
X51214Y-36207D01*
X51207Y-36201D01*
X51200Y-36194D01*
X51196Y-36185D01*
X51193Y-36176D01*
X51192Y-36166D01*
X51192Y-36157D01*
X51195Y-36148D01*
X51199Y-36139D01*
X51206Y-36132D01*
X51213Y-36125D01*
X51221Y-36121D01*
X51231Y-36118D01*
X51240Y-36117D01*
X51249Y-36117D01*
X51259Y-36120D01*
X51267Y-36124D01*
X51275Y-36130D01*
X51281Y-36138D01*
X51286Y-36146D01*
X51289Y-36155D01*
X51290Y-36165D01*
X51291Y-36166D01*
X51691Y-36166D02*
X51291Y-36166D01*
X51291Y-36166D02*
X51291Y-35488D01*
X51290Y-35488D02*
X51690Y-35488D01*
X52247Y-35488D02*
X52647Y-35488D01*
X52647Y-35488D02*
X52647Y-36166D01*
X52648Y-36166D02*
X52248Y-36166D01*
X58771Y-35772D02*
X58770Y-35781D01*
X58767Y-35791D01*
X58762Y-35799D01*
X58756Y-35807D01*
X58748Y-35813D01*
X58740Y-35818D01*
X58731Y-35820D01*
X58721Y-35821D01*
X58712Y-35821D01*
X58703Y-35818D01*
X58694Y-35813D01*
X58687Y-35807D01*
X58680Y-35800D01*
X58676Y-35791D01*
X58673Y-35782D01*
X58672Y-35772D01*
X58672Y-35763D01*
X58675Y-35754D01*
X58679Y-35745D01*
X58686Y-35738D01*
X58693Y-35731D01*
X58701Y-35727D01*
X58711Y-35724D01*
X58720Y-35723D01*
X58729Y-35723D01*
X58739Y-35726D01*
X58747Y-35730D01*
X58755Y-35736D01*
X58761Y-35744D01*
X58766Y-35752D01*
X58769Y-35761D01*
X58770Y-35771D01*
X58771Y-35772D01*
X59171Y-35772D02*
X58771Y-35772D01*
X58771Y-35772D02*
X58771Y-35094D01*
X58770Y-35094D02*
X59170Y-35094D01*
X59727Y-35094D02*
X60127Y-35094D01*
X60127Y-35094D02*
X60127Y-35772D01*
X60128Y-35772D02*
X59728Y-35772D01*
X62589Y-39031D02*
X62588Y-39040D01*
X62585Y-39050D01*
X62580Y-39058D01*
X62574Y-39066D01*
X62566Y-39072D01*
X62558Y-39077D01*
X62549Y-39079D01*
X62539Y-39080D01*
X62530Y-39080D01*
X62521Y-39077D01*
X62512Y-39072D01*
X62505Y-39066D01*
X62498Y-39059D01*
X62494Y-39050D01*
X62491Y-39041D01*
X62490Y-39031D01*
X62490Y-39022D01*
X62493Y-39013D01*
X62497Y-39004D01*
X62504Y-38997D01*
X62511Y-38990D01*
X62519Y-38986D01*
X62529Y-38983D01*
X62538Y-38982D01*
X62547Y-38982D01*
X62557Y-38985D01*
X62565Y-38989D01*
X62573Y-38995D01*
X62579Y-39003D01*
X62584Y-39011D01*
X62587Y-39020D01*
X62588Y-39030D01*
X62589Y-39031D01*
X62089Y-39031D02*
X62489Y-39031D01*
X62489Y-39031D02*
X62489Y-39709D01*
X62490Y-39709D02*
X62090Y-39709D01*
X61533Y-39709D02*
X61133Y-39709D01*
X61133Y-39709D02*
X61133Y-39031D01*
X61132Y-39031D02*
X61532Y-39031D01*
X58771Y-38134D02*
X58770Y-38143D01*
X58767Y-38153D01*
X58762Y-38161D01*
X58756Y-38169D01*
X58748Y-38175D01*
X58740Y-38180D01*
X58731Y-38182D01*
X58721Y-38183D01*
X58712Y-38183D01*
X58703Y-38180D01*
X58694Y-38175D01*
X58687Y-38169D01*
X58680Y-38162D01*
X58676Y-38153D01*
X58673Y-38144D01*
X58672Y-38134D01*
X58672Y-38125D01*
X58675Y-38116D01*
X58679Y-38107D01*
X58686Y-38100D01*
X58693Y-38093D01*
X58701Y-38089D01*
X58711Y-38086D01*
X58720Y-38085D01*
X58729Y-38085D01*
X58739Y-38088D01*
X58747Y-38092D01*
X58755Y-38098D01*
X58761Y-38106D01*
X58766Y-38114D01*
X58769Y-38123D01*
X58770Y-38133D01*
X58771Y-38134D01*
X59171Y-38134D02*
X58771Y-38134D01*
X58771Y-38134D02*
X58771Y-37456D01*
X58770Y-37456D02*
X59170Y-37456D01*
X59727Y-37456D02*
X60127Y-37456D01*
X60127Y-37456D02*
X60127Y-38134D01*
X60128Y-38134D02*
X59728Y-38134D01*
X60227Y-38637D02*
X60226Y-38646D01*
X60223Y-38656D01*
X60218Y-38664D01*
X60212Y-38672D01*
X60204Y-38678D01*
X60196Y-38683D01*
X60187Y-38685D01*
X60177Y-38686D01*
X60168Y-38686D01*
X60159Y-38683D01*
X60150Y-38678D01*
X60143Y-38672D01*
X60136Y-38665D01*
X60132Y-38656D01*
X60129Y-38647D01*
X60128Y-38637D01*
X60128Y-38628D01*
X60131Y-38619D01*
X60135Y-38610D01*
X60142Y-38603D01*
X60149Y-38596D01*
X60157Y-38592D01*
X60167Y-38589D01*
X60176Y-38588D01*
X60185Y-38588D01*
X60195Y-38591D01*
X60203Y-38595D01*
X60211Y-38601D01*
X60217Y-38609D01*
X60222Y-38617D01*
X60225Y-38626D01*
X60226Y-38636D01*
X60227Y-38637D01*
X59727Y-38637D02*
X60127Y-38637D01*
X60127Y-38637D02*
X60127Y-39315D01*
X60128Y-39315D02*
X59728Y-39315D01*
X59171Y-39315D02*
X58771Y-39315D01*
X58771Y-39315D02*
X58771Y-38637D01*
X58770Y-38637D02*
X59170Y-38637D01*
X60227Y-42181D02*
X60226Y-42190D01*
X60223Y-42200D01*
X60218Y-42208D01*
X60212Y-42216D01*
X60204Y-42222D01*
X60196Y-42227D01*
X60187Y-42229D01*
X60177Y-42230D01*
X60168Y-42230D01*
X60159Y-42227D01*
X60150Y-42222D01*
X60143Y-42216D01*
X60136Y-42209D01*
X60132Y-42200D01*
X60129Y-42191D01*
X60128Y-42181D01*
X60128Y-42172D01*
X60131Y-42163D01*
X60135Y-42154D01*
X60142Y-42147D01*
X60149Y-42140D01*
X60157Y-42136D01*
X60167Y-42133D01*
X60176Y-42132D01*
X60185Y-42132D01*
X60195Y-42135D01*
X60203Y-42139D01*
X60211Y-42145D01*
X60217Y-42153D01*
X60222Y-42161D01*
X60225Y-42170D01*
X60226Y-42180D01*
X60227Y-42181D01*
X59727Y-42181D02*
X60127Y-42181D01*
X60127Y-42181D02*
X60127Y-42859D01*
X60128Y-42859D02*
X59728Y-42859D01*
X59171Y-42859D02*
X58771Y-42859D01*
X58771Y-42859D02*
X58771Y-42181D01*
X58770Y-42181D02*
X59170Y-42181D01*
X62795Y-45371D02*
X62794Y-45380D01*
X62791Y-45390D01*
X62786Y-45398D01*
X62780Y-45406D01*
X62772Y-45412D01*
X62764Y-45417D01*
X62755Y-45419D01*
X62745Y-45420D01*
X62736Y-45420D01*
X62727Y-45417D01*
X62718Y-45412D01*
X62711Y-45406D01*
X62704Y-45399D01*
X62700Y-45390D01*
X62697Y-45381D01*
X62696Y-45371D01*
X62696Y-45362D01*
X62699Y-45353D01*
X62703Y-45344D01*
X62710Y-45337D01*
X62717Y-45330D01*
X62725Y-45326D01*
X62735Y-45323D01*
X62744Y-45322D01*
X62753Y-45322D01*
X62763Y-45325D01*
X62771Y-45329D01*
X62779Y-45335D01*
X62785Y-45343D01*
X62790Y-45351D01*
X62793Y-45360D01*
X62794Y-45370D01*
X62795Y-45371D01*
X62745Y-45821D02*
X62745Y-45421D01*
X62745Y-45421D02*
X63423Y-45421D01*
X63423Y-45420D02*
X63423Y-45820D01*
X63423Y-46377D02*
X63423Y-46777D01*
X63423Y-46777D02*
X62745Y-46777D01*
X62745Y-46778D02*
X62745Y-46378D01*
X58771Y-40496D02*
X58770Y-40505D01*
X58767Y-40515D01*
X58762Y-40523D01*
X58756Y-40531D01*
X58748Y-40537D01*
X58740Y-40542D01*
X58731Y-40544D01*
X58721Y-40545D01*
X58712Y-40545D01*
X58703Y-40542D01*
X58694Y-40537D01*
X58687Y-40531D01*
X58680Y-40524D01*
X58676Y-40515D01*
X58673Y-40506D01*
X58672Y-40496D01*
X58672Y-40487D01*
X58675Y-40478D01*
X58679Y-40469D01*
X58686Y-40462D01*
X58693Y-40455D01*
X58701Y-40451D01*
X58711Y-40448D01*
X58720Y-40447D01*
X58729Y-40447D01*
X58739Y-40450D01*
X58747Y-40454D01*
X58755Y-40460D01*
X58761Y-40468D01*
X58766Y-40476D01*
X58769Y-40485D01*
X58770Y-40495D01*
X58771Y-40496D01*
X59171Y-40496D02*
X58771Y-40496D01*
X58771Y-40496D02*
X58771Y-39818D01*
X58770Y-39818D02*
X59170Y-39818D01*
X59727Y-39818D02*
X60127Y-39818D01*
X60127Y-39818D02*
X60127Y-40496D01*
X60128Y-40496D02*
X59728Y-40496D01*
X51570Y-44035D02*
X51569Y-44044D01*
X51566Y-44054D01*
X51561Y-44062D01*
X51555Y-44070D01*
X51547Y-44076D01*
X51539Y-44081D01*
X51530Y-44083D01*
X51520Y-44084D01*
X51511Y-44084D01*
X51502Y-44081D01*
X51493Y-44076D01*
X51486Y-44070D01*
X51479Y-44063D01*
X51475Y-44054D01*
X51472Y-44045D01*
X51471Y-44035D01*
X51471Y-44026D01*
X51474Y-44017D01*
X51478Y-44008D01*
X51485Y-44001D01*
X51492Y-43994D01*
X51500Y-43990D01*
X51510Y-43987D01*
X51519Y-43986D01*
X51528Y-43986D01*
X51538Y-43989D01*
X51546Y-43993D01*
X51554Y-43999D01*
X51560Y-44007D01*
X51565Y-44015D01*
X51568Y-44024D01*
X51569Y-44034D01*
X51570Y-44035D01*
X51520Y-43585D02*
X51520Y-43985D01*
X51520Y-43985D02*
X50842Y-43985D01*
X50842Y-43986D02*
X50842Y-43586D01*
X50842Y-43029D02*
X50842Y-42629D01*
X50842Y-42629D02*
X51520Y-42629D01*
X51520Y-42628D02*
X51520Y-43028D01*
X52358Y-40098D02*
X52357Y-40107D01*
X52354Y-40117D01*
X52349Y-40125D01*
X52343Y-40133D01*
X52335Y-40139D01*
X52327Y-40144D01*
X52318Y-40146D01*
X52308Y-40147D01*
X52299Y-40147D01*
X52290Y-40144D01*
X52281Y-40139D01*
X52274Y-40133D01*
X52267Y-40126D01*
X52263Y-40117D01*
X52260Y-40108D01*
X52259Y-40098D01*
X52259Y-40089D01*
X52262Y-40080D01*
X52266Y-40071D01*
X52273Y-40064D01*
X52280Y-40057D01*
X52288Y-40053D01*
X52298Y-40050D01*
X52307Y-40049D01*
X52316Y-40049D01*
X52326Y-40052D01*
X52334Y-40056D01*
X52342Y-40062D01*
X52348Y-40070D01*
X52353Y-40078D01*
X52356Y-40087D01*
X52357Y-40097D01*
X52358Y-40098D01*
X52308Y-39648D02*
X52308Y-40048D01*
X52308Y-40048D02*
X51630Y-40048D01*
X51630Y-40049D02*
X51630Y-39649D01*
X51630Y-39092D02*
X51630Y-38692D01*
X51630Y-38692D02*
X52308Y-38692D01*
X52308Y-38691D02*
X52308Y-39091D01*
X53145Y-44035D02*
X53144Y-44044D01*
X53141Y-44054D01*
X53136Y-44062D01*
X53130Y-44070D01*
X53122Y-44076D01*
X53114Y-44081D01*
X53105Y-44083D01*
X53095Y-44084D01*
X53086Y-44084D01*
X53077Y-44081D01*
X53068Y-44076D01*
X53061Y-44070D01*
X53054Y-44063D01*
X53050Y-44054D01*
X53047Y-44045D01*
X53046Y-44035D01*
X53046Y-44026D01*
X53049Y-44017D01*
X53053Y-44008D01*
X53060Y-44001D01*
X53067Y-43994D01*
X53075Y-43990D01*
X53085Y-43987D01*
X53094Y-43986D01*
X53103Y-43986D01*
X53113Y-43989D01*
X53121Y-43993D01*
X53129Y-43999D01*
X53135Y-44007D01*
X53140Y-44015D01*
X53143Y-44024D01*
X53144Y-44034D01*
X53145Y-44035D01*
X53095Y-43585D02*
X53095Y-43985D01*
X53095Y-43985D02*
X52417Y-43985D01*
X52417Y-43986D02*
X52417Y-43586D01*
X52417Y-43029D02*
X52417Y-42629D01*
X52417Y-42629D02*
X53095Y-42629D01*
X53095Y-42628D02*
X53095Y-43028D01*
X52358Y-38130D02*
X52357Y-38139D01*
X52354Y-38149D01*
X52349Y-38157D01*
X52343Y-38165D01*
X52335Y-38171D01*
X52327Y-38176D01*
X52318Y-38178D01*
X52308Y-38179D01*
X52299Y-38179D01*
X52290Y-38176D01*
X52281Y-38171D01*
X52274Y-38165D01*
X52267Y-38158D01*
X52263Y-38149D01*
X52260Y-38140D01*
X52259Y-38130D01*
X52259Y-38121D01*
X52262Y-38112D01*
X52266Y-38103D01*
X52273Y-38096D01*
X52280Y-38089D01*
X52288Y-38085D01*
X52298Y-38082D01*
X52307Y-38081D01*
X52316Y-38081D01*
X52326Y-38084D01*
X52334Y-38088D01*
X52342Y-38094D01*
X52348Y-38102D01*
X52353Y-38110D01*
X52356Y-38119D01*
X52357Y-38129D01*
X52358Y-38130D01*
X52308Y-37680D02*
X52308Y-38080D01*
X52308Y-38080D02*
X51630Y-38080D01*
X51630Y-38081D02*
X51630Y-37681D01*
X51630Y-37124D02*
X51630Y-36724D01*
X51630Y-36724D02*
X52308Y-36724D01*
X52308Y-36723D02*
X52308Y-37123D01*
X58771Y-41678D02*
X58770Y-41687D01*
X58767Y-41697D01*
X58762Y-41705D01*
X58756Y-41713D01*
X58748Y-41719D01*
X58740Y-41724D01*
X58731Y-41726D01*
X58721Y-41727D01*
X58712Y-41727D01*
X58703Y-41724D01*
X58694Y-41719D01*
X58687Y-41713D01*
X58680Y-41706D01*
X58676Y-41697D01*
X58673Y-41688D01*
X58672Y-41678D01*
X58672Y-41669D01*
X58675Y-41660D01*
X58679Y-41651D01*
X58686Y-41644D01*
X58693Y-41637D01*
X58701Y-41633D01*
X58711Y-41630D01*
X58720Y-41629D01*
X58729Y-41629D01*
X58739Y-41632D01*
X58747Y-41636D01*
X58755Y-41642D01*
X58761Y-41650D01*
X58766Y-41658D01*
X58769Y-41667D01*
X58770Y-41677D01*
X58771Y-41678D01*
X59171Y-41678D02*
X58771Y-41678D01*
X58771Y-41678D02*
X58771Y-41000D01*
X58770Y-41000D02*
X59170Y-41000D01*
X59727Y-41000D02*
X60127Y-41000D01*
X60127Y-41000D02*
X60127Y-41678D01*
X60128Y-41678D02*
X59728Y-41678D01*
X51419Y-41639D02*
X51419Y-42239D01*
X51419Y-42239D02*
X52519Y-42239D01*
X52519Y-42239D02*
X52519Y-41639D01*
X52519Y-41039D02*
X52519Y-40439D01*
X52519Y-40439D02*
X51419Y-40439D01*
X51419Y-40439D02*
X51419Y-41039D01*
G54D16*
X51900Y-44700D02*
X51900Y-47300D01*
X56100Y-47300D02*
X56100Y-44700D01*
X51900Y-44700D02*
X56100Y-44700D01*
X56100Y-47300D02*
X51900Y-47300D01*
X68900Y-44700D02*
X68900Y-47300D01*
X73100Y-47300D02*
X73100Y-44700D01*
X68900Y-44700D02*
X73100Y-44700D01*
X73100Y-47300D02*
X68900Y-47300D01*
X41900Y-44700D02*
X41900Y-47300D01*
X46100Y-47300D02*
X46100Y-44700D01*
X41900Y-44700D02*
X46100Y-44700D01*
X46100Y-47300D02*
X41900Y-47300D01*
X46900Y-44700D02*
X46900Y-47300D01*
X51100Y-47300D02*
X51100Y-44700D01*
X46900Y-44700D02*
X51100Y-44700D01*
X51100Y-47300D02*
X46900Y-47300D01*
X73900Y-44700D02*
X73900Y-47300D01*
X76100Y-47300D02*
X76100Y-44700D01*
X73900Y-44700D02*
X76100Y-44700D01*
X76100Y-47300D02*
X73900Y-47300D01*
G54D17*
X61000Y-40500D02*
X64000Y-40500D01*
X64000Y-42500D02*
X61000Y-42500D01*
X61000Y-42500D02*
X61000Y-40500D01*
X64000Y-40500D02*
X64000Y-42500D01*
G54D10*
X54500Y-44000D02*
X54500Y-43000D01*
X54500Y-43000D02*
X56500Y-43000D01*
X56500Y-43000D02*
X56500Y-44000D01*
X56500Y-44000D02*
X54500Y-44000D01*
G54D16*
X65900Y-44700D02*
X65900Y-47300D01*
X68100Y-47300D02*
X68100Y-44700D01*
X65900Y-44700D02*
X68100Y-44700D01*
X68100Y-47300D02*
X65900Y-47300D01*
G54D12*
X50000Y-41500D02*
X50000Y-34500D01*
X41000Y-34500D02*
X41000Y-41500D01*
X41000Y-34500D02*
X50000Y-34500D01*
X50000Y-41500D02*
X41000Y-41500D01*
X59174Y-33937D02*
X59174Y-34371D01*
X59174Y-34371D02*
X60512Y-34371D01*
X59174Y-32993D02*
X59174Y-32559D01*
X59174Y-32559D02*
X60512Y-32559D01*
G54D10*
X57177Y-34398D02*
X57177Y-33398D01*
X57177Y-33398D02*
X58177Y-33398D01*
X58177Y-33398D02*
X58177Y-34398D01*
X58177Y-34398D02*
X57177Y-34398D01*
X56744Y-45815D02*
X56744Y-44815D01*
X56744Y-44815D02*
X57744Y-44815D01*
X57744Y-44815D02*
X57744Y-45815D01*
X57744Y-45815D02*
X56744Y-45815D01*
X64028Y-45815D02*
X64028Y-44815D01*
X64028Y-44815D02*
X65028Y-44815D01*
X65028Y-44815D02*
X65028Y-45815D01*
X65028Y-45815D02*
X64028Y-45815D01*
X57728Y-47390D02*
X57728Y-46390D01*
X57728Y-46390D02*
X58728Y-46390D01*
X58728Y-46390D02*
X58728Y-47390D01*
X58728Y-47390D02*
X57728Y-47390D01*
X57650Y-36642D02*
X57650Y-35642D01*
X57650Y-35642D02*
X58650Y-35642D01*
X58650Y-35642D02*
X58650Y-36642D01*
X58650Y-36642D02*
X57650Y-36642D01*
X73988Y-44476D02*
X73988Y-43476D01*
X73988Y-43476D02*
X74988Y-43476D01*
X74988Y-43476D02*
X74988Y-44476D01*
X74988Y-44476D02*
X73988Y-44476D01*
X62886Y-34161D02*
X62886Y-33161D01*
X62886Y-33161D02*
X63886Y-33161D01*
X63886Y-33161D02*
X63886Y-34161D01*
X63886Y-34161D02*
X62886Y-34161D01*
X54028Y-33059D02*
X54028Y-32059D01*
X54028Y-32059D02*
X55028Y-32059D01*
X55028Y-32059D02*
X55028Y-33059D01*
X55028Y-33059D02*
X54028Y-33059D01*
X44382Y-34358D02*
X44382Y-33358D01*
X44382Y-33358D02*
X45382Y-33358D01*
X45382Y-33358D02*
X45382Y-34358D01*
X45382Y-34358D02*
X44382Y-34358D01*
X41508Y-34358D02*
X41508Y-33358D01*
X41508Y-33358D02*
X42508Y-33358D01*
X42508Y-33358D02*
X42508Y-34358D01*
X42508Y-34358D02*
X41508Y-34358D01*
X42492Y-34358D02*
X42492Y-33358D01*
X42492Y-33358D02*
X43492Y-33358D01*
X43492Y-33358D02*
X43492Y-34358D01*
X43492Y-34358D02*
X42492Y-34358D01*
X60169Y-38886D02*
X60169Y-37886D01*
X60169Y-37886D02*
X61169Y-37886D01*
X61169Y-37886D02*
X61169Y-38886D01*
X61169Y-38886D02*
X60169Y-38886D01*
X74106Y-32783D02*
X74106Y-31783D01*
X74106Y-31783D02*
X75106Y-31783D01*
X75106Y-31783D02*
X75106Y-32783D01*
X75106Y-32783D02*
X74106Y-32783D01*
X72728Y-32783D02*
X72728Y-31783D01*
X72728Y-31783D02*
X73728Y-31783D01*
X73728Y-31783D02*
X73728Y-32783D01*
X73728Y-32783D02*
X72728Y-32783D01*
X63476Y-36327D02*
X63476Y-35327D01*
X63476Y-35327D02*
X64476Y-35327D01*
X64476Y-35327D02*
X64476Y-36327D01*
X64476Y-36327D02*
X63476Y-36327D01*
X71980Y-44476D02*
X71980Y-43476D01*
X71980Y-43476D02*
X72980Y-43476D01*
X72980Y-43476D02*
X72980Y-44476D01*
X72980Y-44476D02*
X71980Y-44476D01*
G54D16*
X64022Y-38502D02*
X63422Y-38502D01*
X63850Y-38302D01*
X63422Y-38102D01*
X64022Y-38102D01*
X63422Y-37702D02*
X63422Y-37588D01*
X63450Y-37530D01*
X63508Y-37473D01*
X63622Y-37445D01*
X63822Y-37445D01*
X63936Y-37473D01*
X63993Y-37530D01*
X64022Y-37588D01*
X64022Y-37702D01*
X63993Y-37759D01*
X63936Y-37816D01*
X63822Y-37845D01*
X63622Y-37845D01*
X63508Y-37816D01*
X63450Y-37759D01*
X63422Y-37702D01*
X64022Y-37187D02*
X63422Y-37187D01*
X63422Y-37044D01*
X63450Y-36959D01*
X63508Y-36901D01*
X63565Y-36873D01*
X63679Y-36844D01*
X63765Y-36844D01*
X63879Y-36873D01*
X63936Y-36901D01*
X63993Y-36959D01*
X64022Y-37044D01*
X64022Y-37187D01*
X63479Y-36616D02*
X63450Y-36587D01*
X63422Y-36530D01*
X63422Y-36387D01*
X63450Y-36330D01*
X63479Y-36301D01*
X63536Y-36273D01*
X63593Y-36273D01*
X63679Y-36301D01*
X64022Y-36644D01*
X64022Y-36273D01*
X76966Y-38271D02*
X77566Y-37937D01*
X76966Y-37937D02*
X77566Y-38271D01*
X77252Y-37580D02*
X77280Y-37509D01*
X77309Y-37485D01*
X77366Y-37461D01*
X77452Y-37461D01*
X77509Y-37485D01*
X77537Y-37509D01*
X77566Y-37556D01*
X77566Y-37747D01*
X76966Y-37747D01*
X76966Y-37580D01*
X76994Y-37533D01*
X77023Y-37509D01*
X77080Y-37485D01*
X77137Y-37485D01*
X77194Y-37509D01*
X77223Y-37533D01*
X77252Y-37580D01*
X77252Y-37747D01*
X77252Y-37247D02*
X77252Y-37080D01*
X77566Y-37009D02*
X77566Y-37247D01*
X76966Y-37247D01*
X76966Y-37009D01*
X77252Y-36795D02*
X77252Y-36628D01*
X77566Y-36557D02*
X77566Y-36795D01*
X76966Y-36795D01*
X76966Y-36557D01*
G54D17*
X55207Y-35585D02*
X55207Y-35990D01*
X55226Y-36038D01*
X55245Y-36062D01*
X55283Y-36085D01*
X55360Y-36085D01*
X55398Y-36062D01*
X55417Y-36038D01*
X55436Y-35990D01*
X55436Y-35585D01*
X55607Y-35633D02*
X55626Y-35609D01*
X55664Y-35585D01*
X55760Y-35585D01*
X55798Y-35609D01*
X55817Y-35633D01*
X55836Y-35681D01*
X55836Y-35728D01*
X55817Y-35800D01*
X55588Y-36085D01*
X55836Y-36085D01*
X53574Y-41443D02*
X53765Y-41443D01*
X53536Y-41585D02*
X53669Y-41085D01*
X53803Y-41585D01*
X53879Y-41085D02*
X54108Y-41085D01*
X53993Y-41585D02*
X53993Y-41085D01*
X54241Y-41585D02*
X54241Y-41085D01*
X54375Y-41443D01*
X54508Y-41085D01*
X54508Y-41585D01*
X54698Y-41323D02*
X54832Y-41323D01*
X54889Y-41585D02*
X54698Y-41585D01*
X54698Y-41085D01*
X54889Y-41085D01*
X55270Y-41109D02*
X55232Y-41085D01*
X55175Y-41085D01*
X55117Y-41109D01*
X55079Y-41157D01*
X55060Y-41204D01*
X55041Y-41300D01*
X55041Y-41371D01*
X55060Y-41466D01*
X55079Y-41514D01*
X55117Y-41562D01*
X55175Y-41585D01*
X55213Y-41585D01*
X55270Y-41562D01*
X55289Y-41538D01*
X55289Y-41371D01*
X55213Y-41371D01*
X55441Y-41443D02*
X55632Y-41443D01*
X55403Y-41585D02*
X55536Y-41085D01*
X55670Y-41585D01*
X55860Y-41300D02*
X55822Y-41276D01*
X55803Y-41252D01*
X55784Y-41204D01*
X55784Y-41181D01*
X55803Y-41133D01*
X55822Y-41109D01*
X55860Y-41085D01*
X55937Y-41085D01*
X55975Y-41109D01*
X55994Y-41133D01*
X56013Y-41181D01*
X56013Y-41204D01*
X55994Y-41252D01*
X55975Y-41276D01*
X55937Y-41300D01*
X55860Y-41300D01*
X55822Y-41323D01*
X55803Y-41347D01*
X55784Y-41395D01*
X55784Y-41490D01*
X55803Y-41538D01*
X55822Y-41562D01*
X55860Y-41585D01*
X55937Y-41585D01*
X55975Y-41562D01*
X55994Y-41538D01*
X56013Y-41490D01*
X56013Y-41395D01*
X55994Y-41347D01*
X55975Y-41323D01*
X55937Y-41300D01*
X56241Y-41300D02*
X56203Y-41276D01*
X56184Y-41252D01*
X56165Y-41204D01*
X56165Y-41181D01*
X56184Y-41133D01*
X56203Y-41109D01*
X56241Y-41085D01*
X56318Y-41085D01*
X56356Y-41109D01*
X56375Y-41133D01*
X56394Y-41181D01*
X56394Y-41204D01*
X56375Y-41252D01*
X56356Y-41276D01*
X56318Y-41300D01*
X56241Y-41300D01*
X56203Y-41323D01*
X56184Y-41347D01*
X56165Y-41395D01*
X56165Y-41490D01*
X56184Y-41538D01*
X56203Y-41562D01*
X56241Y-41585D01*
X56318Y-41585D01*
X56356Y-41562D01*
X56375Y-41538D01*
X56394Y-41490D01*
X56394Y-41395D01*
X56375Y-41347D01*
X56356Y-41323D01*
X56318Y-41300D01*
X56565Y-41395D02*
X56870Y-41395D01*
X57041Y-41443D02*
X57232Y-41443D01*
X57003Y-41585D02*
X57136Y-41085D01*
X57270Y-41585D01*
X57403Y-41085D02*
X57403Y-41490D01*
X57422Y-41538D01*
X57441Y-41562D01*
X57479Y-41585D01*
X57556Y-41585D01*
X57594Y-41562D01*
X57613Y-41538D01*
X57632Y-41490D01*
X57632Y-41085D01*
G54D18*
X60905Y-44636D02*
X60905Y-44859D01*
X60918Y-44885D01*
X60931Y-44899D01*
X60957Y-44912D01*
X61010Y-44912D01*
X61036Y-44899D01*
X61049Y-44885D01*
X61062Y-44859D01*
X61062Y-44636D01*
X61338Y-44912D02*
X61181Y-44912D01*
X61259Y-44912D02*
X61259Y-44636D01*
X61233Y-44675D01*
X61207Y-44701D01*
X61181Y-44715D01*
G54D19*
X61741Y-36260D02*
X61711Y-36245D01*
X61681Y-36215D01*
X61636Y-36170D01*
X61606Y-36155D01*
X61576Y-36155D01*
X61591Y-36230D02*
X61561Y-36215D01*
X61531Y-36185D01*
X61516Y-36125D01*
X61516Y-36020D01*
X61531Y-35960D01*
X61561Y-35930D01*
X61591Y-35915D01*
X61651Y-35915D01*
X61681Y-35930D01*
X61711Y-35960D01*
X61726Y-36020D01*
X61726Y-36125D01*
X61711Y-36185D01*
X61681Y-36215D01*
X61651Y-36230D01*
X61591Y-36230D01*
X62026Y-36230D02*
X61846Y-36230D01*
X61936Y-36230D02*
X61936Y-35915D01*
X61906Y-35960D01*
X61876Y-35990D01*
X61846Y-36005D01*
X61782Y-36888D02*
X61752Y-36873D01*
X61722Y-36843D01*
X61677Y-36798D01*
X61647Y-36783D01*
X61617Y-36783D01*
X61632Y-36858D02*
X61602Y-36843D01*
X61572Y-36813D01*
X61557Y-36753D01*
X61557Y-36648D01*
X61572Y-36588D01*
X61602Y-36558D01*
X61632Y-36543D01*
X61692Y-36543D01*
X61722Y-36558D01*
X61752Y-36588D01*
X61767Y-36648D01*
X61767Y-36753D01*
X61752Y-36813D01*
X61722Y-36843D01*
X61692Y-36858D01*
X61632Y-36858D01*
X61887Y-36573D02*
X61902Y-36558D01*
X61932Y-36543D01*
X62007Y-36543D01*
X62037Y-36558D01*
X62052Y-36573D01*
X62067Y-36603D01*
X62067Y-36633D01*
X62052Y-36678D01*
X61872Y-36858D01*
X62067Y-36858D01*
G54D15*
X43802Y-43097D02*
X43552Y-43097D01*
X43552Y-43038D01*
X43564Y-43002D01*
X43588Y-42978D01*
X43612Y-42967D01*
X43659Y-42955D01*
X43695Y-42955D01*
X43743Y-42967D01*
X43766Y-42978D01*
X43790Y-43002D01*
X43802Y-43038D01*
X43802Y-43097D01*
X43636Y-42740D02*
X43802Y-42740D01*
X43540Y-42800D02*
X43719Y-42859D01*
X43719Y-42705D01*
X47739Y-43097D02*
X47489Y-43097D01*
X47489Y-43038D01*
X47501Y-43002D01*
X47525Y-42978D01*
X47549Y-42967D01*
X47596Y-42955D01*
X47632Y-42955D01*
X47680Y-42967D01*
X47703Y-42978D01*
X47727Y-43002D01*
X47739Y-43038D01*
X47739Y-43097D01*
X47596Y-42812D02*
X47584Y-42836D01*
X47573Y-42847D01*
X47549Y-42859D01*
X47537Y-42859D01*
X47513Y-42847D01*
X47501Y-42836D01*
X47489Y-42812D01*
X47489Y-42764D01*
X47501Y-42740D01*
X47513Y-42728D01*
X47537Y-42717D01*
X47549Y-42717D01*
X47573Y-42728D01*
X47584Y-42740D01*
X47596Y-42764D01*
X47596Y-42812D01*
X47608Y-42836D01*
X47620Y-42847D01*
X47644Y-42859D01*
X47692Y-42859D01*
X47715Y-42847D01*
X47727Y-42836D01*
X47739Y-42812D01*
X47739Y-42764D01*
X47727Y-42740D01*
X47715Y-42728D01*
X47692Y-42717D01*
X47644Y-42717D01*
X47620Y-42728D01*
X47608Y-42740D01*
X47596Y-42764D01*
X49392Y-43097D02*
X49142Y-43097D01*
X49142Y-43038D01*
X49154Y-43002D01*
X49178Y-42978D01*
X49202Y-42967D01*
X49249Y-42955D01*
X49285Y-42955D01*
X49333Y-42967D01*
X49356Y-42978D01*
X49380Y-43002D01*
X49392Y-43038D01*
X49392Y-43097D01*
X49142Y-42871D02*
X49142Y-42705D01*
X49392Y-42812D01*
X45770Y-43097D02*
X45520Y-43097D01*
X45520Y-43038D01*
X45532Y-43002D01*
X45556Y-42978D01*
X45580Y-42967D01*
X45627Y-42955D01*
X45663Y-42955D01*
X45711Y-42967D01*
X45734Y-42978D01*
X45758Y-43002D01*
X45770Y-43038D01*
X45770Y-43097D01*
X45520Y-42740D02*
X45520Y-42788D01*
X45532Y-42812D01*
X45544Y-42824D01*
X45580Y-42847D01*
X45627Y-42859D01*
X45723Y-42859D01*
X45746Y-42847D01*
X45758Y-42836D01*
X45770Y-42812D01*
X45770Y-42764D01*
X45758Y-42740D01*
X45746Y-42728D01*
X45723Y-42717D01*
X45663Y-42717D01*
X45639Y-42728D01*
X45627Y-42740D01*
X45615Y-42764D01*
X45615Y-42812D01*
X45627Y-42836D01*
X45639Y-42847D01*
X45663Y-42859D01*
X47424Y-43097D02*
X47174Y-43097D01*
X47174Y-43038D01*
X47186Y-43002D01*
X47210Y-42978D01*
X47234Y-42967D01*
X47281Y-42955D01*
X47317Y-42955D01*
X47365Y-42967D01*
X47388Y-42978D01*
X47412Y-43002D01*
X47424Y-43038D01*
X47424Y-43097D01*
X47174Y-42728D02*
X47174Y-42847D01*
X47293Y-42859D01*
X47281Y-42847D01*
X47269Y-42824D01*
X47269Y-42764D01*
X47281Y-42740D01*
X47293Y-42728D01*
X47317Y-42717D01*
X47377Y-42717D01*
X47400Y-42728D01*
X47412Y-42740D01*
X47424Y-42764D01*
X47424Y-42824D01*
X47412Y-42847D01*
X47400Y-42859D01*
X45455Y-43097D02*
X45205Y-43097D01*
X45205Y-43038D01*
X45217Y-43002D01*
X45241Y-42978D01*
X45265Y-42967D01*
X45312Y-42955D01*
X45348Y-42955D01*
X45396Y-42967D01*
X45419Y-42978D01*
X45443Y-43002D01*
X45455Y-43038D01*
X45455Y-43097D01*
X45205Y-42871D02*
X45205Y-42717D01*
X45300Y-42800D01*
X45300Y-42764D01*
X45312Y-42740D01*
X45324Y-42728D01*
X45348Y-42717D01*
X45408Y-42717D01*
X45431Y-42728D01*
X45443Y-42740D01*
X45455Y-42764D01*
X45455Y-42836D01*
X45443Y-42859D01*
X45431Y-42871D01*
X41833Y-43097D02*
X41583Y-43097D01*
X41583Y-43038D01*
X41595Y-43002D01*
X41619Y-42978D01*
X41643Y-42967D01*
X41690Y-42955D01*
X41726Y-42955D01*
X41774Y-42967D01*
X41797Y-42978D01*
X41821Y-43002D01*
X41833Y-43038D01*
X41833Y-43097D01*
X41607Y-42859D02*
X41595Y-42847D01*
X41583Y-42824D01*
X41583Y-42764D01*
X41595Y-42740D01*
X41607Y-42728D01*
X41631Y-42717D01*
X41655Y-42717D01*
X41690Y-42728D01*
X41833Y-42871D01*
X41833Y-42717D01*
X43487Y-43097D02*
X43237Y-43097D01*
X43237Y-43038D01*
X43249Y-43002D01*
X43273Y-42978D01*
X43297Y-42967D01*
X43344Y-42955D01*
X43380Y-42955D01*
X43428Y-42967D01*
X43451Y-42978D01*
X43475Y-43002D01*
X43487Y-43038D01*
X43487Y-43097D01*
X43487Y-42717D02*
X43487Y-42859D01*
X43487Y-42788D02*
X43237Y-42788D01*
X43273Y-42812D01*
X43297Y-42836D01*
X43309Y-42859D01*
X59736Y-46141D02*
X59748Y-46153D01*
X59760Y-46188D01*
X59760Y-46212D01*
X59748Y-46248D01*
X59724Y-46272D01*
X59701Y-46283D01*
X59653Y-46295D01*
X59617Y-46295D01*
X59570Y-46283D01*
X59546Y-46272D01*
X59522Y-46248D01*
X59510Y-46212D01*
X59510Y-46188D01*
X59522Y-46153D01*
X59534Y-46141D01*
X59760Y-45903D02*
X59760Y-46045D01*
X59760Y-45974D02*
X59510Y-45974D01*
X59546Y-45998D01*
X59570Y-46022D01*
X59582Y-46045D01*
X59407Y-37227D02*
X59324Y-37108D01*
X59265Y-37227D02*
X59265Y-36977D01*
X59360Y-36977D01*
X59384Y-36989D01*
X59395Y-37001D01*
X59407Y-37025D01*
X59407Y-37061D01*
X59395Y-37084D01*
X59384Y-37096D01*
X59360Y-37108D01*
X59265Y-37108D01*
X59503Y-37001D02*
X59515Y-36989D01*
X59538Y-36977D01*
X59598Y-36977D01*
X59622Y-36989D01*
X59634Y-37001D01*
X59645Y-37025D01*
X59645Y-37049D01*
X59634Y-37084D01*
X59491Y-37227D01*
X59645Y-37227D01*
X51927Y-35416D02*
X51844Y-35297D01*
X51785Y-35416D02*
X51785Y-35166D01*
X51880Y-35166D01*
X51904Y-35178D01*
X51915Y-35190D01*
X51927Y-35214D01*
X51927Y-35250D01*
X51915Y-35273D01*
X51904Y-35285D01*
X51880Y-35297D01*
X51785Y-35297D01*
X52165Y-35416D02*
X52023Y-35416D01*
X52094Y-35416D02*
X52094Y-35166D01*
X52070Y-35202D01*
X52046Y-35226D01*
X52023Y-35238D01*
X59407Y-35022D02*
X59324Y-34903D01*
X59265Y-35022D02*
X59265Y-34772D01*
X59360Y-34772D01*
X59384Y-34784D01*
X59395Y-34796D01*
X59407Y-34820D01*
X59407Y-34856D01*
X59395Y-34879D01*
X59384Y-34891D01*
X59360Y-34903D01*
X59265Y-34903D01*
X59491Y-34772D02*
X59645Y-34772D01*
X59562Y-34867D01*
X59598Y-34867D01*
X59622Y-34879D01*
X59634Y-34891D01*
X59645Y-34915D01*
X59645Y-34975D01*
X59634Y-34998D01*
X59622Y-35010D01*
X59598Y-35022D01*
X59526Y-35022D01*
X59503Y-35010D01*
X59491Y-34998D01*
X61769Y-39983D02*
X61686Y-39864D01*
X61627Y-39983D02*
X61627Y-39733D01*
X61722Y-39733D01*
X61746Y-39745D01*
X61757Y-39757D01*
X61769Y-39781D01*
X61769Y-39817D01*
X61757Y-39840D01*
X61746Y-39852D01*
X61722Y-39864D01*
X61627Y-39864D01*
X61984Y-39817D02*
X61984Y-39983D01*
X61924Y-39721D02*
X61865Y-39900D01*
X62019Y-39900D01*
X59407Y-37384D02*
X59324Y-37265D01*
X59265Y-37384D02*
X59265Y-37134D01*
X59360Y-37134D01*
X59384Y-37146D01*
X59395Y-37158D01*
X59407Y-37182D01*
X59407Y-37218D01*
X59395Y-37241D01*
X59384Y-37253D01*
X59360Y-37265D01*
X59265Y-37265D01*
X59634Y-37134D02*
X59515Y-37134D01*
X59503Y-37253D01*
X59515Y-37241D01*
X59538Y-37229D01*
X59598Y-37229D01*
X59622Y-37241D01*
X59634Y-37253D01*
X59645Y-37277D01*
X59645Y-37337D01*
X59634Y-37360D01*
X59622Y-37372D01*
X59598Y-37384D01*
X59538Y-37384D01*
X59515Y-37372D01*
X59503Y-37360D01*
X59407Y-39589D02*
X59324Y-39470D01*
X59265Y-39589D02*
X59265Y-39339D01*
X59360Y-39339D01*
X59384Y-39351D01*
X59395Y-39363D01*
X59407Y-39387D01*
X59407Y-39423D01*
X59395Y-39446D01*
X59384Y-39458D01*
X59360Y-39470D01*
X59265Y-39470D01*
X59622Y-39339D02*
X59574Y-39339D01*
X59550Y-39351D01*
X59538Y-39363D01*
X59515Y-39399D01*
X59503Y-39446D01*
X59503Y-39542D01*
X59515Y-39565D01*
X59526Y-39577D01*
X59550Y-39589D01*
X59598Y-39589D01*
X59622Y-39577D01*
X59634Y-39565D01*
X59645Y-39542D01*
X59645Y-39482D01*
X59634Y-39458D01*
X59622Y-39446D01*
X59598Y-39434D01*
X59550Y-39434D01*
X59526Y-39446D01*
X59515Y-39458D01*
X59503Y-39482D01*
X59408Y-43133D02*
X59289Y-43133D01*
X59289Y-42883D01*
X59621Y-43133D02*
X59479Y-43133D01*
X59550Y-43133D02*
X59550Y-42883D01*
X59526Y-42919D01*
X59502Y-42943D01*
X59479Y-42955D01*
X63673Y-46141D02*
X63685Y-46153D01*
X63697Y-46188D01*
X63697Y-46212D01*
X63685Y-46248D01*
X63661Y-46272D01*
X63638Y-46283D01*
X63590Y-46295D01*
X63554Y-46295D01*
X63507Y-46283D01*
X63483Y-46272D01*
X63459Y-46248D01*
X63447Y-46212D01*
X63447Y-46188D01*
X63459Y-46153D01*
X63471Y-46141D01*
X63471Y-46045D02*
X63459Y-46033D01*
X63447Y-46010D01*
X63447Y-45950D01*
X63459Y-45926D01*
X63471Y-45914D01*
X63495Y-45903D01*
X63519Y-45903D01*
X63554Y-45914D01*
X63697Y-46057D01*
X63697Y-45903D01*
X59407Y-39722D02*
X59395Y-39734D01*
X59360Y-39746D01*
X59336Y-39746D01*
X59300Y-39734D01*
X59276Y-39710D01*
X59265Y-39687D01*
X59253Y-39639D01*
X59253Y-39603D01*
X59265Y-39556D01*
X59276Y-39532D01*
X59300Y-39508D01*
X59336Y-39496D01*
X59360Y-39496D01*
X59395Y-39508D01*
X59407Y-39520D01*
X59491Y-39496D02*
X59645Y-39496D01*
X59562Y-39591D01*
X59598Y-39591D01*
X59622Y-39603D01*
X59634Y-39615D01*
X59645Y-39639D01*
X59645Y-39699D01*
X59634Y-39722D01*
X59622Y-39734D01*
X59598Y-39746D01*
X59526Y-39746D01*
X59503Y-39734D01*
X59491Y-39722D01*
X50746Y-43349D02*
X50758Y-43361D01*
X50770Y-43396D01*
X50770Y-43420D01*
X50758Y-43456D01*
X50734Y-43480D01*
X50711Y-43491D01*
X50663Y-43503D01*
X50627Y-43503D01*
X50580Y-43491D01*
X50556Y-43480D01*
X50532Y-43456D01*
X50520Y-43420D01*
X50520Y-43396D01*
X50532Y-43361D01*
X50544Y-43349D01*
X50604Y-43134D02*
X50770Y-43134D01*
X50508Y-43194D02*
X50687Y-43253D01*
X50687Y-43099D01*
X51534Y-39412D02*
X51546Y-39424D01*
X51558Y-39459D01*
X51558Y-39483D01*
X51546Y-39519D01*
X51522Y-39543D01*
X51499Y-39554D01*
X51451Y-39566D01*
X51415Y-39566D01*
X51368Y-39554D01*
X51344Y-39543D01*
X51320Y-39519D01*
X51308Y-39483D01*
X51308Y-39459D01*
X51320Y-39424D01*
X51332Y-39412D01*
X51308Y-39185D02*
X51308Y-39304D01*
X51427Y-39316D01*
X51415Y-39304D01*
X51403Y-39281D01*
X51403Y-39221D01*
X51415Y-39197D01*
X51427Y-39185D01*
X51451Y-39174D01*
X51511Y-39174D01*
X51534Y-39185D01*
X51546Y-39197D01*
X51558Y-39221D01*
X51558Y-39281D01*
X51546Y-39304D01*
X51534Y-39316D01*
X52321Y-43349D02*
X52333Y-43361D01*
X52345Y-43396D01*
X52345Y-43420D01*
X52333Y-43456D01*
X52309Y-43480D01*
X52286Y-43491D01*
X52238Y-43503D01*
X52202Y-43503D01*
X52155Y-43491D01*
X52131Y-43480D01*
X52107Y-43456D01*
X52095Y-43420D01*
X52095Y-43396D01*
X52107Y-43361D01*
X52119Y-43349D01*
X52095Y-43134D02*
X52095Y-43182D01*
X52107Y-43206D01*
X52119Y-43218D01*
X52155Y-43241D01*
X52202Y-43253D01*
X52298Y-43253D01*
X52321Y-43241D01*
X52333Y-43230D01*
X52345Y-43206D01*
X52345Y-43158D01*
X52333Y-43134D01*
X52321Y-43122D01*
X52298Y-43111D01*
X52238Y-43111D01*
X52214Y-43122D01*
X52202Y-43134D01*
X52190Y-43158D01*
X52190Y-43206D01*
X52202Y-43230D01*
X52214Y-43241D01*
X52238Y-43253D01*
X51534Y-37444D02*
X51546Y-37456D01*
X51558Y-37491D01*
X51558Y-37515D01*
X51546Y-37551D01*
X51522Y-37575D01*
X51499Y-37586D01*
X51451Y-37598D01*
X51415Y-37598D01*
X51368Y-37586D01*
X51344Y-37575D01*
X51320Y-37551D01*
X51308Y-37515D01*
X51308Y-37491D01*
X51320Y-37456D01*
X51332Y-37444D01*
X51308Y-37360D02*
X51308Y-37194D01*
X51558Y-37301D01*
X59407Y-40904D02*
X59395Y-40916D01*
X59360Y-40928D01*
X59336Y-40928D01*
X59300Y-40916D01*
X59276Y-40892D01*
X59265Y-40869D01*
X59253Y-40821D01*
X59253Y-40785D01*
X59265Y-40738D01*
X59276Y-40714D01*
X59300Y-40690D01*
X59336Y-40678D01*
X59360Y-40678D01*
X59395Y-40690D01*
X59407Y-40702D01*
X59550Y-40785D02*
X59526Y-40773D01*
X59515Y-40762D01*
X59503Y-40738D01*
X59503Y-40726D01*
X59515Y-40702D01*
X59526Y-40690D01*
X59550Y-40678D01*
X59598Y-40678D01*
X59622Y-40690D01*
X59634Y-40702D01*
X59645Y-40726D01*
X59645Y-40738D01*
X59634Y-40762D01*
X59622Y-40773D01*
X59598Y-40785D01*
X59550Y-40785D01*
X59526Y-40797D01*
X59515Y-40809D01*
X59503Y-40833D01*
X59503Y-40881D01*
X59515Y-40904D01*
X59526Y-40916D01*
X59550Y-40928D01*
X59598Y-40928D01*
X59622Y-40916D01*
X59634Y-40904D01*
X59645Y-40881D01*
X59645Y-40833D01*
X59634Y-40809D01*
X59622Y-40797D01*
X59598Y-40785D01*
X51003Y-41582D02*
X51303Y-41382D01*
X51003Y-41382D02*
X51303Y-41582D01*
X51303Y-41110D02*
X51303Y-41282D01*
X51303Y-41196D02*
X51003Y-41196D01*
X51046Y-41225D01*
X51075Y-41253D01*
X51089Y-41282D01*
X52889Y-42032D02*
X52903Y-42046D01*
X52917Y-42089D01*
X52917Y-42118D01*
X52903Y-42161D01*
X52875Y-42189D01*
X52846Y-42204D01*
X52789Y-42218D01*
X52746Y-42218D01*
X52689Y-42204D01*
X52660Y-42189D01*
X52632Y-42161D01*
X52617Y-42118D01*
X52617Y-42089D01*
X52632Y-42046D01*
X52646Y-42032D01*
X52917Y-41732D02*
X52775Y-41832D01*
X52917Y-41904D02*
X52617Y-41904D01*
X52617Y-41789D01*
X52632Y-41761D01*
X52646Y-41746D01*
X52675Y-41732D01*
X52717Y-41732D01*
X52746Y-41746D01*
X52760Y-41761D01*
X52775Y-41789D01*
X52775Y-41904D01*
X52775Y-41546D02*
X52917Y-41546D01*
X52617Y-41646D02*
X52775Y-41546D01*
X52617Y-41446D01*
X52903Y-41361D02*
X52917Y-41318D01*
X52917Y-41247D01*
X52903Y-41218D01*
X52889Y-41204D01*
X52860Y-41189D01*
X52832Y-41189D01*
X52803Y-41204D01*
X52789Y-41218D01*
X52775Y-41247D01*
X52760Y-41304D01*
X52746Y-41332D01*
X52732Y-41347D01*
X52703Y-41361D01*
X52675Y-41361D01*
X52646Y-41347D01*
X52632Y-41332D01*
X52617Y-41304D01*
X52617Y-41232D01*
X52632Y-41189D01*
X52617Y-41103D02*
X52617Y-40932D01*
X52917Y-41018D02*
X52617Y-41018D01*
X52832Y-40846D02*
X52832Y-40703D01*
X52917Y-40874D02*
X52617Y-40774D01*
X52917Y-40674D01*
X52917Y-40432D02*
X52917Y-40575D01*
X52617Y-40575D01*
G54D17*
X53705Y-44162D02*
X53705Y-43762D01*
X53858Y-43762D01*
X53896Y-43781D01*
X53915Y-43800D01*
X53934Y-43838D01*
X53934Y-43895D01*
X53915Y-43933D01*
X53896Y-43952D01*
X53858Y-43971D01*
X53705Y-43971D01*
X54162Y-43933D02*
X54124Y-43914D01*
X54105Y-43895D01*
X54086Y-43857D01*
X54086Y-43838D01*
X54105Y-43800D01*
X54124Y-43781D01*
X54162Y-43762D01*
X54239Y-43762D01*
X54277Y-43781D01*
X54296Y-43800D01*
X54315Y-43838D01*
X54315Y-43857D01*
X54296Y-43895D01*
X54277Y-43914D01*
X54239Y-43933D01*
X54162Y-43933D01*
X54124Y-43952D01*
X54105Y-43971D01*
X54086Y-44010D01*
X54086Y-44086D01*
X54105Y-44124D01*
X54124Y-44143D01*
X54162Y-44162D01*
X54239Y-44162D01*
X54277Y-44143D01*
X54296Y-44124D01*
X54315Y-44086D01*
X54315Y-44010D01*
X54296Y-43971D01*
X54277Y-43952D01*
X54239Y-43933D01*
X70705Y-44162D02*
X70705Y-43762D01*
X70858Y-43762D01*
X70896Y-43781D01*
X70915Y-43800D01*
X70934Y-43838D01*
X70934Y-43895D01*
X70915Y-43933D01*
X70896Y-43952D01*
X70858Y-43971D01*
X70705Y-43971D01*
X71067Y-43762D02*
X71334Y-43762D01*
X71162Y-44162D01*
X43705Y-44162D02*
X43705Y-43762D01*
X43858Y-43762D01*
X43896Y-43781D01*
X43915Y-43800D01*
X43934Y-43838D01*
X43934Y-43895D01*
X43915Y-43933D01*
X43896Y-43952D01*
X43858Y-43971D01*
X43705Y-43971D01*
X44296Y-43762D02*
X44105Y-43762D01*
X44086Y-43952D01*
X44105Y-43933D01*
X44143Y-43914D01*
X44239Y-43914D01*
X44277Y-43933D01*
X44296Y-43952D01*
X44315Y-43990D01*
X44315Y-44086D01*
X44296Y-44124D01*
X44277Y-44143D01*
X44239Y-44162D01*
X44143Y-44162D01*
X44105Y-44143D01*
X44086Y-44124D01*
X48705Y-44162D02*
X48705Y-43762D01*
X48858Y-43762D01*
X48896Y-43781D01*
X48915Y-43800D01*
X48934Y-43838D01*
X48934Y-43895D01*
X48915Y-43933D01*
X48896Y-43952D01*
X48858Y-43971D01*
X48705Y-43971D01*
X49315Y-44162D02*
X49086Y-44162D01*
X49200Y-44162D02*
X49200Y-43762D01*
X49162Y-43819D01*
X49124Y-43857D01*
X49086Y-43876D01*
X74705Y-44162D02*
X74705Y-43762D01*
X74858Y-43762D01*
X74896Y-43781D01*
X74915Y-43800D01*
X74934Y-43838D01*
X74934Y-43895D01*
X74915Y-43933D01*
X74896Y-43952D01*
X74858Y-43971D01*
X74705Y-43971D01*
X75277Y-43762D02*
X75200Y-43762D01*
X75162Y-43781D01*
X75143Y-43800D01*
X75105Y-43857D01*
X75086Y-43933D01*
X75086Y-44086D01*
X75105Y-44124D01*
X75124Y-44143D01*
X75162Y-44162D01*
X75239Y-44162D01*
X75277Y-44143D01*
X75296Y-44124D01*
X75315Y-44086D01*
X75315Y-43990D01*
X75296Y-43952D01*
X75277Y-43933D01*
X75239Y-43914D01*
X75162Y-43914D01*
X75124Y-43933D01*
X75105Y-43952D01*
X75086Y-43990D01*
X61919Y-43162D02*
X61919Y-42762D01*
X62090Y-43143D02*
X62147Y-43162D01*
X62243Y-43162D01*
X62281Y-43143D01*
X62300Y-43124D01*
X62319Y-43086D01*
X62319Y-43048D01*
X62300Y-43010D01*
X62281Y-42990D01*
X62243Y-42971D01*
X62166Y-42952D01*
X62128Y-42933D01*
X62109Y-42914D01*
X62090Y-42876D01*
X62090Y-42838D01*
X62109Y-42800D01*
X62128Y-42781D01*
X62166Y-42762D01*
X62262Y-42762D01*
X62319Y-42781D01*
X62490Y-43162D02*
X62490Y-42762D01*
X62643Y-42762D01*
X62681Y-42781D01*
X62700Y-42800D01*
X62719Y-42838D01*
X62719Y-42895D01*
X62700Y-42933D01*
X62681Y-42952D01*
X62643Y-42971D01*
X62490Y-42971D01*
X63100Y-43162D02*
X62871Y-43162D01*
X62985Y-43162D02*
X62985Y-42762D01*
X62947Y-42819D01*
X62909Y-42857D01*
X62871Y-42876D01*
G54D10*
X55328Y-42821D02*
X55328Y-42521D01*
X55443Y-42521D01*
X55471Y-42536D01*
X55486Y-42550D01*
X55500Y-42579D01*
X55500Y-42621D01*
X55486Y-42650D01*
X55471Y-42664D01*
X55443Y-42679D01*
X55328Y-42679D01*
X55757Y-42621D02*
X55757Y-42821D01*
X55686Y-42507D02*
X55614Y-42721D01*
X55800Y-42721D01*
G54D17*
X66705Y-44162D02*
X66705Y-43762D01*
X66858Y-43762D01*
X66896Y-43781D01*
X66915Y-43800D01*
X66934Y-43838D01*
X66934Y-43895D01*
X66915Y-43933D01*
X66896Y-43952D01*
X66858Y-43971D01*
X66705Y-43971D01*
X67086Y-43800D02*
X67105Y-43781D01*
X67143Y-43762D01*
X67239Y-43762D01*
X67277Y-43781D01*
X67296Y-43800D01*
X67315Y-43838D01*
X67315Y-43876D01*
X67296Y-43933D01*
X67067Y-44162D01*
X67315Y-44162D01*
G54D20*
X42243Y-38825D02*
X41643Y-38825D01*
X42071Y-38675D01*
X41643Y-38525D01*
X42243Y-38525D01*
X41643Y-38225D02*
X41643Y-38139D01*
X41671Y-38097D01*
X41729Y-38054D01*
X41843Y-38032D01*
X42043Y-38032D01*
X42157Y-38054D01*
X42214Y-38097D01*
X42243Y-38139D01*
X42243Y-38225D01*
X42214Y-38268D01*
X42157Y-38311D01*
X42043Y-38332D01*
X41843Y-38332D01*
X41729Y-38311D01*
X41671Y-38268D01*
X41643Y-38225D01*
X42243Y-37840D02*
X41643Y-37840D01*
X41643Y-37733D01*
X41671Y-37668D01*
X41729Y-37626D01*
X41786Y-37604D01*
X41900Y-37583D01*
X41986Y-37583D01*
X42100Y-37604D01*
X42157Y-37626D01*
X42214Y-37668D01*
X42243Y-37733D01*
X42243Y-37840D01*
X42243Y-37154D02*
X42243Y-37411D01*
X42243Y-37283D02*
X41643Y-37283D01*
X41729Y-37326D01*
X41786Y-37368D01*
X41814Y-37411D01*
X48143Y-40754D02*
X48143Y-40497D01*
X48743Y-40626D02*
X48143Y-40626D01*
X48429Y-40197D02*
X48457Y-40133D01*
X48486Y-40111D01*
X48543Y-40090D01*
X48629Y-40090D01*
X48686Y-40111D01*
X48714Y-40133D01*
X48743Y-40175D01*
X48743Y-40347D01*
X48143Y-40347D01*
X48143Y-40197D01*
X48171Y-40154D01*
X48200Y-40133D01*
X48257Y-40111D01*
X48314Y-40111D01*
X48371Y-40133D01*
X48400Y-40154D01*
X48429Y-40197D01*
X48429Y-40347D01*
X48143Y-39704D02*
X48143Y-39790D01*
X48171Y-39833D01*
X48200Y-39854D01*
X48286Y-39897D01*
X48400Y-39918D01*
X48629Y-39918D01*
X48686Y-39897D01*
X48714Y-39875D01*
X48743Y-39833D01*
X48743Y-39747D01*
X48714Y-39704D01*
X48686Y-39683D01*
X48629Y-39661D01*
X48486Y-39661D01*
X48429Y-39683D01*
X48400Y-39704D01*
X48371Y-39747D01*
X48371Y-39833D01*
X48400Y-39875D01*
X48429Y-39897D01*
X48486Y-39918D01*
X48143Y-39275D02*
X48143Y-39361D01*
X48171Y-39404D01*
X48200Y-39425D01*
X48286Y-39468D01*
X48400Y-39489D01*
X48629Y-39489D01*
X48686Y-39468D01*
X48714Y-39446D01*
X48743Y-39404D01*
X48743Y-39318D01*
X48714Y-39275D01*
X48686Y-39254D01*
X48629Y-39232D01*
X48486Y-39232D01*
X48429Y-39254D01*
X48400Y-39275D01*
X48371Y-39318D01*
X48371Y-39404D01*
X48400Y-39446D01*
X48429Y-39468D01*
X48486Y-39489D01*
X48743Y-38803D02*
X48743Y-39060D01*
X48743Y-38932D02*
X48143Y-38932D01*
X48229Y-38975D01*
X48286Y-39017D01*
X48314Y-39060D01*
X48200Y-38631D02*
X48171Y-38610D01*
X48143Y-38567D01*
X48143Y-38460D01*
X48171Y-38417D01*
X48200Y-38396D01*
X48257Y-38374D01*
X48314Y-38374D01*
X48400Y-38396D01*
X48743Y-38653D01*
X48743Y-38374D01*
X48429Y-38031D02*
X48429Y-38181D01*
X48743Y-38181D02*
X48143Y-38181D01*
X48143Y-37967D01*
X48743Y-37795D02*
X48143Y-37795D01*
X48743Y-37538D01*
X48143Y-37538D01*
X48171Y-37088D02*
X48143Y-37131D01*
X48143Y-37195D01*
X48171Y-37260D01*
X48229Y-37302D01*
X48286Y-37324D01*
X48400Y-37345D01*
X48486Y-37345D01*
X48600Y-37324D01*
X48657Y-37302D01*
X48714Y-37260D01*
X48743Y-37195D01*
X48743Y-37152D01*
X48714Y-37088D01*
X48686Y-37067D01*
X48486Y-37067D01*
X48486Y-37152D01*
X48800Y-36981D02*
X48800Y-36638D01*
X48743Y-36531D02*
X48143Y-36531D01*
X48571Y-36381D01*
X48143Y-36231D01*
X48743Y-36231D01*
X48143Y-35931D02*
X48143Y-35845D01*
X48171Y-35803D01*
X48229Y-35760D01*
X48343Y-35738D01*
X48543Y-35738D01*
X48657Y-35760D01*
X48714Y-35803D01*
X48743Y-35845D01*
X48743Y-35931D01*
X48714Y-35974D01*
X48657Y-36017D01*
X48543Y-36038D01*
X48343Y-36038D01*
X48229Y-36017D01*
X48171Y-35974D01*
X48143Y-35931D01*
X48743Y-35546D02*
X48143Y-35546D01*
X48143Y-35439D01*
X48171Y-35374D01*
X48229Y-35332D01*
X48286Y-35310D01*
X48400Y-35289D01*
X48486Y-35289D01*
X48600Y-35310D01*
X48657Y-35332D01*
X48714Y-35374D01*
X48743Y-35439D01*
X48743Y-35546D01*
G54D16*
X49429Y-39943D02*
X49457Y-39857D01*
X49486Y-39829D01*
X49543Y-39800D01*
X49629Y-39800D01*
X49686Y-39829D01*
X49714Y-39857D01*
X49743Y-39915D01*
X49743Y-40143D01*
X49143Y-40143D01*
X49143Y-39943D01*
X49171Y-39886D01*
X49200Y-39857D01*
X49257Y-39829D01*
X49314Y-39829D01*
X49371Y-39857D01*
X49400Y-39886D01*
X49429Y-39943D01*
X49429Y-40143D01*
X49743Y-39200D02*
X49457Y-39400D01*
X49743Y-39543D02*
X49143Y-39543D01*
X49143Y-39315D01*
X49171Y-39257D01*
X49200Y-39229D01*
X49257Y-39200D01*
X49343Y-39200D01*
X49400Y-39229D01*
X49429Y-39257D01*
X49457Y-39315D01*
X49457Y-39543D01*
X49429Y-38943D02*
X49429Y-38743D01*
X49743Y-38657D02*
X49743Y-38943D01*
X49143Y-38943D01*
X49143Y-38657D01*
X49571Y-38429D02*
X49571Y-38143D01*
X49743Y-38486D02*
X49143Y-38286D01*
X49743Y-38086D01*
X49743Y-37886D02*
X49143Y-37886D01*
X49743Y-37543D02*
X49400Y-37800D01*
X49143Y-37543D02*
X49486Y-37886D01*
X49143Y-37172D02*
X49143Y-37058D01*
X49171Y-37000D01*
X49229Y-36943D01*
X49343Y-36915D01*
X49543Y-36915D01*
X49657Y-36943D01*
X49714Y-37000D01*
X49743Y-37058D01*
X49743Y-37172D01*
X49714Y-37229D01*
X49657Y-37286D01*
X49543Y-37315D01*
X49343Y-37315D01*
X49229Y-37286D01*
X49171Y-37229D01*
X49143Y-37172D01*
X49143Y-36657D02*
X49629Y-36657D01*
X49686Y-36629D01*
X49714Y-36600D01*
X49743Y-36543D01*
X49743Y-36429D01*
X49714Y-36371D01*
X49686Y-36343D01*
X49629Y-36314D01*
X49143Y-36314D01*
X49143Y-36114D02*
X49143Y-35771D01*
X49743Y-35942D02*
X49143Y-35942D01*
X61586Y-33821D02*
X61300Y-34021D01*
X61586Y-34164D02*
X60986Y-34164D01*
X60986Y-33936D01*
X61014Y-33878D01*
X61043Y-33850D01*
X61100Y-33821D01*
X61186Y-33821D01*
X61243Y-33850D01*
X61272Y-33878D01*
X61300Y-33936D01*
X61300Y-34164D01*
X60986Y-33650D02*
X61586Y-33450D01*
X60986Y-33250D01*
X61586Y-32736D02*
X61586Y-33079D01*
X61586Y-32907D02*
X60986Y-32907D01*
X61072Y-32964D01*
X61129Y-33022D01*
X61157Y-33079D01*
G54D10*
X57455Y-33269D02*
X57455Y-32969D01*
X57570Y-32969D01*
X57598Y-32984D01*
X57613Y-32998D01*
X57627Y-33027D01*
X57627Y-33069D01*
X57613Y-33098D01*
X57598Y-33112D01*
X57570Y-33127D01*
X57455Y-33127D01*
X57727Y-32969D02*
X57913Y-32969D01*
X57813Y-33084D01*
X57855Y-33084D01*
X57884Y-33098D01*
X57898Y-33112D01*
X57913Y-33141D01*
X57913Y-33212D01*
X57898Y-33241D01*
X57884Y-33255D01*
X57855Y-33269D01*
X57770Y-33269D01*
X57741Y-33255D01*
X57727Y-33241D01*
X57022Y-44686D02*
X57022Y-44386D01*
X57137Y-44386D01*
X57165Y-44401D01*
X57180Y-44415D01*
X57194Y-44444D01*
X57194Y-44486D01*
X57180Y-44515D01*
X57165Y-44529D01*
X57137Y-44544D01*
X57022Y-44544D01*
X57337Y-44686D02*
X57394Y-44686D01*
X57422Y-44672D01*
X57437Y-44658D01*
X57465Y-44615D01*
X57480Y-44558D01*
X57480Y-44444D01*
X57465Y-44415D01*
X57451Y-44401D01*
X57422Y-44386D01*
X57365Y-44386D01*
X57337Y-44401D01*
X57322Y-44415D01*
X57308Y-44444D01*
X57308Y-44515D01*
X57322Y-44544D01*
X57337Y-44558D01*
X57365Y-44572D01*
X57422Y-44572D01*
X57451Y-44558D01*
X57465Y-44544D01*
X57480Y-44515D01*
X64163Y-44686D02*
X64163Y-44386D01*
X64278Y-44386D01*
X64306Y-44401D01*
X64321Y-44415D01*
X64335Y-44444D01*
X64335Y-44486D01*
X64321Y-44515D01*
X64306Y-44529D01*
X64278Y-44544D01*
X64163Y-44544D01*
X64621Y-44686D02*
X64449Y-44686D01*
X64535Y-44686D02*
X64535Y-44386D01*
X64506Y-44429D01*
X64478Y-44458D01*
X64449Y-44472D01*
X64807Y-44386D02*
X64835Y-44386D01*
X64864Y-44401D01*
X64878Y-44415D01*
X64892Y-44444D01*
X64907Y-44501D01*
X64907Y-44572D01*
X64892Y-44629D01*
X64878Y-44658D01*
X64864Y-44672D01*
X64835Y-44686D01*
X64807Y-44686D01*
X64778Y-44672D01*
X64764Y-44658D01*
X64749Y-44629D01*
X64735Y-44572D01*
X64735Y-44501D01*
X64749Y-44444D01*
X64764Y-44415D01*
X64778Y-44401D01*
X64807Y-44386D01*
X57863Y-46261D02*
X57863Y-45961D01*
X57978Y-45961D01*
X58006Y-45976D01*
X58021Y-45990D01*
X58035Y-46019D01*
X58035Y-46061D01*
X58021Y-46090D01*
X58006Y-46104D01*
X57978Y-46119D01*
X57863Y-46119D01*
X58321Y-46261D02*
X58149Y-46261D01*
X58235Y-46261D02*
X58235Y-45961D01*
X58206Y-46004D01*
X58178Y-46033D01*
X58149Y-46047D01*
X58607Y-46261D02*
X58435Y-46261D01*
X58521Y-46261D02*
X58521Y-45961D01*
X58492Y-46004D01*
X58464Y-46033D01*
X58435Y-46047D01*
X57785Y-35513D02*
X57785Y-35213D01*
X57900Y-35213D01*
X57928Y-35228D01*
X57943Y-35242D01*
X57957Y-35271D01*
X57957Y-35313D01*
X57943Y-35342D01*
X57928Y-35356D01*
X57900Y-35371D01*
X57785Y-35371D01*
X58243Y-35513D02*
X58071Y-35513D01*
X58157Y-35513D02*
X58157Y-35213D01*
X58128Y-35256D01*
X58100Y-35285D01*
X58071Y-35299D01*
X58357Y-35242D02*
X58371Y-35228D01*
X58400Y-35213D01*
X58471Y-35213D01*
X58500Y-35228D01*
X58514Y-35242D01*
X58529Y-35271D01*
X58529Y-35299D01*
X58514Y-35342D01*
X58343Y-35513D01*
X58529Y-35513D01*
X74123Y-43347D02*
X74123Y-43047D01*
X74238Y-43047D01*
X74266Y-43062D01*
X74281Y-43076D01*
X74295Y-43105D01*
X74295Y-43147D01*
X74281Y-43176D01*
X74266Y-43190D01*
X74238Y-43205D01*
X74123Y-43205D01*
X74581Y-43347D02*
X74409Y-43347D01*
X74495Y-43347D02*
X74495Y-43047D01*
X74466Y-43090D01*
X74438Y-43119D01*
X74409Y-43133D01*
X74681Y-43047D02*
X74867Y-43047D01*
X74767Y-43162D01*
X74809Y-43162D01*
X74838Y-43176D01*
X74852Y-43190D01*
X74867Y-43219D01*
X74867Y-43290D01*
X74852Y-43319D01*
X74838Y-43333D01*
X74809Y-43347D01*
X74724Y-43347D01*
X74695Y-43333D01*
X74681Y-43319D01*
X63021Y-33032D02*
X63021Y-32732D01*
X63136Y-32732D01*
X63164Y-32747D01*
X63179Y-32761D01*
X63193Y-32790D01*
X63193Y-32832D01*
X63179Y-32861D01*
X63164Y-32875D01*
X63136Y-32890D01*
X63021Y-32890D01*
X63479Y-33032D02*
X63307Y-33032D01*
X63393Y-33032D02*
X63393Y-32732D01*
X63364Y-32775D01*
X63336Y-32804D01*
X63307Y-32818D01*
X63736Y-32832D02*
X63736Y-33032D01*
X63665Y-32718D02*
X63593Y-32932D01*
X63779Y-32932D01*
X54163Y-31930D02*
X54163Y-31630D01*
X54278Y-31630D01*
X54306Y-31645D01*
X54321Y-31659D01*
X54335Y-31688D01*
X54335Y-31730D01*
X54321Y-31759D01*
X54306Y-31773D01*
X54278Y-31788D01*
X54163Y-31788D01*
X54621Y-31930D02*
X54449Y-31930D01*
X54535Y-31930D02*
X54535Y-31630D01*
X54506Y-31673D01*
X54478Y-31702D01*
X54449Y-31716D01*
X54892Y-31630D02*
X54749Y-31630D01*
X54735Y-31773D01*
X54749Y-31759D01*
X54778Y-31745D01*
X54849Y-31745D01*
X54878Y-31759D01*
X54892Y-31773D01*
X54907Y-31802D01*
X54907Y-31873D01*
X54892Y-31902D01*
X54878Y-31916D01*
X54849Y-31930D01*
X54778Y-31930D01*
X54749Y-31916D01*
X54735Y-31902D01*
X44517Y-33229D02*
X44517Y-32929D01*
X44632Y-32929D01*
X44660Y-32944D01*
X44675Y-32958D01*
X44689Y-32987D01*
X44689Y-33029D01*
X44675Y-33058D01*
X44660Y-33072D01*
X44632Y-33087D01*
X44517Y-33087D01*
X44975Y-33229D02*
X44803Y-33229D01*
X44889Y-33229D02*
X44889Y-32929D01*
X44860Y-32972D01*
X44832Y-33001D01*
X44803Y-33015D01*
X45232Y-32929D02*
X45175Y-32929D01*
X45146Y-32944D01*
X45132Y-32958D01*
X45103Y-33001D01*
X45089Y-33058D01*
X45089Y-33172D01*
X45103Y-33201D01*
X45118Y-33215D01*
X45146Y-33229D01*
X45203Y-33229D01*
X45232Y-33215D01*
X45246Y-33201D01*
X45261Y-33172D01*
X45261Y-33101D01*
X45246Y-33072D01*
X45232Y-33058D01*
X45203Y-33044D01*
X45146Y-33044D01*
X45118Y-33058D01*
X45103Y-33072D01*
X45089Y-33101D01*
X41643Y-33229D02*
X41643Y-32929D01*
X41758Y-32929D01*
X41786Y-32944D01*
X41801Y-32958D01*
X41815Y-32987D01*
X41815Y-33029D01*
X41801Y-33058D01*
X41786Y-33072D01*
X41758Y-33087D01*
X41643Y-33087D01*
X42101Y-33229D02*
X41929Y-33229D01*
X42015Y-33229D02*
X42015Y-32929D01*
X41986Y-32972D01*
X41958Y-33001D01*
X41929Y-33015D01*
X42201Y-32929D02*
X42401Y-32929D01*
X42272Y-33229D01*
X42627Y-33229D02*
X42627Y-32929D01*
X42742Y-32929D01*
X42770Y-32944D01*
X42785Y-32958D01*
X42799Y-32987D01*
X42799Y-33029D01*
X42785Y-33058D01*
X42770Y-33072D01*
X42742Y-33087D01*
X42627Y-33087D01*
X43085Y-33229D02*
X42913Y-33229D01*
X42999Y-33229D02*
X42999Y-32929D01*
X42970Y-32972D01*
X42942Y-33001D01*
X42913Y-33015D01*
X43256Y-33058D02*
X43228Y-33044D01*
X43213Y-33029D01*
X43199Y-33001D01*
X43199Y-32987D01*
X43213Y-32958D01*
X43228Y-32944D01*
X43256Y-32929D01*
X43313Y-32929D01*
X43342Y-32944D01*
X43356Y-32958D01*
X43371Y-32987D01*
X43371Y-33001D01*
X43356Y-33029D01*
X43342Y-33044D01*
X43313Y-33058D01*
X43256Y-33058D01*
X43228Y-33072D01*
X43213Y-33087D01*
X43199Y-33115D01*
X43199Y-33172D01*
X43213Y-33201D01*
X43228Y-33215D01*
X43256Y-33229D01*
X43313Y-33229D01*
X43342Y-33215D01*
X43356Y-33201D01*
X43371Y-33172D01*
X43371Y-33115D01*
X43356Y-33087D01*
X43342Y-33072D01*
X43313Y-33058D01*
X60304Y-37757D02*
X60304Y-37457D01*
X60419Y-37457D01*
X60447Y-37472D01*
X60462Y-37486D01*
X60476Y-37515D01*
X60476Y-37557D01*
X60462Y-37586D01*
X60447Y-37600D01*
X60419Y-37615D01*
X60304Y-37615D01*
X60762Y-37757D02*
X60590Y-37757D01*
X60676Y-37757D02*
X60676Y-37457D01*
X60647Y-37500D01*
X60619Y-37529D01*
X60590Y-37543D01*
X60905Y-37757D02*
X60962Y-37757D01*
X60990Y-37743D01*
X61005Y-37729D01*
X61033Y-37686D01*
X61048Y-37629D01*
X61048Y-37515D01*
X61033Y-37486D01*
X61019Y-37472D01*
X60990Y-37457D01*
X60933Y-37457D01*
X60905Y-37472D01*
X60890Y-37486D01*
X60876Y-37515D01*
X60876Y-37586D01*
X60890Y-37615D01*
X60905Y-37629D01*
X60933Y-37643D01*
X60990Y-37643D01*
X61019Y-37629D01*
X61033Y-37615D01*
X61048Y-37586D01*
X74241Y-31654D02*
X74241Y-31354D01*
X74356Y-31354D01*
X74384Y-31369D01*
X74399Y-31383D01*
X74413Y-31412D01*
X74413Y-31454D01*
X74399Y-31483D01*
X74384Y-31497D01*
X74356Y-31512D01*
X74241Y-31512D01*
X74527Y-31383D02*
X74541Y-31369D01*
X74570Y-31354D01*
X74641Y-31354D01*
X74670Y-31369D01*
X74684Y-31383D01*
X74699Y-31412D01*
X74699Y-31440D01*
X74684Y-31483D01*
X74513Y-31654D01*
X74699Y-31654D01*
X74885Y-31354D02*
X74913Y-31354D01*
X74942Y-31369D01*
X74956Y-31383D01*
X74970Y-31412D01*
X74985Y-31469D01*
X74985Y-31540D01*
X74970Y-31597D01*
X74956Y-31626D01*
X74942Y-31640D01*
X74913Y-31654D01*
X74885Y-31654D01*
X74856Y-31640D01*
X74842Y-31626D01*
X74827Y-31597D01*
X74813Y-31540D01*
X74813Y-31469D01*
X74827Y-31412D01*
X74842Y-31383D01*
X74856Y-31369D01*
X74885Y-31354D01*
X72863Y-31654D02*
X72863Y-31354D01*
X72978Y-31354D01*
X73006Y-31369D01*
X73021Y-31383D01*
X73035Y-31412D01*
X73035Y-31454D01*
X73021Y-31483D01*
X73006Y-31497D01*
X72978Y-31512D01*
X72863Y-31512D01*
X73149Y-31383D02*
X73163Y-31369D01*
X73192Y-31354D01*
X73263Y-31354D01*
X73292Y-31369D01*
X73306Y-31383D01*
X73321Y-31412D01*
X73321Y-31440D01*
X73306Y-31483D01*
X73135Y-31654D01*
X73321Y-31654D01*
X73607Y-31654D02*
X73435Y-31654D01*
X73521Y-31654D02*
X73521Y-31354D01*
X73492Y-31397D01*
X73464Y-31426D01*
X73435Y-31440D01*
X63611Y-35198D02*
X63611Y-34898D01*
X63726Y-34898D01*
X63754Y-34913D01*
X63769Y-34927D01*
X63783Y-34956D01*
X63783Y-34998D01*
X63769Y-35027D01*
X63754Y-35041D01*
X63726Y-35056D01*
X63611Y-35056D01*
X63897Y-34927D02*
X63911Y-34913D01*
X63940Y-34898D01*
X64011Y-34898D01*
X64040Y-34913D01*
X64054Y-34927D01*
X64069Y-34956D01*
X64069Y-34984D01*
X64054Y-35027D01*
X63883Y-35198D01*
X64069Y-35198D01*
X64183Y-34927D02*
X64197Y-34913D01*
X64226Y-34898D01*
X64297Y-34898D01*
X64326Y-34913D01*
X64340Y-34927D01*
X64355Y-34956D01*
X64355Y-34984D01*
X64340Y-35027D01*
X64169Y-35198D01*
X64355Y-35198D01*
X72115Y-43347D02*
X72115Y-43047D01*
X72230Y-43047D01*
X72258Y-43062D01*
X72273Y-43076D01*
X72287Y-43105D01*
X72287Y-43147D01*
X72273Y-43176D01*
X72258Y-43190D01*
X72230Y-43205D01*
X72115Y-43205D01*
X72401Y-43076D02*
X72415Y-43062D01*
X72444Y-43047D01*
X72515Y-43047D01*
X72544Y-43062D01*
X72558Y-43076D01*
X72573Y-43105D01*
X72573Y-43133D01*
X72558Y-43176D01*
X72387Y-43347D01*
X72573Y-43347D01*
X72673Y-43047D02*
X72859Y-43047D01*
X72759Y-43162D01*
X72801Y-43162D01*
X72830Y-43176D01*
X72844Y-43190D01*
X72859Y-43219D01*
X72859Y-43290D01*
X72844Y-43319D01*
X72830Y-43333D01*
X72801Y-43347D01*
X72716Y-43347D01*
X72687Y-43333D01*
X72673Y-43319D01*
M02*
