G04 (created by PCBNEW-RS274X (2012-01-19 BZR 3256)-stable) date Sun 13 Jan 2013 11:14:15 GMT*
G01*
G70*
G90*
%MOIN*%
G04 Gerber Fmt 3.4, Leading zero omitted, Abs format*
%FSLAX34Y34*%
G04 APERTURE LIST*
%ADD10C,0.006000*%
%ADD11C,0.062000*%
%ADD12R,0.062000X0.062000*%
%ADD13R,0.060000X0.060000*%
%ADD14C,0.060000*%
%ADD15C,0.165400*%
%ADD16R,0.055000X0.055000*%
%ADD17C,0.055000*%
%ADD18C,0.035000*%
%ADD19C,0.017500*%
%ADD20C,0.025000*%
%ADD21C,0.015000*%
%ADD22C,0.010000*%
G04 APERTURE END LIST*
G54D10*
G54D11*
X72834Y-33465D03*
X72047Y-33465D03*
X71260Y-33465D03*
X70472Y-33465D03*
X69685Y-33465D03*
X68897Y-33465D03*
X68110Y-33465D03*
X67323Y-33465D03*
X66535Y-33465D03*
X66535Y-42126D03*
X67323Y-42126D03*
X68110Y-42126D03*
X68897Y-42126D03*
X69685Y-42126D03*
X70472Y-42126D03*
X71260Y-42126D03*
X72047Y-42126D03*
X72834Y-42126D03*
X73622Y-42126D03*
G54D12*
X73622Y-33465D03*
G54D13*
X52500Y-46000D03*
G54D14*
X53500Y-46000D03*
X54500Y-46000D03*
X55500Y-46000D03*
G54D13*
X69500Y-46000D03*
G54D14*
X70500Y-46000D03*
X71500Y-46000D03*
X72500Y-46000D03*
G54D13*
X42500Y-46000D03*
G54D14*
X43500Y-46000D03*
X44500Y-46000D03*
X45500Y-46000D03*
G54D13*
X47500Y-46000D03*
G54D14*
X48500Y-46000D03*
X49500Y-46000D03*
X50500Y-46000D03*
G54D13*
X74500Y-46000D03*
G54D14*
X75500Y-46000D03*
G54D13*
X62000Y-42500D03*
G54D14*
X61000Y-42500D03*
X62000Y-41500D03*
X61000Y-41500D03*
X62000Y-40500D03*
X61000Y-40500D03*
G54D13*
X55000Y-43500D03*
G54D14*
X56000Y-43500D03*
G54D15*
X77559Y-47244D03*
X40551Y-47244D03*
X77559Y-32283D03*
X40551Y-32283D03*
G54D13*
X66500Y-46000D03*
G54D14*
X67500Y-46000D03*
G54D16*
X42000Y-41000D03*
G54D17*
X43000Y-41000D03*
X44000Y-41000D03*
X45000Y-41000D03*
X46000Y-41000D03*
X47000Y-41000D03*
X48000Y-41000D03*
X49000Y-41000D03*
X49000Y-35000D03*
X48000Y-35000D03*
X47000Y-35000D03*
X46000Y-35000D03*
X45000Y-35000D03*
X44000Y-35000D03*
X43000Y-35000D03*
X42000Y-35000D03*
G54D14*
X57677Y-33898D03*
X57244Y-45315D03*
X64528Y-45315D03*
X58228Y-46890D03*
X58150Y-36142D03*
X74488Y-43976D03*
X63386Y-33661D03*
X54528Y-32559D03*
X44882Y-33858D03*
X42008Y-33858D03*
X42992Y-33858D03*
X60669Y-38386D03*
X74606Y-32283D03*
X73228Y-32283D03*
X63976Y-35827D03*
X72480Y-43976D03*
G54D18*
X58780Y-44724D03*
X50551Y-37717D03*
X50551Y-36299D03*
X64055Y-43425D03*
X62362Y-45118D03*
X55630Y-42835D03*
X55630Y-41181D03*
X70433Y-32559D03*
X71181Y-31811D03*
X56102Y-39213D03*
X56102Y-33268D03*
X63071Y-47520D03*
X51181Y-37205D03*
X51969Y-43701D03*
X63110Y-35472D03*
X51181Y-38780D03*
X59134Y-47520D03*
X58346Y-38504D03*
X48031Y-44291D03*
X54528Y-37638D03*
X54528Y-33661D03*
X61181Y-36339D03*
X57126Y-34291D03*
X62520Y-36339D03*
X55354Y-34409D03*
X55354Y-39213D03*
X64134Y-32638D03*
X62520Y-32638D03*
X58169Y-42933D03*
X55000Y-38406D03*
X60354Y-40748D03*
X55000Y-34764D03*
X55000Y-37638D03*
X55748Y-34094D03*
X55748Y-38740D03*
G54D19*
X61000Y-42500D02*
X61000Y-42504D01*
X61000Y-42504D02*
X58780Y-44724D01*
X50551Y-36299D02*
X50551Y-37717D01*
G54D20*
X64055Y-43425D02*
X62362Y-45118D01*
X42500Y-45000D02*
X45000Y-42500D01*
X42500Y-46000D02*
X42500Y-45000D01*
X45000Y-42500D02*
X45000Y-41000D01*
X43500Y-45000D02*
X46000Y-42500D01*
X46000Y-42500D02*
X46000Y-41000D01*
X43500Y-46000D02*
X43500Y-45000D01*
X48000Y-42500D02*
X45500Y-45000D01*
X48000Y-41000D02*
X48000Y-42500D01*
X45500Y-45000D02*
X45500Y-46000D01*
X47000Y-42500D02*
X47000Y-41000D01*
X44500Y-45000D02*
X47000Y-42500D01*
X44500Y-46000D02*
X44500Y-45000D01*
G54D21*
X55630Y-41181D02*
X55630Y-42835D01*
X72047Y-33464D02*
X73228Y-32283D01*
X72047Y-33465D02*
X72047Y-33464D01*
X71181Y-31811D02*
X70433Y-32559D01*
X56102Y-39213D02*
X56102Y-33268D01*
G54D19*
X44000Y-41000D02*
X44500Y-40500D01*
X70500Y-46000D02*
X70500Y-46500D01*
X75500Y-46500D02*
X75500Y-46000D01*
X47500Y-46500D02*
X48000Y-47000D01*
X63071Y-47500D02*
X66500Y-47500D01*
X56000Y-45500D02*
X55500Y-46000D01*
X54000Y-47000D02*
X55000Y-47000D01*
X72500Y-46000D02*
X72500Y-46500D01*
X44500Y-40500D02*
X48500Y-40500D01*
X71000Y-47000D02*
X72000Y-47000D01*
X72500Y-46500D02*
X73000Y-47000D01*
X47500Y-46000D02*
X47500Y-44822D01*
X70500Y-46500D02*
X71000Y-47000D01*
X53500Y-46000D02*
X53500Y-45822D01*
X67500Y-46000D02*
X67500Y-46500D01*
X70000Y-47000D02*
X70500Y-46500D01*
X55500Y-46000D02*
X55500Y-46500D01*
X68000Y-47000D02*
X70000Y-47000D01*
X75000Y-47000D02*
X75500Y-46500D01*
X51181Y-38780D02*
X51181Y-37205D01*
X56000Y-43500D02*
X56000Y-45500D01*
X67500Y-46500D02*
X68000Y-47000D01*
X66500Y-47500D02*
X67500Y-46500D01*
X55000Y-47000D02*
X55500Y-46500D01*
X53500Y-45822D02*
X51969Y-44291D01*
X49000Y-40961D02*
X51181Y-38780D01*
X55500Y-46500D02*
X56500Y-47500D01*
X48000Y-47000D02*
X53000Y-47000D01*
X56000Y-43500D02*
X56000Y-40850D01*
X72000Y-47000D02*
X72500Y-46500D01*
X65117Y-33465D02*
X66535Y-33465D01*
X59134Y-47500D02*
X63071Y-47500D01*
X49000Y-41000D02*
X49000Y-40961D01*
X63110Y-35472D02*
X65117Y-33465D01*
X53500Y-46000D02*
X53500Y-46500D01*
X53500Y-46500D02*
X54000Y-47000D01*
X48500Y-40500D02*
X49000Y-41000D01*
X49000Y-35000D02*
X49000Y-41000D01*
X47500Y-44822D02*
X48031Y-44291D01*
X49000Y-41000D02*
X49000Y-44500D01*
X53000Y-47000D02*
X53500Y-46500D01*
X47500Y-46000D02*
X47500Y-46500D01*
X49000Y-44500D02*
X47500Y-46000D01*
X73000Y-47000D02*
X75000Y-47000D01*
X59134Y-47520D02*
X59134Y-47500D01*
X51969Y-44291D02*
X51969Y-43701D01*
X56000Y-40850D02*
X58346Y-38504D01*
X63071Y-47520D02*
X63071Y-47500D01*
X56500Y-47500D02*
X59134Y-47500D01*
G54D21*
X54528Y-37638D02*
X54528Y-33661D01*
X54528Y-32559D02*
X54528Y-33661D01*
G54D22*
X61181Y-36339D02*
X59173Y-36339D01*
X59173Y-36339D02*
X57126Y-34291D01*
X62520Y-36339D02*
X61181Y-36339D01*
G54D21*
X55354Y-39213D02*
X55354Y-34409D01*
X62520Y-32638D02*
X64134Y-32638D01*
G54D22*
X58169Y-42933D02*
X60354Y-40748D01*
X55000Y-37638D02*
X55000Y-34764D01*
X55000Y-38406D02*
X55000Y-37638D01*
G54D21*
X55748Y-38740D02*
X55748Y-34094D01*
G54D10*
G36*
X78465Y-46747D02*
X78430Y-46663D01*
X78142Y-46374D01*
X77764Y-46217D01*
X77356Y-46217D01*
X76978Y-46373D01*
X76689Y-46661D01*
X76532Y-47039D01*
X76532Y-47447D01*
X76688Y-47825D01*
X76976Y-48114D01*
X77062Y-48150D01*
X76053Y-48150D01*
X76053Y-46081D01*
X76042Y-45863D01*
X75980Y-45714D01*
X75885Y-45685D01*
X75815Y-45755D01*
X75815Y-45615D01*
X75786Y-45520D01*
X75581Y-45447D01*
X75363Y-45458D01*
X75214Y-45520D01*
X75185Y-45615D01*
X75500Y-45929D01*
X75815Y-45615D01*
X75815Y-45755D01*
X75571Y-46000D01*
X75885Y-46315D01*
X75980Y-46286D01*
X76053Y-46081D01*
X76053Y-48150D01*
X75815Y-48150D01*
X75815Y-46385D01*
X75500Y-46071D01*
X75429Y-46141D01*
X75429Y-46000D01*
X75115Y-45685D01*
X75105Y-45688D01*
X75105Y-32382D01*
X75105Y-32184D01*
X75029Y-32001D01*
X74889Y-31860D01*
X74705Y-31784D01*
X74507Y-31784D01*
X74324Y-31860D01*
X74183Y-32000D01*
X74107Y-32184D01*
X74107Y-32382D01*
X74183Y-32565D01*
X74323Y-32706D01*
X74507Y-32782D01*
X74705Y-32782D01*
X74888Y-32706D01*
X75029Y-32566D01*
X75105Y-32382D01*
X75105Y-45688D01*
X75020Y-45714D01*
X74999Y-45772D01*
X74999Y-45661D01*
X74987Y-45631D01*
X74987Y-44075D01*
X74987Y-43877D01*
X74911Y-43694D01*
X74771Y-43553D01*
X74587Y-43477D01*
X74389Y-43477D01*
X74206Y-43553D01*
X74131Y-43627D01*
X74131Y-42227D01*
X74131Y-42025D01*
X74131Y-33815D01*
X74131Y-33736D01*
X74131Y-33116D01*
X74101Y-33043D01*
X74045Y-32987D01*
X73972Y-32956D01*
X73893Y-32956D01*
X73273Y-32956D01*
X73200Y-32986D01*
X73144Y-33042D01*
X73139Y-33051D01*
X73122Y-33034D01*
X72941Y-32958D01*
X73121Y-32778D01*
X73129Y-32782D01*
X73327Y-32782D01*
X73510Y-32706D01*
X73651Y-32566D01*
X73727Y-32382D01*
X73727Y-32184D01*
X73651Y-32001D01*
X73511Y-31860D01*
X73327Y-31784D01*
X73129Y-31784D01*
X72946Y-31860D01*
X72805Y-32000D01*
X72729Y-32184D01*
X72729Y-32382D01*
X72732Y-32389D01*
X72161Y-32961D01*
X72148Y-32956D01*
X71946Y-32956D01*
X71759Y-33033D01*
X71653Y-33139D01*
X71556Y-33042D01*
X71556Y-31886D01*
X71556Y-31737D01*
X71499Y-31599D01*
X71394Y-31494D01*
X71256Y-31436D01*
X71107Y-31436D01*
X70969Y-31493D01*
X70864Y-31598D01*
X70806Y-31736D01*
X70806Y-31797D01*
X70419Y-32184D01*
X70359Y-32184D01*
X70221Y-32241D01*
X70116Y-32346D01*
X70058Y-32484D01*
X70058Y-32633D01*
X70115Y-32771D01*
X70220Y-32876D01*
X70358Y-32934D01*
X70507Y-32934D01*
X70645Y-32877D01*
X70750Y-32772D01*
X70808Y-32634D01*
X70808Y-32572D01*
X71194Y-32186D01*
X71255Y-32186D01*
X71393Y-32129D01*
X71498Y-32024D01*
X71556Y-31886D01*
X71556Y-33042D01*
X71548Y-33034D01*
X71361Y-32956D01*
X71159Y-32956D01*
X70972Y-33033D01*
X70866Y-33139D01*
X70760Y-33034D01*
X70573Y-32956D01*
X70371Y-32956D01*
X70184Y-33033D01*
X70078Y-33139D01*
X69973Y-33034D01*
X69786Y-32956D01*
X69584Y-32956D01*
X69397Y-33033D01*
X69291Y-33139D01*
X69185Y-33034D01*
X68998Y-32956D01*
X68796Y-32956D01*
X68609Y-33033D01*
X68503Y-33139D01*
X68398Y-33034D01*
X68211Y-32956D01*
X68009Y-32956D01*
X67822Y-33033D01*
X67716Y-33139D01*
X67611Y-33034D01*
X67424Y-32956D01*
X67222Y-32956D01*
X67035Y-33033D01*
X66892Y-33177D01*
X66891Y-33178D01*
X66857Y-33212D01*
X66857Y-33073D01*
X66828Y-32977D01*
X66618Y-32902D01*
X66396Y-32913D01*
X66242Y-32977D01*
X66213Y-33073D01*
X66535Y-33394D01*
X66857Y-33073D01*
X66857Y-33212D01*
X66606Y-33465D01*
X66889Y-33749D01*
X66891Y-33753D01*
X67035Y-33896D01*
X67222Y-33974D01*
X67424Y-33974D01*
X67611Y-33897D01*
X67716Y-33790D01*
X67822Y-33896D01*
X68009Y-33974D01*
X68211Y-33974D01*
X68398Y-33897D01*
X68503Y-33790D01*
X68609Y-33896D01*
X68796Y-33974D01*
X68998Y-33974D01*
X69185Y-33897D01*
X69290Y-33790D01*
X69397Y-33896D01*
X69584Y-33974D01*
X69786Y-33974D01*
X69973Y-33897D01*
X70078Y-33790D01*
X70184Y-33896D01*
X70371Y-33974D01*
X70573Y-33974D01*
X70760Y-33897D01*
X70865Y-33790D01*
X70972Y-33896D01*
X71159Y-33974D01*
X71361Y-33974D01*
X71548Y-33897D01*
X71653Y-33790D01*
X71759Y-33896D01*
X71946Y-33974D01*
X72148Y-33974D01*
X72335Y-33897D01*
X72440Y-33790D01*
X72546Y-33896D01*
X72733Y-33974D01*
X72935Y-33974D01*
X73122Y-33897D01*
X73139Y-33879D01*
X73143Y-33887D01*
X73199Y-33943D01*
X73272Y-33974D01*
X73351Y-33974D01*
X73971Y-33974D01*
X74044Y-33944D01*
X74100Y-33888D01*
X74131Y-33815D01*
X74131Y-42025D01*
X74054Y-41838D01*
X73910Y-41695D01*
X73723Y-41617D01*
X73521Y-41617D01*
X73334Y-41694D01*
X73228Y-41800D01*
X73122Y-41695D01*
X72935Y-41617D01*
X72733Y-41617D01*
X72546Y-41694D01*
X72440Y-41800D01*
X72335Y-41695D01*
X72148Y-41617D01*
X71946Y-41617D01*
X71759Y-41694D01*
X71653Y-41800D01*
X71548Y-41695D01*
X71361Y-41617D01*
X71159Y-41617D01*
X70972Y-41694D01*
X70866Y-41800D01*
X70760Y-41695D01*
X70573Y-41617D01*
X70371Y-41617D01*
X70184Y-41694D01*
X70078Y-41800D01*
X69973Y-41695D01*
X69786Y-41617D01*
X69584Y-41617D01*
X69397Y-41694D01*
X69291Y-41800D01*
X69185Y-41695D01*
X68998Y-41617D01*
X68796Y-41617D01*
X68609Y-41694D01*
X68503Y-41800D01*
X68398Y-41695D01*
X68211Y-41617D01*
X68009Y-41617D01*
X67822Y-41694D01*
X67716Y-41800D01*
X67611Y-41695D01*
X67424Y-41617D01*
X67222Y-41617D01*
X67035Y-41694D01*
X66929Y-41800D01*
X66857Y-41728D01*
X66857Y-33857D01*
X66535Y-33536D01*
X66464Y-33606D01*
X66464Y-33465D01*
X66143Y-33143D01*
X66047Y-33172D01*
X65972Y-33382D01*
X65983Y-33604D01*
X66047Y-33758D01*
X66143Y-33787D01*
X66464Y-33465D01*
X66464Y-33606D01*
X66213Y-33857D01*
X66242Y-33953D01*
X66452Y-34028D01*
X66674Y-34017D01*
X66828Y-33953D01*
X66857Y-33857D01*
X66857Y-41728D01*
X66823Y-41695D01*
X66636Y-41617D01*
X66434Y-41617D01*
X66247Y-41694D01*
X66104Y-41838D01*
X66026Y-42025D01*
X66026Y-42227D01*
X66103Y-42414D01*
X66247Y-42557D01*
X66434Y-42635D01*
X66636Y-42635D01*
X66823Y-42558D01*
X66928Y-42451D01*
X67035Y-42557D01*
X67222Y-42635D01*
X67424Y-42635D01*
X67611Y-42558D01*
X67716Y-42451D01*
X67822Y-42557D01*
X68009Y-42635D01*
X68211Y-42635D01*
X68398Y-42558D01*
X68503Y-42451D01*
X68609Y-42557D01*
X68796Y-42635D01*
X68998Y-42635D01*
X69185Y-42558D01*
X69290Y-42451D01*
X69397Y-42557D01*
X69584Y-42635D01*
X69786Y-42635D01*
X69973Y-42558D01*
X70078Y-42451D01*
X70184Y-42557D01*
X70371Y-42635D01*
X70573Y-42635D01*
X70760Y-42558D01*
X70865Y-42451D01*
X70972Y-42557D01*
X71159Y-42635D01*
X71361Y-42635D01*
X71548Y-42558D01*
X71653Y-42451D01*
X71759Y-42557D01*
X71946Y-42635D01*
X72148Y-42635D01*
X72335Y-42558D01*
X72440Y-42451D01*
X72546Y-42557D01*
X72733Y-42635D01*
X72935Y-42635D01*
X73122Y-42558D01*
X73227Y-42451D01*
X73334Y-42557D01*
X73521Y-42635D01*
X73723Y-42635D01*
X73910Y-42558D01*
X74053Y-42414D01*
X74131Y-42227D01*
X74131Y-43627D01*
X74065Y-43693D01*
X73989Y-43877D01*
X73989Y-44075D01*
X74065Y-44258D01*
X74205Y-44399D01*
X74389Y-44475D01*
X74587Y-44475D01*
X74770Y-44399D01*
X74911Y-44259D01*
X74987Y-44075D01*
X74987Y-45631D01*
X74969Y-45588D01*
X74913Y-45532D01*
X74840Y-45501D01*
X74761Y-45501D01*
X74161Y-45501D01*
X74088Y-45531D01*
X74032Y-45587D01*
X74001Y-45660D01*
X74001Y-45739D01*
X74001Y-46339D01*
X74031Y-46412D01*
X74087Y-46468D01*
X74160Y-46499D01*
X74239Y-46499D01*
X74839Y-46499D01*
X74912Y-46469D01*
X74968Y-46413D01*
X74999Y-46340D01*
X74999Y-46261D01*
X74999Y-46235D01*
X75020Y-46286D01*
X75115Y-46315D01*
X75429Y-46000D01*
X75429Y-46141D01*
X75185Y-46385D01*
X75214Y-46480D01*
X75419Y-46553D01*
X75637Y-46542D01*
X75786Y-46480D01*
X75815Y-46385D01*
X75815Y-48150D01*
X73053Y-48150D01*
X73053Y-46081D01*
X73042Y-45863D01*
X72980Y-45714D01*
X72979Y-45713D01*
X72979Y-44075D01*
X72979Y-43877D01*
X72903Y-43694D01*
X72763Y-43553D01*
X72579Y-43477D01*
X72381Y-43477D01*
X72198Y-43553D01*
X72057Y-43693D01*
X71981Y-43877D01*
X71981Y-44075D01*
X72057Y-44258D01*
X72197Y-44399D01*
X72381Y-44475D01*
X72579Y-44475D01*
X72762Y-44399D01*
X72903Y-44259D01*
X72979Y-44075D01*
X72979Y-45713D01*
X72885Y-45685D01*
X72815Y-45755D01*
X72815Y-45615D01*
X72786Y-45520D01*
X72581Y-45447D01*
X72363Y-45458D01*
X72214Y-45520D01*
X72185Y-45615D01*
X72500Y-45929D01*
X72815Y-45615D01*
X72815Y-45755D01*
X72571Y-46000D01*
X72885Y-46315D01*
X72980Y-46286D01*
X73053Y-46081D01*
X73053Y-48150D01*
X72815Y-48150D01*
X72815Y-46385D01*
X72500Y-46071D01*
X72429Y-46141D01*
X72429Y-46000D01*
X72115Y-45685D01*
X72020Y-45714D01*
X71974Y-45841D01*
X71923Y-45718D01*
X71783Y-45577D01*
X71599Y-45501D01*
X71401Y-45501D01*
X71218Y-45577D01*
X71077Y-45717D01*
X71029Y-45832D01*
X70980Y-45714D01*
X70885Y-45685D01*
X70815Y-45755D01*
X70815Y-45615D01*
X70786Y-45520D01*
X70581Y-45447D01*
X70363Y-45458D01*
X70214Y-45520D01*
X70185Y-45615D01*
X70500Y-45929D01*
X70815Y-45615D01*
X70815Y-45755D01*
X70571Y-46000D01*
X70885Y-46315D01*
X70980Y-46286D01*
X71025Y-46158D01*
X71077Y-46282D01*
X71217Y-46423D01*
X71401Y-46499D01*
X71599Y-46499D01*
X71782Y-46423D01*
X71923Y-46283D01*
X71970Y-46167D01*
X72020Y-46286D01*
X72115Y-46315D01*
X72429Y-46000D01*
X72429Y-46141D01*
X72185Y-46385D01*
X72214Y-46480D01*
X72419Y-46553D01*
X72637Y-46542D01*
X72786Y-46480D01*
X72815Y-46385D01*
X72815Y-48150D01*
X70815Y-48150D01*
X70815Y-46385D01*
X70500Y-46071D01*
X70429Y-46141D01*
X70429Y-46000D01*
X70115Y-45685D01*
X70020Y-45714D01*
X69999Y-45772D01*
X69999Y-45661D01*
X69969Y-45588D01*
X69913Y-45532D01*
X69840Y-45501D01*
X69761Y-45501D01*
X69161Y-45501D01*
X69088Y-45531D01*
X69032Y-45587D01*
X69001Y-45660D01*
X69001Y-45739D01*
X69001Y-46339D01*
X69031Y-46412D01*
X69087Y-46468D01*
X69160Y-46499D01*
X69239Y-46499D01*
X69839Y-46499D01*
X69912Y-46469D01*
X69968Y-46413D01*
X69999Y-46340D01*
X69999Y-46261D01*
X69999Y-46235D01*
X70020Y-46286D01*
X70115Y-46315D01*
X70429Y-46000D01*
X70429Y-46141D01*
X70185Y-46385D01*
X70214Y-46480D01*
X70419Y-46553D01*
X70637Y-46542D01*
X70786Y-46480D01*
X70815Y-46385D01*
X70815Y-48150D01*
X68053Y-48150D01*
X68053Y-46081D01*
X68042Y-45863D01*
X67980Y-45714D01*
X67885Y-45685D01*
X67815Y-45755D01*
X67815Y-45615D01*
X67786Y-45520D01*
X67581Y-45447D01*
X67363Y-45458D01*
X67214Y-45520D01*
X67185Y-45615D01*
X67500Y-45929D01*
X67815Y-45615D01*
X67815Y-45755D01*
X67571Y-46000D01*
X67885Y-46315D01*
X67980Y-46286D01*
X68053Y-46081D01*
X68053Y-48150D01*
X67815Y-48150D01*
X67815Y-46385D01*
X67500Y-46071D01*
X67429Y-46141D01*
X67429Y-46000D01*
X67115Y-45685D01*
X67020Y-45714D01*
X66999Y-45772D01*
X66999Y-45661D01*
X66969Y-45588D01*
X66913Y-45532D01*
X66840Y-45501D01*
X66761Y-45501D01*
X66161Y-45501D01*
X66088Y-45531D01*
X66032Y-45587D01*
X66001Y-45660D01*
X66001Y-45739D01*
X66001Y-46339D01*
X66031Y-46412D01*
X66087Y-46468D01*
X66160Y-46499D01*
X66239Y-46499D01*
X66839Y-46499D01*
X66912Y-46469D01*
X66968Y-46413D01*
X66999Y-46340D01*
X66999Y-46261D01*
X66999Y-46235D01*
X67020Y-46286D01*
X67115Y-46315D01*
X67429Y-46000D01*
X67429Y-46141D01*
X67185Y-46385D01*
X67214Y-46480D01*
X67419Y-46553D01*
X67637Y-46542D01*
X67786Y-46480D01*
X67815Y-46385D01*
X67815Y-48150D01*
X65027Y-48150D01*
X65027Y-45414D01*
X65027Y-45216D01*
X64951Y-45033D01*
X64811Y-44892D01*
X64627Y-44816D01*
X64509Y-44816D01*
X64509Y-32713D01*
X64509Y-32564D01*
X64452Y-32426D01*
X64347Y-32321D01*
X64209Y-32263D01*
X64060Y-32263D01*
X63922Y-32320D01*
X63879Y-32363D01*
X62775Y-32363D01*
X62733Y-32321D01*
X62595Y-32263D01*
X62446Y-32263D01*
X62308Y-32320D01*
X62203Y-32425D01*
X62145Y-32563D01*
X62145Y-32712D01*
X62202Y-32850D01*
X62307Y-32955D01*
X62445Y-33013D01*
X62594Y-33013D01*
X62732Y-32956D01*
X62775Y-32913D01*
X63879Y-32913D01*
X63921Y-32955D01*
X64059Y-33013D01*
X64208Y-33013D01*
X64346Y-32956D01*
X64451Y-32851D01*
X64509Y-32713D01*
X64509Y-44816D01*
X64475Y-44816D01*
X64475Y-35926D01*
X64475Y-35728D01*
X64399Y-35545D01*
X64259Y-35404D01*
X64075Y-35328D01*
X63885Y-35328D01*
X63885Y-33760D01*
X63885Y-33562D01*
X63809Y-33379D01*
X63669Y-33238D01*
X63485Y-33162D01*
X63287Y-33162D01*
X63104Y-33238D01*
X62963Y-33378D01*
X62887Y-33562D01*
X62887Y-33760D01*
X62963Y-33943D01*
X63103Y-34084D01*
X63287Y-34160D01*
X63485Y-34160D01*
X63668Y-34084D01*
X63809Y-33944D01*
X63885Y-33760D01*
X63885Y-35328D01*
X63877Y-35328D01*
X63694Y-35404D01*
X63553Y-35544D01*
X63477Y-35728D01*
X63477Y-35926D01*
X63553Y-36109D01*
X63693Y-36250D01*
X63877Y-36326D01*
X64075Y-36326D01*
X64258Y-36250D01*
X64399Y-36110D01*
X64475Y-35926D01*
X64475Y-44816D01*
X64430Y-44816D01*
X64430Y-43500D01*
X64430Y-43351D01*
X64373Y-43213D01*
X64268Y-43108D01*
X64130Y-43050D01*
X63981Y-43050D01*
X63843Y-43107D01*
X63738Y-43212D01*
X63687Y-43332D01*
X62895Y-44124D01*
X62895Y-36414D01*
X62895Y-36265D01*
X62838Y-36127D01*
X62733Y-36022D01*
X62595Y-35964D01*
X62446Y-35964D01*
X62308Y-36021D01*
X62240Y-36089D01*
X61461Y-36089D01*
X61394Y-36022D01*
X61256Y-35964D01*
X61107Y-35964D01*
X60969Y-36021D01*
X60901Y-36089D01*
X59278Y-36089D01*
X57586Y-34397D01*
X57776Y-34397D01*
X57959Y-34321D01*
X58100Y-34181D01*
X58176Y-33997D01*
X58176Y-33799D01*
X58100Y-33616D01*
X57960Y-33475D01*
X57776Y-33399D01*
X57578Y-33399D01*
X57395Y-33475D01*
X57254Y-33615D01*
X57178Y-33799D01*
X57178Y-33916D01*
X57052Y-33916D01*
X56914Y-33973D01*
X56809Y-34078D01*
X56751Y-34216D01*
X56751Y-34365D01*
X56808Y-34503D01*
X56913Y-34608D01*
X57051Y-34666D01*
X57147Y-34666D01*
X58124Y-35643D01*
X58051Y-35643D01*
X57868Y-35719D01*
X57727Y-35859D01*
X57651Y-36043D01*
X57651Y-36241D01*
X57727Y-36424D01*
X57867Y-36565D01*
X58051Y-36641D01*
X58249Y-36641D01*
X58432Y-36565D01*
X58573Y-36425D01*
X58649Y-36241D01*
X58649Y-36168D01*
X58994Y-36513D01*
X58996Y-36516D01*
X59077Y-36570D01*
X59173Y-36589D01*
X60901Y-36589D01*
X60968Y-36656D01*
X61106Y-36714D01*
X61255Y-36714D01*
X61393Y-36657D01*
X61461Y-36589D01*
X62240Y-36589D01*
X62307Y-36656D01*
X62445Y-36714D01*
X62594Y-36714D01*
X62732Y-36657D01*
X62837Y-36552D01*
X62895Y-36414D01*
X62895Y-44124D01*
X62499Y-44520D01*
X62499Y-42840D01*
X62499Y-42761D01*
X62499Y-42161D01*
X62499Y-41599D01*
X62499Y-41401D01*
X62499Y-40599D01*
X62499Y-40401D01*
X62423Y-40218D01*
X62283Y-40077D01*
X62099Y-40001D01*
X61901Y-40001D01*
X61718Y-40077D01*
X61577Y-40217D01*
X61529Y-40332D01*
X61480Y-40214D01*
X61385Y-40185D01*
X61315Y-40255D01*
X61315Y-40115D01*
X61286Y-40020D01*
X61168Y-39977D01*
X61168Y-38485D01*
X61168Y-38287D01*
X61092Y-38104D01*
X60952Y-37963D01*
X60768Y-37887D01*
X60570Y-37887D01*
X60387Y-37963D01*
X60246Y-38103D01*
X60170Y-38287D01*
X60170Y-38485D01*
X60246Y-38668D01*
X60386Y-38809D01*
X60570Y-38885D01*
X60768Y-38885D01*
X60951Y-38809D01*
X61092Y-38669D01*
X61168Y-38485D01*
X61168Y-39977D01*
X61081Y-39947D01*
X60863Y-39958D01*
X60714Y-40020D01*
X60685Y-40115D01*
X61000Y-40429D01*
X61315Y-40115D01*
X61315Y-40255D01*
X61071Y-40500D01*
X61385Y-40815D01*
X61480Y-40786D01*
X61525Y-40658D01*
X61577Y-40782D01*
X61717Y-40923D01*
X61901Y-40999D01*
X62099Y-40999D01*
X62282Y-40923D01*
X62423Y-40783D01*
X62499Y-40599D01*
X62499Y-41401D01*
X62423Y-41218D01*
X62283Y-41077D01*
X62099Y-41001D01*
X61901Y-41001D01*
X61718Y-41077D01*
X61577Y-41217D01*
X61501Y-41401D01*
X61501Y-41599D01*
X61577Y-41782D01*
X61717Y-41923D01*
X61901Y-41999D01*
X62099Y-41999D01*
X62282Y-41923D01*
X62423Y-41783D01*
X62499Y-41599D01*
X62499Y-42161D01*
X62469Y-42088D01*
X62413Y-42032D01*
X62340Y-42001D01*
X62261Y-42001D01*
X61661Y-42001D01*
X61588Y-42031D01*
X61532Y-42087D01*
X61501Y-42160D01*
X61501Y-42239D01*
X61501Y-42839D01*
X61531Y-42912D01*
X61587Y-42968D01*
X61660Y-42999D01*
X61739Y-42999D01*
X62339Y-42999D01*
X62412Y-42969D01*
X62468Y-42913D01*
X62499Y-42840D01*
X62499Y-44520D01*
X62269Y-44750D01*
X62150Y-44800D01*
X62045Y-44905D01*
X61987Y-45043D01*
X61987Y-45192D01*
X62044Y-45330D01*
X62149Y-45435D01*
X62287Y-45493D01*
X62436Y-45493D01*
X62574Y-45436D01*
X62679Y-45331D01*
X62729Y-45210D01*
X64147Y-43792D01*
X64267Y-43743D01*
X64372Y-43638D01*
X64430Y-43500D01*
X64430Y-44816D01*
X64429Y-44816D01*
X64246Y-44892D01*
X64105Y-45032D01*
X64029Y-45216D01*
X64029Y-45414D01*
X64105Y-45597D01*
X64245Y-45738D01*
X64429Y-45814D01*
X64627Y-45814D01*
X64810Y-45738D01*
X64951Y-45598D01*
X65027Y-45414D01*
X65027Y-48150D01*
X61499Y-48150D01*
X61499Y-42599D01*
X61499Y-42401D01*
X61499Y-41599D01*
X61499Y-41401D01*
X61423Y-41218D01*
X61283Y-41077D01*
X61167Y-41029D01*
X61286Y-40980D01*
X61315Y-40885D01*
X61035Y-40606D01*
X61000Y-40571D01*
X60929Y-40500D01*
X60894Y-40465D01*
X60615Y-40185D01*
X60520Y-40214D01*
X60458Y-40385D01*
X60429Y-40373D01*
X60280Y-40373D01*
X60142Y-40430D01*
X60037Y-40535D01*
X59979Y-40673D01*
X59979Y-40769D01*
X58190Y-42558D01*
X58095Y-42558D01*
X57957Y-42615D01*
X57852Y-42720D01*
X57794Y-42858D01*
X57794Y-43007D01*
X57851Y-43145D01*
X57956Y-43250D01*
X58094Y-43308D01*
X58243Y-43308D01*
X58381Y-43251D01*
X58486Y-43146D01*
X58544Y-43008D01*
X58544Y-42912D01*
X60333Y-41123D01*
X60428Y-41123D01*
X60566Y-41066D01*
X60670Y-40961D01*
X60675Y-40966D01*
X60701Y-40939D01*
X60714Y-40980D01*
X60841Y-41025D01*
X60718Y-41077D01*
X60577Y-41217D01*
X60501Y-41401D01*
X60501Y-41599D01*
X60577Y-41782D01*
X60717Y-41923D01*
X60901Y-41999D01*
X61099Y-41999D01*
X61282Y-41923D01*
X61423Y-41783D01*
X61499Y-41599D01*
X61499Y-42401D01*
X61423Y-42218D01*
X61283Y-42077D01*
X61099Y-42001D01*
X60901Y-42001D01*
X60718Y-42077D01*
X60577Y-42217D01*
X60501Y-42401D01*
X60501Y-42597D01*
X58749Y-44349D01*
X58706Y-44349D01*
X58568Y-44406D01*
X58463Y-44511D01*
X58405Y-44649D01*
X58405Y-44798D01*
X58462Y-44936D01*
X58567Y-45041D01*
X58705Y-45099D01*
X58854Y-45099D01*
X58992Y-45042D01*
X59097Y-44937D01*
X59155Y-44799D01*
X59155Y-44755D01*
X60911Y-42999D01*
X61099Y-42999D01*
X61282Y-42923D01*
X61423Y-42783D01*
X61499Y-42599D01*
X61499Y-48150D01*
X58781Y-48150D01*
X58781Y-46971D01*
X58770Y-46753D01*
X58708Y-46604D01*
X58613Y-46575D01*
X58543Y-46645D01*
X58543Y-46505D01*
X58514Y-46410D01*
X58309Y-46337D01*
X58091Y-46348D01*
X57942Y-46410D01*
X57913Y-46505D01*
X58228Y-46819D01*
X58543Y-46505D01*
X58543Y-46645D01*
X58299Y-46890D01*
X58613Y-47205D01*
X58708Y-47176D01*
X58781Y-46971D01*
X58781Y-48150D01*
X58543Y-48150D01*
X58543Y-47275D01*
X58228Y-46961D01*
X58157Y-47031D01*
X58157Y-46890D01*
X57843Y-46575D01*
X57748Y-46604D01*
X57743Y-46618D01*
X57743Y-45414D01*
X57743Y-45216D01*
X57667Y-45033D01*
X57527Y-44892D01*
X57343Y-44816D01*
X57145Y-44816D01*
X56962Y-44892D01*
X56821Y-45032D01*
X56745Y-45216D01*
X56745Y-45414D01*
X56821Y-45597D01*
X56961Y-45738D01*
X57145Y-45814D01*
X57343Y-45814D01*
X57526Y-45738D01*
X57667Y-45598D01*
X57743Y-45414D01*
X57743Y-46618D01*
X57675Y-46809D01*
X57686Y-47027D01*
X57748Y-47176D01*
X57843Y-47205D01*
X58157Y-46890D01*
X58157Y-47031D01*
X57913Y-47275D01*
X57942Y-47370D01*
X58147Y-47443D01*
X58365Y-47432D01*
X58514Y-47370D01*
X58543Y-47275D01*
X58543Y-48150D01*
X56553Y-48150D01*
X56553Y-43581D01*
X56542Y-43363D01*
X56480Y-43214D01*
X56477Y-43213D01*
X56477Y-39288D01*
X56477Y-39139D01*
X56420Y-39001D01*
X56377Y-38958D01*
X56377Y-33523D01*
X56419Y-33481D01*
X56477Y-33343D01*
X56477Y-33194D01*
X56420Y-33056D01*
X56315Y-32951D01*
X56177Y-32893D01*
X56028Y-32893D01*
X55890Y-32950D01*
X55785Y-33055D01*
X55727Y-33193D01*
X55727Y-33342D01*
X55784Y-33480D01*
X55827Y-33523D01*
X55827Y-33720D01*
X55823Y-33719D01*
X55674Y-33719D01*
X55536Y-33776D01*
X55431Y-33881D01*
X55373Y-34019D01*
X55373Y-34034D01*
X55280Y-34034D01*
X55142Y-34091D01*
X55037Y-34196D01*
X54979Y-34334D01*
X54979Y-34389D01*
X54926Y-34389D01*
X54803Y-34439D01*
X54803Y-33916D01*
X54845Y-33874D01*
X54903Y-33736D01*
X54903Y-33587D01*
X54846Y-33449D01*
X54803Y-33406D01*
X54803Y-32984D01*
X54810Y-32982D01*
X54951Y-32842D01*
X55027Y-32658D01*
X55027Y-32460D01*
X54951Y-32277D01*
X54811Y-32136D01*
X54627Y-32060D01*
X54429Y-32060D01*
X54246Y-32136D01*
X54105Y-32276D01*
X54029Y-32460D01*
X54029Y-32658D01*
X54105Y-32841D01*
X54245Y-32982D01*
X54253Y-32985D01*
X54253Y-33406D01*
X54211Y-33448D01*
X54153Y-33586D01*
X54153Y-33735D01*
X54210Y-33873D01*
X54253Y-33916D01*
X54253Y-37383D01*
X54211Y-37425D01*
X54153Y-37563D01*
X54153Y-37712D01*
X54210Y-37850D01*
X54315Y-37955D01*
X54453Y-38013D01*
X54602Y-38013D01*
X54740Y-37956D01*
X54750Y-37946D01*
X54750Y-38126D01*
X54683Y-38193D01*
X54625Y-38331D01*
X54625Y-38480D01*
X54682Y-38618D01*
X54787Y-38723D01*
X54925Y-38781D01*
X55074Y-38781D01*
X55079Y-38778D01*
X55079Y-38958D01*
X55037Y-39000D01*
X54979Y-39138D01*
X54979Y-39287D01*
X55036Y-39425D01*
X55141Y-39530D01*
X55279Y-39588D01*
X55428Y-39588D01*
X55566Y-39531D01*
X55671Y-39426D01*
X55728Y-39289D01*
X55784Y-39425D01*
X55889Y-39530D01*
X56027Y-39588D01*
X56176Y-39588D01*
X56314Y-39531D01*
X56419Y-39426D01*
X56477Y-39288D01*
X56477Y-43213D01*
X56385Y-43185D01*
X56315Y-43255D01*
X56315Y-43115D01*
X56286Y-43020D01*
X56081Y-42947D01*
X55987Y-42951D01*
X56005Y-42910D01*
X56005Y-42761D01*
X55948Y-42623D01*
X55905Y-42580D01*
X55905Y-41436D01*
X55947Y-41394D01*
X56005Y-41256D01*
X56005Y-41107D01*
X55948Y-40969D01*
X55843Y-40864D01*
X55705Y-40806D01*
X55556Y-40806D01*
X55418Y-40863D01*
X55313Y-40968D01*
X55255Y-41106D01*
X55255Y-41255D01*
X55312Y-41393D01*
X55355Y-41436D01*
X55355Y-42580D01*
X55313Y-42622D01*
X55255Y-42760D01*
X55255Y-42909D01*
X55293Y-43001D01*
X55261Y-43001D01*
X54661Y-43001D01*
X54588Y-43031D01*
X54532Y-43087D01*
X54501Y-43160D01*
X54501Y-43239D01*
X54501Y-43839D01*
X54531Y-43912D01*
X54587Y-43968D01*
X54660Y-43999D01*
X54739Y-43999D01*
X55339Y-43999D01*
X55412Y-43969D01*
X55468Y-43913D01*
X55499Y-43840D01*
X55499Y-43761D01*
X55499Y-43735D01*
X55520Y-43786D01*
X55615Y-43815D01*
X55894Y-43535D01*
X55929Y-43500D01*
X56000Y-43429D01*
X56035Y-43394D01*
X56315Y-43115D01*
X56315Y-43255D01*
X56071Y-43500D01*
X56385Y-43815D01*
X56480Y-43786D01*
X56553Y-43581D01*
X56553Y-48150D01*
X56315Y-48150D01*
X56315Y-43885D01*
X56000Y-43571D01*
X55685Y-43885D01*
X55714Y-43980D01*
X55919Y-44053D01*
X56137Y-44042D01*
X56286Y-43980D01*
X56315Y-43885D01*
X56315Y-48150D01*
X56053Y-48150D01*
X56053Y-46081D01*
X56042Y-45863D01*
X55980Y-45714D01*
X55885Y-45685D01*
X55815Y-45755D01*
X55815Y-45615D01*
X55786Y-45520D01*
X55581Y-45447D01*
X55363Y-45458D01*
X55214Y-45520D01*
X55185Y-45615D01*
X55500Y-45929D01*
X55815Y-45615D01*
X55815Y-45755D01*
X55571Y-46000D01*
X55885Y-46315D01*
X55980Y-46286D01*
X56053Y-46081D01*
X56053Y-48150D01*
X55815Y-48150D01*
X55815Y-46385D01*
X55500Y-46071D01*
X55429Y-46141D01*
X55429Y-46000D01*
X55115Y-45685D01*
X55020Y-45714D01*
X54974Y-45841D01*
X54923Y-45718D01*
X54783Y-45577D01*
X54599Y-45501D01*
X54401Y-45501D01*
X54218Y-45577D01*
X54077Y-45717D01*
X54029Y-45832D01*
X53980Y-45714D01*
X53885Y-45685D01*
X53815Y-45755D01*
X53815Y-45615D01*
X53786Y-45520D01*
X53581Y-45447D01*
X53363Y-45458D01*
X53214Y-45520D01*
X53185Y-45615D01*
X53500Y-45929D01*
X53815Y-45615D01*
X53815Y-45755D01*
X53571Y-46000D01*
X53885Y-46315D01*
X53980Y-46286D01*
X54025Y-46158D01*
X54077Y-46282D01*
X54217Y-46423D01*
X54401Y-46499D01*
X54599Y-46499D01*
X54782Y-46423D01*
X54923Y-46283D01*
X54970Y-46167D01*
X55020Y-46286D01*
X55115Y-46315D01*
X55429Y-46000D01*
X55429Y-46141D01*
X55185Y-46385D01*
X55214Y-46480D01*
X55419Y-46553D01*
X55637Y-46542D01*
X55786Y-46480D01*
X55815Y-46385D01*
X55815Y-48150D01*
X53815Y-48150D01*
X53815Y-46385D01*
X53500Y-46071D01*
X53429Y-46141D01*
X53429Y-46000D01*
X53115Y-45685D01*
X53020Y-45714D01*
X52999Y-45772D01*
X52999Y-45661D01*
X52969Y-45588D01*
X52913Y-45532D01*
X52840Y-45501D01*
X52761Y-45501D01*
X52161Y-45501D01*
X52088Y-45531D01*
X52032Y-45587D01*
X52001Y-45660D01*
X52001Y-45739D01*
X52001Y-46339D01*
X52031Y-46412D01*
X52087Y-46468D01*
X52160Y-46499D01*
X52239Y-46499D01*
X52839Y-46499D01*
X52912Y-46469D01*
X52968Y-46413D01*
X52999Y-46340D01*
X52999Y-46261D01*
X52999Y-46235D01*
X53020Y-46286D01*
X53115Y-46315D01*
X53429Y-46000D01*
X53429Y-46141D01*
X53185Y-46385D01*
X53214Y-46480D01*
X53419Y-46553D01*
X53637Y-46542D01*
X53786Y-46480D01*
X53815Y-46385D01*
X53815Y-48150D01*
X50999Y-48150D01*
X50999Y-46099D01*
X50999Y-45901D01*
X50926Y-45725D01*
X50926Y-37792D01*
X50926Y-37643D01*
X50869Y-37505D01*
X50838Y-37474D01*
X50838Y-36542D01*
X50868Y-36512D01*
X50926Y-36374D01*
X50926Y-36225D01*
X50869Y-36087D01*
X50764Y-35982D01*
X50626Y-35924D01*
X50477Y-35924D01*
X50339Y-35981D01*
X50234Y-36086D01*
X50176Y-36224D01*
X50176Y-36373D01*
X50233Y-36511D01*
X50264Y-36542D01*
X50264Y-37474D01*
X50234Y-37504D01*
X50176Y-37642D01*
X50176Y-37791D01*
X50233Y-37929D01*
X50338Y-38034D01*
X50476Y-38092D01*
X50625Y-38092D01*
X50763Y-38035D01*
X50868Y-37930D01*
X50926Y-37792D01*
X50926Y-45725D01*
X50923Y-45718D01*
X50783Y-45577D01*
X50599Y-45501D01*
X50401Y-45501D01*
X50218Y-45577D01*
X50077Y-45717D01*
X50001Y-45901D01*
X50001Y-46099D01*
X50077Y-46282D01*
X50217Y-46423D01*
X50401Y-46499D01*
X50599Y-46499D01*
X50782Y-46423D01*
X50923Y-46283D01*
X50999Y-46099D01*
X50999Y-48150D01*
X49999Y-48150D01*
X49999Y-46099D01*
X49999Y-45901D01*
X49923Y-45718D01*
X49783Y-45577D01*
X49599Y-45501D01*
X49530Y-45501D01*
X49530Y-41076D01*
X49530Y-35076D01*
X49518Y-34868D01*
X49460Y-34728D01*
X49368Y-34703D01*
X49297Y-34774D01*
X49297Y-34632D01*
X49272Y-34540D01*
X49076Y-34470D01*
X48868Y-34482D01*
X48728Y-34540D01*
X48703Y-34632D01*
X49000Y-34929D01*
X49297Y-34632D01*
X49297Y-34774D01*
X49071Y-35000D01*
X49368Y-35297D01*
X49460Y-35272D01*
X49530Y-35076D01*
X49530Y-41076D01*
X49518Y-40868D01*
X49460Y-40728D01*
X49368Y-40703D01*
X49297Y-40774D01*
X49297Y-40632D01*
X49297Y-35368D01*
X49000Y-35071D01*
X48929Y-35142D01*
X48929Y-35000D01*
X48632Y-34703D01*
X48540Y-34728D01*
X48475Y-34910D01*
X48475Y-34906D01*
X48403Y-34731D01*
X48269Y-34598D01*
X48095Y-34525D01*
X47906Y-34525D01*
X47731Y-34597D01*
X47598Y-34731D01*
X47525Y-34905D01*
X47525Y-35094D01*
X47597Y-35269D01*
X47731Y-35402D01*
X47905Y-35475D01*
X48094Y-35475D01*
X48269Y-35403D01*
X48402Y-35269D01*
X48475Y-35095D01*
X48475Y-35010D01*
X48482Y-35132D01*
X48540Y-35272D01*
X48632Y-35297D01*
X48929Y-35000D01*
X48929Y-35142D01*
X48703Y-35368D01*
X48728Y-35460D01*
X48924Y-35530D01*
X49132Y-35518D01*
X49272Y-35460D01*
X49297Y-35368D01*
X49297Y-40632D01*
X49272Y-40540D01*
X49076Y-40470D01*
X48868Y-40482D01*
X48728Y-40540D01*
X48703Y-40632D01*
X49000Y-40929D01*
X49297Y-40632D01*
X49297Y-40774D01*
X49071Y-41000D01*
X49368Y-41297D01*
X49460Y-41272D01*
X49530Y-41076D01*
X49530Y-45501D01*
X49401Y-45501D01*
X49297Y-45544D01*
X49297Y-41368D01*
X49000Y-41071D01*
X48929Y-41142D01*
X48929Y-41000D01*
X48632Y-40703D01*
X48540Y-40728D01*
X48475Y-40910D01*
X48475Y-40906D01*
X48403Y-40731D01*
X48269Y-40598D01*
X48095Y-40525D01*
X47906Y-40525D01*
X47731Y-40597D01*
X47598Y-40731D01*
X47525Y-40905D01*
X47525Y-41094D01*
X47597Y-41269D01*
X47675Y-41346D01*
X47675Y-42365D01*
X47475Y-42565D01*
X47475Y-41095D01*
X47475Y-40906D01*
X47475Y-35095D01*
X47475Y-34906D01*
X47403Y-34731D01*
X47269Y-34598D01*
X47095Y-34525D01*
X46906Y-34525D01*
X46731Y-34597D01*
X46598Y-34731D01*
X46525Y-34905D01*
X46525Y-35094D01*
X46597Y-35269D01*
X46731Y-35402D01*
X46905Y-35475D01*
X47094Y-35475D01*
X47269Y-35403D01*
X47402Y-35269D01*
X47475Y-35095D01*
X47475Y-40906D01*
X47403Y-40731D01*
X47269Y-40598D01*
X47095Y-40525D01*
X46906Y-40525D01*
X46731Y-40597D01*
X46598Y-40731D01*
X46525Y-40905D01*
X46525Y-41094D01*
X46597Y-41269D01*
X46675Y-41346D01*
X46675Y-42365D01*
X46475Y-42565D01*
X46475Y-41095D01*
X46475Y-40906D01*
X46475Y-35095D01*
X46475Y-34906D01*
X46403Y-34731D01*
X46269Y-34598D01*
X46095Y-34525D01*
X45906Y-34525D01*
X45731Y-34597D01*
X45598Y-34731D01*
X45525Y-34905D01*
X45525Y-35094D01*
X45597Y-35269D01*
X45731Y-35402D01*
X45905Y-35475D01*
X46094Y-35475D01*
X46269Y-35403D01*
X46402Y-35269D01*
X46475Y-35095D01*
X46475Y-40906D01*
X46403Y-40731D01*
X46269Y-40598D01*
X46095Y-40525D01*
X45906Y-40525D01*
X45731Y-40597D01*
X45598Y-40731D01*
X45525Y-40905D01*
X45525Y-41094D01*
X45597Y-41269D01*
X45675Y-41346D01*
X45675Y-42365D01*
X45475Y-42565D01*
X45475Y-41095D01*
X45475Y-40906D01*
X45475Y-35095D01*
X45475Y-34906D01*
X45403Y-34731D01*
X45381Y-34709D01*
X45381Y-33957D01*
X45381Y-33759D01*
X45305Y-33576D01*
X45165Y-33435D01*
X44981Y-33359D01*
X44783Y-33359D01*
X44600Y-33435D01*
X44459Y-33575D01*
X44383Y-33759D01*
X44383Y-33957D01*
X44459Y-34140D01*
X44599Y-34281D01*
X44783Y-34357D01*
X44981Y-34357D01*
X45164Y-34281D01*
X45305Y-34141D01*
X45381Y-33957D01*
X45381Y-34709D01*
X45269Y-34598D01*
X45095Y-34525D01*
X44906Y-34525D01*
X44731Y-34597D01*
X44598Y-34731D01*
X44525Y-34905D01*
X44525Y-35094D01*
X44597Y-35269D01*
X44731Y-35402D01*
X44905Y-35475D01*
X45094Y-35475D01*
X45269Y-35403D01*
X45402Y-35269D01*
X45475Y-35095D01*
X45475Y-40906D01*
X45403Y-40731D01*
X45269Y-40598D01*
X45095Y-40525D01*
X44906Y-40525D01*
X44731Y-40597D01*
X44598Y-40731D01*
X44525Y-40905D01*
X44525Y-40989D01*
X44518Y-40868D01*
X44475Y-40764D01*
X44475Y-35095D01*
X44475Y-34906D01*
X44403Y-34731D01*
X44269Y-34598D01*
X44095Y-34525D01*
X43906Y-34525D01*
X43731Y-34597D01*
X43598Y-34731D01*
X43525Y-34905D01*
X43525Y-35094D01*
X43597Y-35269D01*
X43731Y-35402D01*
X43905Y-35475D01*
X44094Y-35475D01*
X44269Y-35403D01*
X44402Y-35269D01*
X44475Y-35095D01*
X44475Y-40764D01*
X44460Y-40728D01*
X44368Y-40703D01*
X44297Y-40774D01*
X44297Y-40632D01*
X44272Y-40540D01*
X44076Y-40470D01*
X43868Y-40482D01*
X43728Y-40540D01*
X43703Y-40632D01*
X44000Y-40929D01*
X44297Y-40632D01*
X44297Y-40774D01*
X44071Y-41000D01*
X44368Y-41297D01*
X44460Y-41272D01*
X44525Y-41090D01*
X44525Y-41094D01*
X44597Y-41269D01*
X44675Y-41346D01*
X44675Y-42365D01*
X44297Y-42743D01*
X44297Y-41368D01*
X44000Y-41071D01*
X43929Y-41142D01*
X43929Y-41000D01*
X43632Y-40703D01*
X43540Y-40728D01*
X43491Y-40865D01*
X43491Y-33957D01*
X43491Y-33759D01*
X43415Y-33576D01*
X43275Y-33435D01*
X43091Y-33359D01*
X42893Y-33359D01*
X42710Y-33435D01*
X42569Y-33575D01*
X42499Y-33742D01*
X42431Y-33576D01*
X42291Y-33435D01*
X42107Y-33359D01*
X41909Y-33359D01*
X41726Y-33435D01*
X41585Y-33575D01*
X41509Y-33759D01*
X41509Y-33957D01*
X41585Y-34140D01*
X41725Y-34281D01*
X41909Y-34357D01*
X42107Y-34357D01*
X42290Y-34281D01*
X42431Y-34141D01*
X42500Y-33973D01*
X42569Y-34140D01*
X42709Y-34281D01*
X42893Y-34357D01*
X43091Y-34357D01*
X43274Y-34281D01*
X43415Y-34141D01*
X43491Y-33957D01*
X43491Y-40865D01*
X43475Y-40910D01*
X43475Y-40906D01*
X43475Y-35095D01*
X43475Y-34906D01*
X43403Y-34731D01*
X43269Y-34598D01*
X43095Y-34525D01*
X42906Y-34525D01*
X42731Y-34597D01*
X42598Y-34731D01*
X42525Y-34905D01*
X42525Y-35094D01*
X42597Y-35269D01*
X42731Y-35402D01*
X42905Y-35475D01*
X43094Y-35475D01*
X43269Y-35403D01*
X43402Y-35269D01*
X43475Y-35095D01*
X43475Y-40906D01*
X43403Y-40731D01*
X43269Y-40598D01*
X43095Y-40525D01*
X42906Y-40525D01*
X42731Y-40597D01*
X42598Y-40731D01*
X42525Y-40905D01*
X42525Y-41094D01*
X42597Y-41269D01*
X42731Y-41402D01*
X42905Y-41475D01*
X43094Y-41475D01*
X43269Y-41403D01*
X43402Y-41269D01*
X43475Y-41095D01*
X43475Y-41010D01*
X43482Y-41132D01*
X43540Y-41272D01*
X43632Y-41297D01*
X43929Y-41000D01*
X43929Y-41142D01*
X43703Y-41368D01*
X43728Y-41460D01*
X43924Y-41530D01*
X44132Y-41518D01*
X44272Y-41460D01*
X44297Y-41368D01*
X44297Y-42743D01*
X42475Y-44565D01*
X42475Y-35095D01*
X42475Y-34906D01*
X42403Y-34731D01*
X42269Y-34598D01*
X42095Y-34525D01*
X41906Y-34525D01*
X41731Y-34597D01*
X41598Y-34731D01*
X41525Y-34905D01*
X41525Y-35094D01*
X41597Y-35269D01*
X41731Y-35402D01*
X41905Y-35475D01*
X42094Y-35475D01*
X42269Y-35403D01*
X42402Y-35269D01*
X42475Y-35095D01*
X42475Y-44565D01*
X42474Y-44566D01*
X42474Y-41315D01*
X42474Y-41236D01*
X42474Y-40686D01*
X42444Y-40613D01*
X42388Y-40557D01*
X42315Y-40526D01*
X42236Y-40526D01*
X41686Y-40526D01*
X41613Y-40556D01*
X41557Y-40612D01*
X41526Y-40685D01*
X41526Y-40764D01*
X41526Y-41314D01*
X41556Y-41387D01*
X41612Y-41443D01*
X41685Y-41474D01*
X41764Y-41474D01*
X42314Y-41474D01*
X42387Y-41444D01*
X42443Y-41388D01*
X42474Y-41315D01*
X42474Y-44566D01*
X42270Y-44770D01*
X42200Y-44876D01*
X42175Y-45000D01*
X42175Y-45501D01*
X42161Y-45501D01*
X42088Y-45531D01*
X42032Y-45587D01*
X42001Y-45660D01*
X42001Y-45739D01*
X42001Y-46339D01*
X42031Y-46412D01*
X42087Y-46468D01*
X42160Y-46499D01*
X42239Y-46499D01*
X42839Y-46499D01*
X42912Y-46469D01*
X42968Y-46413D01*
X42999Y-46340D01*
X42999Y-46261D01*
X42999Y-45661D01*
X42969Y-45588D01*
X42913Y-45532D01*
X42840Y-45501D01*
X42825Y-45501D01*
X42825Y-45134D01*
X45227Y-42731D01*
X45229Y-42730D01*
X45230Y-42730D01*
X45299Y-42625D01*
X45300Y-42624D01*
X45325Y-42500D01*
X45325Y-41346D01*
X45402Y-41269D01*
X45475Y-41095D01*
X45475Y-42565D01*
X43270Y-44770D01*
X43200Y-44876D01*
X43175Y-45000D01*
X43175Y-45619D01*
X43077Y-45717D01*
X43001Y-45901D01*
X43001Y-46099D01*
X43077Y-46282D01*
X43217Y-46423D01*
X43401Y-46499D01*
X43599Y-46499D01*
X43782Y-46423D01*
X43923Y-46283D01*
X43999Y-46099D01*
X43999Y-45901D01*
X43923Y-45718D01*
X43825Y-45619D01*
X43825Y-45134D01*
X46227Y-42731D01*
X46229Y-42730D01*
X46230Y-42730D01*
X46299Y-42625D01*
X46300Y-42624D01*
X46325Y-42500D01*
X46325Y-41346D01*
X46402Y-41269D01*
X46475Y-41095D01*
X46475Y-42565D01*
X44270Y-44770D01*
X44200Y-44876D01*
X44175Y-45000D01*
X44175Y-45619D01*
X44077Y-45717D01*
X44001Y-45901D01*
X44001Y-46099D01*
X44077Y-46282D01*
X44217Y-46423D01*
X44401Y-46499D01*
X44599Y-46499D01*
X44782Y-46423D01*
X44923Y-46283D01*
X44999Y-46099D01*
X44999Y-45901D01*
X44923Y-45718D01*
X44825Y-45619D01*
X44825Y-45134D01*
X47227Y-42731D01*
X47229Y-42730D01*
X47230Y-42730D01*
X47299Y-42625D01*
X47300Y-42624D01*
X47325Y-42500D01*
X47325Y-41346D01*
X47402Y-41269D01*
X47475Y-41095D01*
X47475Y-42565D01*
X45270Y-44770D01*
X45200Y-44876D01*
X45175Y-45000D01*
X45175Y-45619D01*
X45077Y-45717D01*
X45001Y-45901D01*
X45001Y-46099D01*
X45077Y-46282D01*
X45217Y-46423D01*
X45401Y-46499D01*
X45599Y-46499D01*
X45782Y-46423D01*
X45923Y-46283D01*
X45999Y-46099D01*
X45999Y-45901D01*
X45923Y-45718D01*
X45825Y-45619D01*
X45825Y-45134D01*
X48227Y-42731D01*
X48229Y-42730D01*
X48230Y-42730D01*
X48299Y-42625D01*
X48300Y-42624D01*
X48325Y-42500D01*
X48325Y-41346D01*
X48402Y-41269D01*
X48475Y-41095D01*
X48475Y-41010D01*
X48482Y-41132D01*
X48540Y-41272D01*
X48632Y-41297D01*
X48929Y-41000D01*
X48929Y-41142D01*
X48703Y-41368D01*
X48728Y-41460D01*
X48924Y-41530D01*
X49132Y-41518D01*
X49272Y-41460D01*
X49297Y-41368D01*
X49297Y-45544D01*
X49218Y-45577D01*
X49077Y-45717D01*
X49001Y-45901D01*
X49001Y-46099D01*
X49077Y-46282D01*
X49217Y-46423D01*
X49401Y-46499D01*
X49599Y-46499D01*
X49782Y-46423D01*
X49923Y-46283D01*
X49999Y-46099D01*
X49999Y-48150D01*
X48999Y-48150D01*
X48999Y-46099D01*
X48999Y-45901D01*
X48923Y-45718D01*
X48783Y-45577D01*
X48599Y-45501D01*
X48401Y-45501D01*
X48218Y-45577D01*
X48077Y-45717D01*
X48049Y-45784D01*
X48049Y-45749D01*
X48049Y-45650D01*
X48011Y-45559D01*
X47941Y-45489D01*
X47849Y-45451D01*
X47612Y-45450D01*
X47550Y-45512D01*
X47550Y-45900D01*
X47550Y-45950D01*
X47550Y-46050D01*
X47550Y-46100D01*
X47550Y-46488D01*
X47612Y-46550D01*
X47849Y-46549D01*
X47941Y-46511D01*
X48011Y-46441D01*
X48049Y-46350D01*
X48049Y-46251D01*
X48049Y-46215D01*
X48077Y-46282D01*
X48217Y-46423D01*
X48401Y-46499D01*
X48599Y-46499D01*
X48782Y-46423D01*
X48923Y-46283D01*
X48999Y-46099D01*
X48999Y-48150D01*
X47450Y-48150D01*
X47450Y-46488D01*
X47450Y-46050D01*
X47450Y-45950D01*
X47450Y-45512D01*
X47388Y-45450D01*
X47151Y-45451D01*
X47059Y-45489D01*
X46989Y-45559D01*
X46951Y-45650D01*
X46951Y-45749D01*
X46950Y-45888D01*
X47012Y-45950D01*
X47450Y-45950D01*
X47450Y-46050D01*
X47012Y-46050D01*
X46950Y-46112D01*
X46951Y-46251D01*
X46951Y-46350D01*
X46989Y-46441D01*
X47059Y-46511D01*
X47151Y-46549D01*
X47388Y-46550D01*
X47450Y-46488D01*
X47450Y-48150D01*
X41047Y-48150D01*
X41132Y-48115D01*
X41421Y-47827D01*
X41578Y-47449D01*
X41578Y-47041D01*
X41422Y-46663D01*
X41134Y-46374D01*
X40756Y-46217D01*
X40348Y-46217D01*
X39970Y-46373D01*
X39681Y-46661D01*
X39645Y-46747D01*
X39645Y-32779D01*
X39680Y-32864D01*
X39968Y-33153D01*
X40346Y-33310D01*
X40754Y-33310D01*
X41132Y-33154D01*
X41421Y-32866D01*
X41578Y-32488D01*
X41578Y-32080D01*
X41422Y-31702D01*
X41134Y-31413D01*
X41047Y-31377D01*
X77062Y-31377D01*
X76978Y-31412D01*
X76689Y-31700D01*
X76532Y-32078D01*
X76532Y-32486D01*
X76688Y-32864D01*
X76976Y-33153D01*
X77354Y-33310D01*
X77762Y-33310D01*
X78140Y-33154D01*
X78429Y-32866D01*
X78465Y-32779D01*
X78465Y-46747D01*
X78465Y-46747D01*
G37*
G54D22*
X78465Y-46747D02*
X78430Y-46663D01*
X78142Y-46374D01*
X77764Y-46217D01*
X77356Y-46217D01*
X76978Y-46373D01*
X76689Y-46661D01*
X76532Y-47039D01*
X76532Y-47447D01*
X76688Y-47825D01*
X76976Y-48114D01*
X77062Y-48150D01*
X76053Y-48150D01*
X76053Y-46081D01*
X76042Y-45863D01*
X75980Y-45714D01*
X75885Y-45685D01*
X75815Y-45755D01*
X75815Y-45615D01*
X75786Y-45520D01*
X75581Y-45447D01*
X75363Y-45458D01*
X75214Y-45520D01*
X75185Y-45615D01*
X75500Y-45929D01*
X75815Y-45615D01*
X75815Y-45755D01*
X75571Y-46000D01*
X75885Y-46315D01*
X75980Y-46286D01*
X76053Y-46081D01*
X76053Y-48150D01*
X75815Y-48150D01*
X75815Y-46385D01*
X75500Y-46071D01*
X75429Y-46141D01*
X75429Y-46000D01*
X75115Y-45685D01*
X75105Y-45688D01*
X75105Y-32382D01*
X75105Y-32184D01*
X75029Y-32001D01*
X74889Y-31860D01*
X74705Y-31784D01*
X74507Y-31784D01*
X74324Y-31860D01*
X74183Y-32000D01*
X74107Y-32184D01*
X74107Y-32382D01*
X74183Y-32565D01*
X74323Y-32706D01*
X74507Y-32782D01*
X74705Y-32782D01*
X74888Y-32706D01*
X75029Y-32566D01*
X75105Y-32382D01*
X75105Y-45688D01*
X75020Y-45714D01*
X74999Y-45772D01*
X74999Y-45661D01*
X74987Y-45631D01*
X74987Y-44075D01*
X74987Y-43877D01*
X74911Y-43694D01*
X74771Y-43553D01*
X74587Y-43477D01*
X74389Y-43477D01*
X74206Y-43553D01*
X74131Y-43627D01*
X74131Y-42227D01*
X74131Y-42025D01*
X74131Y-33815D01*
X74131Y-33736D01*
X74131Y-33116D01*
X74101Y-33043D01*
X74045Y-32987D01*
X73972Y-32956D01*
X73893Y-32956D01*
X73273Y-32956D01*
X73200Y-32986D01*
X73144Y-33042D01*
X73139Y-33051D01*
X73122Y-33034D01*
X72941Y-32958D01*
X73121Y-32778D01*
X73129Y-32782D01*
X73327Y-32782D01*
X73510Y-32706D01*
X73651Y-32566D01*
X73727Y-32382D01*
X73727Y-32184D01*
X73651Y-32001D01*
X73511Y-31860D01*
X73327Y-31784D01*
X73129Y-31784D01*
X72946Y-31860D01*
X72805Y-32000D01*
X72729Y-32184D01*
X72729Y-32382D01*
X72732Y-32389D01*
X72161Y-32961D01*
X72148Y-32956D01*
X71946Y-32956D01*
X71759Y-33033D01*
X71653Y-33139D01*
X71556Y-33042D01*
X71556Y-31886D01*
X71556Y-31737D01*
X71499Y-31599D01*
X71394Y-31494D01*
X71256Y-31436D01*
X71107Y-31436D01*
X70969Y-31493D01*
X70864Y-31598D01*
X70806Y-31736D01*
X70806Y-31797D01*
X70419Y-32184D01*
X70359Y-32184D01*
X70221Y-32241D01*
X70116Y-32346D01*
X70058Y-32484D01*
X70058Y-32633D01*
X70115Y-32771D01*
X70220Y-32876D01*
X70358Y-32934D01*
X70507Y-32934D01*
X70645Y-32877D01*
X70750Y-32772D01*
X70808Y-32634D01*
X70808Y-32572D01*
X71194Y-32186D01*
X71255Y-32186D01*
X71393Y-32129D01*
X71498Y-32024D01*
X71556Y-31886D01*
X71556Y-33042D01*
X71548Y-33034D01*
X71361Y-32956D01*
X71159Y-32956D01*
X70972Y-33033D01*
X70866Y-33139D01*
X70760Y-33034D01*
X70573Y-32956D01*
X70371Y-32956D01*
X70184Y-33033D01*
X70078Y-33139D01*
X69973Y-33034D01*
X69786Y-32956D01*
X69584Y-32956D01*
X69397Y-33033D01*
X69291Y-33139D01*
X69185Y-33034D01*
X68998Y-32956D01*
X68796Y-32956D01*
X68609Y-33033D01*
X68503Y-33139D01*
X68398Y-33034D01*
X68211Y-32956D01*
X68009Y-32956D01*
X67822Y-33033D01*
X67716Y-33139D01*
X67611Y-33034D01*
X67424Y-32956D01*
X67222Y-32956D01*
X67035Y-33033D01*
X66892Y-33177D01*
X66891Y-33178D01*
X66857Y-33212D01*
X66857Y-33073D01*
X66828Y-32977D01*
X66618Y-32902D01*
X66396Y-32913D01*
X66242Y-32977D01*
X66213Y-33073D01*
X66535Y-33394D01*
X66857Y-33073D01*
X66857Y-33212D01*
X66606Y-33465D01*
X66889Y-33749D01*
X66891Y-33753D01*
X67035Y-33896D01*
X67222Y-33974D01*
X67424Y-33974D01*
X67611Y-33897D01*
X67716Y-33790D01*
X67822Y-33896D01*
X68009Y-33974D01*
X68211Y-33974D01*
X68398Y-33897D01*
X68503Y-33790D01*
X68609Y-33896D01*
X68796Y-33974D01*
X68998Y-33974D01*
X69185Y-33897D01*
X69290Y-33790D01*
X69397Y-33896D01*
X69584Y-33974D01*
X69786Y-33974D01*
X69973Y-33897D01*
X70078Y-33790D01*
X70184Y-33896D01*
X70371Y-33974D01*
X70573Y-33974D01*
X70760Y-33897D01*
X70865Y-33790D01*
X70972Y-33896D01*
X71159Y-33974D01*
X71361Y-33974D01*
X71548Y-33897D01*
X71653Y-33790D01*
X71759Y-33896D01*
X71946Y-33974D01*
X72148Y-33974D01*
X72335Y-33897D01*
X72440Y-33790D01*
X72546Y-33896D01*
X72733Y-33974D01*
X72935Y-33974D01*
X73122Y-33897D01*
X73139Y-33879D01*
X73143Y-33887D01*
X73199Y-33943D01*
X73272Y-33974D01*
X73351Y-33974D01*
X73971Y-33974D01*
X74044Y-33944D01*
X74100Y-33888D01*
X74131Y-33815D01*
X74131Y-42025D01*
X74054Y-41838D01*
X73910Y-41695D01*
X73723Y-41617D01*
X73521Y-41617D01*
X73334Y-41694D01*
X73228Y-41800D01*
X73122Y-41695D01*
X72935Y-41617D01*
X72733Y-41617D01*
X72546Y-41694D01*
X72440Y-41800D01*
X72335Y-41695D01*
X72148Y-41617D01*
X71946Y-41617D01*
X71759Y-41694D01*
X71653Y-41800D01*
X71548Y-41695D01*
X71361Y-41617D01*
X71159Y-41617D01*
X70972Y-41694D01*
X70866Y-41800D01*
X70760Y-41695D01*
X70573Y-41617D01*
X70371Y-41617D01*
X70184Y-41694D01*
X70078Y-41800D01*
X69973Y-41695D01*
X69786Y-41617D01*
X69584Y-41617D01*
X69397Y-41694D01*
X69291Y-41800D01*
X69185Y-41695D01*
X68998Y-41617D01*
X68796Y-41617D01*
X68609Y-41694D01*
X68503Y-41800D01*
X68398Y-41695D01*
X68211Y-41617D01*
X68009Y-41617D01*
X67822Y-41694D01*
X67716Y-41800D01*
X67611Y-41695D01*
X67424Y-41617D01*
X67222Y-41617D01*
X67035Y-41694D01*
X66929Y-41800D01*
X66857Y-41728D01*
X66857Y-33857D01*
X66535Y-33536D01*
X66464Y-33606D01*
X66464Y-33465D01*
X66143Y-33143D01*
X66047Y-33172D01*
X65972Y-33382D01*
X65983Y-33604D01*
X66047Y-33758D01*
X66143Y-33787D01*
X66464Y-33465D01*
X66464Y-33606D01*
X66213Y-33857D01*
X66242Y-33953D01*
X66452Y-34028D01*
X66674Y-34017D01*
X66828Y-33953D01*
X66857Y-33857D01*
X66857Y-41728D01*
X66823Y-41695D01*
X66636Y-41617D01*
X66434Y-41617D01*
X66247Y-41694D01*
X66104Y-41838D01*
X66026Y-42025D01*
X66026Y-42227D01*
X66103Y-42414D01*
X66247Y-42557D01*
X66434Y-42635D01*
X66636Y-42635D01*
X66823Y-42558D01*
X66928Y-42451D01*
X67035Y-42557D01*
X67222Y-42635D01*
X67424Y-42635D01*
X67611Y-42558D01*
X67716Y-42451D01*
X67822Y-42557D01*
X68009Y-42635D01*
X68211Y-42635D01*
X68398Y-42558D01*
X68503Y-42451D01*
X68609Y-42557D01*
X68796Y-42635D01*
X68998Y-42635D01*
X69185Y-42558D01*
X69290Y-42451D01*
X69397Y-42557D01*
X69584Y-42635D01*
X69786Y-42635D01*
X69973Y-42558D01*
X70078Y-42451D01*
X70184Y-42557D01*
X70371Y-42635D01*
X70573Y-42635D01*
X70760Y-42558D01*
X70865Y-42451D01*
X70972Y-42557D01*
X71159Y-42635D01*
X71361Y-42635D01*
X71548Y-42558D01*
X71653Y-42451D01*
X71759Y-42557D01*
X71946Y-42635D01*
X72148Y-42635D01*
X72335Y-42558D01*
X72440Y-42451D01*
X72546Y-42557D01*
X72733Y-42635D01*
X72935Y-42635D01*
X73122Y-42558D01*
X73227Y-42451D01*
X73334Y-42557D01*
X73521Y-42635D01*
X73723Y-42635D01*
X73910Y-42558D01*
X74053Y-42414D01*
X74131Y-42227D01*
X74131Y-43627D01*
X74065Y-43693D01*
X73989Y-43877D01*
X73989Y-44075D01*
X74065Y-44258D01*
X74205Y-44399D01*
X74389Y-44475D01*
X74587Y-44475D01*
X74770Y-44399D01*
X74911Y-44259D01*
X74987Y-44075D01*
X74987Y-45631D01*
X74969Y-45588D01*
X74913Y-45532D01*
X74840Y-45501D01*
X74761Y-45501D01*
X74161Y-45501D01*
X74088Y-45531D01*
X74032Y-45587D01*
X74001Y-45660D01*
X74001Y-45739D01*
X74001Y-46339D01*
X74031Y-46412D01*
X74087Y-46468D01*
X74160Y-46499D01*
X74239Y-46499D01*
X74839Y-46499D01*
X74912Y-46469D01*
X74968Y-46413D01*
X74999Y-46340D01*
X74999Y-46261D01*
X74999Y-46235D01*
X75020Y-46286D01*
X75115Y-46315D01*
X75429Y-46000D01*
X75429Y-46141D01*
X75185Y-46385D01*
X75214Y-46480D01*
X75419Y-46553D01*
X75637Y-46542D01*
X75786Y-46480D01*
X75815Y-46385D01*
X75815Y-48150D01*
X73053Y-48150D01*
X73053Y-46081D01*
X73042Y-45863D01*
X72980Y-45714D01*
X72979Y-45713D01*
X72979Y-44075D01*
X72979Y-43877D01*
X72903Y-43694D01*
X72763Y-43553D01*
X72579Y-43477D01*
X72381Y-43477D01*
X72198Y-43553D01*
X72057Y-43693D01*
X71981Y-43877D01*
X71981Y-44075D01*
X72057Y-44258D01*
X72197Y-44399D01*
X72381Y-44475D01*
X72579Y-44475D01*
X72762Y-44399D01*
X72903Y-44259D01*
X72979Y-44075D01*
X72979Y-45713D01*
X72885Y-45685D01*
X72815Y-45755D01*
X72815Y-45615D01*
X72786Y-45520D01*
X72581Y-45447D01*
X72363Y-45458D01*
X72214Y-45520D01*
X72185Y-45615D01*
X72500Y-45929D01*
X72815Y-45615D01*
X72815Y-45755D01*
X72571Y-46000D01*
X72885Y-46315D01*
X72980Y-46286D01*
X73053Y-46081D01*
X73053Y-48150D01*
X72815Y-48150D01*
X72815Y-46385D01*
X72500Y-46071D01*
X72429Y-46141D01*
X72429Y-46000D01*
X72115Y-45685D01*
X72020Y-45714D01*
X71974Y-45841D01*
X71923Y-45718D01*
X71783Y-45577D01*
X71599Y-45501D01*
X71401Y-45501D01*
X71218Y-45577D01*
X71077Y-45717D01*
X71029Y-45832D01*
X70980Y-45714D01*
X70885Y-45685D01*
X70815Y-45755D01*
X70815Y-45615D01*
X70786Y-45520D01*
X70581Y-45447D01*
X70363Y-45458D01*
X70214Y-45520D01*
X70185Y-45615D01*
X70500Y-45929D01*
X70815Y-45615D01*
X70815Y-45755D01*
X70571Y-46000D01*
X70885Y-46315D01*
X70980Y-46286D01*
X71025Y-46158D01*
X71077Y-46282D01*
X71217Y-46423D01*
X71401Y-46499D01*
X71599Y-46499D01*
X71782Y-46423D01*
X71923Y-46283D01*
X71970Y-46167D01*
X72020Y-46286D01*
X72115Y-46315D01*
X72429Y-46000D01*
X72429Y-46141D01*
X72185Y-46385D01*
X72214Y-46480D01*
X72419Y-46553D01*
X72637Y-46542D01*
X72786Y-46480D01*
X72815Y-46385D01*
X72815Y-48150D01*
X70815Y-48150D01*
X70815Y-46385D01*
X70500Y-46071D01*
X70429Y-46141D01*
X70429Y-46000D01*
X70115Y-45685D01*
X70020Y-45714D01*
X69999Y-45772D01*
X69999Y-45661D01*
X69969Y-45588D01*
X69913Y-45532D01*
X69840Y-45501D01*
X69761Y-45501D01*
X69161Y-45501D01*
X69088Y-45531D01*
X69032Y-45587D01*
X69001Y-45660D01*
X69001Y-45739D01*
X69001Y-46339D01*
X69031Y-46412D01*
X69087Y-46468D01*
X69160Y-46499D01*
X69239Y-46499D01*
X69839Y-46499D01*
X69912Y-46469D01*
X69968Y-46413D01*
X69999Y-46340D01*
X69999Y-46261D01*
X69999Y-46235D01*
X70020Y-46286D01*
X70115Y-46315D01*
X70429Y-46000D01*
X70429Y-46141D01*
X70185Y-46385D01*
X70214Y-46480D01*
X70419Y-46553D01*
X70637Y-46542D01*
X70786Y-46480D01*
X70815Y-46385D01*
X70815Y-48150D01*
X68053Y-48150D01*
X68053Y-46081D01*
X68042Y-45863D01*
X67980Y-45714D01*
X67885Y-45685D01*
X67815Y-45755D01*
X67815Y-45615D01*
X67786Y-45520D01*
X67581Y-45447D01*
X67363Y-45458D01*
X67214Y-45520D01*
X67185Y-45615D01*
X67500Y-45929D01*
X67815Y-45615D01*
X67815Y-45755D01*
X67571Y-46000D01*
X67885Y-46315D01*
X67980Y-46286D01*
X68053Y-46081D01*
X68053Y-48150D01*
X67815Y-48150D01*
X67815Y-46385D01*
X67500Y-46071D01*
X67429Y-46141D01*
X67429Y-46000D01*
X67115Y-45685D01*
X67020Y-45714D01*
X66999Y-45772D01*
X66999Y-45661D01*
X66969Y-45588D01*
X66913Y-45532D01*
X66840Y-45501D01*
X66761Y-45501D01*
X66161Y-45501D01*
X66088Y-45531D01*
X66032Y-45587D01*
X66001Y-45660D01*
X66001Y-45739D01*
X66001Y-46339D01*
X66031Y-46412D01*
X66087Y-46468D01*
X66160Y-46499D01*
X66239Y-46499D01*
X66839Y-46499D01*
X66912Y-46469D01*
X66968Y-46413D01*
X66999Y-46340D01*
X66999Y-46261D01*
X66999Y-46235D01*
X67020Y-46286D01*
X67115Y-46315D01*
X67429Y-46000D01*
X67429Y-46141D01*
X67185Y-46385D01*
X67214Y-46480D01*
X67419Y-46553D01*
X67637Y-46542D01*
X67786Y-46480D01*
X67815Y-46385D01*
X67815Y-48150D01*
X65027Y-48150D01*
X65027Y-45414D01*
X65027Y-45216D01*
X64951Y-45033D01*
X64811Y-44892D01*
X64627Y-44816D01*
X64509Y-44816D01*
X64509Y-32713D01*
X64509Y-32564D01*
X64452Y-32426D01*
X64347Y-32321D01*
X64209Y-32263D01*
X64060Y-32263D01*
X63922Y-32320D01*
X63879Y-32363D01*
X62775Y-32363D01*
X62733Y-32321D01*
X62595Y-32263D01*
X62446Y-32263D01*
X62308Y-32320D01*
X62203Y-32425D01*
X62145Y-32563D01*
X62145Y-32712D01*
X62202Y-32850D01*
X62307Y-32955D01*
X62445Y-33013D01*
X62594Y-33013D01*
X62732Y-32956D01*
X62775Y-32913D01*
X63879Y-32913D01*
X63921Y-32955D01*
X64059Y-33013D01*
X64208Y-33013D01*
X64346Y-32956D01*
X64451Y-32851D01*
X64509Y-32713D01*
X64509Y-44816D01*
X64475Y-44816D01*
X64475Y-35926D01*
X64475Y-35728D01*
X64399Y-35545D01*
X64259Y-35404D01*
X64075Y-35328D01*
X63885Y-35328D01*
X63885Y-33760D01*
X63885Y-33562D01*
X63809Y-33379D01*
X63669Y-33238D01*
X63485Y-33162D01*
X63287Y-33162D01*
X63104Y-33238D01*
X62963Y-33378D01*
X62887Y-33562D01*
X62887Y-33760D01*
X62963Y-33943D01*
X63103Y-34084D01*
X63287Y-34160D01*
X63485Y-34160D01*
X63668Y-34084D01*
X63809Y-33944D01*
X63885Y-33760D01*
X63885Y-35328D01*
X63877Y-35328D01*
X63694Y-35404D01*
X63553Y-35544D01*
X63477Y-35728D01*
X63477Y-35926D01*
X63553Y-36109D01*
X63693Y-36250D01*
X63877Y-36326D01*
X64075Y-36326D01*
X64258Y-36250D01*
X64399Y-36110D01*
X64475Y-35926D01*
X64475Y-44816D01*
X64430Y-44816D01*
X64430Y-43500D01*
X64430Y-43351D01*
X64373Y-43213D01*
X64268Y-43108D01*
X64130Y-43050D01*
X63981Y-43050D01*
X63843Y-43107D01*
X63738Y-43212D01*
X63687Y-43332D01*
X62895Y-44124D01*
X62895Y-36414D01*
X62895Y-36265D01*
X62838Y-36127D01*
X62733Y-36022D01*
X62595Y-35964D01*
X62446Y-35964D01*
X62308Y-36021D01*
X62240Y-36089D01*
X61461Y-36089D01*
X61394Y-36022D01*
X61256Y-35964D01*
X61107Y-35964D01*
X60969Y-36021D01*
X60901Y-36089D01*
X59278Y-36089D01*
X57586Y-34397D01*
X57776Y-34397D01*
X57959Y-34321D01*
X58100Y-34181D01*
X58176Y-33997D01*
X58176Y-33799D01*
X58100Y-33616D01*
X57960Y-33475D01*
X57776Y-33399D01*
X57578Y-33399D01*
X57395Y-33475D01*
X57254Y-33615D01*
X57178Y-33799D01*
X57178Y-33916D01*
X57052Y-33916D01*
X56914Y-33973D01*
X56809Y-34078D01*
X56751Y-34216D01*
X56751Y-34365D01*
X56808Y-34503D01*
X56913Y-34608D01*
X57051Y-34666D01*
X57147Y-34666D01*
X58124Y-35643D01*
X58051Y-35643D01*
X57868Y-35719D01*
X57727Y-35859D01*
X57651Y-36043D01*
X57651Y-36241D01*
X57727Y-36424D01*
X57867Y-36565D01*
X58051Y-36641D01*
X58249Y-36641D01*
X58432Y-36565D01*
X58573Y-36425D01*
X58649Y-36241D01*
X58649Y-36168D01*
X58994Y-36513D01*
X58996Y-36516D01*
X59077Y-36570D01*
X59173Y-36589D01*
X60901Y-36589D01*
X60968Y-36656D01*
X61106Y-36714D01*
X61255Y-36714D01*
X61393Y-36657D01*
X61461Y-36589D01*
X62240Y-36589D01*
X62307Y-36656D01*
X62445Y-36714D01*
X62594Y-36714D01*
X62732Y-36657D01*
X62837Y-36552D01*
X62895Y-36414D01*
X62895Y-44124D01*
X62499Y-44520D01*
X62499Y-42840D01*
X62499Y-42761D01*
X62499Y-42161D01*
X62499Y-41599D01*
X62499Y-41401D01*
X62499Y-40599D01*
X62499Y-40401D01*
X62423Y-40218D01*
X62283Y-40077D01*
X62099Y-40001D01*
X61901Y-40001D01*
X61718Y-40077D01*
X61577Y-40217D01*
X61529Y-40332D01*
X61480Y-40214D01*
X61385Y-40185D01*
X61315Y-40255D01*
X61315Y-40115D01*
X61286Y-40020D01*
X61168Y-39977D01*
X61168Y-38485D01*
X61168Y-38287D01*
X61092Y-38104D01*
X60952Y-37963D01*
X60768Y-37887D01*
X60570Y-37887D01*
X60387Y-37963D01*
X60246Y-38103D01*
X60170Y-38287D01*
X60170Y-38485D01*
X60246Y-38668D01*
X60386Y-38809D01*
X60570Y-38885D01*
X60768Y-38885D01*
X60951Y-38809D01*
X61092Y-38669D01*
X61168Y-38485D01*
X61168Y-39977D01*
X61081Y-39947D01*
X60863Y-39958D01*
X60714Y-40020D01*
X60685Y-40115D01*
X61000Y-40429D01*
X61315Y-40115D01*
X61315Y-40255D01*
X61071Y-40500D01*
X61385Y-40815D01*
X61480Y-40786D01*
X61525Y-40658D01*
X61577Y-40782D01*
X61717Y-40923D01*
X61901Y-40999D01*
X62099Y-40999D01*
X62282Y-40923D01*
X62423Y-40783D01*
X62499Y-40599D01*
X62499Y-41401D01*
X62423Y-41218D01*
X62283Y-41077D01*
X62099Y-41001D01*
X61901Y-41001D01*
X61718Y-41077D01*
X61577Y-41217D01*
X61501Y-41401D01*
X61501Y-41599D01*
X61577Y-41782D01*
X61717Y-41923D01*
X61901Y-41999D01*
X62099Y-41999D01*
X62282Y-41923D01*
X62423Y-41783D01*
X62499Y-41599D01*
X62499Y-42161D01*
X62469Y-42088D01*
X62413Y-42032D01*
X62340Y-42001D01*
X62261Y-42001D01*
X61661Y-42001D01*
X61588Y-42031D01*
X61532Y-42087D01*
X61501Y-42160D01*
X61501Y-42239D01*
X61501Y-42839D01*
X61531Y-42912D01*
X61587Y-42968D01*
X61660Y-42999D01*
X61739Y-42999D01*
X62339Y-42999D01*
X62412Y-42969D01*
X62468Y-42913D01*
X62499Y-42840D01*
X62499Y-44520D01*
X62269Y-44750D01*
X62150Y-44800D01*
X62045Y-44905D01*
X61987Y-45043D01*
X61987Y-45192D01*
X62044Y-45330D01*
X62149Y-45435D01*
X62287Y-45493D01*
X62436Y-45493D01*
X62574Y-45436D01*
X62679Y-45331D01*
X62729Y-45210D01*
X64147Y-43792D01*
X64267Y-43743D01*
X64372Y-43638D01*
X64430Y-43500D01*
X64430Y-44816D01*
X64429Y-44816D01*
X64246Y-44892D01*
X64105Y-45032D01*
X64029Y-45216D01*
X64029Y-45414D01*
X64105Y-45597D01*
X64245Y-45738D01*
X64429Y-45814D01*
X64627Y-45814D01*
X64810Y-45738D01*
X64951Y-45598D01*
X65027Y-45414D01*
X65027Y-48150D01*
X61499Y-48150D01*
X61499Y-42599D01*
X61499Y-42401D01*
X61499Y-41599D01*
X61499Y-41401D01*
X61423Y-41218D01*
X61283Y-41077D01*
X61167Y-41029D01*
X61286Y-40980D01*
X61315Y-40885D01*
X61035Y-40606D01*
X61000Y-40571D01*
X60929Y-40500D01*
X60894Y-40465D01*
X60615Y-40185D01*
X60520Y-40214D01*
X60458Y-40385D01*
X60429Y-40373D01*
X60280Y-40373D01*
X60142Y-40430D01*
X60037Y-40535D01*
X59979Y-40673D01*
X59979Y-40769D01*
X58190Y-42558D01*
X58095Y-42558D01*
X57957Y-42615D01*
X57852Y-42720D01*
X57794Y-42858D01*
X57794Y-43007D01*
X57851Y-43145D01*
X57956Y-43250D01*
X58094Y-43308D01*
X58243Y-43308D01*
X58381Y-43251D01*
X58486Y-43146D01*
X58544Y-43008D01*
X58544Y-42912D01*
X60333Y-41123D01*
X60428Y-41123D01*
X60566Y-41066D01*
X60670Y-40961D01*
X60675Y-40966D01*
X60701Y-40939D01*
X60714Y-40980D01*
X60841Y-41025D01*
X60718Y-41077D01*
X60577Y-41217D01*
X60501Y-41401D01*
X60501Y-41599D01*
X60577Y-41782D01*
X60717Y-41923D01*
X60901Y-41999D01*
X61099Y-41999D01*
X61282Y-41923D01*
X61423Y-41783D01*
X61499Y-41599D01*
X61499Y-42401D01*
X61423Y-42218D01*
X61283Y-42077D01*
X61099Y-42001D01*
X60901Y-42001D01*
X60718Y-42077D01*
X60577Y-42217D01*
X60501Y-42401D01*
X60501Y-42597D01*
X58749Y-44349D01*
X58706Y-44349D01*
X58568Y-44406D01*
X58463Y-44511D01*
X58405Y-44649D01*
X58405Y-44798D01*
X58462Y-44936D01*
X58567Y-45041D01*
X58705Y-45099D01*
X58854Y-45099D01*
X58992Y-45042D01*
X59097Y-44937D01*
X59155Y-44799D01*
X59155Y-44755D01*
X60911Y-42999D01*
X61099Y-42999D01*
X61282Y-42923D01*
X61423Y-42783D01*
X61499Y-42599D01*
X61499Y-48150D01*
X58781Y-48150D01*
X58781Y-46971D01*
X58770Y-46753D01*
X58708Y-46604D01*
X58613Y-46575D01*
X58543Y-46645D01*
X58543Y-46505D01*
X58514Y-46410D01*
X58309Y-46337D01*
X58091Y-46348D01*
X57942Y-46410D01*
X57913Y-46505D01*
X58228Y-46819D01*
X58543Y-46505D01*
X58543Y-46645D01*
X58299Y-46890D01*
X58613Y-47205D01*
X58708Y-47176D01*
X58781Y-46971D01*
X58781Y-48150D01*
X58543Y-48150D01*
X58543Y-47275D01*
X58228Y-46961D01*
X58157Y-47031D01*
X58157Y-46890D01*
X57843Y-46575D01*
X57748Y-46604D01*
X57743Y-46618D01*
X57743Y-45414D01*
X57743Y-45216D01*
X57667Y-45033D01*
X57527Y-44892D01*
X57343Y-44816D01*
X57145Y-44816D01*
X56962Y-44892D01*
X56821Y-45032D01*
X56745Y-45216D01*
X56745Y-45414D01*
X56821Y-45597D01*
X56961Y-45738D01*
X57145Y-45814D01*
X57343Y-45814D01*
X57526Y-45738D01*
X57667Y-45598D01*
X57743Y-45414D01*
X57743Y-46618D01*
X57675Y-46809D01*
X57686Y-47027D01*
X57748Y-47176D01*
X57843Y-47205D01*
X58157Y-46890D01*
X58157Y-47031D01*
X57913Y-47275D01*
X57942Y-47370D01*
X58147Y-47443D01*
X58365Y-47432D01*
X58514Y-47370D01*
X58543Y-47275D01*
X58543Y-48150D01*
X56553Y-48150D01*
X56553Y-43581D01*
X56542Y-43363D01*
X56480Y-43214D01*
X56477Y-43213D01*
X56477Y-39288D01*
X56477Y-39139D01*
X56420Y-39001D01*
X56377Y-38958D01*
X56377Y-33523D01*
X56419Y-33481D01*
X56477Y-33343D01*
X56477Y-33194D01*
X56420Y-33056D01*
X56315Y-32951D01*
X56177Y-32893D01*
X56028Y-32893D01*
X55890Y-32950D01*
X55785Y-33055D01*
X55727Y-33193D01*
X55727Y-33342D01*
X55784Y-33480D01*
X55827Y-33523D01*
X55827Y-33720D01*
X55823Y-33719D01*
X55674Y-33719D01*
X55536Y-33776D01*
X55431Y-33881D01*
X55373Y-34019D01*
X55373Y-34034D01*
X55280Y-34034D01*
X55142Y-34091D01*
X55037Y-34196D01*
X54979Y-34334D01*
X54979Y-34389D01*
X54926Y-34389D01*
X54803Y-34439D01*
X54803Y-33916D01*
X54845Y-33874D01*
X54903Y-33736D01*
X54903Y-33587D01*
X54846Y-33449D01*
X54803Y-33406D01*
X54803Y-32984D01*
X54810Y-32982D01*
X54951Y-32842D01*
X55027Y-32658D01*
X55027Y-32460D01*
X54951Y-32277D01*
X54811Y-32136D01*
X54627Y-32060D01*
X54429Y-32060D01*
X54246Y-32136D01*
X54105Y-32276D01*
X54029Y-32460D01*
X54029Y-32658D01*
X54105Y-32841D01*
X54245Y-32982D01*
X54253Y-32985D01*
X54253Y-33406D01*
X54211Y-33448D01*
X54153Y-33586D01*
X54153Y-33735D01*
X54210Y-33873D01*
X54253Y-33916D01*
X54253Y-37383D01*
X54211Y-37425D01*
X54153Y-37563D01*
X54153Y-37712D01*
X54210Y-37850D01*
X54315Y-37955D01*
X54453Y-38013D01*
X54602Y-38013D01*
X54740Y-37956D01*
X54750Y-37946D01*
X54750Y-38126D01*
X54683Y-38193D01*
X54625Y-38331D01*
X54625Y-38480D01*
X54682Y-38618D01*
X54787Y-38723D01*
X54925Y-38781D01*
X55074Y-38781D01*
X55079Y-38778D01*
X55079Y-38958D01*
X55037Y-39000D01*
X54979Y-39138D01*
X54979Y-39287D01*
X55036Y-39425D01*
X55141Y-39530D01*
X55279Y-39588D01*
X55428Y-39588D01*
X55566Y-39531D01*
X55671Y-39426D01*
X55728Y-39289D01*
X55784Y-39425D01*
X55889Y-39530D01*
X56027Y-39588D01*
X56176Y-39588D01*
X56314Y-39531D01*
X56419Y-39426D01*
X56477Y-39288D01*
X56477Y-43213D01*
X56385Y-43185D01*
X56315Y-43255D01*
X56315Y-43115D01*
X56286Y-43020D01*
X56081Y-42947D01*
X55987Y-42951D01*
X56005Y-42910D01*
X56005Y-42761D01*
X55948Y-42623D01*
X55905Y-42580D01*
X55905Y-41436D01*
X55947Y-41394D01*
X56005Y-41256D01*
X56005Y-41107D01*
X55948Y-40969D01*
X55843Y-40864D01*
X55705Y-40806D01*
X55556Y-40806D01*
X55418Y-40863D01*
X55313Y-40968D01*
X55255Y-41106D01*
X55255Y-41255D01*
X55312Y-41393D01*
X55355Y-41436D01*
X55355Y-42580D01*
X55313Y-42622D01*
X55255Y-42760D01*
X55255Y-42909D01*
X55293Y-43001D01*
X55261Y-43001D01*
X54661Y-43001D01*
X54588Y-43031D01*
X54532Y-43087D01*
X54501Y-43160D01*
X54501Y-43239D01*
X54501Y-43839D01*
X54531Y-43912D01*
X54587Y-43968D01*
X54660Y-43999D01*
X54739Y-43999D01*
X55339Y-43999D01*
X55412Y-43969D01*
X55468Y-43913D01*
X55499Y-43840D01*
X55499Y-43761D01*
X55499Y-43735D01*
X55520Y-43786D01*
X55615Y-43815D01*
X55894Y-43535D01*
X55929Y-43500D01*
X56000Y-43429D01*
X56035Y-43394D01*
X56315Y-43115D01*
X56315Y-43255D01*
X56071Y-43500D01*
X56385Y-43815D01*
X56480Y-43786D01*
X56553Y-43581D01*
X56553Y-48150D01*
X56315Y-48150D01*
X56315Y-43885D01*
X56000Y-43571D01*
X55685Y-43885D01*
X55714Y-43980D01*
X55919Y-44053D01*
X56137Y-44042D01*
X56286Y-43980D01*
X56315Y-43885D01*
X56315Y-48150D01*
X56053Y-48150D01*
X56053Y-46081D01*
X56042Y-45863D01*
X55980Y-45714D01*
X55885Y-45685D01*
X55815Y-45755D01*
X55815Y-45615D01*
X55786Y-45520D01*
X55581Y-45447D01*
X55363Y-45458D01*
X55214Y-45520D01*
X55185Y-45615D01*
X55500Y-45929D01*
X55815Y-45615D01*
X55815Y-45755D01*
X55571Y-46000D01*
X55885Y-46315D01*
X55980Y-46286D01*
X56053Y-46081D01*
X56053Y-48150D01*
X55815Y-48150D01*
X55815Y-46385D01*
X55500Y-46071D01*
X55429Y-46141D01*
X55429Y-46000D01*
X55115Y-45685D01*
X55020Y-45714D01*
X54974Y-45841D01*
X54923Y-45718D01*
X54783Y-45577D01*
X54599Y-45501D01*
X54401Y-45501D01*
X54218Y-45577D01*
X54077Y-45717D01*
X54029Y-45832D01*
X53980Y-45714D01*
X53885Y-45685D01*
X53815Y-45755D01*
X53815Y-45615D01*
X53786Y-45520D01*
X53581Y-45447D01*
X53363Y-45458D01*
X53214Y-45520D01*
X53185Y-45615D01*
X53500Y-45929D01*
X53815Y-45615D01*
X53815Y-45755D01*
X53571Y-46000D01*
X53885Y-46315D01*
X53980Y-46286D01*
X54025Y-46158D01*
X54077Y-46282D01*
X54217Y-46423D01*
X54401Y-46499D01*
X54599Y-46499D01*
X54782Y-46423D01*
X54923Y-46283D01*
X54970Y-46167D01*
X55020Y-46286D01*
X55115Y-46315D01*
X55429Y-46000D01*
X55429Y-46141D01*
X55185Y-46385D01*
X55214Y-46480D01*
X55419Y-46553D01*
X55637Y-46542D01*
X55786Y-46480D01*
X55815Y-46385D01*
X55815Y-48150D01*
X53815Y-48150D01*
X53815Y-46385D01*
X53500Y-46071D01*
X53429Y-46141D01*
X53429Y-46000D01*
X53115Y-45685D01*
X53020Y-45714D01*
X52999Y-45772D01*
X52999Y-45661D01*
X52969Y-45588D01*
X52913Y-45532D01*
X52840Y-45501D01*
X52761Y-45501D01*
X52161Y-45501D01*
X52088Y-45531D01*
X52032Y-45587D01*
X52001Y-45660D01*
X52001Y-45739D01*
X52001Y-46339D01*
X52031Y-46412D01*
X52087Y-46468D01*
X52160Y-46499D01*
X52239Y-46499D01*
X52839Y-46499D01*
X52912Y-46469D01*
X52968Y-46413D01*
X52999Y-46340D01*
X52999Y-46261D01*
X52999Y-46235D01*
X53020Y-46286D01*
X53115Y-46315D01*
X53429Y-46000D01*
X53429Y-46141D01*
X53185Y-46385D01*
X53214Y-46480D01*
X53419Y-46553D01*
X53637Y-46542D01*
X53786Y-46480D01*
X53815Y-46385D01*
X53815Y-48150D01*
X50999Y-48150D01*
X50999Y-46099D01*
X50999Y-45901D01*
X50926Y-45725D01*
X50926Y-37792D01*
X50926Y-37643D01*
X50869Y-37505D01*
X50838Y-37474D01*
X50838Y-36542D01*
X50868Y-36512D01*
X50926Y-36374D01*
X50926Y-36225D01*
X50869Y-36087D01*
X50764Y-35982D01*
X50626Y-35924D01*
X50477Y-35924D01*
X50339Y-35981D01*
X50234Y-36086D01*
X50176Y-36224D01*
X50176Y-36373D01*
X50233Y-36511D01*
X50264Y-36542D01*
X50264Y-37474D01*
X50234Y-37504D01*
X50176Y-37642D01*
X50176Y-37791D01*
X50233Y-37929D01*
X50338Y-38034D01*
X50476Y-38092D01*
X50625Y-38092D01*
X50763Y-38035D01*
X50868Y-37930D01*
X50926Y-37792D01*
X50926Y-45725D01*
X50923Y-45718D01*
X50783Y-45577D01*
X50599Y-45501D01*
X50401Y-45501D01*
X50218Y-45577D01*
X50077Y-45717D01*
X50001Y-45901D01*
X50001Y-46099D01*
X50077Y-46282D01*
X50217Y-46423D01*
X50401Y-46499D01*
X50599Y-46499D01*
X50782Y-46423D01*
X50923Y-46283D01*
X50999Y-46099D01*
X50999Y-48150D01*
X49999Y-48150D01*
X49999Y-46099D01*
X49999Y-45901D01*
X49923Y-45718D01*
X49783Y-45577D01*
X49599Y-45501D01*
X49530Y-45501D01*
X49530Y-41076D01*
X49530Y-35076D01*
X49518Y-34868D01*
X49460Y-34728D01*
X49368Y-34703D01*
X49297Y-34774D01*
X49297Y-34632D01*
X49272Y-34540D01*
X49076Y-34470D01*
X48868Y-34482D01*
X48728Y-34540D01*
X48703Y-34632D01*
X49000Y-34929D01*
X49297Y-34632D01*
X49297Y-34774D01*
X49071Y-35000D01*
X49368Y-35297D01*
X49460Y-35272D01*
X49530Y-35076D01*
X49530Y-41076D01*
X49518Y-40868D01*
X49460Y-40728D01*
X49368Y-40703D01*
X49297Y-40774D01*
X49297Y-40632D01*
X49297Y-35368D01*
X49000Y-35071D01*
X48929Y-35142D01*
X48929Y-35000D01*
X48632Y-34703D01*
X48540Y-34728D01*
X48475Y-34910D01*
X48475Y-34906D01*
X48403Y-34731D01*
X48269Y-34598D01*
X48095Y-34525D01*
X47906Y-34525D01*
X47731Y-34597D01*
X47598Y-34731D01*
X47525Y-34905D01*
X47525Y-35094D01*
X47597Y-35269D01*
X47731Y-35402D01*
X47905Y-35475D01*
X48094Y-35475D01*
X48269Y-35403D01*
X48402Y-35269D01*
X48475Y-35095D01*
X48475Y-35010D01*
X48482Y-35132D01*
X48540Y-35272D01*
X48632Y-35297D01*
X48929Y-35000D01*
X48929Y-35142D01*
X48703Y-35368D01*
X48728Y-35460D01*
X48924Y-35530D01*
X49132Y-35518D01*
X49272Y-35460D01*
X49297Y-35368D01*
X49297Y-40632D01*
X49272Y-40540D01*
X49076Y-40470D01*
X48868Y-40482D01*
X48728Y-40540D01*
X48703Y-40632D01*
X49000Y-40929D01*
X49297Y-40632D01*
X49297Y-40774D01*
X49071Y-41000D01*
X49368Y-41297D01*
X49460Y-41272D01*
X49530Y-41076D01*
X49530Y-45501D01*
X49401Y-45501D01*
X49297Y-45544D01*
X49297Y-41368D01*
X49000Y-41071D01*
X48929Y-41142D01*
X48929Y-41000D01*
X48632Y-40703D01*
X48540Y-40728D01*
X48475Y-40910D01*
X48475Y-40906D01*
X48403Y-40731D01*
X48269Y-40598D01*
X48095Y-40525D01*
X47906Y-40525D01*
X47731Y-40597D01*
X47598Y-40731D01*
X47525Y-40905D01*
X47525Y-41094D01*
X47597Y-41269D01*
X47675Y-41346D01*
X47675Y-42365D01*
X47475Y-42565D01*
X47475Y-41095D01*
X47475Y-40906D01*
X47475Y-35095D01*
X47475Y-34906D01*
X47403Y-34731D01*
X47269Y-34598D01*
X47095Y-34525D01*
X46906Y-34525D01*
X46731Y-34597D01*
X46598Y-34731D01*
X46525Y-34905D01*
X46525Y-35094D01*
X46597Y-35269D01*
X46731Y-35402D01*
X46905Y-35475D01*
X47094Y-35475D01*
X47269Y-35403D01*
X47402Y-35269D01*
X47475Y-35095D01*
X47475Y-40906D01*
X47403Y-40731D01*
X47269Y-40598D01*
X47095Y-40525D01*
X46906Y-40525D01*
X46731Y-40597D01*
X46598Y-40731D01*
X46525Y-40905D01*
X46525Y-41094D01*
X46597Y-41269D01*
X46675Y-41346D01*
X46675Y-42365D01*
X46475Y-42565D01*
X46475Y-41095D01*
X46475Y-40906D01*
X46475Y-35095D01*
X46475Y-34906D01*
X46403Y-34731D01*
X46269Y-34598D01*
X46095Y-34525D01*
X45906Y-34525D01*
X45731Y-34597D01*
X45598Y-34731D01*
X45525Y-34905D01*
X45525Y-35094D01*
X45597Y-35269D01*
X45731Y-35402D01*
X45905Y-35475D01*
X46094Y-35475D01*
X46269Y-35403D01*
X46402Y-35269D01*
X46475Y-35095D01*
X46475Y-40906D01*
X46403Y-40731D01*
X46269Y-40598D01*
X46095Y-40525D01*
X45906Y-40525D01*
X45731Y-40597D01*
X45598Y-40731D01*
X45525Y-40905D01*
X45525Y-41094D01*
X45597Y-41269D01*
X45675Y-41346D01*
X45675Y-42365D01*
X45475Y-42565D01*
X45475Y-41095D01*
X45475Y-40906D01*
X45475Y-35095D01*
X45475Y-34906D01*
X45403Y-34731D01*
X45381Y-34709D01*
X45381Y-33957D01*
X45381Y-33759D01*
X45305Y-33576D01*
X45165Y-33435D01*
X44981Y-33359D01*
X44783Y-33359D01*
X44600Y-33435D01*
X44459Y-33575D01*
X44383Y-33759D01*
X44383Y-33957D01*
X44459Y-34140D01*
X44599Y-34281D01*
X44783Y-34357D01*
X44981Y-34357D01*
X45164Y-34281D01*
X45305Y-34141D01*
X45381Y-33957D01*
X45381Y-34709D01*
X45269Y-34598D01*
X45095Y-34525D01*
X44906Y-34525D01*
X44731Y-34597D01*
X44598Y-34731D01*
X44525Y-34905D01*
X44525Y-35094D01*
X44597Y-35269D01*
X44731Y-35402D01*
X44905Y-35475D01*
X45094Y-35475D01*
X45269Y-35403D01*
X45402Y-35269D01*
X45475Y-35095D01*
X45475Y-40906D01*
X45403Y-40731D01*
X45269Y-40598D01*
X45095Y-40525D01*
X44906Y-40525D01*
X44731Y-40597D01*
X44598Y-40731D01*
X44525Y-40905D01*
X44525Y-40989D01*
X44518Y-40868D01*
X44475Y-40764D01*
X44475Y-35095D01*
X44475Y-34906D01*
X44403Y-34731D01*
X44269Y-34598D01*
X44095Y-34525D01*
X43906Y-34525D01*
X43731Y-34597D01*
X43598Y-34731D01*
X43525Y-34905D01*
X43525Y-35094D01*
X43597Y-35269D01*
X43731Y-35402D01*
X43905Y-35475D01*
X44094Y-35475D01*
X44269Y-35403D01*
X44402Y-35269D01*
X44475Y-35095D01*
X44475Y-40764D01*
X44460Y-40728D01*
X44368Y-40703D01*
X44297Y-40774D01*
X44297Y-40632D01*
X44272Y-40540D01*
X44076Y-40470D01*
X43868Y-40482D01*
X43728Y-40540D01*
X43703Y-40632D01*
X44000Y-40929D01*
X44297Y-40632D01*
X44297Y-40774D01*
X44071Y-41000D01*
X44368Y-41297D01*
X44460Y-41272D01*
X44525Y-41090D01*
X44525Y-41094D01*
X44597Y-41269D01*
X44675Y-41346D01*
X44675Y-42365D01*
X44297Y-42743D01*
X44297Y-41368D01*
X44000Y-41071D01*
X43929Y-41142D01*
X43929Y-41000D01*
X43632Y-40703D01*
X43540Y-40728D01*
X43491Y-40865D01*
X43491Y-33957D01*
X43491Y-33759D01*
X43415Y-33576D01*
X43275Y-33435D01*
X43091Y-33359D01*
X42893Y-33359D01*
X42710Y-33435D01*
X42569Y-33575D01*
X42499Y-33742D01*
X42431Y-33576D01*
X42291Y-33435D01*
X42107Y-33359D01*
X41909Y-33359D01*
X41726Y-33435D01*
X41585Y-33575D01*
X41509Y-33759D01*
X41509Y-33957D01*
X41585Y-34140D01*
X41725Y-34281D01*
X41909Y-34357D01*
X42107Y-34357D01*
X42290Y-34281D01*
X42431Y-34141D01*
X42500Y-33973D01*
X42569Y-34140D01*
X42709Y-34281D01*
X42893Y-34357D01*
X43091Y-34357D01*
X43274Y-34281D01*
X43415Y-34141D01*
X43491Y-33957D01*
X43491Y-40865D01*
X43475Y-40910D01*
X43475Y-40906D01*
X43475Y-35095D01*
X43475Y-34906D01*
X43403Y-34731D01*
X43269Y-34598D01*
X43095Y-34525D01*
X42906Y-34525D01*
X42731Y-34597D01*
X42598Y-34731D01*
X42525Y-34905D01*
X42525Y-35094D01*
X42597Y-35269D01*
X42731Y-35402D01*
X42905Y-35475D01*
X43094Y-35475D01*
X43269Y-35403D01*
X43402Y-35269D01*
X43475Y-35095D01*
X43475Y-40906D01*
X43403Y-40731D01*
X43269Y-40598D01*
X43095Y-40525D01*
X42906Y-40525D01*
X42731Y-40597D01*
X42598Y-40731D01*
X42525Y-40905D01*
X42525Y-41094D01*
X42597Y-41269D01*
X42731Y-41402D01*
X42905Y-41475D01*
X43094Y-41475D01*
X43269Y-41403D01*
X43402Y-41269D01*
X43475Y-41095D01*
X43475Y-41010D01*
X43482Y-41132D01*
X43540Y-41272D01*
X43632Y-41297D01*
X43929Y-41000D01*
X43929Y-41142D01*
X43703Y-41368D01*
X43728Y-41460D01*
X43924Y-41530D01*
X44132Y-41518D01*
X44272Y-41460D01*
X44297Y-41368D01*
X44297Y-42743D01*
X42475Y-44565D01*
X42475Y-35095D01*
X42475Y-34906D01*
X42403Y-34731D01*
X42269Y-34598D01*
X42095Y-34525D01*
X41906Y-34525D01*
X41731Y-34597D01*
X41598Y-34731D01*
X41525Y-34905D01*
X41525Y-35094D01*
X41597Y-35269D01*
X41731Y-35402D01*
X41905Y-35475D01*
X42094Y-35475D01*
X42269Y-35403D01*
X42402Y-35269D01*
X42475Y-35095D01*
X42475Y-44565D01*
X42474Y-44566D01*
X42474Y-41315D01*
X42474Y-41236D01*
X42474Y-40686D01*
X42444Y-40613D01*
X42388Y-40557D01*
X42315Y-40526D01*
X42236Y-40526D01*
X41686Y-40526D01*
X41613Y-40556D01*
X41557Y-40612D01*
X41526Y-40685D01*
X41526Y-40764D01*
X41526Y-41314D01*
X41556Y-41387D01*
X41612Y-41443D01*
X41685Y-41474D01*
X41764Y-41474D01*
X42314Y-41474D01*
X42387Y-41444D01*
X42443Y-41388D01*
X42474Y-41315D01*
X42474Y-44566D01*
X42270Y-44770D01*
X42200Y-44876D01*
X42175Y-45000D01*
X42175Y-45501D01*
X42161Y-45501D01*
X42088Y-45531D01*
X42032Y-45587D01*
X42001Y-45660D01*
X42001Y-45739D01*
X42001Y-46339D01*
X42031Y-46412D01*
X42087Y-46468D01*
X42160Y-46499D01*
X42239Y-46499D01*
X42839Y-46499D01*
X42912Y-46469D01*
X42968Y-46413D01*
X42999Y-46340D01*
X42999Y-46261D01*
X42999Y-45661D01*
X42969Y-45588D01*
X42913Y-45532D01*
X42840Y-45501D01*
X42825Y-45501D01*
X42825Y-45134D01*
X45227Y-42731D01*
X45229Y-42730D01*
X45230Y-42730D01*
X45299Y-42625D01*
X45300Y-42624D01*
X45325Y-42500D01*
X45325Y-41346D01*
X45402Y-41269D01*
X45475Y-41095D01*
X45475Y-42565D01*
X43270Y-44770D01*
X43200Y-44876D01*
X43175Y-45000D01*
X43175Y-45619D01*
X43077Y-45717D01*
X43001Y-45901D01*
X43001Y-46099D01*
X43077Y-46282D01*
X43217Y-46423D01*
X43401Y-46499D01*
X43599Y-46499D01*
X43782Y-46423D01*
X43923Y-46283D01*
X43999Y-46099D01*
X43999Y-45901D01*
X43923Y-45718D01*
X43825Y-45619D01*
X43825Y-45134D01*
X46227Y-42731D01*
X46229Y-42730D01*
X46230Y-42730D01*
X46299Y-42625D01*
X46300Y-42624D01*
X46325Y-42500D01*
X46325Y-41346D01*
X46402Y-41269D01*
X46475Y-41095D01*
X46475Y-42565D01*
X44270Y-44770D01*
X44200Y-44876D01*
X44175Y-45000D01*
X44175Y-45619D01*
X44077Y-45717D01*
X44001Y-45901D01*
X44001Y-46099D01*
X44077Y-46282D01*
X44217Y-46423D01*
X44401Y-46499D01*
X44599Y-46499D01*
X44782Y-46423D01*
X44923Y-46283D01*
X44999Y-46099D01*
X44999Y-45901D01*
X44923Y-45718D01*
X44825Y-45619D01*
X44825Y-45134D01*
X47227Y-42731D01*
X47229Y-42730D01*
X47230Y-42730D01*
X47299Y-42625D01*
X47300Y-42624D01*
X47325Y-42500D01*
X47325Y-41346D01*
X47402Y-41269D01*
X47475Y-41095D01*
X47475Y-42565D01*
X45270Y-44770D01*
X45200Y-44876D01*
X45175Y-45000D01*
X45175Y-45619D01*
X45077Y-45717D01*
X45001Y-45901D01*
X45001Y-46099D01*
X45077Y-46282D01*
X45217Y-46423D01*
X45401Y-46499D01*
X45599Y-46499D01*
X45782Y-46423D01*
X45923Y-46283D01*
X45999Y-46099D01*
X45999Y-45901D01*
X45923Y-45718D01*
X45825Y-45619D01*
X45825Y-45134D01*
X48227Y-42731D01*
X48229Y-42730D01*
X48230Y-42730D01*
X48299Y-42625D01*
X48300Y-42624D01*
X48325Y-42500D01*
X48325Y-41346D01*
X48402Y-41269D01*
X48475Y-41095D01*
X48475Y-41010D01*
X48482Y-41132D01*
X48540Y-41272D01*
X48632Y-41297D01*
X48929Y-41000D01*
X48929Y-41142D01*
X48703Y-41368D01*
X48728Y-41460D01*
X48924Y-41530D01*
X49132Y-41518D01*
X49272Y-41460D01*
X49297Y-41368D01*
X49297Y-45544D01*
X49218Y-45577D01*
X49077Y-45717D01*
X49001Y-45901D01*
X49001Y-46099D01*
X49077Y-46282D01*
X49217Y-46423D01*
X49401Y-46499D01*
X49599Y-46499D01*
X49782Y-46423D01*
X49923Y-46283D01*
X49999Y-46099D01*
X49999Y-48150D01*
X48999Y-48150D01*
X48999Y-46099D01*
X48999Y-45901D01*
X48923Y-45718D01*
X48783Y-45577D01*
X48599Y-45501D01*
X48401Y-45501D01*
X48218Y-45577D01*
X48077Y-45717D01*
X48049Y-45784D01*
X48049Y-45749D01*
X48049Y-45650D01*
X48011Y-45559D01*
X47941Y-45489D01*
X47849Y-45451D01*
X47612Y-45450D01*
X47550Y-45512D01*
X47550Y-45900D01*
X47550Y-45950D01*
X47550Y-46050D01*
X47550Y-46100D01*
X47550Y-46488D01*
X47612Y-46550D01*
X47849Y-46549D01*
X47941Y-46511D01*
X48011Y-46441D01*
X48049Y-46350D01*
X48049Y-46251D01*
X48049Y-46215D01*
X48077Y-46282D01*
X48217Y-46423D01*
X48401Y-46499D01*
X48599Y-46499D01*
X48782Y-46423D01*
X48923Y-46283D01*
X48999Y-46099D01*
X48999Y-48150D01*
X47450Y-48150D01*
X47450Y-46488D01*
X47450Y-46050D01*
X47450Y-45950D01*
X47450Y-45512D01*
X47388Y-45450D01*
X47151Y-45451D01*
X47059Y-45489D01*
X46989Y-45559D01*
X46951Y-45650D01*
X46951Y-45749D01*
X46950Y-45888D01*
X47012Y-45950D01*
X47450Y-45950D01*
X47450Y-46050D01*
X47012Y-46050D01*
X46950Y-46112D01*
X46951Y-46251D01*
X46951Y-46350D01*
X46989Y-46441D01*
X47059Y-46511D01*
X47151Y-46549D01*
X47388Y-46550D01*
X47450Y-46488D01*
X47450Y-48150D01*
X41047Y-48150D01*
X41132Y-48115D01*
X41421Y-47827D01*
X41578Y-47449D01*
X41578Y-47041D01*
X41422Y-46663D01*
X41134Y-46374D01*
X40756Y-46217D01*
X40348Y-46217D01*
X39970Y-46373D01*
X39681Y-46661D01*
X39645Y-46747D01*
X39645Y-32779D01*
X39680Y-32864D01*
X39968Y-33153D01*
X40346Y-33310D01*
X40754Y-33310D01*
X41132Y-33154D01*
X41421Y-32866D01*
X41578Y-32488D01*
X41578Y-32080D01*
X41422Y-31702D01*
X41134Y-31413D01*
X41047Y-31377D01*
X77062Y-31377D01*
X76978Y-31412D01*
X76689Y-31700D01*
X76532Y-32078D01*
X76532Y-32486D01*
X76688Y-32864D01*
X76976Y-33153D01*
X77354Y-33310D01*
X77762Y-33310D01*
X78140Y-33154D01*
X78429Y-32866D01*
X78465Y-32779D01*
X78465Y-46747D01*
M02*
