G04 (created by PCBNEW-RS274X (2010-05-09 BZR 2366)-stable) date Sat 11 Sep 2010 14:18:10 BST*
G01*
G70*
G90*
%MOIN*%
G04 Gerber Fmt 3.4, Leading zero omitted, Abs format*
%FSLAX34Y34*%
G04 APERTURE LIST*
%ADD10C,0.006000*%
%ADD11C,0.015000*%
%ADD12C,0.055000*%
%ADD13R,0.078700X0.078700*%
%ADD14C,0.078700*%
%ADD15C,0.070000*%
%ADD16R,0.070000X0.070000*%
%ADD17R,0.055000X0.055000*%
%ADD18R,0.075000X0.075000*%
%ADD19C,0.075000*%
%ADD20C,0.045000*%
%ADD21C,0.060000*%
%ADD22C,0.062000*%
%ADD23R,0.062000X0.062000*%
%ADD24C,0.150000*%
%ADD25R,0.150000X0.150000*%
%ADD26R,0.100000X0.100000*%
%ADD27C,0.100000*%
%ADD28C,0.035000*%
%ADD29C,0.025000*%
G04 APERTURE END LIST*
G54D10*
G54D11*
X36000Y-44000D02*
X78000Y-44000D01*
X36000Y-64000D02*
X36000Y-44000D01*
X78000Y-64000D02*
X36000Y-64000D01*
X78000Y-44000D02*
X78000Y-64000D01*
G54D12*
X56000Y-53000D03*
X57000Y-53000D03*
X56000Y-54000D03*
X57000Y-54000D03*
X54000Y-46000D03*
X55000Y-46000D03*
X56000Y-46000D03*
X57000Y-46000D03*
X56000Y-47000D03*
X57000Y-47000D03*
G54D13*
X55500Y-57000D03*
G54D14*
X55500Y-58000D03*
G54D13*
X48500Y-57000D03*
G54D14*
X48500Y-58000D03*
G54D15*
X46000Y-58500D03*
G54D16*
X46000Y-54500D03*
G54D15*
X45000Y-54500D03*
G54D16*
X45000Y-58500D03*
G54D15*
X43500Y-58500D03*
G54D16*
X43500Y-54500D03*
G54D15*
X42500Y-54500D03*
G54D16*
X42500Y-58500D03*
G54D15*
X41000Y-58500D03*
G54D16*
X41000Y-54500D03*
G54D15*
X40000Y-54500D03*
G54D16*
X40000Y-58500D03*
G54D15*
X38500Y-58500D03*
G54D16*
X38500Y-54500D03*
G54D15*
X37500Y-54500D03*
G54D16*
X37500Y-58500D03*
G54D12*
X62000Y-48500D03*
X61000Y-48500D03*
X60000Y-48500D03*
X59000Y-48500D03*
X58000Y-48500D03*
X57000Y-48500D03*
X56000Y-48500D03*
X55000Y-48500D03*
X54000Y-48500D03*
X53000Y-48500D03*
X52000Y-48500D03*
X51000Y-48500D03*
X50000Y-48500D03*
G54D17*
X63000Y-48500D03*
G54D12*
X50000Y-51500D03*
X51000Y-51500D03*
X52000Y-51500D03*
X53000Y-51500D03*
X54000Y-51500D03*
X55000Y-51500D03*
X56000Y-51500D03*
X57000Y-51500D03*
X58000Y-51500D03*
X59000Y-51500D03*
X60000Y-51500D03*
X61000Y-51500D03*
X62000Y-51500D03*
X63000Y-51500D03*
G54D17*
X50500Y-56000D03*
G54D12*
X50500Y-57000D03*
X50500Y-58000D03*
X50500Y-59000D03*
X53500Y-59000D03*
X53500Y-58000D03*
X53500Y-57000D03*
X53500Y-56000D03*
G54D18*
X48500Y-55000D03*
G54D19*
X48500Y-53000D03*
G54D20*
X50000Y-46000D03*
G54D21*
X63000Y-47000D03*
X59000Y-47000D03*
G54D17*
X54000Y-47000D03*
G54D12*
X55000Y-47000D03*
G54D17*
X38500Y-52500D03*
G54D12*
X39500Y-52500D03*
X40500Y-52500D03*
X41500Y-52500D03*
X42500Y-52500D03*
X43500Y-52500D03*
X44500Y-52500D03*
X45500Y-52500D03*
X45500Y-45500D03*
X44500Y-45500D03*
X43500Y-45500D03*
X42500Y-45500D03*
X41500Y-45500D03*
X40500Y-45500D03*
X39500Y-45500D03*
X38500Y-45500D03*
G54D21*
X54000Y-54000D03*
X52000Y-53500D03*
X54000Y-53000D03*
G54D22*
X67063Y-49776D03*
X67063Y-50563D03*
X67063Y-51350D03*
X67063Y-52138D03*
X67063Y-52925D03*
X67063Y-53713D03*
X67063Y-54500D03*
X67063Y-55287D03*
X67063Y-56075D03*
X75724Y-56075D03*
X75724Y-55287D03*
X75724Y-54500D03*
X75724Y-53713D03*
X75724Y-52925D03*
X75724Y-52138D03*
X75724Y-51350D03*
X75724Y-50563D03*
X75724Y-49776D03*
X75724Y-48988D03*
G54D23*
X67063Y-48988D03*
G54D24*
X49000Y-61500D03*
X51000Y-61500D03*
G54D25*
X47000Y-61500D03*
G54D24*
X53000Y-61500D03*
G54D26*
X65000Y-61500D03*
G54D27*
X67000Y-61500D03*
G54D24*
X72000Y-61500D03*
X74000Y-61500D03*
G54D25*
X70000Y-61500D03*
G54D24*
X76000Y-61500D03*
X58000Y-61500D03*
X60000Y-61500D03*
G54D25*
X56000Y-61500D03*
G54D24*
X62000Y-61500D03*
X40000Y-61500D03*
X42000Y-61500D03*
G54D25*
X38000Y-61500D03*
G54D24*
X44000Y-61500D03*
G54D17*
X51000Y-46000D03*
G54D12*
X51000Y-47000D03*
G54D17*
X59500Y-58000D03*
G54D12*
X58500Y-58000D03*
X58500Y-57000D03*
G54D17*
X60500Y-57000D03*
G54D12*
X61500Y-57000D03*
X61500Y-58000D03*
X64000Y-59000D03*
X63000Y-59000D03*
X63500Y-54000D03*
X64500Y-54000D03*
X60500Y-54000D03*
X61500Y-54000D03*
X59000Y-53000D03*
X60000Y-53000D03*
X62000Y-53000D03*
X63000Y-53000D03*
G54D28*
X48000Y-47250D03*
X48000Y-48250D03*
G54D29*
X64325Y-46250D02*
X67063Y-48988D01*
X62500Y-46250D02*
X64325Y-46250D01*
X61750Y-47000D02*
X62500Y-46250D01*
X59000Y-47000D02*
X61750Y-47000D01*
X40600Y-51400D02*
X39500Y-52500D01*
X45300Y-51400D02*
X40600Y-51400D01*
X48500Y-54600D02*
X45300Y-51400D01*
X48500Y-55000D02*
X48500Y-54600D01*
X57000Y-47000D02*
X57000Y-48500D01*
X59000Y-47000D02*
X57000Y-47000D01*
X54500Y-57000D02*
X53500Y-56000D01*
X55500Y-57000D02*
X54500Y-57000D01*
X60500Y-59000D02*
X59500Y-58000D01*
X63000Y-59000D02*
X60500Y-59000D01*
X37800Y-52500D02*
X38500Y-52500D01*
X36500Y-53800D02*
X37800Y-52500D01*
X36500Y-56500D02*
X36500Y-53800D01*
X37500Y-57500D02*
X36500Y-56500D01*
X37500Y-58500D02*
X37500Y-57500D01*
X49500Y-57000D02*
X50500Y-56000D01*
X48500Y-57000D02*
X49500Y-57000D01*
X51750Y-62750D02*
X53000Y-61500D01*
X46000Y-62750D02*
X51750Y-62750D01*
X45500Y-62250D02*
X46000Y-62750D01*
X45500Y-59500D02*
X45500Y-62250D01*
X45000Y-59000D02*
X45500Y-59500D01*
X44750Y-59250D02*
X45000Y-59000D01*
X42750Y-59250D02*
X44750Y-59250D01*
X42500Y-59000D02*
X42750Y-59250D01*
X42250Y-59250D02*
X42500Y-59000D01*
X40250Y-59250D02*
X42250Y-59250D01*
X40000Y-59000D02*
X40250Y-59250D01*
X39750Y-59250D02*
X40000Y-59000D01*
X37750Y-59250D02*
X39750Y-59250D01*
X37500Y-59000D02*
X37750Y-59250D01*
X37500Y-58500D02*
X37500Y-59000D01*
X40000Y-58500D02*
X40000Y-59000D01*
X42500Y-58500D02*
X42500Y-59000D01*
X45000Y-58500D02*
X45000Y-59000D01*
X39250Y-53750D02*
X38500Y-54500D01*
X40750Y-53750D02*
X39250Y-53750D01*
X41500Y-53000D02*
X40750Y-53750D01*
X41500Y-52500D02*
X41500Y-53000D01*
X37500Y-54500D02*
X38500Y-54500D01*
X42500Y-53000D02*
X41000Y-54500D01*
X42500Y-52500D02*
X42500Y-53000D01*
X40000Y-54500D02*
X41000Y-54500D01*
X44500Y-54000D02*
X45000Y-54500D01*
X44500Y-52500D02*
X44500Y-54000D01*
X45000Y-54500D02*
X46000Y-54500D01*
X43500Y-52500D02*
X43500Y-54500D01*
X42500Y-54500D02*
X43500Y-54500D01*
X67063Y-56075D02*
X67063Y-56563D01*
X67063Y-56563D02*
X72000Y-61500D01*
X58000Y-61500D02*
X55500Y-59000D01*
X55500Y-59000D02*
X55500Y-58000D01*
X57000Y-50500D02*
X57000Y-51500D01*
X56000Y-49500D02*
X57000Y-50500D01*
X56000Y-48500D02*
X56000Y-49500D01*
X41200Y-51800D02*
X40500Y-52500D01*
X44800Y-51800D02*
X41200Y-51800D01*
X45500Y-52500D02*
X44800Y-51800D01*
X39750Y-53250D02*
X40500Y-52500D01*
X37750Y-53250D02*
X39750Y-53250D01*
X36900Y-54100D02*
X37750Y-53250D01*
X36900Y-56400D02*
X36900Y-54100D01*
X38500Y-58000D02*
X36900Y-56400D01*
X52500Y-55500D02*
X54000Y-54000D01*
X52500Y-56000D02*
X52500Y-55500D01*
X53500Y-57000D02*
X52500Y-56000D01*
X54750Y-54750D02*
X54000Y-54000D01*
X56250Y-54750D02*
X54750Y-54750D01*
X57000Y-54000D02*
X56250Y-54750D01*
X57000Y-53000D02*
X59000Y-53000D01*
X57000Y-53000D02*
X57000Y-54000D01*
X57000Y-51500D02*
X57000Y-53000D01*
X56000Y-47000D02*
X55000Y-46000D01*
X56000Y-47000D02*
X57000Y-46000D01*
X56000Y-47000D02*
X56000Y-48500D01*
X65750Y-62750D02*
X67000Y-61500D01*
X63250Y-62750D02*
X65750Y-62750D01*
X62000Y-61500D02*
X63250Y-62750D01*
X60750Y-62750D02*
X62000Y-61500D01*
X58000Y-61500D02*
X59250Y-62750D01*
X59250Y-62750D02*
X60750Y-62750D01*
X55500Y-58000D02*
X53500Y-58000D01*
X46500Y-58000D02*
X46000Y-58500D01*
X48500Y-58000D02*
X46500Y-58000D01*
X50500Y-58000D02*
X48500Y-58000D01*
X50500Y-57000D02*
X50500Y-58000D01*
X53500Y-58000D02*
X53500Y-59000D01*
X53500Y-57000D02*
X53500Y-58000D01*
X50500Y-57000D02*
X53500Y-57000D01*
X46000Y-60500D02*
X47000Y-61500D01*
X46000Y-58500D02*
X46000Y-60500D01*
X38750Y-57750D02*
X38500Y-58000D01*
X40750Y-57750D02*
X38750Y-57750D01*
X41000Y-58000D02*
X40750Y-57750D01*
X43500Y-58500D02*
X43500Y-58250D01*
X41250Y-57750D02*
X41000Y-58000D01*
X43000Y-57750D02*
X41250Y-57750D01*
X43500Y-58250D02*
X43000Y-57750D01*
X43500Y-58000D02*
X43500Y-58250D01*
X43750Y-57750D02*
X43500Y-58000D01*
X45750Y-57750D02*
X43750Y-57750D01*
X46000Y-58000D02*
X45750Y-57750D01*
X46000Y-58500D02*
X46000Y-58000D01*
X43500Y-58250D02*
X43500Y-58500D01*
X41000Y-58500D02*
X41000Y-58000D01*
X38500Y-58500D02*
X38500Y-58000D01*
G54D11*
X52000Y-48500D02*
X51250Y-49250D01*
X50000Y-49250D02*
X48000Y-47250D01*
X51250Y-49250D02*
X50000Y-49250D01*
X55000Y-47000D02*
X55000Y-48500D01*
X61000Y-50500D02*
X59000Y-48500D01*
X65000Y-50500D02*
X61000Y-50500D01*
X65250Y-50750D02*
X65000Y-50500D01*
X65250Y-57500D02*
X65250Y-50750D01*
X68500Y-60750D02*
X65250Y-57500D01*
X68500Y-62250D02*
X68500Y-60750D01*
X69250Y-63000D02*
X68500Y-62250D01*
X72500Y-63000D02*
X69250Y-63000D01*
X74000Y-61500D02*
X72500Y-63000D01*
G54D29*
X49000Y-61500D02*
X51000Y-61500D01*
G54D11*
X65750Y-57250D02*
X70000Y-61500D01*
X65750Y-50500D02*
X65750Y-57250D01*
X65250Y-50000D02*
X65750Y-50500D01*
X61500Y-50000D02*
X65250Y-50000D01*
X60000Y-48500D02*
X61500Y-50000D01*
X54000Y-46000D02*
X54000Y-47000D01*
X54000Y-47000D02*
X54000Y-48500D01*
X53250Y-50750D02*
X54000Y-51500D01*
X51000Y-50750D02*
X53250Y-50750D01*
X50500Y-51250D02*
X51000Y-50750D01*
X50500Y-51750D02*
X50500Y-51250D01*
X50252Y-51998D02*
X50500Y-51750D01*
X49748Y-51998D02*
X50252Y-51998D01*
X49250Y-51500D02*
X49748Y-51998D01*
X49250Y-51250D02*
X49250Y-51500D01*
X43500Y-45500D02*
X49250Y-51250D01*
X42700Y-44700D02*
X43500Y-45500D01*
X40300Y-44700D02*
X42700Y-44700D01*
X39500Y-45500D02*
X40300Y-44700D01*
X61500Y-57000D02*
X64500Y-54000D01*
X63000Y-58000D02*
X64000Y-59000D01*
X61500Y-58000D02*
X63000Y-58000D01*
X59000Y-57500D02*
X58500Y-58000D01*
X60750Y-57500D02*
X59000Y-57500D01*
X61250Y-58000D02*
X60750Y-57500D01*
X61500Y-58000D02*
X61250Y-58000D01*
X58500Y-57000D02*
X61500Y-54000D01*
X60000Y-53500D02*
X60500Y-54000D01*
X60000Y-53000D02*
X60000Y-53500D01*
X60000Y-51500D02*
X60000Y-53000D01*
X63000Y-47000D02*
X63000Y-48500D01*
X49250Y-52250D02*
X42500Y-45500D01*
X51250Y-52250D02*
X49250Y-52250D01*
X52000Y-51500D02*
X51250Y-52250D01*
X42000Y-45000D02*
X42500Y-45500D01*
X41000Y-45000D02*
X42000Y-45000D01*
X40500Y-45500D02*
X41000Y-45000D01*
X66000Y-49500D02*
X67063Y-50563D01*
X62000Y-49500D02*
X66000Y-49500D01*
X61000Y-48500D02*
X62000Y-49500D01*
X66776Y-49776D02*
X67063Y-49776D01*
X66000Y-49000D02*
X66776Y-49776D01*
X62500Y-49000D02*
X66000Y-49000D01*
X62000Y-48500D02*
X62500Y-49000D01*
X52500Y-53000D02*
X48500Y-53000D01*
X53000Y-53500D02*
X52500Y-53000D01*
X55500Y-53500D02*
X53000Y-53500D01*
X56000Y-53000D02*
X55500Y-53500D01*
X56000Y-51500D02*
X56000Y-53000D01*
X51000Y-47000D02*
X51000Y-48500D01*
X50000Y-46000D02*
X50000Y-48500D01*
X53000Y-48500D02*
X52750Y-48500D01*
X49500Y-49750D02*
X48000Y-48250D01*
X51500Y-49750D02*
X49500Y-49750D01*
X52750Y-48500D02*
X51500Y-49750D01*
X50000Y-51000D02*
X44500Y-45500D01*
X50000Y-51500D02*
X50000Y-51000D01*
X43400Y-44400D02*
X44500Y-45500D01*
X39600Y-44400D02*
X43400Y-44400D01*
X38500Y-45500D02*
X39600Y-44400D01*
X63000Y-53500D02*
X63500Y-54000D01*
X63000Y-53000D02*
X63000Y-53500D01*
X63000Y-51500D02*
X63000Y-53000D01*
X36225Y-44225D02*
X39350Y-44225D01*
X43649Y-44225D02*
X77775Y-44225D01*
X36225Y-44345D02*
X39230Y-44345D01*
X43769Y-44345D02*
X77775Y-44345D01*
X36225Y-44465D02*
X39110Y-44465D01*
X43889Y-44465D02*
X77775Y-44465D01*
X36225Y-44585D02*
X38990Y-44585D01*
X44009Y-44585D02*
X77775Y-44585D01*
X36225Y-44705D02*
X38870Y-44705D01*
X44129Y-44705D02*
X77775Y-44705D01*
X36225Y-44825D02*
X38750Y-44825D01*
X44249Y-44825D02*
X77775Y-44825D01*
X36225Y-44945D02*
X38630Y-44945D01*
X44369Y-44945D02*
X77775Y-44945D01*
X36225Y-45065D02*
X38247Y-45065D01*
X44754Y-45065D02*
X45194Y-45065D01*
X45807Y-45065D02*
X77775Y-45065D01*
X36225Y-45185D02*
X38110Y-45185D01*
X44891Y-45185D02*
X45107Y-45185D01*
X45150Y-45185D02*
X45220Y-45185D01*
X45779Y-45185D02*
X45851Y-45185D01*
X45894Y-45185D02*
X77775Y-45185D01*
X36225Y-45305D02*
X38041Y-45305D01*
X44959Y-45305D02*
X44997Y-45305D01*
X45270Y-45305D02*
X45340Y-45305D01*
X45659Y-45305D02*
X45731Y-45305D01*
X46004Y-45305D02*
X77775Y-45305D01*
X36225Y-45425D02*
X38001Y-45425D01*
X38999Y-45425D02*
X39001Y-45425D01*
X39999Y-45425D02*
X40001Y-45425D01*
X40999Y-45425D02*
X41001Y-45425D01*
X41999Y-45425D02*
X42001Y-45425D01*
X45390Y-45425D02*
X45460Y-45425D01*
X45539Y-45425D02*
X45611Y-45425D01*
X46039Y-45425D02*
X77775Y-45425D01*
X36225Y-45545D02*
X38001Y-45545D01*
X38999Y-45545D02*
X39001Y-45545D01*
X39999Y-45545D02*
X40001Y-45545D01*
X40999Y-45545D02*
X41001Y-45545D01*
X41999Y-45545D02*
X42001Y-45545D01*
X45419Y-45545D02*
X45420Y-45545D01*
X45510Y-45545D02*
X45580Y-45545D01*
X46040Y-45545D02*
X50517Y-45545D01*
X50975Y-45545D02*
X51025Y-45545D01*
X51484Y-45545D02*
X53796Y-45545D01*
X54206Y-45545D02*
X54698Y-45545D01*
X55303Y-45545D02*
X55796Y-45545D01*
X56206Y-45545D02*
X56698Y-45545D01*
X57303Y-45545D02*
X77775Y-45545D01*
X36225Y-45665D02*
X38028Y-45665D01*
X38971Y-45665D02*
X39028Y-45665D01*
X39971Y-45665D02*
X40028Y-45665D01*
X40971Y-45665D02*
X41028Y-45665D01*
X41971Y-45665D02*
X42028Y-45665D01*
X45299Y-45665D02*
X45300Y-45665D01*
X45630Y-45665D02*
X45700Y-45665D01*
X46015Y-45665D02*
X49700Y-45665D01*
X50300Y-45665D02*
X50453Y-45665D01*
X50975Y-45665D02*
X51025Y-45665D01*
X51548Y-45665D02*
X53630Y-45665D01*
X54371Y-45665D02*
X54700Y-45665D01*
X55299Y-45665D02*
X55630Y-45665D01*
X56371Y-45665D02*
X56700Y-45665D01*
X57299Y-45665D02*
X77775Y-45665D01*
X36225Y-45785D02*
X38079Y-45785D01*
X38920Y-45785D02*
X39079Y-45785D01*
X39920Y-45785D02*
X40079Y-45785D01*
X40920Y-45785D02*
X41079Y-45785D01*
X41920Y-45785D02*
X42079Y-45785D01*
X45750Y-45785D02*
X45820Y-45785D01*
X45965Y-45785D02*
X49604Y-45785D01*
X50398Y-45785D02*
X50450Y-45785D01*
X50975Y-45785D02*
X51025Y-45785D01*
X51550Y-45785D02*
X53549Y-45785D01*
X54451Y-45785D02*
X54506Y-45785D01*
X54750Y-45785D02*
X54820Y-45785D01*
X55179Y-45785D02*
X55251Y-45785D01*
X55495Y-45785D02*
X55549Y-45785D01*
X56451Y-45785D02*
X56506Y-45785D01*
X56750Y-45785D02*
X56820Y-45785D01*
X57179Y-45785D02*
X57251Y-45785D01*
X57495Y-45785D02*
X77775Y-45785D01*
X36225Y-45905D02*
X38199Y-45905D01*
X38800Y-45905D02*
X39199Y-45905D01*
X39800Y-45905D02*
X40199Y-45905D01*
X40800Y-45905D02*
X41199Y-45905D01*
X41800Y-45905D02*
X42199Y-45905D01*
X45812Y-45905D02*
X49554Y-45905D01*
X50447Y-45905D02*
X50450Y-45905D01*
X50975Y-45905D02*
X51025Y-45905D01*
X51550Y-45905D02*
X53501Y-45905D01*
X54870Y-45905D02*
X54940Y-45905D01*
X55059Y-45905D02*
X55131Y-45905D01*
X56870Y-45905D02*
X56940Y-45905D01*
X57059Y-45905D02*
X57131Y-45905D01*
X57539Y-45905D02*
X62476Y-45905D01*
X64350Y-45905D02*
X77775Y-45905D01*
X36225Y-46025D02*
X42600Y-46025D01*
X45642Y-46025D02*
X49551Y-46025D01*
X50449Y-46025D02*
X50518Y-46025D01*
X51482Y-46025D02*
X53501Y-46025D01*
X54939Y-46025D02*
X55060Y-46025D01*
X56939Y-46025D02*
X57060Y-46025D01*
X57540Y-46025D02*
X62230Y-46025D01*
X64594Y-46025D02*
X77775Y-46025D01*
X36225Y-46145D02*
X42720Y-46145D01*
X45569Y-46145D02*
X49574Y-46145D01*
X50426Y-46145D02*
X50450Y-46145D01*
X51550Y-46145D02*
X53520Y-46145D01*
X54819Y-46145D02*
X54891Y-46145D01*
X55110Y-46145D02*
X55180Y-46145D01*
X56819Y-46145D02*
X56891Y-46145D01*
X57110Y-46145D02*
X57180Y-46145D01*
X57523Y-46145D02*
X62110Y-46145D01*
X64714Y-46145D02*
X77775Y-46145D01*
X36225Y-46265D02*
X42840Y-46265D01*
X45689Y-46265D02*
X49630Y-46265D01*
X50370Y-46265D02*
X50450Y-46265D01*
X51550Y-46265D02*
X53569Y-46265D01*
X54430Y-46265D02*
X54525Y-46265D01*
X54699Y-46265D02*
X54771Y-46265D01*
X55230Y-46265D02*
X55300Y-46265D01*
X55473Y-46265D02*
X55569Y-46265D01*
X56430Y-46265D02*
X56525Y-46265D01*
X56699Y-46265D02*
X56771Y-46265D01*
X57230Y-46265D02*
X57300Y-46265D01*
X57474Y-46265D02*
X61990Y-46265D01*
X64834Y-46265D02*
X77775Y-46265D01*
X36225Y-46385D02*
X42960Y-46385D01*
X45809Y-46385D02*
X49700Y-46385D01*
X50300Y-46385D02*
X50473Y-46385D01*
X51526Y-46385D02*
X53680Y-46385D01*
X54320Y-46385D02*
X54683Y-46385D01*
X55316Y-46385D02*
X55679Y-46385D01*
X56320Y-46385D02*
X56683Y-46385D01*
X57316Y-46385D02*
X61870Y-46385D01*
X64954Y-46385D02*
X77775Y-46385D01*
X36225Y-46505D02*
X43080Y-46505D01*
X45929Y-46505D02*
X49700Y-46505D01*
X50300Y-46505D02*
X50566Y-46505D01*
X51433Y-46505D02*
X53669Y-46505D01*
X54332Y-46505D02*
X54811Y-46505D01*
X55188Y-46505D02*
X55785Y-46505D01*
X56214Y-46505D02*
X56811Y-46505D01*
X57188Y-46505D02*
X58824Y-46505D01*
X59178Y-46505D02*
X61750Y-46505D01*
X65074Y-46505D02*
X77775Y-46505D01*
X36225Y-46625D02*
X43200Y-46625D01*
X46049Y-46625D02*
X49700Y-46625D01*
X50300Y-46625D02*
X50670Y-46625D01*
X51331Y-46625D02*
X53524Y-46625D01*
X54478Y-46625D02*
X54670Y-46625D01*
X55331Y-46625D02*
X55682Y-46625D01*
X56319Y-46625D02*
X56670Y-46625D01*
X57331Y-46625D02*
X58633Y-46625D01*
X59368Y-46625D02*
X61630Y-46625D01*
X62619Y-46625D02*
X62632Y-46625D01*
X65194Y-46625D02*
X77775Y-46625D01*
X36225Y-46745D02*
X43320Y-46745D01*
X46169Y-46745D02*
X49700Y-46745D01*
X50300Y-46745D02*
X50566Y-46745D01*
X51435Y-46745D02*
X53500Y-46745D01*
X54500Y-46745D02*
X54566Y-46745D01*
X55435Y-46745D02*
X55522Y-46745D01*
X55710Y-46745D02*
X55781Y-46745D01*
X56219Y-46745D02*
X56291Y-46745D01*
X56479Y-46745D02*
X56566Y-46745D01*
X62499Y-46745D02*
X62538Y-46745D01*
X65314Y-46745D02*
X77775Y-46745D01*
X36225Y-46865D02*
X43440Y-46865D01*
X46289Y-46865D02*
X47888Y-46865D01*
X48114Y-46865D02*
X49700Y-46865D01*
X50300Y-46865D02*
X50516Y-46865D01*
X51485Y-46865D02*
X53500Y-46865D01*
X54500Y-46865D02*
X54516Y-46865D01*
X55830Y-46865D02*
X55901Y-46865D01*
X56099Y-46865D02*
X56171Y-46865D01*
X62379Y-46865D02*
X62488Y-46865D01*
X65434Y-46865D02*
X77775Y-46865D01*
X36225Y-46985D02*
X43560Y-46985D01*
X46409Y-46985D02*
X47701Y-46985D01*
X48299Y-46985D02*
X49700Y-46985D01*
X50300Y-46985D02*
X50501Y-46985D01*
X51499Y-46985D02*
X53500Y-46985D01*
X54500Y-46985D02*
X54501Y-46985D01*
X55950Y-46985D02*
X56051Y-46985D01*
X62259Y-46985D02*
X62475Y-46985D01*
X65554Y-46985D02*
X77775Y-46985D01*
X36225Y-47105D02*
X43680Y-47105D01*
X46529Y-47105D02*
X47629Y-47105D01*
X48372Y-47105D02*
X49700Y-47105D01*
X50300Y-47105D02*
X50503Y-47105D01*
X51496Y-47105D02*
X53500Y-47105D01*
X54500Y-47105D02*
X54503Y-47105D01*
X55859Y-47105D02*
X55930Y-47105D01*
X56070Y-47105D02*
X56140Y-47105D01*
X62139Y-47105D02*
X62475Y-47105D01*
X65674Y-47105D02*
X77775Y-47105D01*
X36225Y-47225D02*
X43800Y-47225D01*
X46649Y-47225D02*
X47601Y-47225D01*
X48399Y-47225D02*
X49700Y-47225D01*
X50300Y-47225D02*
X50553Y-47225D01*
X51446Y-47225D02*
X53500Y-47225D01*
X54500Y-47225D02*
X54553Y-47225D01*
X55446Y-47225D02*
X55509Y-47225D01*
X55739Y-47225D02*
X55811Y-47225D01*
X56190Y-47225D02*
X56260Y-47225D01*
X56490Y-47225D02*
X56553Y-47225D01*
X62019Y-47225D02*
X62525Y-47225D01*
X65794Y-47225D02*
X77775Y-47225D01*
X36225Y-47345D02*
X43920Y-47345D01*
X46769Y-47345D02*
X47607Y-47345D01*
X48519Y-47345D02*
X49700Y-47345D01*
X50300Y-47345D02*
X50640Y-47345D01*
X51360Y-47345D02*
X53510Y-47345D01*
X54489Y-47345D02*
X54640Y-47345D01*
X55360Y-47345D02*
X55691Y-47345D01*
X56310Y-47345D02*
X56640Y-47345D01*
X61774Y-47345D02*
X62603Y-47345D01*
X65914Y-47345D02*
X77775Y-47345D01*
X36225Y-47465D02*
X44040Y-47465D01*
X46889Y-47465D02*
X47657Y-47465D01*
X48639Y-47465D02*
X49700Y-47465D01*
X50300Y-47465D02*
X50700Y-47465D01*
X51300Y-47465D02*
X53597Y-47465D01*
X54403Y-47465D02*
X54700Y-47465D01*
X55300Y-47465D02*
X55712Y-47465D01*
X56287Y-47465D02*
X56650Y-47465D01*
X57350Y-47465D02*
X58750Y-47465D01*
X59248Y-47465D02*
X62700Y-47465D01*
X66034Y-47465D02*
X77775Y-47465D01*
X36225Y-47585D02*
X44160Y-47585D01*
X47009Y-47585D02*
X47771Y-47585D01*
X48759Y-47585D02*
X49700Y-47585D01*
X50300Y-47585D02*
X50700Y-47585D01*
X51300Y-47585D02*
X53700Y-47585D01*
X54300Y-47585D02*
X54700Y-47585D01*
X55300Y-47585D02*
X56650Y-47585D01*
X57350Y-47585D02*
X62700Y-47585D01*
X66154Y-47585D02*
X77775Y-47585D01*
X36225Y-47705D02*
X44280Y-47705D01*
X47129Y-47705D02*
X48030Y-47705D01*
X48879Y-47705D02*
X49700Y-47705D01*
X50300Y-47705D02*
X50700Y-47705D01*
X51300Y-47705D02*
X53700Y-47705D01*
X54300Y-47705D02*
X54700Y-47705D01*
X55300Y-47705D02*
X56650Y-47705D01*
X57350Y-47705D02*
X62700Y-47705D01*
X66274Y-47705D02*
X77775Y-47705D01*
X36225Y-47825D02*
X44400Y-47825D01*
X47249Y-47825D02*
X48150Y-47825D01*
X48999Y-47825D02*
X49700Y-47825D01*
X50300Y-47825D02*
X50700Y-47825D01*
X51300Y-47825D02*
X53700Y-47825D01*
X54300Y-47825D02*
X54700Y-47825D01*
X55300Y-47825D02*
X56650Y-47825D01*
X57350Y-47825D02*
X62700Y-47825D01*
X66394Y-47825D02*
X77775Y-47825D01*
X36225Y-47945D02*
X44520Y-47945D01*
X47369Y-47945D02*
X47741Y-47945D01*
X48259Y-47945D02*
X48270Y-47945D01*
X49119Y-47945D02*
X49700Y-47945D01*
X50300Y-47945D02*
X50700Y-47945D01*
X51300Y-47945D02*
X53700Y-47945D01*
X54300Y-47945D02*
X54700Y-47945D01*
X55300Y-47945D02*
X56650Y-47945D01*
X57350Y-47945D02*
X62700Y-47945D01*
X66514Y-47945D02*
X77775Y-47945D01*
X36225Y-48065D02*
X44640Y-48065D01*
X47489Y-48065D02*
X47645Y-48065D01*
X48356Y-48065D02*
X48390Y-48065D01*
X49239Y-48065D02*
X49700Y-48065D01*
X50300Y-48065D02*
X50700Y-48065D01*
X51300Y-48065D02*
X51747Y-48065D01*
X52254Y-48065D02*
X52747Y-48065D01*
X53254Y-48065D02*
X53700Y-48065D01*
X54300Y-48065D02*
X54700Y-48065D01*
X55300Y-48065D02*
X55694Y-48065D01*
X56307Y-48065D02*
X56650Y-48065D01*
X57350Y-48065D02*
X57747Y-48065D01*
X58254Y-48065D02*
X58747Y-48065D01*
X59254Y-48065D02*
X59747Y-48065D01*
X60254Y-48065D02*
X60747Y-48065D01*
X61254Y-48065D02*
X61747Y-48065D01*
X62254Y-48065D02*
X62567Y-48065D01*
X66634Y-48065D02*
X77775Y-48065D01*
X36225Y-48185D02*
X44760Y-48185D01*
X48399Y-48185D02*
X48510Y-48185D01*
X49359Y-48185D02*
X49609Y-48185D01*
X50391Y-48185D02*
X50609Y-48185D01*
X51391Y-48185D02*
X51610Y-48185D01*
X52391Y-48185D02*
X52610Y-48185D01*
X53391Y-48185D02*
X53609Y-48185D01*
X54391Y-48185D02*
X54609Y-48185D01*
X55391Y-48185D02*
X55607Y-48185D01*
X55650Y-48185D02*
X55721Y-48185D01*
X56279Y-48185D02*
X56351Y-48185D01*
X56394Y-48185D02*
X56609Y-48185D01*
X57391Y-48185D02*
X57610Y-48185D01*
X58391Y-48185D02*
X58610Y-48185D01*
X59391Y-48185D02*
X59610Y-48185D01*
X60391Y-48185D02*
X60610Y-48185D01*
X61391Y-48185D02*
X61610Y-48185D01*
X62391Y-48185D02*
X62500Y-48185D01*
X66754Y-48185D02*
X77775Y-48185D01*
X36225Y-48305D02*
X44880Y-48305D01*
X48479Y-48305D02*
X48630Y-48305D01*
X49479Y-48305D02*
X49541Y-48305D01*
X50460Y-48305D02*
X50541Y-48305D01*
X51460Y-48305D02*
X51541Y-48305D01*
X52460Y-48305D02*
X52520Y-48305D01*
X53460Y-48305D02*
X53541Y-48305D01*
X54460Y-48305D02*
X54541Y-48305D01*
X55459Y-48305D02*
X55497Y-48305D01*
X55770Y-48305D02*
X55841Y-48305D01*
X56159Y-48305D02*
X56231Y-48305D01*
X56503Y-48305D02*
X56540Y-48305D01*
X57460Y-48305D02*
X57541Y-48305D01*
X58460Y-48305D02*
X58541Y-48305D01*
X59460Y-48305D02*
X59541Y-48305D01*
X60460Y-48305D02*
X60541Y-48305D01*
X61460Y-48305D02*
X61541Y-48305D01*
X62460Y-48305D02*
X62500Y-48305D01*
X66874Y-48305D02*
X77775Y-48305D01*
X36225Y-48425D02*
X45000Y-48425D01*
X48599Y-48425D02*
X48750Y-48425D01*
X50499Y-48425D02*
X50501Y-48425D01*
X51499Y-48425D02*
X51501Y-48425D01*
X53499Y-48425D02*
X53501Y-48425D01*
X54499Y-48425D02*
X54501Y-48425D01*
X55890Y-48425D02*
X55960Y-48425D01*
X56039Y-48425D02*
X56111Y-48425D01*
X57499Y-48425D02*
X57501Y-48425D01*
X58499Y-48425D02*
X58501Y-48425D01*
X59499Y-48425D02*
X59501Y-48425D01*
X60499Y-48425D02*
X60501Y-48425D01*
X61499Y-48425D02*
X61501Y-48425D01*
X62499Y-48425D02*
X62500Y-48425D01*
X66994Y-48425D02*
X77775Y-48425D01*
X36225Y-48545D02*
X45120Y-48545D01*
X48719Y-48545D02*
X48870Y-48545D01*
X50499Y-48545D02*
X50501Y-48545D01*
X51499Y-48545D02*
X51501Y-48545D01*
X53499Y-48545D02*
X53501Y-48545D01*
X54499Y-48545D02*
X54501Y-48545D01*
X55919Y-48545D02*
X55990Y-48545D01*
X56010Y-48545D02*
X56080Y-48545D01*
X57499Y-48545D02*
X57501Y-48545D01*
X58499Y-48545D02*
X58501Y-48545D01*
X59499Y-48545D02*
X59501Y-48545D01*
X60499Y-48545D02*
X60501Y-48545D01*
X61499Y-48545D02*
X61501Y-48545D01*
X62499Y-48545D02*
X62500Y-48545D01*
X67558Y-48545D02*
X75411Y-48545D01*
X76038Y-48545D02*
X77775Y-48545D01*
X36225Y-48665D02*
X45240Y-48665D01*
X48839Y-48665D02*
X48990Y-48665D01*
X50471Y-48665D02*
X50528Y-48665D01*
X53471Y-48665D02*
X53528Y-48665D01*
X54471Y-48665D02*
X54528Y-48665D01*
X55471Y-48665D02*
X55484Y-48665D01*
X55799Y-48665D02*
X55871Y-48665D01*
X56130Y-48665D02*
X56200Y-48665D01*
X56514Y-48665D02*
X56528Y-48665D01*
X57471Y-48665D02*
X57528Y-48665D01*
X58471Y-48665D02*
X58528Y-48665D01*
X67598Y-48665D02*
X75291Y-48665D01*
X76158Y-48665D02*
X77775Y-48665D01*
X36225Y-48785D02*
X45360Y-48785D01*
X48959Y-48785D02*
X49110Y-48785D01*
X50420Y-48785D02*
X50579Y-48785D01*
X53420Y-48785D02*
X53579Y-48785D01*
X54420Y-48785D02*
X54579Y-48785D01*
X55420Y-48785D02*
X55534Y-48785D01*
X55679Y-48785D02*
X55751Y-48785D01*
X56250Y-48785D02*
X56320Y-48785D01*
X56465Y-48785D02*
X56579Y-48785D01*
X57420Y-48785D02*
X57579Y-48785D01*
X58420Y-48785D02*
X58579Y-48785D01*
X67598Y-48785D02*
X75230Y-48785D01*
X76220Y-48785D02*
X77775Y-48785D01*
X36225Y-48905D02*
X45480Y-48905D01*
X49079Y-48905D02*
X49230Y-48905D01*
X50300Y-48905D02*
X50699Y-48905D01*
X53300Y-48905D02*
X53699Y-48905D01*
X54300Y-48905D02*
X54699Y-48905D01*
X55300Y-48905D02*
X55687Y-48905D01*
X56312Y-48905D02*
X56699Y-48905D01*
X57300Y-48905D02*
X57699Y-48905D01*
X58300Y-48905D02*
X58699Y-48905D01*
X67598Y-48905D02*
X75189Y-48905D01*
X76259Y-48905D02*
X77775Y-48905D01*
X36225Y-49025D02*
X45600Y-49025D01*
X49199Y-49025D02*
X49350Y-49025D01*
X52649Y-49025D02*
X55859Y-49025D01*
X56142Y-49025D02*
X59101Y-49025D01*
X67598Y-49025D02*
X75189Y-49025D01*
X76259Y-49025D02*
X77775Y-49025D01*
X36225Y-49145D02*
X45720Y-49145D01*
X49319Y-49145D02*
X49470Y-49145D01*
X52529Y-49145D02*
X59221Y-49145D01*
X67598Y-49145D02*
X75209Y-49145D01*
X76238Y-49145D02*
X77775Y-49145D01*
X36225Y-49265D02*
X45840Y-49265D01*
X49439Y-49265D02*
X49590Y-49265D01*
X52409Y-49265D02*
X59341Y-49265D01*
X67598Y-49265D02*
X75259Y-49265D01*
X76187Y-49265D02*
X77775Y-49265D01*
X36225Y-49385D02*
X45960Y-49385D01*
X49559Y-49385D02*
X49710Y-49385D01*
X52289Y-49385D02*
X59461Y-49385D01*
X67580Y-49385D02*
X75358Y-49385D01*
X76090Y-49385D02*
X77775Y-49385D01*
X36225Y-49505D02*
X46080Y-49505D01*
X52169Y-49505D02*
X59581Y-49505D01*
X67531Y-49505D02*
X75258Y-49505D01*
X76192Y-49505D02*
X77775Y-49505D01*
X36225Y-49625D02*
X46200Y-49625D01*
X52049Y-49625D02*
X59701Y-49625D01*
X67580Y-49625D02*
X75208Y-49625D01*
X76241Y-49625D02*
X77775Y-49625D01*
X36225Y-49745D02*
X46320Y-49745D01*
X51929Y-49745D02*
X59821Y-49745D01*
X67598Y-49745D02*
X75189Y-49745D01*
X76259Y-49745D02*
X77775Y-49745D01*
X36225Y-49865D02*
X46440Y-49865D01*
X51809Y-49865D02*
X59941Y-49865D01*
X65539Y-49865D02*
X65940Y-49865D01*
X67598Y-49865D02*
X75189Y-49865D01*
X76259Y-49865D02*
X77775Y-49865D01*
X36225Y-49985D02*
X46560Y-49985D01*
X51677Y-49985D02*
X60061Y-49985D01*
X65659Y-49985D02*
X66060Y-49985D01*
X67555Y-49985D02*
X75231Y-49985D01*
X76216Y-49985D02*
X77775Y-49985D01*
X36225Y-50105D02*
X46680Y-50105D01*
X49529Y-50105D02*
X60181Y-50105D01*
X65779Y-50105D02*
X66180Y-50105D01*
X67489Y-50105D02*
X75296Y-50105D01*
X76150Y-50105D02*
X77775Y-50105D01*
X36225Y-50225D02*
X46800Y-50225D01*
X49649Y-50225D02*
X60301Y-50225D01*
X65899Y-50225D02*
X66300Y-50225D01*
X67482Y-50225D02*
X75306Y-50225D01*
X76143Y-50225D02*
X77775Y-50225D01*
X36225Y-50345D02*
X46920Y-50345D01*
X49769Y-50345D02*
X60421Y-50345D01*
X66001Y-50345D02*
X66420Y-50345D01*
X67552Y-50345D02*
X75236Y-50345D01*
X76213Y-50345D02*
X77775Y-50345D01*
X36225Y-50465D02*
X47040Y-50465D01*
X49889Y-50465D02*
X50925Y-50465D01*
X53325Y-50465D02*
X60541Y-50465D01*
X66043Y-50465D02*
X66528Y-50465D01*
X67598Y-50465D02*
X75189Y-50465D01*
X76259Y-50465D02*
X77775Y-50465D01*
X36225Y-50585D02*
X47160Y-50585D01*
X50009Y-50585D02*
X50741Y-50585D01*
X53510Y-50585D02*
X60661Y-50585D01*
X66050Y-50585D02*
X66528Y-50585D01*
X67598Y-50585D02*
X75189Y-50585D01*
X76259Y-50585D02*
X77775Y-50585D01*
X36225Y-50705D02*
X47280Y-50705D01*
X50129Y-50705D02*
X50621Y-50705D01*
X53630Y-50705D02*
X60781Y-50705D01*
X66050Y-50705D02*
X66542Y-50705D01*
X67583Y-50705D02*
X75203Y-50705D01*
X76244Y-50705D02*
X77775Y-50705D01*
X36225Y-50825D02*
X47400Y-50825D01*
X50237Y-50825D02*
X50501Y-50825D01*
X53750Y-50825D02*
X64901Y-50825D01*
X66050Y-50825D02*
X66592Y-50825D01*
X67533Y-50825D02*
X75253Y-50825D01*
X76194Y-50825D02*
X77775Y-50825D01*
X36225Y-50945D02*
X47520Y-50945D01*
X50289Y-50945D02*
X50381Y-50945D01*
X53870Y-50945D02*
X64950Y-50945D01*
X66050Y-50945D02*
X66688Y-50945D01*
X67436Y-50945D02*
X75349Y-50945D01*
X76097Y-50945D02*
X77775Y-50945D01*
X36225Y-51065D02*
X40526Y-51065D01*
X45375Y-51065D02*
X47640Y-51065D01*
X52255Y-51065D02*
X52747Y-51065D01*
X54254Y-51065D02*
X54747Y-51065D01*
X55254Y-51065D02*
X55747Y-51065D01*
X56254Y-51065D02*
X56694Y-51065D01*
X57307Y-51065D02*
X57747Y-51065D01*
X58254Y-51065D02*
X58747Y-51065D01*
X59254Y-51065D02*
X59747Y-51065D01*
X60254Y-51065D02*
X60747Y-51065D01*
X61254Y-51065D02*
X61747Y-51065D01*
X62254Y-51065D02*
X62747Y-51065D01*
X63254Y-51065D02*
X64950Y-51065D01*
X66050Y-51065D02*
X66603Y-51065D01*
X67525Y-51065D02*
X75264Y-51065D01*
X76186Y-51065D02*
X77775Y-51065D01*
X36225Y-51185D02*
X40320Y-51185D01*
X45580Y-51185D02*
X47760Y-51185D01*
X52391Y-51185D02*
X52610Y-51185D01*
X54391Y-51185D02*
X54610Y-51185D01*
X55391Y-51185D02*
X55610Y-51185D01*
X56391Y-51185D02*
X56607Y-51185D01*
X56650Y-51185D02*
X56720Y-51185D01*
X57279Y-51185D02*
X57351Y-51185D01*
X57394Y-51185D02*
X57610Y-51185D01*
X58391Y-51185D02*
X58610Y-51185D01*
X59391Y-51185D02*
X59610Y-51185D01*
X60391Y-51185D02*
X60610Y-51185D01*
X61391Y-51185D02*
X61610Y-51185D01*
X62391Y-51185D02*
X62610Y-51185D01*
X63391Y-51185D02*
X64950Y-51185D01*
X66050Y-51185D02*
X66553Y-51185D01*
X67574Y-51185D02*
X75214Y-51185D01*
X76235Y-51185D02*
X77775Y-51185D01*
X36225Y-51305D02*
X40200Y-51305D01*
X45700Y-51305D02*
X47880Y-51305D01*
X52460Y-51305D02*
X52541Y-51305D01*
X54460Y-51305D02*
X54541Y-51305D01*
X55460Y-51305D02*
X55541Y-51305D01*
X56459Y-51305D02*
X56497Y-51305D01*
X56770Y-51305D02*
X56840Y-51305D01*
X57159Y-51305D02*
X57231Y-51305D01*
X57503Y-51305D02*
X57540Y-51305D01*
X58460Y-51305D02*
X58541Y-51305D01*
X59460Y-51305D02*
X59541Y-51305D01*
X60460Y-51305D02*
X60541Y-51305D01*
X61460Y-51305D02*
X61541Y-51305D01*
X62460Y-51305D02*
X62541Y-51305D01*
X63460Y-51305D02*
X64950Y-51305D01*
X66050Y-51305D02*
X66528Y-51305D01*
X67598Y-51305D02*
X75189Y-51305D01*
X76259Y-51305D02*
X77775Y-51305D01*
X36225Y-51425D02*
X40080Y-51425D01*
X45820Y-51425D02*
X48000Y-51425D01*
X52499Y-51425D02*
X52501Y-51425D01*
X53499Y-51425D02*
X53501Y-51425D01*
X54499Y-51425D02*
X54501Y-51425D01*
X55499Y-51425D02*
X55501Y-51425D01*
X56890Y-51425D02*
X56960Y-51425D01*
X57039Y-51425D02*
X57111Y-51425D01*
X58499Y-51425D02*
X58501Y-51425D01*
X59499Y-51425D02*
X59501Y-51425D01*
X60499Y-51425D02*
X60501Y-51425D01*
X61499Y-51425D02*
X61501Y-51425D01*
X62499Y-51425D02*
X62501Y-51425D01*
X63499Y-51425D02*
X64950Y-51425D01*
X66050Y-51425D02*
X66528Y-51425D01*
X67598Y-51425D02*
X75189Y-51425D01*
X76259Y-51425D02*
X77775Y-51425D01*
X36225Y-51545D02*
X39960Y-51545D01*
X45940Y-51545D02*
X48120Y-51545D01*
X52499Y-51545D02*
X52501Y-51545D01*
X53499Y-51545D02*
X53501Y-51545D01*
X54499Y-51545D02*
X54501Y-51545D01*
X55499Y-51545D02*
X55501Y-51545D01*
X56919Y-51545D02*
X56991Y-51545D01*
X57010Y-51545D02*
X57080Y-51545D01*
X58499Y-51545D02*
X58501Y-51545D01*
X59499Y-51545D02*
X59501Y-51545D01*
X60499Y-51545D02*
X60501Y-51545D01*
X61499Y-51545D02*
X61501Y-51545D01*
X62499Y-51545D02*
X62501Y-51545D01*
X63499Y-51545D02*
X64950Y-51545D01*
X66050Y-51545D02*
X66564Y-51545D01*
X67561Y-51545D02*
X75225Y-51545D01*
X76222Y-51545D02*
X77775Y-51545D01*
X36225Y-51665D02*
X39840Y-51665D01*
X46060Y-51665D02*
X48240Y-51665D01*
X52471Y-51665D02*
X52528Y-51665D01*
X53471Y-51665D02*
X53528Y-51665D01*
X54471Y-51665D02*
X54528Y-51665D01*
X55471Y-51665D02*
X55528Y-51665D01*
X56471Y-51665D02*
X56484Y-51665D01*
X56799Y-51665D02*
X56871Y-51665D01*
X57130Y-51665D02*
X57200Y-51665D01*
X57514Y-51665D02*
X57528Y-51665D01*
X58471Y-51665D02*
X58528Y-51665D01*
X59471Y-51665D02*
X59528Y-51665D01*
X60471Y-51665D02*
X60528Y-51665D01*
X61471Y-51665D02*
X61528Y-51665D01*
X62471Y-51665D02*
X62528Y-51665D01*
X63471Y-51665D02*
X64950Y-51665D01*
X66050Y-51665D02*
X66621Y-51665D01*
X67504Y-51665D02*
X75282Y-51665D01*
X76165Y-51665D02*
X77775Y-51665D01*
X36225Y-51785D02*
X39720Y-51785D01*
X40707Y-51785D02*
X45190Y-51785D01*
X46180Y-51785D02*
X48360Y-51785D01*
X52420Y-51785D02*
X52579Y-51785D01*
X53420Y-51785D02*
X53579Y-51785D01*
X54420Y-51785D02*
X54579Y-51785D01*
X55420Y-51785D02*
X55580Y-51785D01*
X56420Y-51785D02*
X56534Y-51785D01*
X56679Y-51785D02*
X56751Y-51785D01*
X57250Y-51785D02*
X57320Y-51785D01*
X57465Y-51785D02*
X57579Y-51785D01*
X58420Y-51785D02*
X58579Y-51785D01*
X59420Y-51785D02*
X59580Y-51785D01*
X60420Y-51785D02*
X60579Y-51785D01*
X61420Y-51785D02*
X61579Y-51785D01*
X62420Y-51785D02*
X62580Y-51785D01*
X63420Y-51785D02*
X64950Y-51785D01*
X66050Y-51785D02*
X66659Y-51785D01*
X67467Y-51785D02*
X75320Y-51785D01*
X76128Y-51785D02*
X77775Y-51785D01*
X36225Y-51905D02*
X39600Y-51905D01*
X40587Y-51905D02*
X45310Y-51905D01*
X46300Y-51905D02*
X48480Y-51905D01*
X52300Y-51905D02*
X52699Y-51905D01*
X53300Y-51905D02*
X53699Y-51905D01*
X54300Y-51905D02*
X54699Y-51905D01*
X55300Y-51905D02*
X55700Y-51905D01*
X56300Y-51905D02*
X56687Y-51905D01*
X57312Y-51905D02*
X57699Y-51905D01*
X58300Y-51905D02*
X58699Y-51905D01*
X59300Y-51905D02*
X59700Y-51905D01*
X60300Y-51905D02*
X60699Y-51905D01*
X61300Y-51905D02*
X61699Y-51905D01*
X62300Y-51905D02*
X62700Y-51905D01*
X63300Y-51905D02*
X64950Y-51905D01*
X66050Y-51905D02*
X66581Y-51905D01*
X67546Y-51905D02*
X75242Y-51905D01*
X76207Y-51905D02*
X77775Y-51905D01*
X36225Y-52025D02*
X38120Y-52025D01*
X38880Y-52025D02*
X39344Y-52025D01*
X40763Y-52025D02*
X41344Y-52025D01*
X41658Y-52025D02*
X42344Y-52025D01*
X42658Y-52025D02*
X43344Y-52025D01*
X43658Y-52025D02*
X44344Y-52025D01*
X44658Y-52025D02*
X45237Y-52025D01*
X46420Y-52025D02*
X48600Y-52025D01*
X51899Y-52025D02*
X55700Y-52025D01*
X56300Y-52025D02*
X56859Y-52025D01*
X57142Y-52025D02*
X59700Y-52025D01*
X60300Y-52025D02*
X62700Y-52025D01*
X63300Y-52025D02*
X64950Y-52025D01*
X66050Y-52025D02*
X66531Y-52025D01*
X67596Y-52025D02*
X75192Y-52025D01*
X76257Y-52025D02*
X77775Y-52025D01*
X36225Y-52145D02*
X38015Y-52145D01*
X38986Y-52145D02*
X39150Y-52145D01*
X40818Y-52145D02*
X41150Y-52145D01*
X41851Y-52145D02*
X42150Y-52145D01*
X42851Y-52145D02*
X43150Y-52145D01*
X43851Y-52145D02*
X44150Y-52145D01*
X44851Y-52145D02*
X45180Y-52145D01*
X46540Y-52145D02*
X48720Y-52145D01*
X51779Y-52145D02*
X55700Y-52145D01*
X56300Y-52145D02*
X59700Y-52145D01*
X60300Y-52145D02*
X62700Y-52145D01*
X63300Y-52145D02*
X64950Y-52145D01*
X66050Y-52145D02*
X66528Y-52145D01*
X67598Y-52145D02*
X75189Y-52145D01*
X76259Y-52145D02*
X77775Y-52145D01*
X36225Y-52265D02*
X37541Y-52265D01*
X39000Y-52265D02*
X39058Y-52265D01*
X40698Y-52265D02*
X40771Y-52265D01*
X40987Y-52265D02*
X41057Y-52265D01*
X41943Y-52265D02*
X42058Y-52265D01*
X42943Y-52265D02*
X43058Y-52265D01*
X43943Y-52265D02*
X44058Y-52265D01*
X44943Y-52265D02*
X45014Y-52265D01*
X45230Y-52265D02*
X45300Y-52265D01*
X46660Y-52265D02*
X48840Y-52265D01*
X51659Y-52265D02*
X55700Y-52265D01*
X56300Y-52265D02*
X59700Y-52265D01*
X60300Y-52265D02*
X62700Y-52265D01*
X63300Y-52265D02*
X64950Y-52265D01*
X66050Y-52265D02*
X66536Y-52265D01*
X67589Y-52265D02*
X75197Y-52265D01*
X76250Y-52265D02*
X77775Y-52265D01*
X36225Y-52385D02*
X37421Y-52385D01*
X39000Y-52385D02*
X39008Y-52385D01*
X40578Y-52385D02*
X40651Y-52385D01*
X41993Y-52385D02*
X42008Y-52385D01*
X42993Y-52385D02*
X43008Y-52385D01*
X43993Y-52385D02*
X44008Y-52385D01*
X45350Y-52385D02*
X45420Y-52385D01*
X46780Y-52385D02*
X48960Y-52385D01*
X51539Y-52385D02*
X55700Y-52385D01*
X56300Y-52385D02*
X59700Y-52385D01*
X60300Y-52385D02*
X62700Y-52385D01*
X63300Y-52385D02*
X64950Y-52385D01*
X66050Y-52385D02*
X66585Y-52385D01*
X67539Y-52385D02*
X75246Y-52385D01*
X76200Y-52385D02*
X77775Y-52385D01*
X36225Y-52505D02*
X37301Y-52505D01*
X39000Y-52505D02*
X39001Y-52505D01*
X40459Y-52505D02*
X40540Y-52505D01*
X41999Y-52505D02*
X42001Y-52505D01*
X42999Y-52505D02*
X43001Y-52505D01*
X43999Y-52505D02*
X44001Y-52505D01*
X45459Y-52505D02*
X45540Y-52505D01*
X46900Y-52505D02*
X48148Y-52505D01*
X48852Y-52505D02*
X49102Y-52505D01*
X51397Y-52505D02*
X53824Y-52505D01*
X54178Y-52505D02*
X55700Y-52505D01*
X56300Y-52505D02*
X56786Y-52505D01*
X57214Y-52505D02*
X58786Y-52505D01*
X59214Y-52505D02*
X59700Y-52505D01*
X60300Y-52505D02*
X61892Y-52505D01*
X62109Y-52505D02*
X62700Y-52505D01*
X63300Y-52505D02*
X64950Y-52505D01*
X66050Y-52505D02*
X66673Y-52505D01*
X67451Y-52505D02*
X75334Y-52505D01*
X76112Y-52505D02*
X77775Y-52505D01*
X36225Y-52625D02*
X37181Y-52625D01*
X39000Y-52625D02*
X39011Y-52625D01*
X40339Y-52625D02*
X40411Y-52625D01*
X40590Y-52625D02*
X40660Y-52625D01*
X41988Y-52625D02*
X42011Y-52625D01*
X42988Y-52625D02*
X43011Y-52625D01*
X43988Y-52625D02*
X44011Y-52625D01*
X45339Y-52625D02*
X45411Y-52625D01*
X45590Y-52625D02*
X45660Y-52625D01*
X46030Y-52625D02*
X46030Y-52625D01*
X47020Y-52625D02*
X48028Y-52625D01*
X48972Y-52625D02*
X53633Y-52625D01*
X54368Y-52625D02*
X55669Y-52625D01*
X56331Y-52625D02*
X56682Y-52625D01*
X57319Y-52625D02*
X58682Y-52625D01*
X59319Y-52625D02*
X59669Y-52625D01*
X60331Y-52625D02*
X61670Y-52625D01*
X62331Y-52625D02*
X62669Y-52625D01*
X63331Y-52625D02*
X64950Y-52625D01*
X66050Y-52625D02*
X66609Y-52625D01*
X67519Y-52625D02*
X75270Y-52625D01*
X76180Y-52625D02*
X77775Y-52625D01*
X36225Y-52745D02*
X37061Y-52745D01*
X39000Y-52745D02*
X39061Y-52745D01*
X39938Y-52745D02*
X40017Y-52745D01*
X40219Y-52745D02*
X40291Y-52745D01*
X40710Y-52745D02*
X40780Y-52745D01*
X40981Y-52745D02*
X41061Y-52745D01*
X41938Y-52745D02*
X42061Y-52745D01*
X42938Y-52745D02*
X43061Y-52745D01*
X43938Y-52745D02*
X44061Y-52745D01*
X44938Y-52745D02*
X45017Y-52745D01*
X45219Y-52745D02*
X45291Y-52745D01*
X45710Y-52745D02*
X45780Y-52745D01*
X45981Y-52745D02*
X46150Y-52745D01*
X47140Y-52745D02*
X47958Y-52745D01*
X52648Y-52745D02*
X53538Y-52745D01*
X54463Y-52745D02*
X55566Y-52745D01*
X56435Y-52745D02*
X56522Y-52745D01*
X56710Y-52745D02*
X56780Y-52745D01*
X57219Y-52745D02*
X57291Y-52745D01*
X57479Y-52745D02*
X58522Y-52745D01*
X58710Y-52745D02*
X58781Y-52745D01*
X59219Y-52745D02*
X59291Y-52745D01*
X59479Y-52745D02*
X59566Y-52745D01*
X60435Y-52745D02*
X61566Y-52745D01*
X62435Y-52745D02*
X62566Y-52745D01*
X63435Y-52745D02*
X64950Y-52745D01*
X66050Y-52745D02*
X66559Y-52745D01*
X67568Y-52745D02*
X75220Y-52745D01*
X76229Y-52745D02*
X77775Y-52745D01*
X36225Y-52865D02*
X36941Y-52865D01*
X37929Y-52865D02*
X38018Y-52865D01*
X38981Y-52865D02*
X39159Y-52865D01*
X39840Y-52865D02*
X40179Y-52865D01*
X40820Y-52865D02*
X41140Y-52865D01*
X41850Y-52865D02*
X42140Y-52865D01*
X42850Y-52865D02*
X43150Y-52865D01*
X43850Y-52865D02*
X44150Y-52865D01*
X44850Y-52865D02*
X45179Y-52865D01*
X45820Y-52865D02*
X46270Y-52865D01*
X47260Y-52865D02*
X47908Y-52865D01*
X52789Y-52865D02*
X53488Y-52865D01*
X54513Y-52865D02*
X55516Y-52865D01*
X56830Y-52865D02*
X56900Y-52865D01*
X57099Y-52865D02*
X57171Y-52865D01*
X57529Y-52865D02*
X58473Y-52865D01*
X58830Y-52865D02*
X58901Y-52865D01*
X59099Y-52865D02*
X59171Y-52865D01*
X60485Y-52865D02*
X61516Y-52865D01*
X62485Y-52865D02*
X62516Y-52865D01*
X63485Y-52865D02*
X64950Y-52865D01*
X66050Y-52865D02*
X66528Y-52865D01*
X67598Y-52865D02*
X75189Y-52865D01*
X76259Y-52865D02*
X77775Y-52865D01*
X36225Y-52985D02*
X36821Y-52985D01*
X37809Y-52985D02*
X38144Y-52985D01*
X38855Y-52985D02*
X39367Y-52985D01*
X39632Y-52985D02*
X40261Y-52985D01*
X40739Y-52985D02*
X41020Y-52985D01*
X41850Y-52985D02*
X42020Y-52985D01*
X42850Y-52985D02*
X43150Y-52985D01*
X43850Y-52985D02*
X44150Y-52985D01*
X44850Y-52985D02*
X45261Y-52985D01*
X45739Y-52985D02*
X46390Y-52985D01*
X47380Y-52985D02*
X47901Y-52985D01*
X52909Y-52985D02*
X53475Y-52985D01*
X54525Y-52985D02*
X55501Y-52985D01*
X56950Y-52985D02*
X57051Y-52985D01*
X57539Y-52985D02*
X58460Y-52985D01*
X58950Y-52985D02*
X59051Y-52985D01*
X60499Y-52985D02*
X61501Y-52985D01*
X62499Y-52985D02*
X62501Y-52985D01*
X63499Y-52985D02*
X64950Y-52985D01*
X66050Y-52985D02*
X66528Y-52985D01*
X67598Y-52985D02*
X75189Y-52985D01*
X76259Y-52985D02*
X77775Y-52985D01*
X36225Y-53105D02*
X36701Y-53105D01*
X37689Y-53105D02*
X40900Y-53105D01*
X41828Y-53105D02*
X41900Y-53105D01*
X42828Y-53105D02*
X43150Y-53105D01*
X43850Y-53105D02*
X44150Y-53105D01*
X44850Y-53105D02*
X46510Y-53105D01*
X47500Y-53105D02*
X47901Y-53105D01*
X53029Y-53105D02*
X53475Y-53105D01*
X54525Y-53105D02*
X55471Y-53105D01*
X56859Y-53105D02*
X56931Y-53105D01*
X57070Y-53105D02*
X57140Y-53105D01*
X57539Y-53105D02*
X58461Y-53105D01*
X58859Y-53105D02*
X58930Y-53105D01*
X59070Y-53105D02*
X59140Y-53105D01*
X60496Y-53105D02*
X61503Y-53105D01*
X62496Y-53105D02*
X62503Y-53105D01*
X63496Y-53105D02*
X64950Y-53105D01*
X66050Y-53105D02*
X66558Y-53105D01*
X67567Y-53105D02*
X75219Y-53105D01*
X76228Y-53105D02*
X77775Y-53105D01*
X36225Y-53225D02*
X36581Y-53225D01*
X37569Y-53225D02*
X40780Y-53225D01*
X41762Y-53225D02*
X41780Y-53225D01*
X42762Y-53225D02*
X43150Y-53225D01*
X43850Y-53225D02*
X44150Y-53225D01*
X44850Y-53225D02*
X46630Y-53225D01*
X47620Y-53225D02*
X47944Y-53225D01*
X56446Y-53225D02*
X56509Y-53225D01*
X56739Y-53225D02*
X56811Y-53225D01*
X57190Y-53225D02*
X57260Y-53225D01*
X57490Y-53225D02*
X58509Y-53225D01*
X58739Y-53225D02*
X58811Y-53225D01*
X59190Y-53225D02*
X59260Y-53225D01*
X59490Y-53225D02*
X59553Y-53225D01*
X60446Y-53225D02*
X61553Y-53225D01*
X62446Y-53225D02*
X62553Y-53225D01*
X63446Y-53225D02*
X64950Y-53225D01*
X66050Y-53225D02*
X66607Y-53225D01*
X67517Y-53225D02*
X75268Y-53225D01*
X76178Y-53225D02*
X77775Y-53225D01*
X36225Y-53345D02*
X36461Y-53345D01*
X37449Y-53345D02*
X40660Y-53345D01*
X41649Y-53345D02*
X41660Y-53345D01*
X42649Y-53345D02*
X43150Y-53345D01*
X43850Y-53345D02*
X44150Y-53345D01*
X44850Y-53345D02*
X46750Y-53345D01*
X47740Y-53345D02*
X47998Y-53345D01*
X49002Y-53345D02*
X51496Y-53345D01*
X56360Y-53345D02*
X56691Y-53345D01*
X57310Y-53345D02*
X58691Y-53345D01*
X59310Y-53345D02*
X59640Y-53345D01*
X60359Y-53345D02*
X61639Y-53345D01*
X62360Y-53345D02*
X62640Y-53345D01*
X63359Y-53345D02*
X64950Y-53345D01*
X66050Y-53345D02*
X66674Y-53345D01*
X67452Y-53345D02*
X75335Y-53345D01*
X76113Y-53345D02*
X77775Y-53345D01*
X36225Y-53465D02*
X36341Y-53465D01*
X37329Y-53465D02*
X39059Y-53465D01*
X41529Y-53465D02*
X41540Y-53465D01*
X42529Y-53465D02*
X43150Y-53465D01*
X43850Y-53465D02*
X44150Y-53465D01*
X44850Y-53465D02*
X46870Y-53465D01*
X47860Y-53465D02*
X48118Y-53465D01*
X48882Y-53465D02*
X51475Y-53465D01*
X52525Y-53465D02*
X52541Y-53465D01*
X56180Y-53465D02*
X56712Y-53465D01*
X57287Y-53465D02*
X58712Y-53465D01*
X59287Y-53465D02*
X59700Y-53465D01*
X60389Y-53465D02*
X61818Y-53465D01*
X62180Y-53465D02*
X62700Y-53465D01*
X63389Y-53465D02*
X64950Y-53465D01*
X66050Y-53465D02*
X66587Y-53465D01*
X67540Y-53465D02*
X75248Y-53465D01*
X76201Y-53465D02*
X77775Y-53465D01*
X36225Y-53585D02*
X36232Y-53585D01*
X37209Y-53585D02*
X38920Y-53585D01*
X41409Y-53585D02*
X41420Y-53585D01*
X42409Y-53585D02*
X43150Y-53585D01*
X43850Y-53585D02*
X44150Y-53585D01*
X44850Y-53585D02*
X46990Y-53585D01*
X47980Y-53585D02*
X48347Y-53585D01*
X48652Y-53585D02*
X51475Y-53585D01*
X52525Y-53585D02*
X52661Y-53585D01*
X56291Y-53585D02*
X56690Y-53585D01*
X57311Y-53585D02*
X59717Y-53585D01*
X60791Y-53585D02*
X61210Y-53585D01*
X61791Y-53585D02*
X62717Y-53585D01*
X63791Y-53585D02*
X64210Y-53585D01*
X64791Y-53585D02*
X64950Y-53585D01*
X66050Y-53585D02*
X66537Y-53585D01*
X67589Y-53585D02*
X75198Y-53585D01*
X76250Y-53585D02*
X77775Y-53585D01*
X37089Y-53705D02*
X38800Y-53705D01*
X41289Y-53705D02*
X41300Y-53705D01*
X42289Y-53705D02*
X43150Y-53705D01*
X43850Y-53705D02*
X44150Y-53705D01*
X44850Y-53705D02*
X47110Y-53705D01*
X48100Y-53705D02*
X51516Y-53705D01*
X52483Y-53705D02*
X52781Y-53705D01*
X56411Y-53705D02*
X56539Y-53705D01*
X56670Y-53705D02*
X56740Y-53705D01*
X57259Y-53705D02*
X57331Y-53705D01*
X57462Y-53705D02*
X59783Y-53705D01*
X60911Y-53705D02*
X61090Y-53705D01*
X61911Y-53705D02*
X62783Y-53705D01*
X63911Y-53705D02*
X64090Y-53705D01*
X64911Y-53705D02*
X64950Y-53705D01*
X66050Y-53705D02*
X66528Y-53705D01*
X67598Y-53705D02*
X75189Y-53705D01*
X76259Y-53705D02*
X77775Y-53705D01*
X36969Y-53825D02*
X38680Y-53825D01*
X41169Y-53825D02*
X41180Y-53825D01*
X42169Y-53825D02*
X43150Y-53825D01*
X43850Y-53825D02*
X44150Y-53825D01*
X44850Y-53825D02*
X47230Y-53825D01*
X48220Y-53825D02*
X51582Y-53825D01*
X52417Y-53825D02*
X53462Y-53825D01*
X54538Y-53825D02*
X55532Y-53825D01*
X56468Y-53825D02*
X56489Y-53825D01*
X56790Y-53825D02*
X56860Y-53825D01*
X57139Y-53825D02*
X57211Y-53825D01*
X57512Y-53825D02*
X59901Y-53825D01*
X60968Y-53825D02*
X61033Y-53825D01*
X61968Y-53825D02*
X62901Y-53825D01*
X63968Y-53825D02*
X64033Y-53825D01*
X66050Y-53825D02*
X66530Y-53825D01*
X67595Y-53825D02*
X75191Y-53825D01*
X76256Y-53825D02*
X77775Y-53825D01*
X36850Y-53945D02*
X37338Y-53945D01*
X37663Y-53945D02*
X38058Y-53945D01*
X42049Y-53945D02*
X42338Y-53945D01*
X42663Y-53945D02*
X43058Y-53945D01*
X43943Y-53945D02*
X44150Y-53945D01*
X45163Y-53945D02*
X45558Y-53945D01*
X46443Y-53945D02*
X47350Y-53945D01*
X48340Y-53945D02*
X51702Y-53945D01*
X52297Y-53945D02*
X53436Y-53945D01*
X54564Y-53945D02*
X55501Y-53945D01*
X56910Y-53945D02*
X56980Y-53945D01*
X57019Y-53945D02*
X57091Y-53945D01*
X57539Y-53945D02*
X60001Y-53945D01*
X60999Y-53945D02*
X61001Y-53945D01*
X61999Y-53945D02*
X63001Y-53945D01*
X63999Y-53945D02*
X64001Y-53945D01*
X66050Y-53945D02*
X66579Y-53945D01*
X67545Y-53945D02*
X75240Y-53945D01*
X76206Y-53945D02*
X77775Y-53945D01*
X36850Y-54065D02*
X37122Y-54065D01*
X37878Y-54065D02*
X37942Y-54065D01*
X41929Y-54065D02*
X42122Y-54065D01*
X42878Y-54065D02*
X42942Y-54065D01*
X44059Y-54065D02*
X44163Y-54065D01*
X45378Y-54065D02*
X45442Y-54065D01*
X46559Y-54065D02*
X47470Y-54065D01*
X48460Y-54065D02*
X53436Y-54065D01*
X53898Y-54065D02*
X53970Y-54065D01*
X54030Y-54065D02*
X54100Y-54065D01*
X54564Y-54065D02*
X55501Y-54065D01*
X56899Y-54065D02*
X56971Y-54065D01*
X57030Y-54065D02*
X57100Y-54065D01*
X57540Y-54065D02*
X60001Y-54065D01*
X60999Y-54065D02*
X61001Y-54065D01*
X61999Y-54065D02*
X63001Y-54065D01*
X63999Y-54065D02*
X64001Y-54065D01*
X66050Y-54065D02*
X66658Y-54065D01*
X67466Y-54065D02*
X75319Y-54065D01*
X76127Y-54065D02*
X77775Y-54065D01*
X36850Y-54185D02*
X37009Y-54185D01*
X39309Y-54185D02*
X39509Y-54185D01*
X41809Y-54185D02*
X42009Y-54185D01*
X44075Y-54185D02*
X44211Y-54185D01*
X46575Y-54185D02*
X47590Y-54185D01*
X48580Y-54185D02*
X53465Y-54185D01*
X53779Y-54185D02*
X53850Y-54185D01*
X54150Y-54185D02*
X54220Y-54185D01*
X54533Y-54185D02*
X55536Y-54185D01*
X56463Y-54185D02*
X56492Y-54185D01*
X56779Y-54185D02*
X56851Y-54185D01*
X57150Y-54185D02*
X57220Y-54185D01*
X57506Y-54185D02*
X60036Y-54185D01*
X61963Y-54185D02*
X63036Y-54185D01*
X66050Y-54185D02*
X66622Y-54185D01*
X67505Y-54185D02*
X75283Y-54185D01*
X76166Y-54185D02*
X77775Y-54185D01*
X36850Y-54305D02*
X36959Y-54305D01*
X39189Y-54305D02*
X39459Y-54305D01*
X41689Y-54305D02*
X41959Y-54305D01*
X44075Y-54305D02*
X44311Y-54305D01*
X46575Y-54305D02*
X47710Y-54305D01*
X48700Y-54305D02*
X53515Y-54305D01*
X53659Y-54305D02*
X53730Y-54305D01*
X54270Y-54305D02*
X54340Y-54305D01*
X54483Y-54305D02*
X55599Y-54305D01*
X56400Y-54305D02*
X56556Y-54305D01*
X56659Y-54305D02*
X56731Y-54305D01*
X57270Y-54305D02*
X57340Y-54305D01*
X57443Y-54305D02*
X60099Y-54305D01*
X61900Y-54305D02*
X63099Y-54305D01*
X64900Y-54305D02*
X64950Y-54305D01*
X66050Y-54305D02*
X66565Y-54305D01*
X67562Y-54305D02*
X75226Y-54305D01*
X76223Y-54305D02*
X77775Y-54305D01*
X36850Y-54425D02*
X36925Y-54425D01*
X39075Y-54425D02*
X39425Y-54425D01*
X41575Y-54425D02*
X41925Y-54425D01*
X44075Y-54425D02*
X44425Y-54425D01*
X46575Y-54425D02*
X47830Y-54425D01*
X48980Y-54425D02*
X53671Y-54425D01*
X54328Y-54425D02*
X55721Y-54425D01*
X56277Y-54425D02*
X56691Y-54425D01*
X57308Y-54425D02*
X60221Y-54425D01*
X61777Y-54425D02*
X63221Y-54425D01*
X64777Y-54425D02*
X64950Y-54425D01*
X66050Y-54425D02*
X66528Y-54425D01*
X67598Y-54425D02*
X75189Y-54425D01*
X76259Y-54425D02*
X77775Y-54425D01*
X36850Y-54545D02*
X36925Y-54545D01*
X39075Y-54545D02*
X39425Y-54545D01*
X41575Y-54545D02*
X41925Y-54545D01*
X44075Y-54545D02*
X44425Y-54545D01*
X46575Y-54545D02*
X47915Y-54545D01*
X49086Y-54545D02*
X53843Y-54545D01*
X54159Y-54545D02*
X60530Y-54545D01*
X61379Y-54545D02*
X63530Y-54545D01*
X64379Y-54545D02*
X64950Y-54545D01*
X66050Y-54545D02*
X66528Y-54545D01*
X67598Y-54545D02*
X75189Y-54545D01*
X76259Y-54545D02*
X77775Y-54545D01*
X36850Y-54665D02*
X36946Y-54665D01*
X39075Y-54665D02*
X39446Y-54665D01*
X41575Y-54665D02*
X41946Y-54665D01*
X44075Y-54665D02*
X44446Y-54665D01*
X46575Y-54665D02*
X47900Y-54665D01*
X49100Y-54665D02*
X60410Y-54665D01*
X61259Y-54665D02*
X63410Y-54665D01*
X64259Y-54665D02*
X64950Y-54665D01*
X66050Y-54665D02*
X66552Y-54665D01*
X67573Y-54665D02*
X75213Y-54665D01*
X76234Y-54665D02*
X77775Y-54665D01*
X36850Y-54785D02*
X36995Y-54785D01*
X39075Y-54785D02*
X39495Y-54785D01*
X41575Y-54785D02*
X41995Y-54785D01*
X44075Y-54785D02*
X44495Y-54785D01*
X46575Y-54785D02*
X47900Y-54785D01*
X49100Y-54785D02*
X60290Y-54785D01*
X61139Y-54785D02*
X63290Y-54785D01*
X64139Y-54785D02*
X64950Y-54785D01*
X66050Y-54785D02*
X66601Y-54785D01*
X67523Y-54785D02*
X75262Y-54785D01*
X76184Y-54785D02*
X77775Y-54785D01*
X36850Y-54905D02*
X37092Y-54905D01*
X37908Y-54905D02*
X37929Y-54905D01*
X39070Y-54905D02*
X39592Y-54905D01*
X40408Y-54905D02*
X40429Y-54905D01*
X41570Y-54905D02*
X42092Y-54905D01*
X42908Y-54905D02*
X42929Y-54905D01*
X44070Y-54905D02*
X44592Y-54905D01*
X45408Y-54905D02*
X45429Y-54905D01*
X46570Y-54905D02*
X47900Y-54905D01*
X49100Y-54905D02*
X60170Y-54905D01*
X61019Y-54905D02*
X63170Y-54905D01*
X64019Y-54905D02*
X64950Y-54905D01*
X66050Y-54905D02*
X66689Y-54905D01*
X67438Y-54905D02*
X75350Y-54905D01*
X76099Y-54905D02*
X77775Y-54905D01*
X36850Y-55025D02*
X37265Y-55025D01*
X37735Y-55025D02*
X38007Y-55025D01*
X38993Y-55025D02*
X39765Y-55025D01*
X40235Y-55025D02*
X40507Y-55025D01*
X41493Y-55025D02*
X42265Y-55025D01*
X42735Y-55025D02*
X43007Y-55025D01*
X43993Y-55025D02*
X44765Y-55025D01*
X45235Y-55025D02*
X45507Y-55025D01*
X46493Y-55025D02*
X47900Y-55025D01*
X49100Y-55025D02*
X60050Y-55025D01*
X60899Y-55025D02*
X63050Y-55025D01*
X63899Y-55025D02*
X64950Y-55025D01*
X66050Y-55025D02*
X66593Y-55025D01*
X67534Y-55025D02*
X75254Y-55025D01*
X76195Y-55025D02*
X77775Y-55025D01*
X36850Y-55145D02*
X47900Y-55145D01*
X49100Y-55145D02*
X59930Y-55145D01*
X60779Y-55145D02*
X62930Y-55145D01*
X63779Y-55145D02*
X64950Y-55145D01*
X66050Y-55145D02*
X66543Y-55145D01*
X67584Y-55145D02*
X75204Y-55145D01*
X76245Y-55145D02*
X77775Y-55145D01*
X36850Y-55265D02*
X47900Y-55265D01*
X49100Y-55265D02*
X59810Y-55265D01*
X60659Y-55265D02*
X62810Y-55265D01*
X63659Y-55265D02*
X64950Y-55265D01*
X66050Y-55265D02*
X66528Y-55265D01*
X67598Y-55265D02*
X75189Y-55265D01*
X76259Y-55265D02*
X77775Y-55265D01*
X36850Y-55385D02*
X47900Y-55385D01*
X49100Y-55385D02*
X59690Y-55385D01*
X60539Y-55385D02*
X62690Y-55385D01*
X63539Y-55385D02*
X64950Y-55385D01*
X66050Y-55385D02*
X66528Y-55385D01*
X67598Y-55385D02*
X75189Y-55385D01*
X76259Y-55385D02*
X77775Y-55385D01*
X36850Y-55505D02*
X47937Y-55505D01*
X49063Y-55505D02*
X50169Y-55505D01*
X50832Y-55505D02*
X53392Y-55505D01*
X53609Y-55505D02*
X59570Y-55505D01*
X60419Y-55505D02*
X62570Y-55505D01*
X63419Y-55505D02*
X64950Y-55505D01*
X66050Y-55505D02*
X66574Y-55505D01*
X67551Y-55505D02*
X75235Y-55505D01*
X76212Y-55505D02*
X77775Y-55505D01*
X36850Y-55625D02*
X50024Y-55625D01*
X50978Y-55625D02*
X53170Y-55625D01*
X53831Y-55625D02*
X59450Y-55625D01*
X60299Y-55625D02*
X62450Y-55625D01*
X63299Y-55625D02*
X64950Y-55625D01*
X66050Y-55625D02*
X66644Y-55625D01*
X67481Y-55625D02*
X75305Y-55625D01*
X76142Y-55625D02*
X77775Y-55625D01*
X36850Y-55745D02*
X50000Y-55745D01*
X51000Y-55745D02*
X53066Y-55745D01*
X53935Y-55745D02*
X59330Y-55745D01*
X60179Y-55745D02*
X62330Y-55745D01*
X63179Y-55745D02*
X64950Y-55745D01*
X66050Y-55745D02*
X66607Y-55745D01*
X66698Y-55745D02*
X66768Y-55745D01*
X67356Y-55745D02*
X67429Y-55745D01*
X67520Y-55745D02*
X75298Y-55745D01*
X76151Y-55745D02*
X77775Y-55745D01*
X36850Y-55865D02*
X50000Y-55865D01*
X51000Y-55865D02*
X53016Y-55865D01*
X53985Y-55865D02*
X59210Y-55865D01*
X60059Y-55865D02*
X62210Y-55865D01*
X63059Y-55865D02*
X64950Y-55865D01*
X66050Y-55865D02*
X66530Y-55865D01*
X66818Y-55865D02*
X66888Y-55865D01*
X67236Y-55865D02*
X67309Y-55865D01*
X67597Y-55865D02*
X75233Y-55865D01*
X76217Y-55865D02*
X77775Y-55865D01*
X36850Y-55985D02*
X50000Y-55985D01*
X51000Y-55985D02*
X53001Y-55985D01*
X53999Y-55985D02*
X59090Y-55985D01*
X59939Y-55985D02*
X62090Y-55985D01*
X62939Y-55985D02*
X64950Y-55985D01*
X66050Y-55985D02*
X66490Y-55985D01*
X66938Y-55985D02*
X67008Y-55985D01*
X67117Y-55985D02*
X67189Y-55985D01*
X67636Y-55985D02*
X75189Y-55985D01*
X76259Y-55985D02*
X77775Y-55985D01*
X36850Y-56105D02*
X49900Y-56105D01*
X51000Y-56105D02*
X53003Y-56105D01*
X54100Y-56105D02*
X58970Y-56105D01*
X59819Y-56105D02*
X61970Y-56105D01*
X62819Y-56105D02*
X64950Y-56105D01*
X66050Y-56105D02*
X66490Y-56105D01*
X66997Y-56105D02*
X67128Y-56105D01*
X67636Y-56105D02*
X75189Y-56105D01*
X76259Y-56105D02*
X77775Y-56105D01*
X36850Y-56225D02*
X49780Y-56225D01*
X51000Y-56225D02*
X53053Y-56225D01*
X54220Y-56225D02*
X58850Y-56225D01*
X59699Y-56225D02*
X61850Y-56225D01*
X62699Y-56225D02*
X64950Y-56225D01*
X66050Y-56225D02*
X66504Y-56225D01*
X66877Y-56225D02*
X66949Y-56225D01*
X67178Y-56225D02*
X67248Y-56225D01*
X67620Y-56225D02*
X75207Y-56225D01*
X76241Y-56225D02*
X77775Y-56225D01*
X36850Y-56345D02*
X49660Y-56345D01*
X50989Y-56345D02*
X53139Y-56345D01*
X54340Y-56345D02*
X58730Y-56345D01*
X59579Y-56345D02*
X61730Y-56345D01*
X62579Y-56345D02*
X64950Y-56345D01*
X66050Y-56345D02*
X66553Y-56345D01*
X66757Y-56345D02*
X66829Y-56345D01*
X67298Y-56345D02*
X67368Y-56345D01*
X67571Y-56345D02*
X75256Y-56345D01*
X76190Y-56345D02*
X77775Y-56345D01*
X36960Y-56465D02*
X47931Y-56465D01*
X49069Y-56465D02*
X49540Y-56465D01*
X50903Y-56465D02*
X53318Y-56465D01*
X54460Y-56465D02*
X54931Y-56465D01*
X56069Y-56465D02*
X58610Y-56465D01*
X59459Y-56465D02*
X60134Y-56465D01*
X60422Y-56465D02*
X60578Y-56465D01*
X60867Y-56465D02*
X61610Y-56465D01*
X62459Y-56465D02*
X64950Y-56465D01*
X66050Y-56465D02*
X66717Y-56465D01*
X67408Y-56465D02*
X75357Y-56465D01*
X76090Y-56465D02*
X77775Y-56465D01*
X37080Y-56585D02*
X47882Y-56585D01*
X49118Y-56585D02*
X49420Y-56585D01*
X50811Y-56585D02*
X53190Y-56585D01*
X54580Y-56585D02*
X54882Y-56585D01*
X56118Y-56585D02*
X58210Y-56585D01*
X59339Y-56585D02*
X59986Y-56585D01*
X60475Y-56585D02*
X60525Y-56585D01*
X61015Y-56585D02*
X61210Y-56585D01*
X62339Y-56585D02*
X64950Y-56585D01*
X66050Y-56585D02*
X66796Y-56585D01*
X67330Y-56585D02*
X75557Y-56585D01*
X75890Y-56585D02*
X77775Y-56585D01*
X36225Y-56705D02*
X36225Y-56705D01*
X37200Y-56705D02*
X47882Y-56705D01*
X50759Y-56705D02*
X50831Y-56705D01*
X50962Y-56705D02*
X53039Y-56705D01*
X53170Y-56705D02*
X53240Y-56705D01*
X56118Y-56705D02*
X58090Y-56705D01*
X59219Y-56705D02*
X59950Y-56705D01*
X60475Y-56705D02*
X60525Y-56705D01*
X61050Y-56705D02*
X61090Y-56705D01*
X62219Y-56705D02*
X64950Y-56705D01*
X66050Y-56705D02*
X77775Y-56705D01*
X36225Y-56825D02*
X36331Y-56825D01*
X37320Y-56825D02*
X47882Y-56825D01*
X50639Y-56825D02*
X50711Y-56825D01*
X51012Y-56825D02*
X52990Y-56825D01*
X53290Y-56825D02*
X53360Y-56825D01*
X56118Y-56825D02*
X58033Y-56825D01*
X59099Y-56825D02*
X59950Y-56825D01*
X60475Y-56825D02*
X60525Y-56825D01*
X62099Y-56825D02*
X64950Y-56825D01*
X66050Y-56825D02*
X77775Y-56825D01*
X36225Y-56945D02*
X36451Y-56945D01*
X37440Y-56945D02*
X47882Y-56945D01*
X50519Y-56945D02*
X50591Y-56945D01*
X51039Y-56945D02*
X52960Y-56945D01*
X53410Y-56945D02*
X53480Y-56945D01*
X56118Y-56945D02*
X58001Y-56945D01*
X58999Y-56945D02*
X59988Y-56945D01*
X60475Y-56945D02*
X60525Y-56945D01*
X61999Y-56945D02*
X64950Y-56945D01*
X66050Y-56945D02*
X77775Y-56945D01*
X36225Y-57065D02*
X36571Y-57065D01*
X37560Y-57065D02*
X47882Y-57065D01*
X49928Y-57065D02*
X49961Y-57065D01*
X50399Y-57065D02*
X50471Y-57065D01*
X50530Y-57065D02*
X50600Y-57065D01*
X51040Y-57065D02*
X52961Y-57065D01*
X53399Y-57065D02*
X53471Y-57065D01*
X53530Y-57065D02*
X53600Y-57065D01*
X54040Y-57065D02*
X54070Y-57065D01*
X56118Y-57065D02*
X58001Y-57065D01*
X58999Y-57065D02*
X59978Y-57065D01*
X61999Y-57065D02*
X64950Y-57065D01*
X66050Y-57065D02*
X77775Y-57065D01*
X36225Y-57185D02*
X36691Y-57185D01*
X37680Y-57185D02*
X47882Y-57185D01*
X49808Y-57185D02*
X49992Y-57185D01*
X50279Y-57185D02*
X50351Y-57185D01*
X50650Y-57185D02*
X50720Y-57185D01*
X51006Y-57185D02*
X52992Y-57185D01*
X53279Y-57185D02*
X53351Y-57185D01*
X53650Y-57185D02*
X53720Y-57185D01*
X54006Y-57185D02*
X54190Y-57185D01*
X56118Y-57185D02*
X58036Y-57185D01*
X58963Y-57185D02*
X59950Y-57185D01*
X61963Y-57185D02*
X64950Y-57185D01*
X66109Y-57185D02*
X77775Y-57185D01*
X36225Y-57305D02*
X36811Y-57305D01*
X37783Y-57305D02*
X47882Y-57305D01*
X49660Y-57305D02*
X50056Y-57305D01*
X50159Y-57305D02*
X50231Y-57305D01*
X50770Y-57305D02*
X50840Y-57305D01*
X50943Y-57305D02*
X53056Y-57305D01*
X53159Y-57305D02*
X53231Y-57305D01*
X53770Y-57305D02*
X53840Y-57305D01*
X53943Y-57305D02*
X54339Y-57305D01*
X56118Y-57305D02*
X58099Y-57305D01*
X61050Y-57305D02*
X61099Y-57305D01*
X61900Y-57305D02*
X64950Y-57305D01*
X66229Y-57305D02*
X77775Y-57305D01*
X36225Y-57425D02*
X36931Y-57425D01*
X37835Y-57425D02*
X47882Y-57425D01*
X49118Y-57425D02*
X50191Y-57425D01*
X50808Y-57425D02*
X53191Y-57425D01*
X53808Y-57425D02*
X54882Y-57425D01*
X56118Y-57425D02*
X58221Y-57425D01*
X61099Y-57425D02*
X61221Y-57425D01*
X61777Y-57425D02*
X64950Y-57425D01*
X66349Y-57425D02*
X77775Y-57425D01*
X36225Y-57545D02*
X37051Y-57545D01*
X37850Y-57545D02*
X47941Y-57545D01*
X49059Y-57545D02*
X50198Y-57545D01*
X50803Y-57545D02*
X53198Y-57545D01*
X53803Y-57545D02*
X54941Y-57545D01*
X56059Y-57545D02*
X58296Y-57545D01*
X61219Y-57545D02*
X61295Y-57545D01*
X61706Y-57545D02*
X64959Y-57545D01*
X66469Y-57545D02*
X77775Y-57545D01*
X36225Y-57665D02*
X37150Y-57665D01*
X37850Y-57665D02*
X47931Y-57665D01*
X49070Y-57665D02*
X50200Y-57665D01*
X50799Y-57665D02*
X53200Y-57665D01*
X53799Y-57665D02*
X54931Y-57665D01*
X56070Y-57665D02*
X58130Y-57665D01*
X61871Y-57665D02*
X65006Y-57665D01*
X66589Y-57665D02*
X77775Y-57665D01*
X36225Y-57785D02*
X37150Y-57785D01*
X37850Y-57785D02*
X47880Y-57785D01*
X49120Y-57785D02*
X50006Y-57785D01*
X50250Y-57785D02*
X50320Y-57785D01*
X50679Y-57785D02*
X50751Y-57785D01*
X50995Y-57785D02*
X53006Y-57785D01*
X53250Y-57785D02*
X53320Y-57785D01*
X53679Y-57785D02*
X53751Y-57785D01*
X53995Y-57785D02*
X54880Y-57785D01*
X56120Y-57785D02*
X58049Y-57785D01*
X63208Y-57785D02*
X65111Y-57785D01*
X66709Y-57785D02*
X77775Y-57785D01*
X36225Y-57905D02*
X37150Y-57905D01*
X37850Y-57905D02*
X38338Y-57905D01*
X38663Y-57905D02*
X40838Y-57905D01*
X41163Y-57905D02*
X43338Y-57905D01*
X43663Y-57905D02*
X45838Y-57905D01*
X46163Y-57905D02*
X47845Y-57905D01*
X49155Y-57905D02*
X49960Y-57905D01*
X50370Y-57905D02*
X50440Y-57905D01*
X50559Y-57905D02*
X50631Y-57905D01*
X51039Y-57905D02*
X52960Y-57905D01*
X53370Y-57905D02*
X53440Y-57905D01*
X53559Y-57905D02*
X53631Y-57905D01*
X54039Y-57905D02*
X54845Y-57905D01*
X56155Y-57905D02*
X58001Y-57905D01*
X63329Y-57905D02*
X65231Y-57905D01*
X66829Y-57905D02*
X77775Y-57905D01*
X36225Y-58025D02*
X36959Y-58025D01*
X38042Y-58025D02*
X38143Y-58025D01*
X38858Y-58025D02*
X39459Y-58025D01*
X40542Y-58025D02*
X40643Y-58025D01*
X41358Y-58025D02*
X41959Y-58025D01*
X43042Y-58025D02*
X43143Y-58025D01*
X43858Y-58025D02*
X44459Y-58025D01*
X45542Y-58025D02*
X45643Y-58025D01*
X46358Y-58025D02*
X47845Y-58025D01*
X48438Y-58025D02*
X48560Y-58025D01*
X49155Y-58025D02*
X49961Y-58025D01*
X50439Y-58025D02*
X50560Y-58025D01*
X51040Y-58025D02*
X52961Y-58025D01*
X53439Y-58025D02*
X53560Y-58025D01*
X54040Y-58025D02*
X54845Y-58025D01*
X55438Y-58025D02*
X55560Y-58025D01*
X56155Y-58025D02*
X58001Y-58025D01*
X58999Y-58025D02*
X59000Y-58025D01*
X63449Y-58025D02*
X65351Y-58025D01*
X66949Y-58025D02*
X77775Y-58025D01*
X36225Y-58145D02*
X36925Y-58145D01*
X38109Y-58145D02*
X38110Y-58145D01*
X38180Y-58145D02*
X38181Y-58145D01*
X38819Y-58145D02*
X38891Y-58145D01*
X38986Y-58145D02*
X39425Y-58145D01*
X40680Y-58145D02*
X40681Y-58145D01*
X41319Y-58145D02*
X41391Y-58145D01*
X41486Y-58145D02*
X41925Y-58145D01*
X43180Y-58145D02*
X43181Y-58145D01*
X43818Y-58145D02*
X43891Y-58145D01*
X43986Y-58145D02*
X44425Y-58145D01*
X45680Y-58145D02*
X45681Y-58145D01*
X46319Y-58145D02*
X46391Y-58145D01*
X46486Y-58145D02*
X47851Y-58145D01*
X48318Y-58145D02*
X48390Y-58145D01*
X48610Y-58145D02*
X48680Y-58145D01*
X49149Y-58145D02*
X49976Y-58145D01*
X50319Y-58145D02*
X50391Y-58145D01*
X50610Y-58145D02*
X50680Y-58145D01*
X51023Y-58145D02*
X52976Y-58145D01*
X53319Y-58145D02*
X53391Y-58145D01*
X53610Y-58145D02*
X53680Y-58145D01*
X54023Y-58145D02*
X54851Y-58145D01*
X55318Y-58145D02*
X55390Y-58145D01*
X55610Y-58145D02*
X55680Y-58145D01*
X56149Y-58145D02*
X58020Y-58145D01*
X58980Y-58145D02*
X59000Y-58145D01*
X63569Y-58145D02*
X65471Y-58145D01*
X67069Y-58145D02*
X77775Y-58145D01*
X36225Y-58265D02*
X36925Y-58265D01*
X38229Y-58265D02*
X38230Y-58265D01*
X38300Y-58265D02*
X38301Y-58265D01*
X38699Y-58265D02*
X38771Y-58265D01*
X39066Y-58265D02*
X39425Y-58265D01*
X40800Y-58265D02*
X40801Y-58265D01*
X41199Y-58265D02*
X41271Y-58265D01*
X41566Y-58265D02*
X41925Y-58265D01*
X43300Y-58265D02*
X43301Y-58265D01*
X43698Y-58265D02*
X43771Y-58265D01*
X44066Y-58265D02*
X44425Y-58265D01*
X45800Y-58265D02*
X45801Y-58265D01*
X46199Y-58265D02*
X46271Y-58265D01*
X46566Y-58265D02*
X47901Y-58265D01*
X48199Y-58265D02*
X48270Y-58265D01*
X48730Y-58265D02*
X48800Y-58265D01*
X49099Y-58265D02*
X50025Y-58265D01*
X50199Y-58265D02*
X50271Y-58265D01*
X50730Y-58265D02*
X50800Y-58265D01*
X50974Y-58265D02*
X53025Y-58265D01*
X53199Y-58265D02*
X53271Y-58265D01*
X53730Y-58265D02*
X53800Y-58265D01*
X53974Y-58265D02*
X54901Y-58265D01*
X55199Y-58265D02*
X55270Y-58265D01*
X55730Y-58265D02*
X55800Y-58265D01*
X56099Y-58265D02*
X58069Y-58265D01*
X58930Y-58265D02*
X59000Y-58265D01*
X63689Y-58265D02*
X65591Y-58265D01*
X67189Y-58265D02*
X77775Y-58265D01*
X36225Y-58385D02*
X36925Y-58385D01*
X38349Y-58385D02*
X38350Y-58385D01*
X38420Y-58385D02*
X38421Y-58385D01*
X38579Y-58385D02*
X38651Y-58385D01*
X39112Y-58385D02*
X39425Y-58385D01*
X40920Y-58385D02*
X40921Y-58385D01*
X41079Y-58385D02*
X41151Y-58385D01*
X41612Y-58385D02*
X41925Y-58385D01*
X43420Y-58385D02*
X43421Y-58385D01*
X43578Y-58385D02*
X43651Y-58385D01*
X44112Y-58385D02*
X44425Y-58385D01*
X45920Y-58385D02*
X45921Y-58385D01*
X46079Y-58385D02*
X46151Y-58385D01*
X46612Y-58385D02*
X47989Y-58385D01*
X48079Y-58385D02*
X48150Y-58385D01*
X48850Y-58385D02*
X48920Y-58385D01*
X49010Y-58385D02*
X50183Y-58385D01*
X50816Y-58385D02*
X53183Y-58385D01*
X53816Y-58385D02*
X54989Y-58385D01*
X55079Y-58385D02*
X55150Y-58385D01*
X55850Y-58385D02*
X55920Y-58385D01*
X56010Y-58385D02*
X58179Y-58385D01*
X58820Y-58385D02*
X59027Y-58385D01*
X63809Y-58385D02*
X65711Y-58385D01*
X67309Y-58385D02*
X77775Y-58385D01*
X36225Y-58505D02*
X36925Y-58505D01*
X38470Y-58505D02*
X38530Y-58505D01*
X38540Y-58505D02*
X38541Y-58505D01*
X39112Y-58505D02*
X39425Y-58505D01*
X40959Y-58505D02*
X40960Y-58505D01*
X40970Y-58505D02*
X41030Y-58505D01*
X41040Y-58505D02*
X41041Y-58505D01*
X41612Y-58505D02*
X41925Y-58505D01*
X43459Y-58505D02*
X43460Y-58505D01*
X43470Y-58505D02*
X43530Y-58505D01*
X43540Y-58505D02*
X43541Y-58505D01*
X44112Y-58505D02*
X44425Y-58505D01*
X45959Y-58505D02*
X45960Y-58505D01*
X45970Y-58505D02*
X46040Y-58505D01*
X46612Y-58505D02*
X48113Y-58505D01*
X48886Y-58505D02*
X50311Y-58505D01*
X50688Y-58505D02*
X53283Y-58505D01*
X53715Y-58505D02*
X55113Y-58505D01*
X55886Y-58505D02*
X59510Y-58505D01*
X64109Y-58505D02*
X65831Y-58505D01*
X67429Y-58505D02*
X77775Y-58505D01*
X36225Y-58625D02*
X36925Y-58625D01*
X38589Y-58625D02*
X38590Y-58625D01*
X38660Y-58625D02*
X38661Y-58625D01*
X39110Y-58625D02*
X39425Y-58625D01*
X40839Y-58625D02*
X40840Y-58625D01*
X41089Y-58625D02*
X41090Y-58625D01*
X41160Y-58625D02*
X41161Y-58625D01*
X41610Y-58625D02*
X41925Y-58625D01*
X43339Y-58625D02*
X43340Y-58625D01*
X43589Y-58625D02*
X43590Y-58625D01*
X43660Y-58625D02*
X43661Y-58625D01*
X44110Y-58625D02*
X44425Y-58625D01*
X45839Y-58625D02*
X45840Y-58625D01*
X45910Y-58625D02*
X45911Y-58625D01*
X46090Y-58625D02*
X46160Y-58625D01*
X46610Y-58625D02*
X48296Y-58625D01*
X48701Y-58625D02*
X50170Y-58625D01*
X50831Y-58625D02*
X53182Y-58625D01*
X53819Y-58625D02*
X55296Y-58625D01*
X55701Y-58625D02*
X59630Y-58625D01*
X64331Y-58625D02*
X65951Y-58625D01*
X67549Y-58625D02*
X77775Y-58625D01*
X36225Y-58745D02*
X36925Y-58745D01*
X38709Y-58745D02*
X38710Y-58745D01*
X38780Y-58745D02*
X38781Y-58745D01*
X39060Y-58745D02*
X39425Y-58745D01*
X40719Y-58745D02*
X40720Y-58745D01*
X41209Y-58745D02*
X41210Y-58745D01*
X41280Y-58745D02*
X41281Y-58745D01*
X41560Y-58745D02*
X41925Y-58745D01*
X43219Y-58745D02*
X43220Y-58745D01*
X43709Y-58745D02*
X43710Y-58745D01*
X43780Y-58745D02*
X43781Y-58745D01*
X44060Y-58745D02*
X44425Y-58745D01*
X45719Y-58745D02*
X45720Y-58745D01*
X45790Y-58745D02*
X45791Y-58745D01*
X46210Y-58745D02*
X46280Y-58745D01*
X46560Y-58745D02*
X50066Y-58745D01*
X50935Y-58745D02*
X53022Y-58745D01*
X53210Y-58745D02*
X53280Y-58745D01*
X53719Y-58745D02*
X53791Y-58745D01*
X53979Y-58745D02*
X59750Y-58745D01*
X64435Y-58745D02*
X66071Y-58745D01*
X67669Y-58745D02*
X77775Y-58745D01*
X36225Y-58865D02*
X36925Y-58865D01*
X38829Y-58865D02*
X38830Y-58865D01*
X38900Y-58865D02*
X38901Y-58865D01*
X38948Y-58865D02*
X39425Y-58865D01*
X40599Y-58865D02*
X40600Y-58865D01*
X41329Y-58865D02*
X41330Y-58865D01*
X41400Y-58865D02*
X41401Y-58865D01*
X41448Y-58865D02*
X41925Y-58865D01*
X43099Y-58865D02*
X43100Y-58865D01*
X43829Y-58865D02*
X43830Y-58865D01*
X43900Y-58865D02*
X43901Y-58865D01*
X43948Y-58865D02*
X44425Y-58865D01*
X45599Y-58865D02*
X45600Y-58865D01*
X45670Y-58865D02*
X45671Y-58865D01*
X46330Y-58865D02*
X46400Y-58865D01*
X46448Y-58865D02*
X50016Y-58865D01*
X50985Y-58865D02*
X52973Y-58865D01*
X53330Y-58865D02*
X53400Y-58865D01*
X53599Y-58865D02*
X53671Y-58865D01*
X54029Y-58865D02*
X59870Y-58865D01*
X64485Y-58865D02*
X66191Y-58865D01*
X67789Y-58865D02*
X77775Y-58865D01*
X36225Y-58985D02*
X36967Y-58985D01*
X45532Y-58985D02*
X45644Y-58985D01*
X46355Y-58985D02*
X50001Y-58985D01*
X50999Y-58985D02*
X52960Y-58985D01*
X53450Y-58985D02*
X53551Y-58985D01*
X54039Y-58985D02*
X59990Y-58985D01*
X63499Y-58985D02*
X63501Y-58985D01*
X64499Y-58985D02*
X66311Y-58985D01*
X67909Y-58985D02*
X77775Y-58985D01*
X36225Y-59105D02*
X37171Y-59105D01*
X45600Y-59105D02*
X45861Y-59105D01*
X46138Y-59105D02*
X50003Y-59105D01*
X50996Y-59105D02*
X52961Y-59105D01*
X53359Y-59105D02*
X53431Y-59105D01*
X53570Y-59105D02*
X53640Y-59105D01*
X54039Y-59105D02*
X60110Y-59105D01*
X63496Y-59105D02*
X63503Y-59105D01*
X64496Y-59105D02*
X66431Y-59105D01*
X68029Y-59105D02*
X77775Y-59105D01*
X36225Y-59225D02*
X37238Y-59225D01*
X45720Y-59225D02*
X50053Y-59225D01*
X50946Y-59225D02*
X53009Y-59225D01*
X53239Y-59225D02*
X53311Y-59225D01*
X53690Y-59225D02*
X53760Y-59225D01*
X53990Y-59225D02*
X60230Y-59225D01*
X63446Y-59225D02*
X63553Y-59225D01*
X64446Y-59225D02*
X66551Y-59225D01*
X68149Y-59225D02*
X77775Y-59225D01*
X36225Y-59345D02*
X37350Y-59345D01*
X45809Y-59345D02*
X50139Y-59345D01*
X50860Y-59345D02*
X53191Y-59345D01*
X53810Y-59345D02*
X60475Y-59345D01*
X63360Y-59345D02*
X63639Y-59345D01*
X64360Y-59345D02*
X66671Y-59345D01*
X68269Y-59345D02*
X77775Y-59345D01*
X36225Y-59465D02*
X37470Y-59465D01*
X45843Y-59465D02*
X50318Y-59465D01*
X50680Y-59465D02*
X53212Y-59465D01*
X53787Y-59465D02*
X62818Y-59465D01*
X63180Y-59465D02*
X63818Y-59465D01*
X64180Y-59465D02*
X66791Y-59465D01*
X68389Y-59465D02*
X77775Y-59465D01*
X36225Y-59585D02*
X37675Y-59585D01*
X39824Y-59585D02*
X40175Y-59585D01*
X42324Y-59585D02*
X42675Y-59585D01*
X44824Y-59585D02*
X45090Y-59585D01*
X45850Y-59585D02*
X66911Y-59585D01*
X68509Y-59585D02*
X77775Y-59585D01*
X36225Y-59705D02*
X45150Y-59705D01*
X45850Y-59705D02*
X67031Y-59705D01*
X68629Y-59705D02*
X77775Y-59705D01*
X36225Y-59825D02*
X45150Y-59825D01*
X45850Y-59825D02*
X67151Y-59825D01*
X68749Y-59825D02*
X77775Y-59825D01*
X36225Y-59945D02*
X45150Y-59945D01*
X45850Y-59945D02*
X67271Y-59945D01*
X68869Y-59945D02*
X77775Y-59945D01*
X36225Y-60065D02*
X45150Y-60065D01*
X45850Y-60065D02*
X67391Y-60065D01*
X68989Y-60065D02*
X77775Y-60065D01*
X36225Y-60185D02*
X45150Y-60185D01*
X45850Y-60185D02*
X67511Y-60185D01*
X69109Y-60185D02*
X77775Y-60185D01*
X36225Y-60305D02*
X45150Y-60305D01*
X45850Y-60305D02*
X67631Y-60305D01*
X69229Y-60305D02*
X77775Y-60305D01*
X36225Y-60425D02*
X45150Y-60425D01*
X45850Y-60425D02*
X67751Y-60425D01*
X69349Y-60425D02*
X77775Y-60425D01*
X36225Y-60545D02*
X37158Y-60545D01*
X38843Y-60545D02*
X39759Y-60545D01*
X40244Y-60545D02*
X41759Y-60545D01*
X42244Y-60545D02*
X43759Y-60545D01*
X44244Y-60545D02*
X45150Y-60545D01*
X45850Y-60545D02*
X46067Y-60545D01*
X46975Y-60545D02*
X47025Y-60545D01*
X47934Y-60545D02*
X48759Y-60545D01*
X49244Y-60545D02*
X50759Y-60545D01*
X51244Y-60545D02*
X52759Y-60545D01*
X53244Y-60545D02*
X55158Y-60545D01*
X56843Y-60545D02*
X57682Y-60545D01*
X58322Y-60545D02*
X59759Y-60545D01*
X60244Y-60545D02*
X61682Y-60545D01*
X62322Y-60545D02*
X67871Y-60545D01*
X70843Y-60545D02*
X71682Y-60545D01*
X72322Y-60545D02*
X73759Y-60545D01*
X74244Y-60545D02*
X75681Y-60545D01*
X76322Y-60545D02*
X77775Y-60545D01*
X36225Y-60665D02*
X37042Y-60665D01*
X38959Y-60665D02*
X39469Y-60665D01*
X40532Y-60665D02*
X41469Y-60665D01*
X42532Y-60665D02*
X43469Y-60665D01*
X44532Y-60665D02*
X45150Y-60665D01*
X45850Y-60665D02*
X45988Y-60665D01*
X46975Y-60665D02*
X47025Y-60665D01*
X48013Y-60665D02*
X48469Y-60665D01*
X49532Y-60665D02*
X50469Y-60665D01*
X51532Y-60665D02*
X52469Y-60665D01*
X53532Y-60665D02*
X55042Y-60665D01*
X56959Y-60665D02*
X57415Y-60665D01*
X58586Y-60665D02*
X59469Y-60665D01*
X60532Y-60665D02*
X61415Y-60665D01*
X62586Y-60665D02*
X67991Y-60665D01*
X70959Y-60665D02*
X71415Y-60665D01*
X72586Y-60665D02*
X73469Y-60665D01*
X74532Y-60665D02*
X75415Y-60665D01*
X76586Y-60665D02*
X77775Y-60665D01*
X36225Y-60785D02*
X37025Y-60785D01*
X38975Y-60785D02*
X39337Y-60785D01*
X40664Y-60785D02*
X41337Y-60785D01*
X42664Y-60785D02*
X43337Y-60785D01*
X44664Y-60785D02*
X45150Y-60785D01*
X45850Y-60785D02*
X45975Y-60785D01*
X46975Y-60785D02*
X47025Y-60785D01*
X48025Y-60785D02*
X48336Y-60785D01*
X49664Y-60785D02*
X50336Y-60785D01*
X51664Y-60785D02*
X52337Y-60785D01*
X53664Y-60785D02*
X55025Y-60785D01*
X56975Y-60785D02*
X57353Y-60785D01*
X58648Y-60785D02*
X59337Y-60785D01*
X60664Y-60785D02*
X61353Y-60785D01*
X62648Y-60785D02*
X64432Y-60785D01*
X65569Y-60785D02*
X66741Y-60785D01*
X67261Y-60785D02*
X68111Y-60785D01*
X68800Y-60785D02*
X68861Y-60785D01*
X70975Y-60785D02*
X71353Y-60785D01*
X72648Y-60785D02*
X73337Y-60785D01*
X74664Y-60785D02*
X75353Y-60785D01*
X76648Y-60785D02*
X77775Y-60785D01*
X36225Y-60905D02*
X37025Y-60905D01*
X38975Y-60905D02*
X39217Y-60905D01*
X40784Y-60905D02*
X41217Y-60905D01*
X42784Y-60905D02*
X43217Y-60905D01*
X44784Y-60905D02*
X45150Y-60905D01*
X45850Y-60905D02*
X45975Y-60905D01*
X46975Y-60905D02*
X47025Y-60905D01*
X48025Y-60905D02*
X48216Y-60905D01*
X49784Y-60905D02*
X50216Y-60905D01*
X51784Y-60905D02*
X52217Y-60905D01*
X53784Y-60905D02*
X55025Y-60905D01*
X56975Y-60905D02*
X57185Y-60905D01*
X57370Y-60905D02*
X57441Y-60905D01*
X58559Y-60905D02*
X58631Y-60905D01*
X58816Y-60905D02*
X59217Y-60905D01*
X60784Y-60905D02*
X61185Y-60905D01*
X61370Y-60905D02*
X61440Y-60905D01*
X62559Y-60905D02*
X62631Y-60905D01*
X62816Y-60905D02*
X64297Y-60905D01*
X65705Y-60905D02*
X66548Y-60905D01*
X67453Y-60905D02*
X68200Y-60905D01*
X68800Y-60905D02*
X68981Y-60905D01*
X70975Y-60905D02*
X71185Y-60905D01*
X71370Y-60905D02*
X71440Y-60905D01*
X72559Y-60905D02*
X72631Y-60905D01*
X72816Y-60905D02*
X73217Y-60905D01*
X74784Y-60905D02*
X75185Y-60905D01*
X75370Y-60905D02*
X75441Y-60905D01*
X76559Y-60905D02*
X76631Y-60905D01*
X76816Y-60905D02*
X77775Y-60905D01*
X36225Y-61025D02*
X37025Y-61025D01*
X38975Y-61025D02*
X39142Y-61025D01*
X40859Y-61025D02*
X41142Y-61025D01*
X42859Y-61025D02*
X43142Y-61025D01*
X44859Y-61025D02*
X45150Y-61025D01*
X45850Y-61025D02*
X45975Y-61025D01*
X46975Y-61025D02*
X47025Y-61025D01*
X48025Y-61025D02*
X48142Y-61025D01*
X49859Y-61025D02*
X50142Y-61025D01*
X51859Y-61025D02*
X52142Y-61025D01*
X53859Y-61025D02*
X55025Y-61025D01*
X56975Y-61025D02*
X57112Y-61025D01*
X57490Y-61025D02*
X57561Y-61025D01*
X58439Y-61025D02*
X58511Y-61025D01*
X58894Y-61025D02*
X59142Y-61025D01*
X60859Y-61025D02*
X61112Y-61025D01*
X61490Y-61025D02*
X61560Y-61025D01*
X62439Y-61025D02*
X62511Y-61025D01*
X62894Y-61025D02*
X64275Y-61025D01*
X65725Y-61025D02*
X66465Y-61025D01*
X66490Y-61025D02*
X66560Y-61025D01*
X67440Y-61025D02*
X67510Y-61025D01*
X67536Y-61025D02*
X68200Y-61025D01*
X68800Y-61025D02*
X69025Y-61025D01*
X70975Y-61025D02*
X71112Y-61025D01*
X71490Y-61025D02*
X71560Y-61025D01*
X72439Y-61025D02*
X72511Y-61025D01*
X72894Y-61025D02*
X73142Y-61025D01*
X74859Y-61025D02*
X75112Y-61025D01*
X75490Y-61025D02*
X75561Y-61025D01*
X76439Y-61025D02*
X76511Y-61025D01*
X76894Y-61025D02*
X77775Y-61025D01*
X36225Y-61145D02*
X37025Y-61145D01*
X38975Y-61145D02*
X39092Y-61145D01*
X40909Y-61145D02*
X41092Y-61145D01*
X42909Y-61145D02*
X43092Y-61145D01*
X44909Y-61145D02*
X45150Y-61145D01*
X45850Y-61145D02*
X45975Y-61145D01*
X46975Y-61145D02*
X47025Y-61145D01*
X48025Y-61145D02*
X48092Y-61145D01*
X49908Y-61145D02*
X50092Y-61145D01*
X51909Y-61145D02*
X52092Y-61145D01*
X53909Y-61145D02*
X55025Y-61145D01*
X56975Y-61145D02*
X57060Y-61145D01*
X57610Y-61145D02*
X57681Y-61145D01*
X58319Y-61145D02*
X58391Y-61145D01*
X58941Y-61145D02*
X59092Y-61145D01*
X60909Y-61145D02*
X61060Y-61145D01*
X61610Y-61145D02*
X61680Y-61145D01*
X62319Y-61145D02*
X62391Y-61145D01*
X62941Y-61145D02*
X64275Y-61145D01*
X65725Y-61145D02*
X66326Y-61145D01*
X66610Y-61145D02*
X66680Y-61145D01*
X67320Y-61145D02*
X67390Y-61145D01*
X67677Y-61145D02*
X68200Y-61145D01*
X68800Y-61145D02*
X69025Y-61145D01*
X70975Y-61145D02*
X71060Y-61145D01*
X71610Y-61145D02*
X71680Y-61145D01*
X72319Y-61145D02*
X72391Y-61145D01*
X72941Y-61145D02*
X73092Y-61145D01*
X74909Y-61145D02*
X75060Y-61145D01*
X75610Y-61145D02*
X75680Y-61145D01*
X76319Y-61145D02*
X76391Y-61145D01*
X76941Y-61145D02*
X77775Y-61145D01*
X36225Y-61265D02*
X37025Y-61265D01*
X38975Y-61265D02*
X39042Y-61265D01*
X40958Y-61265D02*
X41042Y-61265D01*
X42958Y-61265D02*
X43042Y-61265D01*
X44958Y-61265D02*
X45150Y-61265D01*
X45850Y-61265D02*
X45975Y-61265D01*
X46975Y-61265D02*
X47025Y-61265D01*
X48025Y-61265D02*
X48042Y-61265D01*
X51958Y-61265D02*
X52042Y-61265D01*
X53958Y-61265D02*
X55025Y-61265D01*
X56975Y-61265D02*
X57008Y-61265D01*
X57730Y-61265D02*
X57801Y-61265D01*
X58199Y-61265D02*
X58271Y-61265D01*
X58989Y-61265D02*
X59042Y-61265D01*
X60958Y-61265D02*
X61008Y-61265D01*
X61730Y-61265D02*
X61800Y-61265D01*
X62199Y-61265D02*
X62271Y-61265D01*
X62989Y-61265D02*
X64275Y-61265D01*
X65725Y-61265D02*
X66275Y-61265D01*
X66730Y-61265D02*
X66800Y-61265D01*
X67200Y-61265D02*
X67270Y-61265D01*
X67726Y-61265D02*
X68200Y-61265D01*
X68800Y-61265D02*
X69025Y-61265D01*
X70975Y-61265D02*
X71008Y-61265D01*
X71730Y-61265D02*
X71800Y-61265D01*
X72199Y-61265D02*
X72271Y-61265D01*
X72989Y-61265D02*
X73042Y-61265D01*
X74958Y-61265D02*
X75008Y-61265D01*
X75730Y-61265D02*
X75800Y-61265D01*
X76199Y-61265D02*
X76271Y-61265D01*
X76989Y-61265D02*
X77775Y-61265D01*
X36225Y-61385D02*
X37025Y-61385D01*
X38975Y-61385D02*
X39025Y-61385D01*
X40975Y-61385D02*
X41025Y-61385D01*
X42975Y-61385D02*
X43025Y-61385D01*
X44975Y-61385D02*
X45150Y-61385D01*
X45850Y-61385D02*
X45975Y-61385D01*
X46975Y-61385D02*
X47025Y-61385D01*
X51975Y-61385D02*
X52025Y-61385D01*
X53975Y-61385D02*
X55025Y-61385D01*
X56975Y-61385D02*
X56998Y-61385D01*
X57850Y-61385D02*
X57920Y-61385D01*
X58079Y-61385D02*
X58151Y-61385D01*
X59006Y-61385D02*
X59025Y-61385D01*
X60975Y-61385D02*
X60998Y-61385D01*
X61850Y-61385D02*
X61920Y-61385D01*
X62079Y-61385D02*
X62151Y-61385D01*
X63006Y-61385D02*
X64275Y-61385D01*
X65725Y-61385D02*
X66241Y-61385D01*
X66850Y-61385D02*
X66920Y-61385D01*
X67080Y-61385D02*
X67150Y-61385D01*
X67760Y-61385D02*
X68200Y-61385D01*
X68800Y-61385D02*
X69025Y-61385D01*
X70975Y-61385D02*
X70998Y-61385D01*
X71850Y-61385D02*
X71920Y-61385D01*
X72079Y-61385D02*
X72151Y-61385D01*
X73006Y-61385D02*
X73025Y-61385D01*
X74975Y-61385D02*
X74998Y-61385D01*
X75850Y-61385D02*
X75920Y-61385D01*
X76079Y-61385D02*
X76151Y-61385D01*
X77006Y-61385D02*
X77775Y-61385D01*
X36225Y-61505D02*
X37025Y-61505D01*
X38975Y-61505D02*
X39025Y-61505D01*
X40975Y-61505D02*
X41025Y-61505D01*
X42975Y-61505D02*
X43025Y-61505D01*
X44975Y-61505D02*
X45150Y-61505D01*
X45850Y-61505D02*
X47025Y-61505D01*
X51975Y-61505D02*
X52025Y-61505D01*
X53975Y-61505D02*
X55025Y-61505D01*
X56975Y-61505D02*
X56996Y-61505D01*
X57959Y-61505D02*
X58040Y-61505D01*
X59004Y-61505D02*
X59025Y-61505D01*
X60975Y-61505D02*
X60996Y-61505D01*
X61959Y-61505D02*
X62040Y-61505D01*
X63004Y-61505D02*
X64275Y-61505D01*
X65725Y-61505D02*
X66240Y-61505D01*
X66960Y-61505D02*
X67040Y-61505D01*
X67760Y-61505D02*
X68200Y-61505D01*
X68800Y-61505D02*
X69025Y-61505D01*
X70975Y-61505D02*
X70996Y-61505D01*
X71959Y-61505D02*
X72040Y-61505D01*
X73004Y-61505D02*
X73025Y-61505D01*
X74975Y-61505D02*
X74996Y-61505D01*
X75959Y-61505D02*
X76040Y-61505D01*
X77004Y-61505D02*
X77775Y-61505D01*
X36225Y-61625D02*
X37025Y-61625D01*
X38975Y-61625D02*
X39025Y-61625D01*
X40975Y-61625D02*
X41025Y-61625D01*
X42975Y-61625D02*
X43025Y-61625D01*
X44975Y-61625D02*
X45150Y-61625D01*
X45850Y-61625D02*
X45975Y-61625D01*
X51975Y-61625D02*
X52025Y-61625D01*
X53975Y-61625D02*
X55025Y-61625D01*
X56975Y-61625D02*
X56994Y-61625D01*
X57839Y-61625D02*
X57910Y-61625D01*
X58090Y-61625D02*
X58160Y-61625D01*
X59002Y-61625D02*
X59025Y-61625D01*
X60975Y-61625D02*
X60994Y-61625D01*
X61839Y-61625D02*
X61911Y-61625D01*
X62090Y-61625D02*
X62160Y-61625D01*
X63002Y-61625D02*
X64275Y-61625D01*
X65725Y-61625D02*
X66240Y-61625D01*
X66840Y-61625D02*
X66910Y-61625D01*
X67090Y-61625D02*
X67160Y-61625D01*
X67759Y-61625D02*
X68200Y-61625D01*
X68800Y-61625D02*
X69025Y-61625D01*
X70975Y-61625D02*
X70994Y-61625D01*
X71839Y-61625D02*
X71911Y-61625D01*
X72090Y-61625D02*
X72160Y-61625D01*
X73002Y-61625D02*
X73025Y-61625D01*
X74975Y-61625D02*
X74994Y-61625D01*
X75839Y-61625D02*
X75910Y-61625D01*
X76090Y-61625D02*
X76160Y-61625D01*
X77002Y-61625D02*
X77775Y-61625D01*
X36225Y-61745D02*
X37025Y-61745D01*
X38975Y-61745D02*
X39046Y-61745D01*
X40954Y-61745D02*
X41046Y-61745D01*
X42954Y-61745D02*
X43046Y-61745D01*
X44954Y-61745D02*
X45150Y-61745D01*
X45850Y-61745D02*
X45975Y-61745D01*
X51954Y-61745D02*
X52046Y-61745D01*
X53954Y-61745D02*
X55025Y-61745D01*
X56975Y-61745D02*
X57015Y-61745D01*
X57719Y-61745D02*
X57791Y-61745D01*
X58210Y-61745D02*
X58280Y-61745D01*
X58988Y-61745D02*
X59046Y-61745D01*
X60954Y-61745D02*
X61015Y-61745D01*
X61719Y-61745D02*
X61791Y-61745D01*
X62210Y-61745D02*
X62280Y-61745D01*
X62988Y-61745D02*
X64275Y-61745D01*
X65725Y-61745D02*
X66278Y-61745D01*
X66720Y-61745D02*
X66790Y-61745D01*
X67210Y-61745D02*
X67280Y-61745D01*
X67721Y-61745D02*
X68200Y-61745D01*
X68800Y-61745D02*
X69025Y-61745D01*
X70975Y-61745D02*
X71015Y-61745D01*
X71719Y-61745D02*
X71791Y-61745D01*
X72210Y-61745D02*
X72280Y-61745D01*
X72988Y-61745D02*
X73046Y-61745D01*
X74954Y-61745D02*
X75015Y-61745D01*
X75719Y-61745D02*
X75790Y-61745D01*
X76210Y-61745D02*
X76280Y-61745D01*
X76988Y-61745D02*
X77775Y-61745D01*
X36225Y-61865D02*
X37025Y-61865D01*
X38975Y-61865D02*
X39096Y-61865D01*
X40904Y-61865D02*
X41096Y-61865D01*
X42904Y-61865D02*
X43096Y-61865D01*
X44904Y-61865D02*
X45150Y-61865D01*
X45850Y-61865D02*
X45975Y-61865D01*
X51904Y-61865D02*
X52096Y-61865D01*
X53904Y-61865D02*
X55025Y-61865D01*
X56975Y-61865D02*
X57063Y-61865D01*
X57599Y-61865D02*
X57671Y-61865D01*
X58330Y-61865D02*
X58400Y-61865D01*
X58936Y-61865D02*
X59096Y-61865D01*
X60904Y-61865D02*
X61063Y-61865D01*
X61599Y-61865D02*
X61671Y-61865D01*
X62330Y-61865D02*
X62400Y-61865D01*
X62936Y-61865D02*
X64275Y-61865D01*
X65725Y-61865D02*
X66327Y-61865D01*
X66600Y-61865D02*
X66670Y-61865D01*
X67330Y-61865D02*
X67400Y-61865D01*
X67670Y-61865D02*
X68200Y-61865D01*
X68800Y-61865D02*
X69025Y-61865D01*
X70975Y-61865D02*
X71063Y-61865D01*
X71599Y-61865D02*
X71671Y-61865D01*
X72330Y-61865D02*
X72400Y-61865D01*
X72936Y-61865D02*
X73095Y-61865D01*
X74904Y-61865D02*
X75063Y-61865D01*
X75599Y-61865D02*
X75670Y-61865D01*
X76330Y-61865D02*
X76400Y-61865D01*
X76936Y-61865D02*
X77775Y-61865D01*
X36225Y-61985D02*
X37025Y-61985D01*
X38975Y-61985D02*
X39145Y-61985D01*
X40854Y-61985D02*
X41145Y-61985D01*
X42854Y-61985D02*
X43145Y-61985D01*
X44854Y-61985D02*
X45150Y-61985D01*
X45850Y-61985D02*
X45975Y-61985D01*
X51854Y-61985D02*
X52020Y-61985D01*
X53854Y-61985D02*
X55025Y-61985D01*
X56975Y-61985D02*
X57110Y-61985D01*
X57479Y-61985D02*
X57551Y-61985D01*
X58450Y-61985D02*
X58520Y-61985D01*
X58884Y-61985D02*
X59145Y-61985D01*
X60854Y-61985D02*
X61110Y-61985D01*
X61479Y-61985D02*
X61551Y-61985D01*
X62450Y-61985D02*
X62520Y-61985D01*
X62884Y-61985D02*
X64275Y-61985D01*
X65725Y-61985D02*
X66550Y-61985D01*
X67450Y-61985D02*
X68200Y-61985D01*
X68800Y-61985D02*
X69025Y-61985D01*
X70975Y-61985D02*
X71110Y-61985D01*
X71479Y-61985D02*
X71551Y-61985D01*
X72450Y-61985D02*
X72520Y-61985D01*
X72884Y-61985D02*
X73090Y-61985D01*
X74854Y-61985D02*
X75110Y-61985D01*
X75479Y-61985D02*
X75551Y-61985D01*
X76450Y-61985D02*
X76520Y-61985D01*
X76884Y-61985D02*
X77775Y-61985D01*
X36225Y-62105D02*
X37025Y-62105D01*
X38975Y-62105D02*
X39226Y-62105D01*
X40773Y-62105D02*
X41226Y-62105D01*
X42773Y-62105D02*
X43226Y-62105D01*
X44773Y-62105D02*
X45150Y-62105D01*
X45850Y-62105D02*
X45975Y-62105D01*
X51773Y-62105D02*
X51900Y-62105D01*
X53773Y-62105D02*
X55025Y-62105D01*
X56975Y-62105D02*
X57203Y-62105D01*
X57359Y-62105D02*
X57431Y-62105D01*
X58570Y-62105D02*
X58640Y-62105D01*
X58796Y-62105D02*
X59226Y-62105D01*
X60773Y-62105D02*
X61203Y-62105D01*
X61359Y-62105D02*
X61431Y-62105D01*
X62570Y-62105D02*
X62640Y-62105D01*
X62796Y-62105D02*
X64299Y-62105D01*
X65699Y-62105D02*
X66551Y-62105D01*
X67448Y-62105D02*
X68200Y-62105D01*
X68800Y-62105D02*
X69025Y-62105D01*
X70975Y-62105D02*
X71203Y-62105D01*
X71359Y-62105D02*
X71431Y-62105D01*
X72570Y-62105D02*
X72640Y-62105D01*
X72796Y-62105D02*
X72970Y-62105D01*
X74773Y-62105D02*
X75203Y-62105D01*
X75359Y-62105D02*
X75431Y-62105D01*
X76570Y-62105D02*
X76640Y-62105D01*
X76796Y-62105D02*
X77775Y-62105D01*
X36225Y-62225D02*
X37025Y-62225D01*
X38975Y-62225D02*
X39346Y-62225D01*
X40653Y-62225D02*
X41346Y-62225D01*
X42653Y-62225D02*
X43346Y-62225D01*
X44653Y-62225D02*
X45150Y-62225D01*
X45970Y-62225D02*
X45975Y-62225D01*
X51653Y-62225D02*
X51780Y-62225D01*
X53653Y-62225D02*
X55025Y-62225D01*
X56975Y-62225D02*
X57358Y-62225D01*
X58641Y-62225D02*
X59346Y-62225D01*
X60653Y-62225D02*
X61358Y-62225D01*
X62641Y-62225D02*
X66763Y-62225D01*
X67235Y-62225D02*
X68200Y-62225D01*
X68900Y-62225D02*
X69025Y-62225D01*
X70975Y-62225D02*
X71358Y-62225D01*
X72641Y-62225D02*
X72850Y-62225D01*
X74653Y-62225D02*
X75358Y-62225D01*
X76641Y-62225D02*
X77775Y-62225D01*
X36225Y-62345D02*
X37045Y-62345D01*
X38953Y-62345D02*
X39492Y-62345D01*
X40507Y-62345D02*
X41492Y-62345D01*
X42507Y-62345D02*
X43492Y-62345D01*
X44507Y-62345D02*
X45169Y-62345D01*
X51507Y-62345D02*
X51660Y-62345D01*
X53507Y-62345D02*
X55045Y-62345D01*
X56953Y-62345D02*
X57423Y-62345D01*
X58578Y-62345D02*
X59492Y-62345D01*
X60507Y-62345D02*
X61423Y-62345D01*
X62578Y-62345D02*
X68219Y-62345D01*
X69020Y-62345D02*
X69045Y-62345D01*
X70953Y-62345D02*
X71423Y-62345D01*
X72578Y-62345D02*
X72730Y-62345D01*
X74507Y-62345D02*
X75423Y-62345D01*
X76578Y-62345D02*
X77775Y-62345D01*
X36225Y-62465D02*
X37181Y-62465D01*
X38818Y-62465D02*
X39780Y-62465D01*
X40217Y-62465D02*
X41780Y-62465D01*
X42217Y-62465D02*
X43780Y-62465D01*
X44217Y-62465D02*
X45231Y-62465D01*
X52529Y-62465D02*
X52780Y-62465D01*
X53217Y-62465D02*
X55181Y-62465D01*
X56818Y-62465D02*
X57701Y-62465D01*
X58293Y-62465D02*
X59780Y-62465D01*
X60217Y-62465D02*
X61701Y-62465D01*
X62293Y-62465D02*
X68290Y-62465D01*
X69140Y-62465D02*
X69181Y-62465D01*
X70818Y-62465D02*
X71701Y-62465D01*
X72293Y-62465D02*
X72610Y-62465D01*
X73458Y-62465D02*
X73781Y-62465D01*
X74217Y-62465D02*
X75702Y-62465D01*
X76293Y-62465D02*
X77775Y-62465D01*
X36225Y-62585D02*
X45340Y-62585D01*
X52409Y-62585D02*
X68410Y-62585D01*
X69260Y-62585D02*
X72490Y-62585D01*
X73338Y-62585D02*
X77775Y-62585D01*
X36225Y-62705D02*
X45460Y-62705D01*
X52289Y-62705D02*
X68530Y-62705D01*
X73218Y-62705D02*
X77775Y-62705D01*
X36225Y-62825D02*
X45580Y-62825D01*
X52169Y-62825D02*
X68650Y-62825D01*
X73098Y-62825D02*
X77775Y-62825D01*
X36225Y-62945D02*
X45700Y-62945D01*
X52049Y-62945D02*
X68770Y-62945D01*
X72978Y-62945D02*
X77775Y-62945D01*
X36225Y-63065D02*
X45854Y-63065D01*
X51895Y-63065D02*
X68890Y-63065D01*
X72858Y-63065D02*
X77775Y-63065D01*
X36225Y-63185D02*
X69010Y-63185D01*
X72738Y-63185D02*
X77775Y-63185D01*
X36225Y-63305D02*
X77775Y-63305D01*
X36225Y-63425D02*
X77775Y-63425D01*
X36225Y-63545D02*
X77775Y-63545D01*
X36225Y-63665D02*
X77775Y-63665D01*
X77775Y-63775D02*
X77775Y-44225D01*
X43649Y-44225D01*
X44425Y-45001D01*
X44599Y-45001D01*
X44783Y-45077D01*
X44923Y-45218D01*
X44978Y-45351D01*
X45041Y-45198D01*
X45142Y-45178D01*
X45465Y-45500D01*
X45194Y-45770D01*
X45194Y-45770D01*
X45465Y-45500D01*
X45500Y-45535D01*
X45500Y-45465D01*
X45178Y-45142D01*
X45198Y-45041D01*
X45389Y-44962D01*
X45604Y-44960D01*
X45802Y-45041D01*
X45822Y-45142D01*
X45500Y-45465D01*
X45500Y-45535D01*
X45822Y-45858D01*
X45802Y-45959D01*
X45611Y-46038D01*
X45463Y-46039D01*
X45858Y-46434D01*
X45858Y-45822D01*
X45535Y-45500D01*
X45858Y-45178D01*
X45959Y-45198D01*
X46038Y-45389D01*
X46040Y-45604D01*
X45959Y-45802D01*
X45858Y-45822D01*
X45858Y-46434D01*
X47601Y-48177D01*
X47601Y-48170D01*
X47662Y-48024D01*
X47774Y-47912D01*
X47921Y-47851D01*
X48080Y-47851D01*
X48226Y-47912D01*
X48338Y-48024D01*
X48399Y-48171D01*
X48399Y-48225D01*
X49624Y-49450D01*
X49775Y-49450D01*
X47974Y-47649D01*
X47920Y-47649D01*
X47774Y-47588D01*
X47662Y-47476D01*
X47601Y-47329D01*
X47601Y-47170D01*
X47662Y-47024D01*
X47774Y-46912D01*
X47921Y-46851D01*
X48080Y-46851D01*
X48226Y-46912D01*
X48338Y-47024D01*
X48399Y-47171D01*
X48399Y-47225D01*
X49522Y-48348D01*
X49577Y-48217D01*
X49700Y-48094D01*
X49700Y-46335D01*
X49619Y-46254D01*
X49551Y-46089D01*
X49551Y-45910D01*
X49620Y-45745D01*
X49746Y-45619D01*
X49911Y-45551D01*
X50090Y-45551D01*
X50255Y-45620D01*
X50381Y-45746D01*
X50449Y-45911D01*
X50449Y-46090D01*
X50380Y-46255D01*
X50300Y-46335D01*
X50300Y-48094D01*
X50423Y-48218D01*
X50499Y-48401D01*
X50499Y-48599D01*
X50423Y-48783D01*
X50282Y-48923D01*
X50216Y-48950D01*
X50782Y-48950D01*
X50717Y-48923D01*
X50577Y-48782D01*
X50501Y-48599D01*
X50501Y-48401D01*
X50577Y-48217D01*
X50700Y-48094D01*
X50700Y-47405D01*
X50577Y-47282D01*
X50501Y-47099D01*
X50501Y-46901D01*
X50577Y-46717D01*
X50718Y-46577D01*
X50783Y-46550D01*
X50670Y-46550D01*
X50569Y-46508D01*
X50492Y-46430D01*
X50450Y-46329D01*
X50450Y-46093D01*
X50518Y-46025D01*
X50525Y-46025D01*
X50525Y-45975D01*
X50518Y-45975D01*
X50450Y-45907D01*
X50450Y-45671D01*
X50492Y-45570D01*
X50569Y-45492D01*
X50670Y-45450D01*
X50907Y-45450D01*
X50975Y-45518D01*
X50975Y-45975D01*
X50975Y-46025D01*
X51025Y-46025D01*
X51025Y-45975D01*
X51025Y-45518D01*
X51093Y-45450D01*
X51330Y-45450D01*
X51431Y-45492D01*
X51508Y-45570D01*
X51550Y-45671D01*
X51550Y-45907D01*
X51482Y-45975D01*
X51025Y-45975D01*
X51025Y-46025D01*
X51482Y-46025D01*
X51550Y-46093D01*
X51550Y-46329D01*
X51508Y-46430D01*
X51431Y-46508D01*
X51330Y-46550D01*
X51217Y-46549D01*
X51283Y-46577D01*
X51423Y-46718D01*
X51499Y-46901D01*
X51499Y-47099D01*
X51423Y-47283D01*
X51300Y-47405D01*
X51300Y-48094D01*
X51423Y-48218D01*
X51499Y-48401D01*
X51499Y-48576D01*
X51501Y-48574D01*
X51501Y-48401D01*
X51577Y-48217D01*
X51718Y-48077D01*
X51901Y-48001D01*
X52099Y-48001D01*
X52283Y-48077D01*
X52423Y-48218D01*
X52477Y-48348D01*
X52537Y-48288D01*
X52551Y-48278D01*
X52577Y-48217D01*
X52718Y-48077D01*
X52901Y-48001D01*
X53099Y-48001D01*
X53283Y-48077D01*
X53423Y-48218D01*
X53499Y-48401D01*
X53499Y-48599D01*
X53423Y-48783D01*
X53282Y-48923D01*
X53099Y-48999D01*
X52901Y-48999D01*
X52741Y-48933D01*
X51712Y-49962D01*
X51615Y-50027D01*
X51500Y-50050D01*
X49500Y-50050D01*
X49467Y-50043D01*
X50212Y-50788D01*
X50277Y-50885D01*
X50300Y-51000D01*
X50300Y-51026D01*
X50787Y-50538D01*
X50885Y-50473D01*
X51000Y-50450D01*
X53250Y-50450D01*
X53365Y-50473D01*
X53462Y-50538D01*
X53901Y-50976D01*
X53901Y-48999D01*
X53717Y-48923D01*
X53577Y-48782D01*
X53501Y-48599D01*
X53501Y-48401D01*
X53577Y-48217D01*
X53700Y-48094D01*
X53700Y-47500D01*
X53680Y-47500D01*
X53597Y-47465D01*
X53534Y-47402D01*
X53500Y-47319D01*
X53500Y-46680D01*
X53535Y-46597D01*
X53598Y-46534D01*
X53681Y-46500D01*
X53700Y-46500D01*
X53700Y-46405D01*
X53577Y-46282D01*
X53501Y-46099D01*
X53501Y-45901D01*
X53577Y-45717D01*
X53718Y-45577D01*
X53901Y-45501D01*
X54099Y-45501D01*
X54283Y-45577D01*
X54423Y-45718D01*
X54478Y-45851D01*
X54541Y-45698D01*
X54642Y-45678D01*
X54965Y-46000D01*
X54642Y-46322D01*
X54541Y-46302D01*
X54478Y-46149D01*
X54423Y-46283D01*
X54300Y-46405D01*
X54300Y-46500D01*
X54320Y-46500D01*
X54403Y-46535D01*
X54466Y-46598D01*
X54500Y-46681D01*
X54500Y-47320D01*
X54465Y-47403D01*
X54402Y-47466D01*
X54319Y-47500D01*
X54300Y-47500D01*
X54300Y-48094D01*
X54423Y-48218D01*
X54499Y-48401D01*
X54499Y-48599D01*
X54423Y-48783D01*
X54282Y-48923D01*
X54099Y-48999D01*
X53901Y-48999D01*
X53901Y-50976D01*
X53925Y-51001D01*
X54099Y-51001D01*
X54283Y-51077D01*
X54423Y-51218D01*
X54499Y-51401D01*
X54499Y-51599D01*
X54423Y-51783D01*
X54282Y-51923D01*
X54099Y-51999D01*
X53901Y-51999D01*
X53717Y-51923D01*
X53577Y-51782D01*
X53501Y-51599D01*
X53501Y-51425D01*
X53499Y-51423D01*
X53499Y-51599D01*
X53423Y-51783D01*
X53282Y-51923D01*
X53099Y-51999D01*
X52901Y-51999D01*
X52717Y-51923D01*
X52577Y-51782D01*
X52501Y-51599D01*
X52501Y-51401D01*
X52577Y-51217D01*
X52718Y-51077D01*
X52783Y-51050D01*
X52217Y-51049D01*
X52283Y-51077D01*
X52423Y-51218D01*
X52499Y-51401D01*
X52499Y-51599D01*
X52423Y-51783D01*
X52282Y-51923D01*
X52099Y-51999D01*
X51925Y-51999D01*
X51462Y-52462D01*
X51365Y-52527D01*
X51250Y-52550D01*
X49250Y-52550D01*
X49135Y-52527D01*
X49038Y-52462D01*
X42574Y-45999D01*
X42401Y-45999D01*
X42217Y-45923D01*
X42077Y-45782D01*
X42001Y-45599D01*
X42001Y-45425D01*
X41999Y-45423D01*
X41999Y-45599D01*
X41923Y-45783D01*
X41782Y-45923D01*
X41599Y-45999D01*
X41401Y-45999D01*
X41217Y-45923D01*
X41077Y-45782D01*
X41001Y-45599D01*
X41001Y-45423D01*
X40999Y-45425D01*
X40999Y-45599D01*
X40923Y-45783D01*
X40782Y-45923D01*
X40599Y-45999D01*
X40401Y-45999D01*
X40217Y-45923D01*
X40077Y-45782D01*
X40001Y-45599D01*
X40001Y-45423D01*
X39999Y-45425D01*
X39999Y-45599D01*
X39923Y-45783D01*
X39782Y-45923D01*
X39599Y-45999D01*
X39401Y-45999D01*
X39217Y-45923D01*
X39077Y-45782D01*
X39001Y-45599D01*
X39001Y-45423D01*
X38999Y-45425D01*
X38999Y-45599D01*
X38923Y-45783D01*
X38782Y-45923D01*
X38599Y-45999D01*
X38401Y-45999D01*
X38217Y-45923D01*
X38077Y-45782D01*
X38001Y-45599D01*
X38001Y-45401D01*
X38077Y-45217D01*
X38218Y-45077D01*
X38401Y-45001D01*
X38574Y-45000D01*
X39350Y-44225D01*
X36225Y-44225D01*
X36225Y-53594D01*
X36253Y-53553D01*
X37552Y-52253D01*
X37666Y-52177D01*
X37800Y-52150D01*
X38012Y-52150D01*
X38035Y-52097D01*
X38098Y-52034D01*
X38181Y-52000D01*
X38820Y-52000D01*
X38903Y-52035D01*
X38966Y-52098D01*
X39000Y-52181D01*
X39000Y-52820D01*
X38965Y-52903D01*
X38902Y-52966D01*
X38819Y-53000D01*
X38180Y-53000D01*
X38097Y-52965D01*
X38034Y-52902D01*
X38012Y-52850D01*
X37944Y-52850D01*
X36850Y-53944D01*
X36850Y-56355D01*
X37747Y-57252D01*
X37823Y-57366D01*
X37850Y-57500D01*
X37850Y-57925D01*
X37895Y-57925D01*
X37978Y-57960D01*
X38041Y-58023D01*
X38075Y-58106D01*
X38075Y-58128D01*
X38089Y-58125D01*
X38465Y-58500D01*
X38086Y-58122D01*
X38122Y-58086D01*
X38500Y-58465D01*
X38125Y-58089D01*
X38154Y-57981D01*
X38378Y-57888D01*
X38622Y-57888D01*
X38846Y-57981D01*
X38875Y-58089D01*
X38500Y-58465D01*
X38465Y-58500D01*
X38500Y-58535D01*
X38864Y-58900D01*
X38864Y-58900D01*
X38500Y-58535D01*
X38535Y-58500D01*
X38911Y-58125D01*
X39019Y-58154D01*
X39112Y-58378D01*
X39112Y-58622D01*
X39019Y-58846D01*
X38911Y-58875D01*
X38535Y-58500D01*
X38911Y-58875D01*
X38911Y-58875D01*
X38911Y-58875D01*
X38914Y-58878D01*
X38911Y-58881D01*
X38891Y-58900D01*
X38911Y-58900D01*
X39427Y-58900D01*
X39425Y-58894D01*
X39425Y-58105D01*
X39460Y-58022D01*
X39523Y-57959D01*
X39606Y-57925D01*
X40395Y-57925D01*
X40478Y-57960D01*
X40541Y-58023D01*
X40575Y-58106D01*
X40575Y-58128D01*
X40589Y-58125D01*
X40589Y-58125D01*
X40586Y-58122D01*
X40605Y-58103D01*
X40605Y-55075D01*
X40522Y-55040D01*
X40459Y-54977D01*
X40425Y-54894D01*
X40425Y-54888D01*
X40325Y-54988D01*
X40114Y-55075D01*
X39885Y-55075D01*
X39674Y-54987D01*
X39512Y-54825D01*
X39425Y-54614D01*
X39425Y-54385D01*
X39513Y-54174D01*
X39586Y-54100D01*
X39394Y-54100D01*
X39075Y-54419D01*
X39075Y-54895D01*
X39040Y-54978D01*
X38977Y-55041D01*
X38894Y-55075D01*
X38105Y-55075D01*
X38022Y-55040D01*
X37959Y-54977D01*
X37925Y-54894D01*
X37925Y-54888D01*
X37825Y-54988D01*
X37614Y-55075D01*
X37385Y-55075D01*
X37174Y-54987D01*
X37012Y-54825D01*
X36925Y-54614D01*
X36925Y-54385D01*
X37013Y-54174D01*
X37175Y-54012D01*
X37386Y-53925D01*
X37615Y-53925D01*
X37826Y-54013D01*
X37925Y-54112D01*
X37925Y-54105D01*
X37960Y-54022D01*
X38023Y-53959D01*
X38106Y-53925D01*
X38580Y-53925D01*
X39002Y-53503D01*
X39116Y-53427D01*
X39250Y-53400D01*
X40396Y-53400D01*
X40396Y-53040D01*
X40198Y-52959D01*
X40178Y-52858D01*
X40500Y-52535D01*
X40822Y-52858D01*
X40802Y-52959D01*
X40611Y-53038D01*
X40396Y-53040D01*
X40396Y-53400D01*
X40605Y-53400D01*
X41149Y-52855D01*
X41077Y-52782D01*
X41021Y-52648D01*
X40959Y-52802D01*
X40858Y-52822D01*
X40535Y-52500D01*
X40858Y-52178D01*
X40959Y-52198D01*
X41021Y-52350D01*
X41077Y-52217D01*
X41218Y-52077D01*
X41401Y-52001D01*
X41599Y-52001D01*
X41783Y-52077D01*
X41923Y-52218D01*
X41999Y-52401D01*
X41999Y-52599D01*
X41923Y-52783D01*
X41850Y-52855D01*
X41850Y-53000D01*
X41823Y-53134D01*
X41747Y-53248D01*
X41069Y-53925D01*
X41080Y-53925D01*
X42149Y-52855D01*
X42077Y-52782D01*
X42001Y-52599D01*
X42001Y-52401D01*
X42077Y-52217D01*
X42218Y-52077D01*
X42401Y-52001D01*
X42599Y-52001D01*
X42783Y-52077D01*
X42923Y-52218D01*
X42999Y-52401D01*
X42999Y-52599D01*
X42923Y-52783D01*
X42850Y-52855D01*
X42850Y-53000D01*
X42823Y-53134D01*
X42747Y-53248D01*
X41575Y-54419D01*
X41575Y-54895D01*
X41540Y-54978D01*
X41477Y-55041D01*
X41394Y-55075D01*
X40605Y-55075D01*
X40605Y-58103D01*
X40622Y-58086D01*
X41000Y-58465D01*
X40625Y-58089D01*
X40654Y-57981D01*
X40878Y-57888D01*
X41122Y-57888D01*
X41346Y-57981D01*
X41375Y-58089D01*
X41000Y-58465D01*
X40965Y-58500D01*
X40605Y-58859D01*
X40589Y-58875D01*
X40575Y-58871D01*
X40575Y-58895D01*
X40572Y-58900D01*
X40607Y-58900D01*
X40586Y-58878D01*
X40965Y-58500D01*
X41000Y-58535D01*
X41364Y-58900D01*
X41364Y-58900D01*
X41000Y-58535D01*
X41035Y-58500D01*
X41411Y-58125D01*
X41519Y-58154D01*
X41612Y-58378D01*
X41612Y-58622D01*
X41519Y-58846D01*
X41411Y-58875D01*
X41035Y-58500D01*
X41411Y-58875D01*
X41411Y-58875D01*
X41411Y-58875D01*
X41414Y-58878D01*
X41411Y-58881D01*
X41391Y-58900D01*
X41411Y-58900D01*
X41927Y-58900D01*
X41925Y-58894D01*
X41925Y-58105D01*
X41960Y-58022D01*
X42023Y-57959D01*
X42106Y-57925D01*
X42895Y-57925D01*
X42978Y-57960D01*
X43041Y-58023D01*
X43075Y-58106D01*
X43075Y-58128D01*
X43089Y-58125D01*
X43089Y-58125D01*
X43086Y-58122D01*
X43105Y-58103D01*
X43105Y-55075D01*
X43022Y-55040D01*
X42959Y-54977D01*
X42925Y-54894D01*
X42925Y-54888D01*
X42825Y-54988D01*
X42614Y-55075D01*
X42385Y-55075D01*
X42174Y-54987D01*
X42012Y-54825D01*
X41925Y-54614D01*
X41925Y-54385D01*
X42013Y-54174D01*
X42175Y-54012D01*
X42386Y-53925D01*
X42615Y-53925D01*
X42826Y-54013D01*
X42925Y-54112D01*
X42925Y-54105D01*
X42960Y-54022D01*
X43023Y-53959D01*
X43106Y-53925D01*
X43150Y-53925D01*
X43150Y-52855D01*
X43077Y-52782D01*
X43001Y-52599D01*
X43001Y-52401D01*
X43077Y-52217D01*
X43218Y-52077D01*
X43401Y-52001D01*
X43599Y-52001D01*
X43783Y-52077D01*
X43923Y-52218D01*
X43999Y-52401D01*
X43999Y-52599D01*
X43923Y-52783D01*
X43850Y-52855D01*
X43850Y-53925D01*
X43895Y-53925D01*
X43978Y-53960D01*
X44041Y-54023D01*
X44075Y-54106D01*
X44075Y-54895D01*
X44040Y-54978D01*
X43977Y-55041D01*
X43894Y-55075D01*
X43105Y-55075D01*
X43105Y-58103D01*
X43122Y-58086D01*
X43499Y-58464D01*
X43499Y-58534D01*
X43499Y-58464D01*
X43125Y-58089D01*
X43154Y-57981D01*
X43378Y-57888D01*
X43622Y-57888D01*
X43846Y-57981D01*
X43875Y-58089D01*
X43499Y-58464D01*
X43465Y-58500D01*
X43105Y-58859D01*
X43089Y-58875D01*
X43075Y-58871D01*
X43075Y-58895D01*
X43072Y-58900D01*
X43108Y-58900D01*
X43086Y-58878D01*
X43465Y-58500D01*
X43499Y-58534D01*
X43864Y-58900D01*
X43864Y-58900D01*
X43499Y-58534D01*
X43535Y-58500D01*
X43911Y-58125D01*
X44019Y-58154D01*
X44112Y-58378D01*
X44112Y-58622D01*
X44019Y-58846D01*
X43911Y-58875D01*
X43535Y-58500D01*
X43911Y-58875D01*
X43911Y-58875D01*
X43911Y-58875D01*
X43914Y-58878D01*
X43911Y-58881D01*
X43891Y-58900D01*
X43911Y-58900D01*
X44427Y-58900D01*
X44425Y-58894D01*
X44425Y-58105D01*
X44460Y-58022D01*
X44523Y-57959D01*
X44606Y-57925D01*
X45395Y-57925D01*
X45478Y-57960D01*
X45541Y-58023D01*
X45575Y-58106D01*
X45575Y-58128D01*
X45589Y-58125D01*
X45589Y-58125D01*
X45586Y-58122D01*
X45605Y-58103D01*
X45605Y-55075D01*
X45522Y-55040D01*
X45459Y-54977D01*
X45425Y-54894D01*
X45425Y-54888D01*
X45325Y-54988D01*
X45114Y-55075D01*
X44885Y-55075D01*
X44674Y-54987D01*
X44512Y-54825D01*
X44425Y-54614D01*
X44425Y-54419D01*
X44253Y-54247D01*
X44177Y-54134D01*
X44150Y-54000D01*
X44150Y-52855D01*
X44077Y-52782D01*
X44001Y-52599D01*
X44001Y-52401D01*
X44077Y-52217D01*
X44218Y-52077D01*
X44401Y-52001D01*
X44599Y-52001D01*
X44783Y-52077D01*
X44923Y-52218D01*
X44978Y-52351D01*
X45041Y-52198D01*
X45142Y-52178D01*
X45465Y-52500D01*
X45142Y-52822D01*
X45041Y-52802D01*
X44978Y-52649D01*
X44923Y-52783D01*
X44850Y-52855D01*
X44850Y-53855D01*
X44919Y-53925D01*
X45115Y-53925D01*
X45326Y-54013D01*
X45396Y-54083D01*
X45396Y-53040D01*
X45198Y-52959D01*
X45178Y-52858D01*
X45500Y-52535D01*
X45822Y-52858D01*
X45802Y-52959D01*
X45611Y-53038D01*
X45396Y-53040D01*
X45396Y-54083D01*
X45425Y-54112D01*
X45425Y-54105D01*
X45460Y-54022D01*
X45523Y-53959D01*
X45606Y-53925D01*
X46395Y-53925D01*
X46478Y-53960D01*
X46541Y-54023D01*
X46575Y-54106D01*
X46575Y-54895D01*
X46540Y-54978D01*
X46477Y-55041D01*
X46394Y-55075D01*
X45605Y-55075D01*
X45605Y-58103D01*
X45622Y-58086D01*
X46000Y-58465D01*
X45625Y-58089D01*
X45654Y-57981D01*
X45878Y-57888D01*
X46122Y-57888D01*
X46346Y-57981D01*
X46375Y-58089D01*
X46000Y-58465D01*
X45965Y-58500D01*
X46000Y-58535D01*
X46375Y-58911D01*
X46346Y-59019D01*
X46122Y-59112D01*
X45878Y-59112D01*
X45654Y-59019D01*
X45625Y-58911D01*
X46000Y-58535D01*
X45622Y-58914D01*
X45586Y-58878D01*
X45965Y-58500D01*
X45605Y-58859D01*
X45589Y-58875D01*
X45575Y-58871D01*
X45575Y-58895D01*
X45540Y-58978D01*
X45506Y-59011D01*
X45747Y-59252D01*
X45823Y-59366D01*
X45850Y-59500D01*
X45850Y-62105D01*
X45878Y-62133D01*
X45878Y-59112D01*
X45878Y-62133D01*
X45975Y-62230D01*
X45975Y-61593D01*
X46043Y-61525D01*
X46043Y-61475D01*
X45975Y-61407D01*
X45975Y-60695D01*
X46017Y-60594D01*
X46095Y-60517D01*
X46196Y-60475D01*
X46411Y-60475D01*
X46411Y-58875D01*
X46035Y-58500D01*
X46411Y-58125D01*
X46519Y-58154D01*
X46612Y-58378D01*
X46612Y-58622D01*
X46519Y-58846D01*
X46411Y-58875D01*
X46411Y-60475D01*
X46907Y-60475D01*
X46975Y-60543D01*
X46975Y-61475D01*
X46043Y-61475D01*
X46043Y-61525D01*
X46975Y-61525D01*
X47025Y-61525D01*
X47025Y-61475D01*
X47025Y-60543D01*
X47093Y-60475D01*
X47804Y-60475D01*
X47905Y-60517D01*
X47983Y-60594D01*
X48025Y-60695D01*
X48025Y-61305D01*
X48062Y-61216D01*
X48174Y-60947D01*
X48368Y-60753D01*
X48368Y-58655D01*
X48128Y-58554D01*
X48094Y-58441D01*
X48500Y-58035D01*
X48906Y-58441D01*
X48872Y-58554D01*
X48629Y-58655D01*
X48368Y-58655D01*
X48368Y-60753D01*
X48449Y-60673D01*
X48807Y-60525D01*
X48941Y-60525D01*
X48941Y-58406D01*
X48535Y-58000D01*
X48500Y-57965D01*
X48464Y-57999D01*
X48059Y-58406D01*
X47946Y-58372D01*
X47845Y-58129D01*
X47845Y-57868D01*
X47946Y-57628D01*
X48027Y-57603D01*
X47979Y-57583D01*
X47916Y-57520D01*
X47882Y-57437D01*
X47882Y-56562D01*
X47917Y-56479D01*
X47980Y-56416D01*
X48063Y-56382D01*
X48080Y-56382D01*
X48080Y-55600D01*
X47997Y-55565D01*
X47934Y-55502D01*
X47900Y-55419D01*
X47900Y-54580D01*
X47925Y-54520D01*
X46030Y-52625D01*
X45959Y-52802D01*
X45858Y-52822D01*
X45535Y-52500D01*
X45500Y-52465D01*
X45178Y-52142D01*
X45198Y-52041D01*
X45373Y-51968D01*
X45155Y-51750D01*
X40744Y-51749D01*
X40532Y-51960D01*
X40604Y-51960D01*
X40802Y-52041D01*
X40822Y-52142D01*
X40499Y-52464D01*
X40465Y-52500D01*
X40142Y-52822D01*
X40041Y-52802D01*
X39978Y-52649D01*
X39923Y-52783D01*
X39782Y-52923D01*
X39599Y-52999D01*
X39401Y-52999D01*
X39217Y-52923D01*
X39077Y-52782D01*
X39001Y-52599D01*
X39001Y-52401D01*
X39077Y-52217D01*
X39218Y-52077D01*
X39401Y-52001D01*
X39504Y-52001D01*
X40352Y-51153D01*
X40466Y-51077D01*
X40600Y-51050D01*
X45300Y-51050D01*
X45434Y-51077D01*
X45547Y-51153D01*
X48747Y-54352D01*
X48778Y-54400D01*
X48920Y-54400D01*
X49003Y-54435D01*
X49066Y-54498D01*
X49100Y-54581D01*
X49100Y-55420D01*
X49065Y-55503D01*
X49002Y-55566D01*
X48919Y-55600D01*
X48080Y-55600D01*
X48080Y-56382D01*
X48938Y-56382D01*
X49021Y-56417D01*
X49084Y-56480D01*
X49118Y-56563D01*
X49118Y-56650D01*
X49355Y-56650D01*
X50000Y-56005D01*
X50000Y-55680D01*
X50035Y-55597D01*
X50098Y-55534D01*
X50181Y-55500D01*
X50820Y-55500D01*
X50903Y-55535D01*
X50966Y-55598D01*
X51000Y-55681D01*
X51000Y-56320D01*
X50965Y-56403D01*
X50902Y-56466D01*
X50819Y-56500D01*
X50701Y-56500D01*
X50802Y-56541D01*
X50822Y-56642D01*
X50500Y-56965D01*
X50465Y-57000D01*
X50142Y-57322D01*
X50041Y-57302D01*
X49962Y-57111D01*
X49961Y-57032D01*
X49747Y-57247D01*
X49634Y-57323D01*
X49500Y-57350D01*
X49118Y-57350D01*
X49118Y-57438D01*
X49083Y-57521D01*
X49020Y-57584D01*
X48972Y-57603D01*
X49054Y-57628D01*
X49155Y-57871D01*
X49155Y-58132D01*
X49054Y-58372D01*
X48941Y-58406D01*
X48941Y-60525D01*
X49195Y-60525D01*
X49553Y-60674D01*
X49827Y-60949D01*
X49910Y-61150D01*
X50089Y-61150D01*
X50174Y-60947D01*
X50401Y-60720D01*
X50401Y-59499D01*
X50217Y-59423D01*
X50077Y-59282D01*
X50001Y-59099D01*
X50001Y-58901D01*
X50077Y-58717D01*
X50142Y-58652D01*
X50142Y-58322D01*
X50041Y-58302D01*
X49962Y-58111D01*
X49960Y-57896D01*
X50041Y-57698D01*
X50142Y-57678D01*
X50465Y-58000D01*
X50142Y-58322D01*
X50142Y-58652D01*
X50218Y-58577D01*
X50351Y-58521D01*
X50198Y-58459D01*
X50178Y-58358D01*
X50500Y-58035D01*
X50500Y-57965D01*
X50178Y-57642D01*
X50198Y-57541D01*
X50297Y-57499D01*
X50198Y-57459D01*
X50178Y-57358D01*
X50500Y-57035D01*
X50822Y-57358D01*
X50802Y-57459D01*
X50702Y-57500D01*
X50802Y-57541D01*
X50822Y-57642D01*
X50500Y-57965D01*
X50500Y-58035D01*
X50822Y-58358D01*
X50802Y-58459D01*
X50649Y-58521D01*
X50783Y-58577D01*
X50858Y-58652D01*
X50858Y-58322D01*
X50535Y-58000D01*
X50858Y-57678D01*
X50858Y-57322D01*
X50535Y-57000D01*
X50858Y-56678D01*
X50959Y-56698D01*
X51038Y-56889D01*
X51040Y-57104D01*
X50959Y-57302D01*
X50858Y-57322D01*
X50858Y-57678D01*
X50959Y-57698D01*
X51038Y-57889D01*
X51040Y-58104D01*
X50959Y-58302D01*
X50858Y-58322D01*
X50858Y-58652D01*
X50923Y-58718D01*
X50999Y-58901D01*
X50999Y-59099D01*
X50923Y-59283D01*
X50782Y-59423D01*
X50599Y-59499D01*
X50401Y-59499D01*
X50401Y-60720D01*
X50449Y-60673D01*
X50807Y-60525D01*
X51195Y-60525D01*
X51553Y-60674D01*
X51827Y-60949D01*
X51975Y-61307D01*
X51975Y-61695D01*
X51826Y-62053D01*
X51551Y-62327D01*
X51374Y-62400D01*
X51605Y-62400D01*
X52109Y-61896D01*
X52025Y-61693D01*
X52025Y-61305D01*
X52174Y-60947D01*
X52449Y-60673D01*
X52807Y-60525D01*
X53142Y-60525D01*
X53142Y-59322D01*
X53041Y-59302D01*
X52962Y-59111D01*
X52960Y-58896D01*
X53041Y-58698D01*
X53142Y-58678D01*
X53142Y-58322D01*
X53041Y-58302D01*
X52962Y-58111D01*
X52960Y-57896D01*
X53041Y-57698D01*
X53142Y-57678D01*
X53142Y-57322D01*
X53041Y-57302D01*
X52962Y-57111D01*
X52960Y-56896D01*
X53041Y-56698D01*
X53142Y-56678D01*
X53465Y-57000D01*
X53142Y-57322D01*
X53142Y-57678D01*
X53465Y-58000D01*
X53142Y-58322D01*
X53142Y-58678D01*
X53465Y-59000D01*
X53142Y-59322D01*
X53142Y-60525D01*
X53195Y-60525D01*
X53396Y-60608D01*
X53396Y-59540D01*
X53198Y-59459D01*
X53178Y-59358D01*
X53500Y-59035D01*
X53500Y-58965D01*
X53178Y-58642D01*
X53198Y-58541D01*
X53297Y-58499D01*
X53198Y-58459D01*
X53178Y-58358D01*
X53500Y-58035D01*
X53500Y-57965D01*
X53178Y-57642D01*
X53198Y-57541D01*
X53297Y-57499D01*
X53198Y-57459D01*
X53178Y-57358D01*
X53500Y-57035D01*
X53822Y-57358D01*
X53802Y-57459D01*
X53702Y-57500D01*
X53802Y-57541D01*
X53822Y-57642D01*
X53500Y-57965D01*
X53500Y-58035D01*
X53822Y-58358D01*
X53802Y-58459D01*
X53702Y-58500D01*
X53802Y-58541D01*
X53822Y-58642D01*
X53500Y-58965D01*
X53500Y-59035D01*
X53822Y-59358D01*
X53802Y-59459D01*
X53611Y-59538D01*
X53396Y-59540D01*
X53396Y-60608D01*
X53553Y-60674D01*
X53827Y-60949D01*
X53858Y-61023D01*
X53858Y-59322D01*
X53535Y-59000D01*
X53858Y-58678D01*
X53858Y-58322D01*
X53535Y-58000D01*
X53858Y-57678D01*
X53959Y-57698D01*
X54038Y-57889D01*
X54040Y-58104D01*
X53959Y-58302D01*
X53858Y-58322D01*
X53858Y-58678D01*
X53959Y-58698D01*
X54038Y-58889D01*
X54040Y-59104D01*
X53959Y-59302D01*
X53858Y-59322D01*
X53858Y-61023D01*
X53975Y-61307D01*
X53975Y-61695D01*
X53826Y-62053D01*
X53551Y-62327D01*
X53193Y-62475D01*
X52805Y-62475D01*
X52603Y-62391D01*
X51997Y-62997D01*
X51884Y-63073D01*
X51750Y-63100D01*
X46000Y-63100D01*
X45866Y-63073D01*
X45752Y-62997D01*
X45253Y-62497D01*
X45177Y-62384D01*
X45150Y-62250D01*
X45150Y-59644D01*
X44999Y-59494D01*
X44997Y-59497D01*
X44884Y-59573D01*
X44750Y-59600D01*
X42750Y-59600D01*
X42616Y-59573D01*
X42502Y-59497D01*
X42499Y-59494D01*
X42497Y-59497D01*
X42384Y-59573D01*
X42250Y-59600D01*
X40250Y-59600D01*
X40116Y-59573D01*
X40002Y-59497D01*
X39999Y-59494D01*
X39997Y-59497D01*
X39884Y-59573D01*
X39750Y-59600D01*
X37750Y-59600D01*
X37616Y-59573D01*
X37502Y-59497D01*
X37253Y-59247D01*
X37177Y-59134D01*
X37165Y-59075D01*
X37105Y-59075D01*
X37022Y-59040D01*
X36959Y-58977D01*
X36925Y-58894D01*
X36925Y-58105D01*
X36960Y-58022D01*
X37023Y-57959D01*
X37106Y-57925D01*
X37150Y-57925D01*
X37150Y-57644D01*
X36253Y-56747D01*
X36225Y-56705D01*
X36225Y-63775D01*
X37205Y-63775D01*
X37205Y-62475D01*
X37122Y-62440D01*
X37059Y-62377D01*
X37025Y-62294D01*
X37025Y-60705D01*
X37060Y-60622D01*
X37123Y-60559D01*
X37206Y-60525D01*
X38795Y-60525D01*
X38878Y-60560D01*
X38941Y-60623D01*
X38975Y-60706D01*
X38975Y-62295D01*
X38940Y-62378D01*
X38877Y-62441D01*
X38794Y-62475D01*
X37205Y-62475D01*
X37205Y-63775D01*
X39805Y-63775D01*
X39805Y-62475D01*
X39447Y-62326D01*
X39173Y-62051D01*
X39025Y-61693D01*
X39025Y-61305D01*
X39174Y-60947D01*
X39449Y-60673D01*
X39807Y-60525D01*
X40195Y-60525D01*
X40553Y-60674D01*
X40827Y-60949D01*
X40975Y-61307D01*
X40975Y-61695D01*
X40826Y-62053D01*
X40551Y-62327D01*
X40193Y-62475D01*
X39805Y-62475D01*
X39805Y-63775D01*
X41805Y-63775D01*
X41805Y-62475D01*
X41447Y-62326D01*
X41173Y-62051D01*
X41025Y-61693D01*
X41025Y-61305D01*
X41174Y-60947D01*
X41449Y-60673D01*
X41807Y-60525D01*
X42195Y-60525D01*
X42553Y-60674D01*
X42827Y-60949D01*
X42975Y-61307D01*
X42975Y-61695D01*
X42826Y-62053D01*
X42551Y-62327D01*
X42193Y-62475D01*
X41805Y-62475D01*
X41805Y-63775D01*
X43805Y-63775D01*
X43805Y-62475D01*
X43447Y-62326D01*
X43173Y-62051D01*
X43025Y-61693D01*
X43025Y-61305D01*
X43174Y-60947D01*
X43449Y-60673D01*
X43807Y-60525D01*
X44195Y-60525D01*
X44553Y-60674D01*
X44827Y-60949D01*
X44975Y-61307D01*
X44975Y-61695D01*
X44826Y-62053D01*
X44551Y-62327D01*
X44193Y-62475D01*
X43805Y-62475D01*
X43805Y-63775D01*
X55205Y-63775D01*
X55205Y-62475D01*
X55122Y-62440D01*
X55059Y-62377D01*
X55025Y-62294D01*
X55025Y-60705D01*
X55060Y-60622D01*
X55062Y-60619D01*
X55123Y-60559D01*
X55206Y-60525D01*
X55368Y-60525D01*
X55368Y-58655D01*
X55128Y-58554D01*
X55094Y-58441D01*
X55500Y-58035D01*
X55906Y-58441D01*
X55872Y-58554D01*
X55629Y-58655D01*
X55368Y-58655D01*
X55368Y-60525D01*
X55941Y-60525D01*
X55941Y-58406D01*
X55535Y-58000D01*
X55500Y-57965D01*
X55464Y-57999D01*
X55059Y-58406D01*
X54946Y-58372D01*
X54845Y-58129D01*
X54845Y-57868D01*
X54946Y-57628D01*
X55027Y-57603D01*
X54979Y-57583D01*
X54916Y-57520D01*
X54882Y-57437D01*
X54882Y-57350D01*
X54500Y-57350D01*
X54366Y-57323D01*
X54252Y-57247D01*
X54039Y-57034D01*
X54040Y-57104D01*
X53959Y-57302D01*
X53858Y-57322D01*
X53535Y-57000D01*
X53500Y-56965D01*
X53178Y-56642D01*
X53198Y-56541D01*
X53350Y-56478D01*
X53217Y-56423D01*
X53077Y-56282D01*
X53001Y-56099D01*
X53001Y-55901D01*
X53077Y-55717D01*
X53218Y-55577D01*
X53401Y-55501D01*
X53599Y-55501D01*
X53783Y-55577D01*
X53890Y-55684D01*
X53890Y-54564D01*
X53683Y-54479D01*
X53660Y-54375D01*
X54000Y-54035D01*
X54340Y-54375D01*
X54317Y-54479D01*
X54114Y-54564D01*
X53890Y-54564D01*
X53890Y-55684D01*
X53923Y-55718D01*
X53999Y-55901D01*
X53999Y-56004D01*
X54644Y-56650D01*
X54882Y-56650D01*
X54882Y-56562D01*
X54917Y-56479D01*
X54980Y-56416D01*
X55063Y-56382D01*
X55901Y-56382D01*
X55901Y-54499D01*
X55717Y-54423D01*
X55577Y-54282D01*
X55501Y-54099D01*
X55501Y-53901D01*
X55546Y-53790D01*
X55500Y-53800D01*
X54527Y-53800D01*
X54564Y-53886D01*
X54564Y-54110D01*
X54479Y-54317D01*
X54375Y-54340D01*
X54035Y-54000D01*
X54000Y-53965D01*
X53964Y-53999D01*
X53625Y-54340D01*
X53521Y-54317D01*
X53436Y-54114D01*
X53436Y-53890D01*
X53472Y-53800D01*
X53000Y-53800D01*
X52885Y-53777D01*
X52788Y-53712D01*
X52525Y-53449D01*
X52525Y-53605D01*
X52445Y-53798D01*
X52297Y-53945D01*
X52104Y-54025D01*
X51895Y-54025D01*
X51702Y-53945D01*
X51555Y-53797D01*
X51475Y-53604D01*
X51475Y-53395D01*
X51514Y-53300D01*
X49024Y-53300D01*
X49008Y-53339D01*
X48839Y-53508D01*
X48619Y-53599D01*
X48381Y-53599D01*
X48161Y-53508D01*
X47992Y-53339D01*
X47901Y-53119D01*
X47901Y-52881D01*
X47992Y-52661D01*
X48161Y-52492D01*
X48381Y-52401D01*
X48619Y-52401D01*
X48839Y-52492D01*
X49008Y-52661D01*
X49024Y-52700D01*
X52500Y-52700D01*
X52615Y-52723D01*
X52712Y-52788D01*
X53124Y-53200D01*
X53514Y-53200D01*
X53475Y-53104D01*
X53475Y-52895D01*
X53555Y-52702D01*
X53703Y-52555D01*
X53896Y-52475D01*
X54105Y-52475D01*
X54298Y-52555D01*
X54445Y-52703D01*
X54525Y-52896D01*
X54525Y-53105D01*
X54485Y-53200D01*
X54901Y-53200D01*
X54901Y-51999D01*
X54717Y-51923D01*
X54577Y-51782D01*
X54501Y-51599D01*
X54501Y-51401D01*
X54577Y-51217D01*
X54718Y-51077D01*
X54901Y-51001D01*
X54901Y-48999D01*
X54717Y-48923D01*
X54577Y-48782D01*
X54501Y-48599D01*
X54501Y-48401D01*
X54577Y-48217D01*
X54700Y-48094D01*
X54700Y-47405D01*
X54577Y-47282D01*
X54501Y-47099D01*
X54501Y-46901D01*
X54577Y-46717D01*
X54718Y-46577D01*
X54851Y-46521D01*
X54698Y-46459D01*
X54678Y-46358D01*
X55000Y-46035D01*
X55000Y-45965D01*
X54678Y-45642D01*
X54698Y-45541D01*
X54889Y-45462D01*
X55104Y-45460D01*
X55302Y-45541D01*
X55322Y-45642D01*
X55000Y-45965D01*
X55000Y-46035D01*
X55322Y-46358D01*
X55302Y-46459D01*
X55149Y-46521D01*
X55283Y-46577D01*
X55423Y-46718D01*
X55478Y-46851D01*
X55541Y-46698D01*
X55642Y-46678D01*
X55901Y-46936D01*
X55965Y-47000D01*
X55901Y-47063D01*
X55642Y-47322D01*
X55541Y-47302D01*
X55478Y-47149D01*
X55423Y-47283D01*
X55300Y-47405D01*
X55300Y-48094D01*
X55423Y-48218D01*
X55478Y-48351D01*
X55541Y-48198D01*
X55642Y-48178D01*
X55901Y-48436D01*
X55965Y-48500D01*
X55901Y-48563D01*
X55642Y-48822D01*
X55541Y-48802D01*
X55478Y-48649D01*
X55423Y-48783D01*
X55282Y-48923D01*
X55099Y-48999D01*
X54901Y-48999D01*
X54901Y-51001D01*
X55099Y-51001D01*
X55283Y-51077D01*
X55423Y-51218D01*
X55499Y-51401D01*
X55499Y-51599D01*
X55423Y-51783D01*
X55282Y-51923D01*
X55099Y-51999D01*
X54901Y-51999D01*
X54901Y-53200D01*
X55376Y-53200D01*
X55501Y-53075D01*
X55501Y-52901D01*
X55577Y-52717D01*
X55700Y-52594D01*
X55700Y-51905D01*
X55577Y-51782D01*
X55501Y-51599D01*
X55501Y-51401D01*
X55577Y-51217D01*
X55718Y-51077D01*
X55896Y-51003D01*
X55896Y-49040D01*
X55698Y-48959D01*
X55678Y-48858D01*
X55901Y-48634D01*
X56000Y-48535D01*
X56000Y-48465D01*
X55901Y-48365D01*
X55678Y-48142D01*
X55698Y-48041D01*
X55889Y-47962D01*
X55896Y-47961D01*
X55896Y-47540D01*
X55698Y-47459D01*
X55678Y-47358D01*
X55901Y-47134D01*
X56000Y-47035D01*
X56000Y-46965D01*
X55901Y-46865D01*
X55678Y-46642D01*
X55698Y-46541D01*
X55850Y-46478D01*
X55717Y-46423D01*
X55577Y-46282D01*
X55521Y-46148D01*
X55459Y-46302D01*
X55358Y-46322D01*
X55035Y-46000D01*
X55358Y-45678D01*
X55459Y-45698D01*
X55521Y-45850D01*
X55577Y-45717D01*
X55718Y-45577D01*
X55901Y-45501D01*
X56099Y-45501D01*
X56283Y-45577D01*
X56423Y-45718D01*
X56478Y-45851D01*
X56541Y-45698D01*
X56642Y-45678D01*
X56965Y-46000D01*
X56642Y-46322D01*
X56541Y-46302D01*
X56478Y-46149D01*
X56423Y-46283D01*
X56282Y-46423D01*
X56148Y-46478D01*
X56302Y-46541D01*
X56322Y-46642D01*
X56000Y-46965D01*
X56000Y-47035D01*
X56322Y-47358D01*
X56302Y-47459D01*
X56111Y-47538D01*
X55901Y-47539D01*
X55896Y-47540D01*
X55896Y-47961D01*
X55901Y-47961D01*
X56104Y-47960D01*
X56302Y-48041D01*
X56322Y-48142D01*
X56000Y-48465D01*
X56000Y-48535D01*
X56322Y-48858D01*
X56302Y-48959D01*
X56111Y-49038D01*
X55901Y-49039D01*
X55896Y-49040D01*
X55896Y-51003D01*
X55901Y-51001D01*
X56099Y-51001D01*
X56283Y-51077D01*
X56423Y-51218D01*
X56478Y-51351D01*
X56541Y-51198D01*
X56642Y-51178D01*
X56965Y-51500D01*
X56642Y-51822D01*
X56541Y-51802D01*
X56478Y-51649D01*
X56423Y-51783D01*
X56300Y-51905D01*
X56300Y-52594D01*
X56423Y-52718D01*
X56478Y-52851D01*
X56541Y-52698D01*
X56642Y-52678D01*
X56965Y-53000D01*
X56642Y-53322D01*
X56541Y-53302D01*
X56478Y-53149D01*
X56423Y-53283D01*
X56282Y-53423D01*
X56099Y-53499D01*
X55924Y-53499D01*
X55922Y-53501D01*
X56099Y-53501D01*
X56283Y-53577D01*
X56423Y-53718D01*
X56478Y-53851D01*
X56541Y-53698D01*
X56642Y-53678D01*
X56965Y-54000D01*
X56642Y-54322D01*
X56541Y-54302D01*
X56478Y-54149D01*
X56423Y-54283D01*
X56282Y-54423D01*
X56099Y-54499D01*
X55901Y-54499D01*
X55901Y-56382D01*
X55938Y-56382D01*
X56021Y-56417D01*
X56084Y-56480D01*
X56118Y-56563D01*
X56118Y-57438D01*
X56083Y-57521D01*
X56020Y-57584D01*
X55972Y-57603D01*
X56054Y-57628D01*
X56155Y-57871D01*
X56155Y-58132D01*
X56054Y-58372D01*
X55941Y-58406D01*
X55941Y-60525D01*
X56795Y-60525D01*
X56878Y-60560D01*
X56896Y-60578D01*
X56896Y-54540D01*
X56698Y-54459D01*
X56678Y-54358D01*
X57000Y-54035D01*
X57000Y-53965D01*
X56678Y-53642D01*
X56698Y-53541D01*
X56797Y-53499D01*
X56698Y-53459D01*
X56678Y-53358D01*
X57000Y-53035D01*
X57000Y-52965D01*
X56678Y-52642D01*
X56698Y-52541D01*
X56889Y-52462D01*
X56896Y-52461D01*
X56896Y-52040D01*
X56698Y-51959D01*
X56678Y-51858D01*
X57000Y-51535D01*
X57000Y-51465D01*
X56678Y-51142D01*
X56698Y-51041D01*
X56889Y-50962D01*
X57104Y-50960D01*
X57302Y-51041D01*
X57322Y-51142D01*
X57000Y-51465D01*
X57000Y-51535D01*
X57322Y-51858D01*
X57302Y-51959D01*
X57111Y-52038D01*
X56896Y-52040D01*
X56896Y-52461D01*
X57104Y-52460D01*
X57302Y-52541D01*
X57322Y-52642D01*
X57000Y-52965D01*
X57000Y-53035D01*
X57322Y-53358D01*
X57302Y-53459D01*
X57202Y-53500D01*
X57302Y-53541D01*
X57322Y-53642D01*
X57000Y-53965D01*
X57000Y-54035D01*
X57322Y-54358D01*
X57302Y-54459D01*
X57111Y-54538D01*
X56896Y-54540D01*
X56896Y-60578D01*
X56941Y-60623D01*
X56975Y-60706D01*
X56975Y-62295D01*
X56940Y-62378D01*
X56877Y-62441D01*
X56794Y-62475D01*
X55205Y-62475D01*
X55205Y-63775D01*
X57306Y-63775D01*
X57306Y-62158D01*
X57157Y-62081D01*
X57139Y-62056D01*
X56992Y-61685D01*
X56999Y-61285D01*
X57157Y-60919D01*
X57306Y-60842D01*
X57901Y-61436D01*
X57965Y-61500D01*
X57901Y-61563D01*
X57306Y-62158D01*
X57306Y-63775D01*
X58185Y-63775D01*
X58185Y-62508D01*
X57901Y-62503D01*
X57785Y-62501D01*
X57419Y-62343D01*
X57342Y-62194D01*
X57901Y-61634D01*
X58000Y-61535D01*
X58000Y-61465D01*
X57901Y-61365D01*
X57342Y-60806D01*
X57358Y-60775D01*
X57358Y-54322D01*
X57035Y-54000D01*
X57358Y-53678D01*
X57358Y-53322D01*
X57035Y-53000D01*
X57358Y-52678D01*
X57459Y-52698D01*
X57538Y-52889D01*
X57540Y-53104D01*
X57459Y-53302D01*
X57358Y-53322D01*
X57358Y-53678D01*
X57459Y-53698D01*
X57538Y-53889D01*
X57540Y-54104D01*
X57459Y-54302D01*
X57358Y-54322D01*
X57358Y-60775D01*
X57419Y-60657D01*
X57444Y-60639D01*
X57815Y-60492D01*
X57901Y-60493D01*
X57901Y-51999D01*
X57717Y-51923D01*
X57577Y-51782D01*
X57521Y-51648D01*
X57459Y-51802D01*
X57358Y-51822D01*
X57035Y-51500D01*
X57358Y-51178D01*
X57459Y-51198D01*
X57521Y-51350D01*
X57577Y-51217D01*
X57718Y-51077D01*
X57901Y-51001D01*
X57901Y-48999D01*
X57717Y-48923D01*
X57577Y-48782D01*
X57501Y-48599D01*
X57501Y-48401D01*
X57577Y-48217D01*
X57718Y-48077D01*
X57901Y-48001D01*
X58099Y-48001D01*
X58283Y-48077D01*
X58423Y-48218D01*
X58499Y-48401D01*
X58499Y-48599D01*
X58423Y-48783D01*
X58282Y-48923D01*
X58099Y-48999D01*
X57901Y-48999D01*
X57901Y-51001D01*
X58099Y-51001D01*
X58283Y-51077D01*
X58423Y-51218D01*
X58499Y-51401D01*
X58499Y-51599D01*
X58423Y-51783D01*
X58282Y-51923D01*
X58099Y-51999D01*
X57901Y-51999D01*
X57901Y-60493D01*
X58215Y-60499D01*
X58581Y-60657D01*
X58658Y-60806D01*
X58000Y-61465D01*
X58000Y-61535D01*
X58658Y-62194D01*
X58581Y-62343D01*
X58556Y-62361D01*
X58185Y-62508D01*
X58185Y-63775D01*
X58694Y-63775D01*
X58694Y-62158D01*
X58035Y-61500D01*
X58694Y-60842D01*
X58843Y-60919D01*
X58861Y-60944D01*
X59008Y-61315D01*
X59001Y-61715D01*
X58843Y-62081D01*
X58694Y-62158D01*
X58694Y-63775D01*
X59805Y-63775D01*
X59805Y-62475D01*
X59447Y-62326D01*
X59173Y-62051D01*
X59025Y-61693D01*
X59025Y-61305D01*
X59174Y-60947D01*
X59449Y-60673D01*
X59807Y-60525D01*
X60195Y-60525D01*
X60553Y-60674D01*
X60827Y-60949D01*
X60975Y-61307D01*
X60975Y-61695D01*
X60826Y-62053D01*
X60551Y-62327D01*
X60193Y-62475D01*
X59805Y-62475D01*
X59805Y-63775D01*
X61306Y-63775D01*
X61306Y-62158D01*
X61157Y-62081D01*
X61139Y-62056D01*
X60992Y-61685D01*
X60999Y-61285D01*
X61157Y-60919D01*
X61306Y-60842D01*
X61965Y-61500D01*
X61306Y-62158D01*
X61306Y-63775D01*
X62185Y-63775D01*
X62185Y-62508D01*
X61785Y-62501D01*
X61419Y-62343D01*
X61342Y-62194D01*
X62000Y-61535D01*
X62000Y-61465D01*
X61342Y-60806D01*
X61419Y-60657D01*
X61444Y-60639D01*
X61815Y-60492D01*
X62215Y-60499D01*
X62581Y-60657D01*
X62658Y-60806D01*
X62000Y-61465D01*
X62000Y-61535D01*
X62658Y-62194D01*
X62581Y-62343D01*
X62556Y-62361D01*
X62185Y-62508D01*
X62185Y-63775D01*
X62694Y-63775D01*
X62694Y-62158D01*
X62035Y-61500D01*
X62694Y-60842D01*
X62843Y-60919D01*
X62861Y-60944D01*
X63008Y-61315D01*
X63001Y-61715D01*
X62843Y-62081D01*
X62694Y-62158D01*
X62694Y-63775D01*
X64455Y-63775D01*
X64455Y-62225D01*
X64372Y-62190D01*
X64309Y-62127D01*
X64275Y-62044D01*
X64275Y-60955D01*
X64310Y-60872D01*
X64373Y-60809D01*
X64456Y-60775D01*
X65545Y-60775D01*
X65628Y-60810D01*
X65691Y-60873D01*
X65725Y-60956D01*
X65725Y-62045D01*
X65690Y-62128D01*
X65627Y-62191D01*
X65544Y-62225D01*
X64455Y-62225D01*
X64455Y-63775D01*
X66483Y-63775D01*
X66483Y-61982D01*
X66359Y-61935D01*
X66352Y-61926D01*
X66239Y-61646D01*
X66241Y-61344D01*
X66359Y-61065D01*
X66483Y-61018D01*
X66965Y-61500D01*
X66483Y-61982D01*
X66483Y-63775D01*
X67146Y-63775D01*
X67146Y-62261D01*
X66844Y-62259D01*
X66565Y-62141D01*
X66518Y-62017D01*
X67000Y-61535D01*
X67000Y-61465D01*
X66518Y-60983D01*
X66565Y-60859D01*
X66574Y-60852D01*
X66854Y-60739D01*
X67156Y-60741D01*
X67435Y-60859D01*
X67482Y-60983D01*
X67000Y-61465D01*
X67000Y-61535D01*
X67482Y-62017D01*
X67435Y-62141D01*
X67426Y-62148D01*
X67146Y-62261D01*
X67146Y-63775D01*
X67517Y-63775D01*
X67517Y-61982D01*
X67035Y-61500D01*
X67517Y-61018D01*
X67641Y-61065D01*
X67648Y-61074D01*
X67761Y-61354D01*
X67759Y-61656D01*
X67641Y-61935D01*
X67517Y-61982D01*
X67517Y-63775D01*
X69250Y-63775D01*
X69250Y-63300D01*
X69135Y-63277D01*
X69037Y-63212D01*
X68288Y-62462D01*
X68223Y-62365D01*
X68200Y-62250D01*
X68200Y-60874D01*
X65038Y-57712D01*
X64973Y-57615D01*
X64950Y-57500D01*
X64950Y-54217D01*
X64923Y-54283D01*
X64782Y-54423D01*
X64599Y-54499D01*
X64425Y-54499D01*
X61999Y-56925D01*
X61999Y-57099D01*
X61923Y-57283D01*
X61782Y-57423D01*
X61599Y-57499D01*
X61401Y-57499D01*
X61217Y-57423D01*
X61077Y-57282D01*
X61050Y-57216D01*
X61050Y-57329D01*
X61036Y-57362D01*
X61241Y-57567D01*
X61401Y-57501D01*
X61599Y-57501D01*
X61783Y-57577D01*
X61905Y-57700D01*
X63000Y-57700D01*
X63115Y-57723D01*
X63212Y-57788D01*
X63925Y-58501D01*
X64099Y-58501D01*
X64283Y-58577D01*
X64423Y-58718D01*
X64499Y-58901D01*
X64499Y-59099D01*
X64423Y-59283D01*
X64282Y-59423D01*
X64099Y-59499D01*
X63901Y-59499D01*
X63717Y-59423D01*
X63577Y-59282D01*
X63501Y-59099D01*
X63501Y-58925D01*
X63499Y-58923D01*
X63499Y-59099D01*
X63423Y-59283D01*
X63282Y-59423D01*
X63099Y-59499D01*
X62901Y-59499D01*
X62717Y-59423D01*
X62644Y-59350D01*
X60500Y-59350D01*
X60366Y-59323D01*
X60252Y-59247D01*
X59505Y-58500D01*
X59180Y-58500D01*
X59097Y-58465D01*
X59034Y-58402D01*
X59000Y-58319D01*
X59000Y-57924D01*
X58999Y-57925D01*
X58999Y-58099D01*
X58923Y-58283D01*
X58782Y-58423D01*
X58599Y-58499D01*
X58401Y-58499D01*
X58217Y-58423D01*
X58077Y-58282D01*
X58001Y-58099D01*
X58001Y-57901D01*
X58077Y-57717D01*
X58218Y-57577D01*
X58401Y-57501D01*
X58574Y-57501D01*
X58576Y-57499D01*
X58401Y-57499D01*
X58217Y-57423D01*
X58077Y-57282D01*
X58001Y-57099D01*
X58001Y-56901D01*
X58077Y-56717D01*
X58218Y-56577D01*
X58401Y-56501D01*
X58574Y-56501D01*
X58642Y-56433D01*
X58642Y-53322D01*
X58541Y-53302D01*
X58462Y-53111D01*
X58460Y-52896D01*
X58541Y-52698D01*
X58642Y-52678D01*
X58901Y-52936D01*
X58965Y-53000D01*
X58901Y-53063D01*
X58642Y-53322D01*
X58642Y-56433D01*
X58896Y-56179D01*
X58896Y-53540D01*
X58698Y-53459D01*
X58678Y-53358D01*
X58901Y-53134D01*
X59000Y-53035D01*
X59000Y-52965D01*
X58901Y-52865D01*
X58678Y-52642D01*
X58698Y-52541D01*
X58889Y-52462D01*
X58901Y-52461D01*
X58901Y-51999D01*
X58717Y-51923D01*
X58577Y-51782D01*
X58501Y-51599D01*
X58501Y-51401D01*
X58577Y-51217D01*
X58718Y-51077D01*
X58901Y-51001D01*
X59099Y-51001D01*
X59283Y-51077D01*
X59423Y-51218D01*
X59499Y-51401D01*
X59499Y-51599D01*
X59423Y-51783D01*
X59282Y-51923D01*
X59099Y-51999D01*
X58901Y-51999D01*
X58901Y-52461D01*
X59104Y-52460D01*
X59302Y-52541D01*
X59322Y-52642D01*
X59000Y-52965D01*
X59000Y-53035D01*
X59322Y-53358D01*
X59302Y-53459D01*
X59111Y-53538D01*
X58901Y-53539D01*
X58896Y-53540D01*
X58896Y-56179D01*
X60576Y-54499D01*
X60401Y-54499D01*
X60217Y-54423D01*
X60077Y-54282D01*
X60001Y-54099D01*
X60001Y-53925D01*
X59788Y-53712D01*
X59723Y-53615D01*
X59700Y-53500D01*
X59700Y-53405D01*
X59577Y-53282D01*
X59521Y-53148D01*
X59459Y-53302D01*
X59358Y-53322D01*
X59035Y-53000D01*
X59358Y-52678D01*
X59459Y-52698D01*
X59521Y-52850D01*
X59577Y-52717D01*
X59700Y-52594D01*
X59700Y-51905D01*
X59577Y-51782D01*
X59501Y-51599D01*
X59501Y-51401D01*
X59577Y-51217D01*
X59718Y-51077D01*
X59901Y-51001D01*
X60099Y-51001D01*
X60283Y-51077D01*
X60423Y-51218D01*
X60499Y-51401D01*
X60499Y-51599D01*
X60423Y-51783D01*
X60300Y-51905D01*
X60300Y-52594D01*
X60423Y-52718D01*
X60499Y-52901D01*
X60499Y-53099D01*
X60423Y-53283D01*
X60314Y-53390D01*
X60425Y-53501D01*
X60599Y-53501D01*
X60783Y-53577D01*
X60901Y-53695D01*
X60901Y-51999D01*
X60717Y-51923D01*
X60577Y-51782D01*
X60501Y-51599D01*
X60501Y-51401D01*
X60577Y-51217D01*
X60718Y-51077D01*
X60901Y-51001D01*
X61099Y-51001D01*
X61283Y-51077D01*
X61423Y-51218D01*
X61499Y-51401D01*
X61499Y-51599D01*
X61423Y-51783D01*
X61282Y-51923D01*
X61099Y-51999D01*
X60901Y-51999D01*
X60901Y-53695D01*
X60923Y-53718D01*
X60999Y-53901D01*
X60999Y-54076D01*
X61001Y-54074D01*
X61001Y-53901D01*
X61077Y-53717D01*
X61218Y-53577D01*
X61401Y-53501D01*
X61599Y-53501D01*
X61783Y-53577D01*
X61901Y-53695D01*
X61901Y-53499D01*
X61717Y-53423D01*
X61577Y-53282D01*
X61501Y-53099D01*
X61501Y-52901D01*
X61577Y-52717D01*
X61718Y-52577D01*
X61901Y-52501D01*
X61901Y-51999D01*
X61717Y-51923D01*
X61577Y-51782D01*
X61501Y-51599D01*
X61501Y-51401D01*
X61577Y-51217D01*
X61718Y-51077D01*
X61901Y-51001D01*
X62099Y-51001D01*
X62283Y-51077D01*
X62423Y-51218D01*
X62499Y-51401D01*
X62499Y-51599D01*
X62423Y-51783D01*
X62282Y-51923D01*
X62099Y-51999D01*
X61901Y-51999D01*
X61901Y-52501D01*
X62099Y-52501D01*
X62283Y-52577D01*
X62423Y-52718D01*
X62499Y-52901D01*
X62499Y-53099D01*
X62423Y-53283D01*
X62282Y-53423D01*
X62099Y-53499D01*
X61901Y-53499D01*
X61901Y-53695D01*
X61923Y-53718D01*
X61999Y-53901D01*
X61999Y-54099D01*
X61923Y-54283D01*
X61782Y-54423D01*
X61599Y-54499D01*
X61425Y-54499D01*
X58999Y-56925D01*
X58999Y-57099D01*
X58953Y-57209D01*
X59000Y-57200D01*
X59950Y-57200D01*
X59950Y-57093D01*
X60018Y-57025D01*
X60018Y-56975D01*
X59950Y-56907D01*
X59950Y-56671D01*
X59992Y-56570D01*
X60069Y-56492D01*
X60170Y-56450D01*
X60407Y-56450D01*
X60475Y-56518D01*
X60475Y-56975D01*
X60018Y-56975D01*
X60018Y-57025D01*
X60475Y-57025D01*
X60525Y-57025D01*
X60525Y-56975D01*
X60525Y-56518D01*
X60593Y-56450D01*
X60830Y-56450D01*
X60931Y-56492D01*
X61008Y-56570D01*
X61050Y-56671D01*
X61050Y-56782D01*
X61077Y-56717D01*
X61218Y-56577D01*
X61401Y-56501D01*
X61574Y-56501D01*
X63576Y-54499D01*
X63401Y-54499D01*
X63217Y-54423D01*
X63077Y-54282D01*
X63001Y-54099D01*
X63001Y-53925D01*
X62788Y-53712D01*
X62723Y-53615D01*
X62700Y-53500D01*
X62700Y-53405D01*
X62577Y-53282D01*
X62501Y-53099D01*
X62501Y-52901D01*
X62577Y-52717D01*
X62700Y-52594D01*
X62700Y-51905D01*
X62577Y-51782D01*
X62501Y-51599D01*
X62501Y-51401D01*
X62577Y-51217D01*
X62718Y-51077D01*
X62901Y-51001D01*
X63099Y-51001D01*
X63283Y-51077D01*
X63423Y-51218D01*
X63499Y-51401D01*
X63499Y-51599D01*
X63423Y-51783D01*
X63300Y-51905D01*
X63300Y-52594D01*
X63423Y-52718D01*
X63499Y-52901D01*
X63499Y-53099D01*
X63423Y-53283D01*
X63314Y-53390D01*
X63424Y-53501D01*
X63599Y-53501D01*
X63783Y-53577D01*
X63923Y-53718D01*
X63999Y-53901D01*
X63999Y-54076D01*
X64001Y-54074D01*
X64001Y-53901D01*
X64077Y-53717D01*
X64218Y-53577D01*
X64401Y-53501D01*
X64599Y-53501D01*
X64783Y-53577D01*
X64923Y-53718D01*
X64950Y-53783D01*
X64950Y-50874D01*
X64875Y-50799D01*
X61000Y-50800D01*
X60885Y-50777D01*
X60788Y-50712D01*
X59075Y-48999D01*
X58901Y-48999D01*
X58717Y-48923D01*
X58577Y-48782D01*
X58501Y-48599D01*
X58501Y-48401D01*
X58577Y-48217D01*
X58718Y-48077D01*
X58901Y-48001D01*
X59099Y-48001D01*
X59283Y-48077D01*
X59423Y-48218D01*
X59499Y-48401D01*
X59499Y-48575D01*
X59501Y-48577D01*
X59501Y-48401D01*
X59577Y-48217D01*
X59718Y-48077D01*
X59901Y-48001D01*
X60099Y-48001D01*
X60283Y-48077D01*
X60423Y-48218D01*
X60499Y-48401D01*
X60499Y-48575D01*
X60501Y-48577D01*
X60501Y-48401D01*
X60577Y-48217D01*
X60718Y-48077D01*
X60901Y-48001D01*
X61099Y-48001D01*
X61283Y-48077D01*
X61423Y-48218D01*
X61499Y-48401D01*
X61499Y-48575D01*
X61501Y-48577D01*
X61501Y-48401D01*
X61577Y-48217D01*
X61718Y-48077D01*
X61901Y-48001D01*
X62099Y-48001D01*
X62283Y-48077D01*
X62423Y-48218D01*
X62499Y-48401D01*
X62499Y-48575D01*
X62500Y-48576D01*
X62500Y-48180D01*
X62535Y-48097D01*
X62598Y-48034D01*
X62681Y-48000D01*
X62700Y-48000D01*
X62700Y-47442D01*
X62555Y-47297D01*
X62475Y-47104D01*
X62475Y-46895D01*
X62555Y-46702D01*
X62657Y-46599D01*
X62644Y-46600D01*
X61997Y-47247D01*
X61884Y-47323D01*
X61750Y-47350D01*
X59392Y-47350D01*
X59297Y-47445D01*
X59104Y-47525D01*
X58895Y-47525D01*
X58702Y-47445D01*
X58607Y-47350D01*
X57355Y-47350D01*
X57350Y-47355D01*
X57350Y-48144D01*
X57423Y-48218D01*
X57499Y-48401D01*
X57499Y-48599D01*
X57423Y-48783D01*
X57282Y-48923D01*
X57099Y-48999D01*
X56901Y-48999D01*
X56717Y-48923D01*
X56577Y-48782D01*
X56521Y-48648D01*
X56459Y-48802D01*
X56358Y-48822D01*
X56035Y-48500D01*
X56358Y-48178D01*
X56459Y-48198D01*
X56521Y-48350D01*
X56577Y-48217D01*
X56650Y-48144D01*
X56650Y-47355D01*
X56577Y-47282D01*
X56521Y-47148D01*
X56459Y-47302D01*
X56358Y-47322D01*
X56035Y-47000D01*
X56358Y-46678D01*
X56459Y-46698D01*
X56521Y-46850D01*
X56577Y-46717D01*
X56718Y-46577D01*
X56851Y-46521D01*
X56698Y-46459D01*
X56678Y-46358D01*
X57000Y-46035D01*
X57000Y-45965D01*
X56678Y-45642D01*
X56698Y-45541D01*
X56889Y-45462D01*
X57104Y-45460D01*
X57302Y-45541D01*
X57322Y-45642D01*
X57000Y-45965D01*
X57000Y-46035D01*
X57322Y-46358D01*
X57302Y-46459D01*
X57149Y-46521D01*
X57283Y-46577D01*
X57355Y-46650D01*
X57358Y-46650D01*
X57358Y-46322D01*
X57035Y-46000D01*
X57358Y-45678D01*
X57459Y-45698D01*
X57538Y-45889D01*
X57540Y-46104D01*
X57459Y-46302D01*
X57358Y-46322D01*
X57358Y-46650D01*
X58607Y-46650D01*
X58703Y-46555D01*
X58896Y-46475D01*
X59105Y-46475D01*
X59298Y-46555D01*
X59392Y-46650D01*
X61605Y-46650D01*
X62252Y-46003D01*
X62366Y-45927D01*
X62500Y-45900D01*
X64325Y-45900D01*
X64459Y-45927D01*
X64572Y-46003D01*
X67022Y-48453D01*
X67418Y-48453D01*
X67501Y-48488D01*
X67564Y-48551D01*
X67598Y-48634D01*
X67598Y-49343D01*
X67563Y-49426D01*
X67516Y-49472D01*
X67517Y-49473D01*
X67598Y-49670D01*
X67598Y-49883D01*
X67516Y-50079D01*
X67425Y-50169D01*
X67517Y-50260D01*
X67598Y-50457D01*
X67598Y-50670D01*
X67516Y-50866D01*
X67425Y-50956D01*
X67517Y-51047D01*
X67598Y-51244D01*
X67598Y-51457D01*
X67516Y-51653D01*
X67425Y-51744D01*
X67517Y-51835D01*
X67598Y-52032D01*
X67598Y-52245D01*
X67516Y-52441D01*
X67425Y-52531D01*
X67517Y-52622D01*
X67598Y-52819D01*
X67598Y-53032D01*
X67516Y-53228D01*
X67425Y-53319D01*
X67517Y-53410D01*
X67598Y-53607D01*
X67598Y-53820D01*
X67516Y-54016D01*
X67425Y-54106D01*
X67517Y-54197D01*
X67598Y-54394D01*
X67598Y-54607D01*
X67516Y-54803D01*
X67425Y-54893D01*
X67517Y-54984D01*
X67598Y-55181D01*
X67598Y-55394D01*
X67516Y-55590D01*
X67366Y-55741D01*
X67357Y-55744D01*
X67063Y-56040D01*
X66766Y-55742D01*
X66760Y-55740D01*
X66609Y-55590D01*
X66528Y-55393D01*
X66528Y-55180D01*
X66610Y-54984D01*
X66700Y-54893D01*
X66609Y-54803D01*
X66528Y-54606D01*
X66528Y-54393D01*
X66610Y-54197D01*
X66700Y-54106D01*
X66609Y-54016D01*
X66528Y-53819D01*
X66528Y-53606D01*
X66610Y-53410D01*
X66700Y-53318D01*
X66609Y-53228D01*
X66528Y-53031D01*
X66528Y-52818D01*
X66610Y-52622D01*
X66700Y-52531D01*
X66609Y-52441D01*
X66528Y-52244D01*
X66528Y-52031D01*
X66610Y-51835D01*
X66700Y-51743D01*
X66609Y-51653D01*
X66528Y-51456D01*
X66528Y-51243D01*
X66610Y-51047D01*
X66700Y-50956D01*
X66609Y-50866D01*
X66528Y-50669D01*
X66528Y-50456D01*
X66529Y-50453D01*
X65875Y-49800D01*
X65474Y-49800D01*
X65962Y-50288D01*
X66027Y-50385D01*
X66050Y-50500D01*
X66050Y-57126D01*
X66680Y-57756D01*
X66680Y-56422D01*
X66576Y-56398D01*
X66490Y-56191D01*
X66490Y-55963D01*
X66576Y-55752D01*
X66680Y-55728D01*
X67028Y-56075D01*
X66680Y-56422D01*
X66680Y-57756D01*
X66951Y-58027D01*
X66951Y-56648D01*
X66740Y-56562D01*
X66716Y-56458D01*
X67063Y-56110D01*
X67410Y-56458D01*
X67386Y-56562D01*
X67179Y-56648D01*
X66951Y-56648D01*
X66951Y-58027D01*
X67446Y-58522D01*
X67446Y-56422D01*
X67098Y-56075D01*
X67446Y-55728D01*
X67550Y-55752D01*
X67636Y-55959D01*
X67636Y-56187D01*
X67550Y-56398D01*
X67446Y-56422D01*
X67446Y-58522D01*
X69448Y-60525D01*
X70795Y-60525D01*
X70878Y-60560D01*
X70941Y-60623D01*
X70975Y-60706D01*
X70975Y-62295D01*
X70940Y-62378D01*
X70877Y-62441D01*
X70794Y-62475D01*
X69205Y-62475D01*
X69122Y-62440D01*
X69059Y-62377D01*
X69025Y-62294D01*
X69025Y-60949D01*
X68793Y-60717D01*
X68800Y-60750D01*
X68800Y-62125D01*
X69374Y-62700D01*
X71306Y-62700D01*
X71306Y-62158D01*
X71157Y-62081D01*
X71139Y-62056D01*
X70992Y-61685D01*
X70999Y-61285D01*
X71157Y-60919D01*
X71306Y-60842D01*
X71965Y-61500D01*
X71306Y-62158D01*
X71306Y-62700D01*
X72185Y-62700D01*
X72185Y-62508D01*
X71785Y-62501D01*
X71419Y-62343D01*
X71342Y-62194D01*
X72000Y-61535D01*
X72000Y-61465D01*
X71342Y-60806D01*
X71419Y-60657D01*
X71444Y-60639D01*
X71815Y-60492D01*
X72215Y-60499D01*
X72581Y-60657D01*
X72658Y-60806D01*
X72000Y-61465D01*
X72000Y-61535D01*
X72658Y-62194D01*
X72581Y-62343D01*
X72556Y-62361D01*
X72185Y-62508D01*
X72185Y-62700D01*
X72375Y-62700D01*
X72694Y-62381D01*
X72694Y-62158D01*
X72035Y-61500D01*
X72694Y-60842D01*
X72843Y-60919D01*
X72861Y-60944D01*
X73008Y-61315D01*
X73001Y-61715D01*
X72843Y-62081D01*
X72694Y-62158D01*
X72694Y-62381D01*
X73129Y-61946D01*
X73025Y-61693D01*
X73025Y-61305D01*
X73174Y-60947D01*
X73449Y-60673D01*
X73807Y-60525D01*
X74195Y-60525D01*
X74553Y-60674D01*
X74827Y-60949D01*
X74975Y-61307D01*
X74975Y-61695D01*
X74826Y-62053D01*
X74551Y-62327D01*
X74193Y-62475D01*
X73805Y-62475D01*
X73553Y-62370D01*
X72712Y-63212D01*
X72615Y-63277D01*
X72500Y-63300D01*
X69250Y-63300D01*
X69250Y-63775D01*
X75306Y-63775D01*
X75306Y-62158D01*
X75157Y-62081D01*
X75139Y-62056D01*
X74992Y-61685D01*
X74999Y-61285D01*
X75157Y-60919D01*
X75306Y-60842D01*
X75617Y-61152D01*
X75965Y-61500D01*
X75617Y-61847D01*
X75306Y-62158D01*
X75306Y-63775D01*
X76185Y-63775D01*
X76185Y-62508D01*
X75785Y-62501D01*
X75617Y-62428D01*
X75419Y-62343D01*
X75342Y-62194D01*
X75617Y-61918D01*
X76000Y-61535D01*
X76000Y-61465D01*
X75617Y-61081D01*
X75342Y-60806D01*
X75419Y-60657D01*
X75444Y-60639D01*
X75617Y-60570D01*
X75617Y-56610D01*
X75421Y-56528D01*
X75270Y-56378D01*
X75189Y-56181D01*
X75189Y-55968D01*
X75271Y-55772D01*
X75361Y-55680D01*
X75270Y-55590D01*
X75189Y-55393D01*
X75189Y-55180D01*
X75271Y-54984D01*
X75361Y-54893D01*
X75270Y-54803D01*
X75189Y-54606D01*
X75189Y-54393D01*
X75271Y-54197D01*
X75361Y-54106D01*
X75270Y-54016D01*
X75189Y-53819D01*
X75189Y-53606D01*
X75271Y-53410D01*
X75361Y-53318D01*
X75270Y-53228D01*
X75189Y-53031D01*
X75189Y-52818D01*
X75271Y-52622D01*
X75361Y-52531D01*
X75270Y-52441D01*
X75189Y-52244D01*
X75189Y-52031D01*
X75271Y-51835D01*
X75361Y-51743D01*
X75270Y-51653D01*
X75189Y-51456D01*
X75189Y-51243D01*
X75271Y-51047D01*
X75361Y-50956D01*
X75270Y-50866D01*
X75189Y-50669D01*
X75189Y-50456D01*
X75271Y-50260D01*
X75361Y-50169D01*
X75270Y-50079D01*
X75189Y-49882D01*
X75189Y-49669D01*
X75271Y-49473D01*
X75361Y-49381D01*
X75270Y-49291D01*
X75189Y-49094D01*
X75189Y-48881D01*
X75271Y-48685D01*
X75421Y-48534D01*
X75618Y-48453D01*
X75831Y-48453D01*
X76027Y-48535D01*
X76178Y-48685D01*
X76259Y-48882D01*
X76259Y-49095D01*
X76177Y-49291D01*
X76086Y-49382D01*
X76178Y-49473D01*
X76259Y-49670D01*
X76259Y-49883D01*
X76177Y-50079D01*
X76086Y-50169D01*
X76178Y-50260D01*
X76259Y-50457D01*
X76259Y-50670D01*
X76177Y-50866D01*
X76086Y-50956D01*
X76178Y-51047D01*
X76259Y-51244D01*
X76259Y-51457D01*
X76177Y-51653D01*
X76086Y-51744D01*
X76178Y-51835D01*
X76259Y-52032D01*
X76259Y-52245D01*
X76177Y-52441D01*
X76086Y-52531D01*
X76178Y-52622D01*
X76259Y-52819D01*
X76259Y-53032D01*
X76177Y-53228D01*
X76086Y-53319D01*
X76178Y-53410D01*
X76259Y-53607D01*
X76259Y-53820D01*
X76177Y-54016D01*
X76086Y-54106D01*
X76178Y-54197D01*
X76259Y-54394D01*
X76259Y-54607D01*
X76177Y-54803D01*
X76086Y-54893D01*
X76178Y-54984D01*
X76259Y-55181D01*
X76259Y-55394D01*
X76177Y-55590D01*
X76086Y-55681D01*
X76178Y-55772D01*
X76259Y-55969D01*
X76259Y-56182D01*
X76177Y-56378D01*
X76027Y-56529D01*
X75830Y-56610D01*
X75617Y-56610D01*
X75617Y-60570D01*
X75815Y-60492D01*
X76215Y-60499D01*
X76581Y-60657D01*
X76658Y-60806D01*
X76000Y-61465D01*
X76000Y-61535D01*
X76658Y-62194D01*
X76581Y-62343D01*
X76556Y-62361D01*
X76185Y-62508D01*
X76185Y-63775D01*
X76694Y-63775D01*
X76694Y-62158D01*
X76035Y-61500D01*
X76694Y-60842D01*
X76843Y-60919D01*
X76861Y-60944D01*
X77008Y-61315D01*
X77001Y-61715D01*
X76843Y-62081D01*
X76694Y-62158D01*
X76694Y-63775D01*
X77775Y-63775D01*
M02*
