M48
;DRILL file {Pcbnew (2012-01-19 BZR 3256)-stable} date Sun 13 Jan 2013 10:48:53 GMT
;FORMAT={-:-/ absolute / inch / decimal}
FMAT,2
INCH,TZ
T1C0.023
T2C0.025
T3C0.032
T4C0.040
T5C0.043
T6C0.126
%
G90
G05
M72
T1
X6.654Y-3.347
X6.654Y-4.213
X6.732Y-3.347
X6.732Y-4.213
X6.811Y-3.347
X6.811Y-4.213
X6.890Y-3.347
X6.890Y-4.213
X6.969Y-3.347
X6.969Y-4.213
X7.047Y-3.347
X7.047Y-4.213
X7.126Y-3.347
X7.126Y-4.213
X7.205Y-3.347
X7.205Y-4.213
X7.283Y-3.347
X7.283Y-4.213
X7.362Y-3.347
X7.362Y-4.213
T2
X4.803Y-4.429
X5.055Y-3.630
X5.055Y-3.772
X5.118Y-3.721
X5.118Y-3.878
X5.197Y-4.370
X5.453Y-3.366
X5.453Y-3.764
X5.500Y-3.476
X5.500Y-3.764
X5.500Y-3.841
X5.535Y-3.441
X5.535Y-3.921
X5.563Y-4.118
X5.563Y-4.284
X5.575Y-3.409
X5.575Y-3.874
X5.610Y-3.327
X5.610Y-3.921
X5.713Y-3.429
X5.817Y-4.293
X5.835Y-3.850
X5.878Y-4.472
X5.913Y-4.752
X6.035Y-4.075
X6.118Y-3.634
X6.236Y-4.512
X6.252Y-3.264
X6.252Y-3.634
X6.307Y-4.752
X6.311Y-3.547
X6.405Y-4.343
X6.413Y-3.264
X7.043Y-3.256
X7.118Y-3.181
T3
X4.200Y-3.500
X4.200Y-4.100
X4.300Y-3.500
X4.300Y-4.100
X4.400Y-3.500
X4.400Y-4.100
X4.500Y-3.500
X4.500Y-4.100
X4.600Y-3.500
X4.600Y-4.100
X4.700Y-3.500
X4.700Y-4.100
X4.800Y-3.500
X4.800Y-4.100
X4.900Y-3.500
X4.900Y-4.100
T4
X4.201Y-3.386
X4.299Y-3.386
X4.488Y-3.386
X5.453Y-3.256
X5.500Y-4.350
X5.600Y-4.350
X5.724Y-4.532
X5.768Y-3.390
X5.815Y-3.614
X5.823Y-4.689
X6.067Y-3.839
X6.100Y-4.050
X6.100Y-4.150
X6.100Y-4.250
X6.200Y-4.050
X6.200Y-4.150
X6.200Y-4.250
X6.339Y-3.366
X6.398Y-3.583
X6.453Y-4.532
X7.248Y-4.398
X7.323Y-3.228
X7.449Y-4.398
X7.461Y-3.228
T5
X4.250Y-4.600
X4.350Y-4.600
X4.450Y-4.600
X4.550Y-4.600
X4.750Y-4.600
X4.850Y-4.600
X4.950Y-4.600
X5.050Y-4.600
X5.250Y-4.600
X5.350Y-4.600
X5.450Y-4.600
X5.550Y-4.600
X6.650Y-4.600
X6.750Y-4.600
X6.950Y-4.600
X7.050Y-4.600
X7.150Y-4.600
X7.250Y-4.600
X7.450Y-4.600
X7.550Y-4.600
T6
X4.055Y-3.228
X4.055Y-4.724
X7.756Y-3.228
X7.756Y-4.724
T0
M30
