G04 (created by PCBNEW-RS274X (2010-05-09 BZR 2366)-stable) date Sat 11 Sep 2010 14:18:10 BST*
G01*
G70*
G90*
%MOIN*%
G04 Gerber Fmt 3.4, Leading zero omitted, Abs format*
%FSLAX34Y34*%
G04 APERTURE LIST*
%ADD10C,0.006000*%
%ADD11C,0.015000*%
%ADD12C,0.075000*%
%ADD13R,0.098700X0.098700*%
%ADD14C,0.098700*%
%ADD15C,0.090000*%
%ADD16R,0.090000X0.090000*%
%ADD17R,0.075000X0.075000*%
%ADD18R,0.095000X0.095000*%
%ADD19C,0.095000*%
%ADD20C,0.065000*%
%ADD21C,0.080000*%
%ADD22C,0.082000*%
%ADD23R,0.082000X0.082000*%
%ADD24C,0.170000*%
%ADD25R,0.170000X0.170000*%
%ADD26R,0.120000X0.120000*%
%ADD27C,0.120000*%
G04 APERTURE END LIST*
G54D10*
G54D11*
X36000Y-44000D02*
X78000Y-44000D01*
X36000Y-64000D02*
X36000Y-44000D01*
X78000Y-64000D02*
X36000Y-64000D01*
X78000Y-44000D02*
X78000Y-64000D01*
G54D12*
X56000Y-53000D03*
X57000Y-53000D03*
X56000Y-54000D03*
X57000Y-54000D03*
X54000Y-46000D03*
X55000Y-46000D03*
X56000Y-46000D03*
X57000Y-46000D03*
X56000Y-47000D03*
X57000Y-47000D03*
G54D13*
X55500Y-57000D03*
G54D14*
X55500Y-58000D03*
G54D13*
X48500Y-57000D03*
G54D14*
X48500Y-58000D03*
G54D15*
X46000Y-58500D03*
G54D16*
X46000Y-54500D03*
G54D15*
X45000Y-54500D03*
G54D16*
X45000Y-58500D03*
G54D15*
X43500Y-58500D03*
G54D16*
X43500Y-54500D03*
G54D15*
X42500Y-54500D03*
G54D16*
X42500Y-58500D03*
G54D15*
X41000Y-58500D03*
G54D16*
X41000Y-54500D03*
G54D15*
X40000Y-54500D03*
G54D16*
X40000Y-58500D03*
G54D15*
X38500Y-58500D03*
G54D16*
X38500Y-54500D03*
G54D15*
X37500Y-54500D03*
G54D16*
X37500Y-58500D03*
G54D12*
X62000Y-48500D03*
X61000Y-48500D03*
X60000Y-48500D03*
X59000Y-48500D03*
X58000Y-48500D03*
X57000Y-48500D03*
X56000Y-48500D03*
X55000Y-48500D03*
X54000Y-48500D03*
X53000Y-48500D03*
X52000Y-48500D03*
X51000Y-48500D03*
X50000Y-48500D03*
G54D17*
X63000Y-48500D03*
G54D12*
X50000Y-51500D03*
X51000Y-51500D03*
X52000Y-51500D03*
X53000Y-51500D03*
X54000Y-51500D03*
X55000Y-51500D03*
X56000Y-51500D03*
X57000Y-51500D03*
X58000Y-51500D03*
X59000Y-51500D03*
X60000Y-51500D03*
X61000Y-51500D03*
X62000Y-51500D03*
X63000Y-51500D03*
G54D17*
X50500Y-56000D03*
G54D12*
X50500Y-57000D03*
X50500Y-58000D03*
X50500Y-59000D03*
X53500Y-59000D03*
X53500Y-58000D03*
X53500Y-57000D03*
X53500Y-56000D03*
G54D18*
X48500Y-55000D03*
G54D19*
X48500Y-53000D03*
G54D20*
X50000Y-46000D03*
G54D21*
X63000Y-47000D03*
X59000Y-47000D03*
G54D17*
X54000Y-47000D03*
G54D12*
X55000Y-47000D03*
G54D17*
X38500Y-52500D03*
G54D12*
X39500Y-52500D03*
X40500Y-52500D03*
X41500Y-52500D03*
X42500Y-52500D03*
X43500Y-52500D03*
X44500Y-52500D03*
X45500Y-52500D03*
X45500Y-45500D03*
X44500Y-45500D03*
X43500Y-45500D03*
X42500Y-45500D03*
X41500Y-45500D03*
X40500Y-45500D03*
X39500Y-45500D03*
X38500Y-45500D03*
G54D21*
X54000Y-54000D03*
X52000Y-53500D03*
X54000Y-53000D03*
G54D22*
X67063Y-49776D03*
X67063Y-50563D03*
X67063Y-51350D03*
X67063Y-52138D03*
X67063Y-52925D03*
X67063Y-53713D03*
X67063Y-54500D03*
X67063Y-55287D03*
X67063Y-56075D03*
X75724Y-56075D03*
X75724Y-55287D03*
X75724Y-54500D03*
X75724Y-53713D03*
X75724Y-52925D03*
X75724Y-52138D03*
X75724Y-51350D03*
X75724Y-50563D03*
X75724Y-49776D03*
X75724Y-48988D03*
G54D23*
X67063Y-48988D03*
G54D24*
X49000Y-61500D03*
X51000Y-61500D03*
G54D25*
X47000Y-61500D03*
G54D24*
X53000Y-61500D03*
G54D26*
X65000Y-61500D03*
G54D27*
X67000Y-61500D03*
G54D24*
X72000Y-61500D03*
X74000Y-61500D03*
G54D25*
X70000Y-61500D03*
G54D24*
X76000Y-61500D03*
X58000Y-61500D03*
X60000Y-61500D03*
G54D25*
X56000Y-61500D03*
G54D24*
X62000Y-61500D03*
X40000Y-61500D03*
X42000Y-61500D03*
G54D25*
X38000Y-61500D03*
G54D24*
X44000Y-61500D03*
G54D17*
X51000Y-46000D03*
G54D12*
X51000Y-47000D03*
G54D17*
X59500Y-58000D03*
G54D12*
X58500Y-58000D03*
X58500Y-57000D03*
G54D17*
X60500Y-57000D03*
G54D12*
X61500Y-57000D03*
X61500Y-58000D03*
X64000Y-59000D03*
X63000Y-59000D03*
X63500Y-54000D03*
X64500Y-54000D03*
X60500Y-54000D03*
X61500Y-54000D03*
X59000Y-53000D03*
X60000Y-53000D03*
X62000Y-53000D03*
X63000Y-53000D03*
M02*
