G04 (created by PCBNEW-RS274X (2012-01-19 BZR 3256)-stable) date Sat 12 Jan 2013 17:49:39 GMT*
G01*
G70*
G90*
%MOIN*%
G04 Gerber Fmt 3.4, Leading zero omitted, Abs format*
%FSLAX34Y34*%
G04 APERTURE LIST*
%ADD10C,0.006000*%
%ADD11C,0.011300*%
%ADD12C,0.015000*%
%ADD13C,0.005100*%
%ADD14C,0.004700*%
%ADD15C,0.005000*%
%ADD16C,0.012000*%
%ADD17C,0.008000*%
%ADD18C,0.004900*%
%ADD19C,0.007900*%
G04 APERTURE END LIST*
G54D10*
G54D11*
X64420Y-41166D02*
X64163Y-41166D01*
X64291Y-41166D02*
X64291Y-40716D01*
X64248Y-40780D01*
X64206Y-40823D01*
X64163Y-40845D01*
X75820Y-36813D02*
X76420Y-36813D01*
X75992Y-36963D01*
X76420Y-37113D01*
X75820Y-37113D01*
X76420Y-37413D02*
X76420Y-37499D01*
X76392Y-37541D01*
X76334Y-37584D01*
X76220Y-37606D01*
X76020Y-37606D01*
X75906Y-37584D01*
X75849Y-37541D01*
X75820Y-37499D01*
X75820Y-37413D01*
X75849Y-37370D01*
X75906Y-37327D01*
X76020Y-37306D01*
X76220Y-37306D01*
X76334Y-37327D01*
X76392Y-37370D01*
X76420Y-37413D01*
X75820Y-37798D02*
X76420Y-37798D01*
X76420Y-37905D01*
X76392Y-37970D01*
X76334Y-38012D01*
X76277Y-38034D01*
X76163Y-38055D01*
X76077Y-38055D01*
X75963Y-38034D01*
X75906Y-38012D01*
X75849Y-37970D01*
X75820Y-37905D01*
X75820Y-37798D01*
X76363Y-38227D02*
X76392Y-38248D01*
X76420Y-38291D01*
X76420Y-38398D01*
X76392Y-38441D01*
X76363Y-38462D01*
X76306Y-38484D01*
X76249Y-38484D01*
X76163Y-38462D01*
X75820Y-38205D01*
X75820Y-38484D01*
X65554Y-36856D02*
X64954Y-37156D01*
X65554Y-37156D02*
X64954Y-36856D01*
X65268Y-37478D02*
X65240Y-37542D01*
X65211Y-37564D01*
X65154Y-37585D01*
X65068Y-37585D01*
X65011Y-37564D01*
X64983Y-37542D01*
X64954Y-37500D01*
X64954Y-37328D01*
X65554Y-37328D01*
X65554Y-37478D01*
X65526Y-37521D01*
X65497Y-37542D01*
X65440Y-37564D01*
X65383Y-37564D01*
X65326Y-37542D01*
X65297Y-37521D01*
X65268Y-37478D01*
X65268Y-37328D01*
X65268Y-37778D02*
X65268Y-37928D01*
X64954Y-37992D02*
X64954Y-37778D01*
X65554Y-37778D01*
X65554Y-37992D01*
X65268Y-38185D02*
X65268Y-38335D01*
X64954Y-38399D02*
X64954Y-38185D01*
X65554Y-38185D01*
X65554Y-38399D01*
G54D12*
X74409Y-32678D02*
X76771Y-35827D01*
X76771Y-35827D02*
X76771Y-39764D01*
X76771Y-39764D02*
X74409Y-42914D01*
X74409Y-42914D02*
X64548Y-42914D01*
X64548Y-42914D02*
X64548Y-32678D01*
X64548Y-32678D02*
X74409Y-32678D01*
G54D13*
X56811Y-37284D02*
X56811Y-39882D01*
X56811Y-39882D02*
X54213Y-39882D01*
X54213Y-39882D02*
X54213Y-37481D01*
X54213Y-37481D02*
X54410Y-37284D01*
X54410Y-37284D02*
X56811Y-37284D01*
X54740Y-37614D02*
X54736Y-37650D01*
X54725Y-37685D01*
X54708Y-37718D01*
X54685Y-37746D01*
X54657Y-37769D01*
X54624Y-37787D01*
X54589Y-37798D01*
X54553Y-37801D01*
X54517Y-37798D01*
X54482Y-37788D01*
X54450Y-37771D01*
X54421Y-37748D01*
X54397Y-37720D01*
X54380Y-37688D01*
X54369Y-37653D01*
X54365Y-37616D01*
X54368Y-37581D01*
X54378Y-37545D01*
X54394Y-37513D01*
X54417Y-37484D01*
X54445Y-37460D01*
X54477Y-37442D01*
X54512Y-37431D01*
X54549Y-37427D01*
X54584Y-37429D01*
X54619Y-37439D01*
X54652Y-37456D01*
X54681Y-37478D01*
X54705Y-37506D01*
X54723Y-37538D01*
X54735Y-37573D01*
X54739Y-37609D01*
X54740Y-37614D01*
G54D12*
X60209Y-45587D02*
X60209Y-46611D01*
X61666Y-45587D02*
X62021Y-45587D01*
X62021Y-45587D02*
X62021Y-46611D01*
X60209Y-45587D02*
X60564Y-45587D01*
X61457Y-34763D02*
X61220Y-34763D01*
X61220Y-34763D02*
X61220Y-35039D01*
X62402Y-35039D02*
X62402Y-34763D01*
X62402Y-34763D02*
X62165Y-34763D01*
X62165Y-38071D02*
X62402Y-38071D01*
X62402Y-38071D02*
X62402Y-37795D01*
X61220Y-37795D02*
X61220Y-38071D01*
X61220Y-38071D02*
X61457Y-38071D01*
G54D14*
X44606Y-43267D02*
X44606Y-42559D01*
X44606Y-42559D02*
X45158Y-42559D01*
X45158Y-42559D02*
X45158Y-43267D01*
X45158Y-43267D02*
X44606Y-43267D01*
X44606Y-42716D02*
X45158Y-42716D01*
X48543Y-43267D02*
X48543Y-42559D01*
X48543Y-42559D02*
X49095Y-42559D01*
X49095Y-42559D02*
X49095Y-43267D01*
X49095Y-43267D02*
X48543Y-43267D01*
X48543Y-42716D02*
X49095Y-42716D01*
X48307Y-42559D02*
X48307Y-43267D01*
X48307Y-43267D02*
X47755Y-43267D01*
X47755Y-43267D02*
X47755Y-42559D01*
X47755Y-42559D02*
X48307Y-42559D01*
X48307Y-43110D02*
X47755Y-43110D01*
X46574Y-43267D02*
X46574Y-42559D01*
X46574Y-42559D02*
X47126Y-42559D01*
X47126Y-42559D02*
X47126Y-43267D01*
X47126Y-43267D02*
X46574Y-43267D01*
X46574Y-42716D02*
X47126Y-42716D01*
X46339Y-42559D02*
X46339Y-43267D01*
X46339Y-43267D02*
X45787Y-43267D01*
X45787Y-43267D02*
X45787Y-42559D01*
X45787Y-42559D02*
X46339Y-42559D01*
X46339Y-43110D02*
X45787Y-43110D01*
X44370Y-42559D02*
X44370Y-43267D01*
X44370Y-43267D02*
X43818Y-43267D01*
X43818Y-43267D02*
X43818Y-42559D01*
X43818Y-42559D02*
X44370Y-42559D01*
X44370Y-43110D02*
X43818Y-43110D01*
X42637Y-43267D02*
X42637Y-42559D01*
X42637Y-42559D02*
X43189Y-42559D01*
X43189Y-42559D02*
X43189Y-43267D01*
X43189Y-43267D02*
X42637Y-43267D01*
X42637Y-42716D02*
X43189Y-42716D01*
X42402Y-42559D02*
X42402Y-43267D01*
X42402Y-43267D02*
X41850Y-43267D01*
X41850Y-43267D02*
X41850Y-42559D01*
X41850Y-42559D02*
X42402Y-42559D01*
X42402Y-43110D02*
X41850Y-43110D01*
G54D15*
X58858Y-45371D02*
X58857Y-45380D01*
X58854Y-45390D01*
X58849Y-45398D01*
X58843Y-45406D01*
X58835Y-45412D01*
X58827Y-45417D01*
X58818Y-45419D01*
X58808Y-45420D01*
X58799Y-45420D01*
X58790Y-45417D01*
X58781Y-45412D01*
X58774Y-45406D01*
X58767Y-45399D01*
X58763Y-45390D01*
X58760Y-45381D01*
X58759Y-45371D01*
X58759Y-45362D01*
X58762Y-45353D01*
X58766Y-45344D01*
X58773Y-45337D01*
X58780Y-45330D01*
X58788Y-45326D01*
X58798Y-45323D01*
X58807Y-45322D01*
X58816Y-45322D01*
X58826Y-45325D01*
X58834Y-45329D01*
X58842Y-45335D01*
X58848Y-45343D01*
X58853Y-45351D01*
X58856Y-45360D01*
X58857Y-45370D01*
X58858Y-45371D01*
X58808Y-45821D02*
X58808Y-45421D01*
X58808Y-45421D02*
X59486Y-45421D01*
X59486Y-45420D02*
X59486Y-45820D01*
X59486Y-46377D02*
X59486Y-46777D01*
X59486Y-46777D02*
X58808Y-46777D01*
X58808Y-46778D02*
X58808Y-46378D01*
X60227Y-36275D02*
X60226Y-36284D01*
X60223Y-36294D01*
X60218Y-36302D01*
X60212Y-36310D01*
X60204Y-36316D01*
X60196Y-36321D01*
X60187Y-36323D01*
X60177Y-36324D01*
X60168Y-36324D01*
X60159Y-36321D01*
X60150Y-36316D01*
X60143Y-36310D01*
X60136Y-36303D01*
X60132Y-36294D01*
X60129Y-36285D01*
X60128Y-36275D01*
X60128Y-36266D01*
X60131Y-36257D01*
X60135Y-36248D01*
X60142Y-36241D01*
X60149Y-36234D01*
X60157Y-36230D01*
X60167Y-36227D01*
X60176Y-36226D01*
X60185Y-36226D01*
X60195Y-36229D01*
X60203Y-36233D01*
X60211Y-36239D01*
X60217Y-36247D01*
X60222Y-36255D01*
X60225Y-36264D01*
X60226Y-36274D01*
X60227Y-36275D01*
X59727Y-36275D02*
X60127Y-36275D01*
X60127Y-36275D02*
X60127Y-36953D01*
X60128Y-36953D02*
X59728Y-36953D01*
X59171Y-36953D02*
X58771Y-36953D01*
X58771Y-36953D02*
X58771Y-36275D01*
X58770Y-36275D02*
X59170Y-36275D01*
X51291Y-36166D02*
X51290Y-36175D01*
X51287Y-36185D01*
X51282Y-36193D01*
X51276Y-36201D01*
X51268Y-36207D01*
X51260Y-36212D01*
X51251Y-36214D01*
X51241Y-36215D01*
X51232Y-36215D01*
X51223Y-36212D01*
X51214Y-36207D01*
X51207Y-36201D01*
X51200Y-36194D01*
X51196Y-36185D01*
X51193Y-36176D01*
X51192Y-36166D01*
X51192Y-36157D01*
X51195Y-36148D01*
X51199Y-36139D01*
X51206Y-36132D01*
X51213Y-36125D01*
X51221Y-36121D01*
X51231Y-36118D01*
X51240Y-36117D01*
X51249Y-36117D01*
X51259Y-36120D01*
X51267Y-36124D01*
X51275Y-36130D01*
X51281Y-36138D01*
X51286Y-36146D01*
X51289Y-36155D01*
X51290Y-36165D01*
X51291Y-36166D01*
X51691Y-36166D02*
X51291Y-36166D01*
X51291Y-36166D02*
X51291Y-35488D01*
X51290Y-35488D02*
X51690Y-35488D01*
X52247Y-35488D02*
X52647Y-35488D01*
X52647Y-35488D02*
X52647Y-36166D01*
X52648Y-36166D02*
X52248Y-36166D01*
X58771Y-35772D02*
X58770Y-35781D01*
X58767Y-35791D01*
X58762Y-35799D01*
X58756Y-35807D01*
X58748Y-35813D01*
X58740Y-35818D01*
X58731Y-35820D01*
X58721Y-35821D01*
X58712Y-35821D01*
X58703Y-35818D01*
X58694Y-35813D01*
X58687Y-35807D01*
X58680Y-35800D01*
X58676Y-35791D01*
X58673Y-35782D01*
X58672Y-35772D01*
X58672Y-35763D01*
X58675Y-35754D01*
X58679Y-35745D01*
X58686Y-35738D01*
X58693Y-35731D01*
X58701Y-35727D01*
X58711Y-35724D01*
X58720Y-35723D01*
X58729Y-35723D01*
X58739Y-35726D01*
X58747Y-35730D01*
X58755Y-35736D01*
X58761Y-35744D01*
X58766Y-35752D01*
X58769Y-35761D01*
X58770Y-35771D01*
X58771Y-35772D01*
X59171Y-35772D02*
X58771Y-35772D01*
X58771Y-35772D02*
X58771Y-35094D01*
X58770Y-35094D02*
X59170Y-35094D01*
X59727Y-35094D02*
X60127Y-35094D01*
X60127Y-35094D02*
X60127Y-35772D01*
X60128Y-35772D02*
X59728Y-35772D01*
X62589Y-39031D02*
X62588Y-39040D01*
X62585Y-39050D01*
X62580Y-39058D01*
X62574Y-39066D01*
X62566Y-39072D01*
X62558Y-39077D01*
X62549Y-39079D01*
X62539Y-39080D01*
X62530Y-39080D01*
X62521Y-39077D01*
X62512Y-39072D01*
X62505Y-39066D01*
X62498Y-39059D01*
X62494Y-39050D01*
X62491Y-39041D01*
X62490Y-39031D01*
X62490Y-39022D01*
X62493Y-39013D01*
X62497Y-39004D01*
X62504Y-38997D01*
X62511Y-38990D01*
X62519Y-38986D01*
X62529Y-38983D01*
X62538Y-38982D01*
X62547Y-38982D01*
X62557Y-38985D01*
X62565Y-38989D01*
X62573Y-38995D01*
X62579Y-39003D01*
X62584Y-39011D01*
X62587Y-39020D01*
X62588Y-39030D01*
X62589Y-39031D01*
X62089Y-39031D02*
X62489Y-39031D01*
X62489Y-39031D02*
X62489Y-39709D01*
X62490Y-39709D02*
X62090Y-39709D01*
X61533Y-39709D02*
X61133Y-39709D01*
X61133Y-39709D02*
X61133Y-39031D01*
X61132Y-39031D02*
X61532Y-39031D01*
X58771Y-38134D02*
X58770Y-38143D01*
X58767Y-38153D01*
X58762Y-38161D01*
X58756Y-38169D01*
X58748Y-38175D01*
X58740Y-38180D01*
X58731Y-38182D01*
X58721Y-38183D01*
X58712Y-38183D01*
X58703Y-38180D01*
X58694Y-38175D01*
X58687Y-38169D01*
X58680Y-38162D01*
X58676Y-38153D01*
X58673Y-38144D01*
X58672Y-38134D01*
X58672Y-38125D01*
X58675Y-38116D01*
X58679Y-38107D01*
X58686Y-38100D01*
X58693Y-38093D01*
X58701Y-38089D01*
X58711Y-38086D01*
X58720Y-38085D01*
X58729Y-38085D01*
X58739Y-38088D01*
X58747Y-38092D01*
X58755Y-38098D01*
X58761Y-38106D01*
X58766Y-38114D01*
X58769Y-38123D01*
X58770Y-38133D01*
X58771Y-38134D01*
X59171Y-38134D02*
X58771Y-38134D01*
X58771Y-38134D02*
X58771Y-37456D01*
X58770Y-37456D02*
X59170Y-37456D01*
X59727Y-37456D02*
X60127Y-37456D01*
X60127Y-37456D02*
X60127Y-38134D01*
X60128Y-38134D02*
X59728Y-38134D01*
X60227Y-38637D02*
X60226Y-38646D01*
X60223Y-38656D01*
X60218Y-38664D01*
X60212Y-38672D01*
X60204Y-38678D01*
X60196Y-38683D01*
X60187Y-38685D01*
X60177Y-38686D01*
X60168Y-38686D01*
X60159Y-38683D01*
X60150Y-38678D01*
X60143Y-38672D01*
X60136Y-38665D01*
X60132Y-38656D01*
X60129Y-38647D01*
X60128Y-38637D01*
X60128Y-38628D01*
X60131Y-38619D01*
X60135Y-38610D01*
X60142Y-38603D01*
X60149Y-38596D01*
X60157Y-38592D01*
X60167Y-38589D01*
X60176Y-38588D01*
X60185Y-38588D01*
X60195Y-38591D01*
X60203Y-38595D01*
X60211Y-38601D01*
X60217Y-38609D01*
X60222Y-38617D01*
X60225Y-38626D01*
X60226Y-38636D01*
X60227Y-38637D01*
X59727Y-38637D02*
X60127Y-38637D01*
X60127Y-38637D02*
X60127Y-39315D01*
X60128Y-39315D02*
X59728Y-39315D01*
X59171Y-39315D02*
X58771Y-39315D01*
X58771Y-39315D02*
X58771Y-38637D01*
X58770Y-38637D02*
X59170Y-38637D01*
X60227Y-42181D02*
X60226Y-42190D01*
X60223Y-42200D01*
X60218Y-42208D01*
X60212Y-42216D01*
X60204Y-42222D01*
X60196Y-42227D01*
X60187Y-42229D01*
X60177Y-42230D01*
X60168Y-42230D01*
X60159Y-42227D01*
X60150Y-42222D01*
X60143Y-42216D01*
X60136Y-42209D01*
X60132Y-42200D01*
X60129Y-42191D01*
X60128Y-42181D01*
X60128Y-42172D01*
X60131Y-42163D01*
X60135Y-42154D01*
X60142Y-42147D01*
X60149Y-42140D01*
X60157Y-42136D01*
X60167Y-42133D01*
X60176Y-42132D01*
X60185Y-42132D01*
X60195Y-42135D01*
X60203Y-42139D01*
X60211Y-42145D01*
X60217Y-42153D01*
X60222Y-42161D01*
X60225Y-42170D01*
X60226Y-42180D01*
X60227Y-42181D01*
X59727Y-42181D02*
X60127Y-42181D01*
X60127Y-42181D02*
X60127Y-42859D01*
X60128Y-42859D02*
X59728Y-42859D01*
X59171Y-42859D02*
X58771Y-42859D01*
X58771Y-42859D02*
X58771Y-42181D01*
X58770Y-42181D02*
X59170Y-42181D01*
X62795Y-45371D02*
X62794Y-45380D01*
X62791Y-45390D01*
X62786Y-45398D01*
X62780Y-45406D01*
X62772Y-45412D01*
X62764Y-45417D01*
X62755Y-45419D01*
X62745Y-45420D01*
X62736Y-45420D01*
X62727Y-45417D01*
X62718Y-45412D01*
X62711Y-45406D01*
X62704Y-45399D01*
X62700Y-45390D01*
X62697Y-45381D01*
X62696Y-45371D01*
X62696Y-45362D01*
X62699Y-45353D01*
X62703Y-45344D01*
X62710Y-45337D01*
X62717Y-45330D01*
X62725Y-45326D01*
X62735Y-45323D01*
X62744Y-45322D01*
X62753Y-45322D01*
X62763Y-45325D01*
X62771Y-45329D01*
X62779Y-45335D01*
X62785Y-45343D01*
X62790Y-45351D01*
X62793Y-45360D01*
X62794Y-45370D01*
X62795Y-45371D01*
X62745Y-45821D02*
X62745Y-45421D01*
X62745Y-45421D02*
X63423Y-45421D01*
X63423Y-45420D02*
X63423Y-45820D01*
X63423Y-46377D02*
X63423Y-46777D01*
X63423Y-46777D02*
X62745Y-46777D01*
X62745Y-46778D02*
X62745Y-46378D01*
X58771Y-40496D02*
X58770Y-40505D01*
X58767Y-40515D01*
X58762Y-40523D01*
X58756Y-40531D01*
X58748Y-40537D01*
X58740Y-40542D01*
X58731Y-40544D01*
X58721Y-40545D01*
X58712Y-40545D01*
X58703Y-40542D01*
X58694Y-40537D01*
X58687Y-40531D01*
X58680Y-40524D01*
X58676Y-40515D01*
X58673Y-40506D01*
X58672Y-40496D01*
X58672Y-40487D01*
X58675Y-40478D01*
X58679Y-40469D01*
X58686Y-40462D01*
X58693Y-40455D01*
X58701Y-40451D01*
X58711Y-40448D01*
X58720Y-40447D01*
X58729Y-40447D01*
X58739Y-40450D01*
X58747Y-40454D01*
X58755Y-40460D01*
X58761Y-40468D01*
X58766Y-40476D01*
X58769Y-40485D01*
X58770Y-40495D01*
X58771Y-40496D01*
X59171Y-40496D02*
X58771Y-40496D01*
X58771Y-40496D02*
X58771Y-39818D01*
X58770Y-39818D02*
X59170Y-39818D01*
X59727Y-39818D02*
X60127Y-39818D01*
X60127Y-39818D02*
X60127Y-40496D01*
X60128Y-40496D02*
X59728Y-40496D01*
X51570Y-44035D02*
X51569Y-44044D01*
X51566Y-44054D01*
X51561Y-44062D01*
X51555Y-44070D01*
X51547Y-44076D01*
X51539Y-44081D01*
X51530Y-44083D01*
X51520Y-44084D01*
X51511Y-44084D01*
X51502Y-44081D01*
X51493Y-44076D01*
X51486Y-44070D01*
X51479Y-44063D01*
X51475Y-44054D01*
X51472Y-44045D01*
X51471Y-44035D01*
X51471Y-44026D01*
X51474Y-44017D01*
X51478Y-44008D01*
X51485Y-44001D01*
X51492Y-43994D01*
X51500Y-43990D01*
X51510Y-43987D01*
X51519Y-43986D01*
X51528Y-43986D01*
X51538Y-43989D01*
X51546Y-43993D01*
X51554Y-43999D01*
X51560Y-44007D01*
X51565Y-44015D01*
X51568Y-44024D01*
X51569Y-44034D01*
X51570Y-44035D01*
X51520Y-43585D02*
X51520Y-43985D01*
X51520Y-43985D02*
X50842Y-43985D01*
X50842Y-43986D02*
X50842Y-43586D01*
X50842Y-43029D02*
X50842Y-42629D01*
X50842Y-42629D02*
X51520Y-42629D01*
X51520Y-42628D02*
X51520Y-43028D01*
X52358Y-40098D02*
X52357Y-40107D01*
X52354Y-40117D01*
X52349Y-40125D01*
X52343Y-40133D01*
X52335Y-40139D01*
X52327Y-40144D01*
X52318Y-40146D01*
X52308Y-40147D01*
X52299Y-40147D01*
X52290Y-40144D01*
X52281Y-40139D01*
X52274Y-40133D01*
X52267Y-40126D01*
X52263Y-40117D01*
X52260Y-40108D01*
X52259Y-40098D01*
X52259Y-40089D01*
X52262Y-40080D01*
X52266Y-40071D01*
X52273Y-40064D01*
X52280Y-40057D01*
X52288Y-40053D01*
X52298Y-40050D01*
X52307Y-40049D01*
X52316Y-40049D01*
X52326Y-40052D01*
X52334Y-40056D01*
X52342Y-40062D01*
X52348Y-40070D01*
X52353Y-40078D01*
X52356Y-40087D01*
X52357Y-40097D01*
X52358Y-40098D01*
X52308Y-39648D02*
X52308Y-40048D01*
X52308Y-40048D02*
X51630Y-40048D01*
X51630Y-40049D02*
X51630Y-39649D01*
X51630Y-39092D02*
X51630Y-38692D01*
X51630Y-38692D02*
X52308Y-38692D01*
X52308Y-38691D02*
X52308Y-39091D01*
X53145Y-44035D02*
X53144Y-44044D01*
X53141Y-44054D01*
X53136Y-44062D01*
X53130Y-44070D01*
X53122Y-44076D01*
X53114Y-44081D01*
X53105Y-44083D01*
X53095Y-44084D01*
X53086Y-44084D01*
X53077Y-44081D01*
X53068Y-44076D01*
X53061Y-44070D01*
X53054Y-44063D01*
X53050Y-44054D01*
X53047Y-44045D01*
X53046Y-44035D01*
X53046Y-44026D01*
X53049Y-44017D01*
X53053Y-44008D01*
X53060Y-44001D01*
X53067Y-43994D01*
X53075Y-43990D01*
X53085Y-43987D01*
X53094Y-43986D01*
X53103Y-43986D01*
X53113Y-43989D01*
X53121Y-43993D01*
X53129Y-43999D01*
X53135Y-44007D01*
X53140Y-44015D01*
X53143Y-44024D01*
X53144Y-44034D01*
X53145Y-44035D01*
X53095Y-43585D02*
X53095Y-43985D01*
X53095Y-43985D02*
X52417Y-43985D01*
X52417Y-43986D02*
X52417Y-43586D01*
X52417Y-43029D02*
X52417Y-42629D01*
X52417Y-42629D02*
X53095Y-42629D01*
X53095Y-42628D02*
X53095Y-43028D01*
X52358Y-38130D02*
X52357Y-38139D01*
X52354Y-38149D01*
X52349Y-38157D01*
X52343Y-38165D01*
X52335Y-38171D01*
X52327Y-38176D01*
X52318Y-38178D01*
X52308Y-38179D01*
X52299Y-38179D01*
X52290Y-38176D01*
X52281Y-38171D01*
X52274Y-38165D01*
X52267Y-38158D01*
X52263Y-38149D01*
X52260Y-38140D01*
X52259Y-38130D01*
X52259Y-38121D01*
X52262Y-38112D01*
X52266Y-38103D01*
X52273Y-38096D01*
X52280Y-38089D01*
X52288Y-38085D01*
X52298Y-38082D01*
X52307Y-38081D01*
X52316Y-38081D01*
X52326Y-38084D01*
X52334Y-38088D01*
X52342Y-38094D01*
X52348Y-38102D01*
X52353Y-38110D01*
X52356Y-38119D01*
X52357Y-38129D01*
X52358Y-38130D01*
X52308Y-37680D02*
X52308Y-38080D01*
X52308Y-38080D02*
X51630Y-38080D01*
X51630Y-38081D02*
X51630Y-37681D01*
X51630Y-37124D02*
X51630Y-36724D01*
X51630Y-36724D02*
X52308Y-36724D01*
X52308Y-36723D02*
X52308Y-37123D01*
X58771Y-41678D02*
X58770Y-41687D01*
X58767Y-41697D01*
X58762Y-41705D01*
X58756Y-41713D01*
X58748Y-41719D01*
X58740Y-41724D01*
X58731Y-41726D01*
X58721Y-41727D01*
X58712Y-41727D01*
X58703Y-41724D01*
X58694Y-41719D01*
X58687Y-41713D01*
X58680Y-41706D01*
X58676Y-41697D01*
X58673Y-41688D01*
X58672Y-41678D01*
X58672Y-41669D01*
X58675Y-41660D01*
X58679Y-41651D01*
X58686Y-41644D01*
X58693Y-41637D01*
X58701Y-41633D01*
X58711Y-41630D01*
X58720Y-41629D01*
X58729Y-41629D01*
X58739Y-41632D01*
X58747Y-41636D01*
X58755Y-41642D01*
X58761Y-41650D01*
X58766Y-41658D01*
X58769Y-41667D01*
X58770Y-41677D01*
X58771Y-41678D01*
X59171Y-41678D02*
X58771Y-41678D01*
X58771Y-41678D02*
X58771Y-41000D01*
X58770Y-41000D02*
X59170Y-41000D01*
X59727Y-41000D02*
X60127Y-41000D01*
X60127Y-41000D02*
X60127Y-41678D01*
X60128Y-41678D02*
X59728Y-41678D01*
X51419Y-41639D02*
X51419Y-42239D01*
X51419Y-42239D02*
X52519Y-42239D01*
X52519Y-42239D02*
X52519Y-41639D01*
X52519Y-41039D02*
X52519Y-40439D01*
X52519Y-40439D02*
X51419Y-40439D01*
X51419Y-40439D02*
X51419Y-41039D01*
G54D16*
X51900Y-44700D02*
X51900Y-47300D01*
X56100Y-47300D02*
X56100Y-44700D01*
X51900Y-44700D02*
X56100Y-44700D01*
X56100Y-47300D02*
X51900Y-47300D01*
X68900Y-44700D02*
X68900Y-47300D01*
X73100Y-47300D02*
X73100Y-44700D01*
X68900Y-44700D02*
X73100Y-44700D01*
X73100Y-47300D02*
X68900Y-47300D01*
X41900Y-44700D02*
X41900Y-47300D01*
X46100Y-47300D02*
X46100Y-44700D01*
X41900Y-44700D02*
X46100Y-44700D01*
X46100Y-47300D02*
X41900Y-47300D01*
X46900Y-44700D02*
X46900Y-47300D01*
X51100Y-47300D02*
X51100Y-44700D01*
X46900Y-44700D02*
X51100Y-44700D01*
X51100Y-47300D02*
X46900Y-47300D01*
X73900Y-44700D02*
X73900Y-47300D01*
X76100Y-47300D02*
X76100Y-44700D01*
X73900Y-44700D02*
X76100Y-44700D01*
X76100Y-47300D02*
X73900Y-47300D01*
G54D17*
X61000Y-40500D02*
X64000Y-40500D01*
X64000Y-42500D02*
X61000Y-42500D01*
X61000Y-42500D02*
X61000Y-40500D01*
X64000Y-40500D02*
X64000Y-42500D01*
G54D10*
X54500Y-44000D02*
X54500Y-43000D01*
X54500Y-43000D02*
X56500Y-43000D01*
X56500Y-43000D02*
X56500Y-44000D01*
X56500Y-44000D02*
X54500Y-44000D01*
G54D16*
X65900Y-44700D02*
X65900Y-47300D01*
X68100Y-47300D02*
X68100Y-44700D01*
X65900Y-44700D02*
X68100Y-44700D01*
X68100Y-47300D02*
X65900Y-47300D01*
G54D12*
X50000Y-41500D02*
X50000Y-34500D01*
X41000Y-34500D02*
X41000Y-41500D01*
X41000Y-34500D02*
X50000Y-34500D01*
X50000Y-41500D02*
X41000Y-41500D01*
X59174Y-33937D02*
X59174Y-34371D01*
X59174Y-34371D02*
X60512Y-34371D01*
X59174Y-32993D02*
X59174Y-32559D01*
X59174Y-32559D02*
X60512Y-32559D01*
G54D10*
X57177Y-34398D02*
X57177Y-33398D01*
X57177Y-33398D02*
X58177Y-33398D01*
X58177Y-33398D02*
X58177Y-34398D01*
X58177Y-34398D02*
X57177Y-34398D01*
X56744Y-45815D02*
X56744Y-44815D01*
X56744Y-44815D02*
X57744Y-44815D01*
X57744Y-44815D02*
X57744Y-45815D01*
X57744Y-45815D02*
X56744Y-45815D01*
X64028Y-45815D02*
X64028Y-44815D01*
X64028Y-44815D02*
X65028Y-44815D01*
X65028Y-44815D02*
X65028Y-45815D01*
X65028Y-45815D02*
X64028Y-45815D01*
X57728Y-47390D02*
X57728Y-46390D01*
X57728Y-46390D02*
X58728Y-46390D01*
X58728Y-46390D02*
X58728Y-47390D01*
X58728Y-47390D02*
X57728Y-47390D01*
X57650Y-36642D02*
X57650Y-35642D01*
X57650Y-35642D02*
X58650Y-35642D01*
X58650Y-35642D02*
X58650Y-36642D01*
X58650Y-36642D02*
X57650Y-36642D01*
X73988Y-44476D02*
X73988Y-43476D01*
X73988Y-43476D02*
X74988Y-43476D01*
X74988Y-43476D02*
X74988Y-44476D01*
X74988Y-44476D02*
X73988Y-44476D01*
X62886Y-34161D02*
X62886Y-33161D01*
X62886Y-33161D02*
X63886Y-33161D01*
X63886Y-33161D02*
X63886Y-34161D01*
X63886Y-34161D02*
X62886Y-34161D01*
X54028Y-33059D02*
X54028Y-32059D01*
X54028Y-32059D02*
X55028Y-32059D01*
X55028Y-32059D02*
X55028Y-33059D01*
X55028Y-33059D02*
X54028Y-33059D01*
X44382Y-34358D02*
X44382Y-33358D01*
X44382Y-33358D02*
X45382Y-33358D01*
X45382Y-33358D02*
X45382Y-34358D01*
X45382Y-34358D02*
X44382Y-34358D01*
X41508Y-34358D02*
X41508Y-33358D01*
X41508Y-33358D02*
X42508Y-33358D01*
X42508Y-33358D02*
X42508Y-34358D01*
X42508Y-34358D02*
X41508Y-34358D01*
X42492Y-34358D02*
X42492Y-33358D01*
X42492Y-33358D02*
X43492Y-33358D01*
X43492Y-33358D02*
X43492Y-34358D01*
X43492Y-34358D02*
X42492Y-34358D01*
X60169Y-38886D02*
X60169Y-37886D01*
X60169Y-37886D02*
X61169Y-37886D01*
X61169Y-37886D02*
X61169Y-38886D01*
X61169Y-38886D02*
X60169Y-38886D01*
X74106Y-32783D02*
X74106Y-31783D01*
X74106Y-31783D02*
X75106Y-31783D01*
X75106Y-31783D02*
X75106Y-32783D01*
X75106Y-32783D02*
X74106Y-32783D01*
X72728Y-32783D02*
X72728Y-31783D01*
X72728Y-31783D02*
X73728Y-31783D01*
X73728Y-31783D02*
X73728Y-32783D01*
X73728Y-32783D02*
X72728Y-32783D01*
X63476Y-36327D02*
X63476Y-35327D01*
X63476Y-35327D02*
X64476Y-35327D01*
X64476Y-35327D02*
X64476Y-36327D01*
X64476Y-36327D02*
X63476Y-36327D01*
X71980Y-44476D02*
X71980Y-43476D01*
X71980Y-43476D02*
X72980Y-43476D01*
X72980Y-43476D02*
X72980Y-44476D01*
X72980Y-44476D02*
X71980Y-44476D01*
G54D17*
X55207Y-35804D02*
X55207Y-36209D01*
X55226Y-36257D01*
X55245Y-36281D01*
X55283Y-36304D01*
X55360Y-36304D01*
X55398Y-36281D01*
X55417Y-36257D01*
X55436Y-36209D01*
X55436Y-35804D01*
X55607Y-35852D02*
X55626Y-35828D01*
X55664Y-35804D01*
X55760Y-35804D01*
X55798Y-35828D01*
X55817Y-35852D01*
X55836Y-35900D01*
X55836Y-35947D01*
X55817Y-36019D01*
X55588Y-36304D01*
X55836Y-36304D01*
G54D18*
X60905Y-44636D02*
X60905Y-44859D01*
X60918Y-44885D01*
X60931Y-44899D01*
X60957Y-44912D01*
X61010Y-44912D01*
X61036Y-44899D01*
X61049Y-44885D01*
X61062Y-44859D01*
X61062Y-44636D01*
X61338Y-44912D02*
X61181Y-44912D01*
X61259Y-44912D02*
X61259Y-44636D01*
X61233Y-44675D01*
X61207Y-44701D01*
X61181Y-44715D01*
G54D19*
X60718Y-35196D02*
X60688Y-35181D01*
X60658Y-35151D01*
X60613Y-35106D01*
X60583Y-35091D01*
X60553Y-35091D01*
X60568Y-35166D02*
X60538Y-35151D01*
X60508Y-35121D01*
X60493Y-35061D01*
X60493Y-34956D01*
X60508Y-34896D01*
X60538Y-34866D01*
X60568Y-34851D01*
X60628Y-34851D01*
X60658Y-34866D01*
X60688Y-34896D01*
X60703Y-34956D01*
X60703Y-35061D01*
X60688Y-35121D01*
X60658Y-35151D01*
X60628Y-35166D01*
X60568Y-35166D01*
X61003Y-35166D02*
X60823Y-35166D01*
X60913Y-35166D02*
X60913Y-34851D01*
X60883Y-34896D01*
X60853Y-34926D01*
X60823Y-34941D01*
X62805Y-37913D02*
X62775Y-37898D01*
X62745Y-37868D01*
X62700Y-37823D01*
X62670Y-37808D01*
X62640Y-37808D01*
X62655Y-37883D02*
X62625Y-37868D01*
X62595Y-37838D01*
X62580Y-37778D01*
X62580Y-37673D01*
X62595Y-37613D01*
X62625Y-37583D01*
X62655Y-37568D01*
X62715Y-37568D01*
X62745Y-37583D01*
X62775Y-37613D01*
X62790Y-37673D01*
X62790Y-37778D01*
X62775Y-37838D01*
X62745Y-37868D01*
X62715Y-37883D01*
X62655Y-37883D01*
X62910Y-37598D02*
X62925Y-37583D01*
X62955Y-37568D01*
X63030Y-37568D01*
X63060Y-37583D01*
X63075Y-37598D01*
X63090Y-37628D01*
X63090Y-37658D01*
X63075Y-37703D01*
X62895Y-37883D01*
X63090Y-37883D01*
G54D15*
X43802Y-43097D02*
X43552Y-43097D01*
X43552Y-43038D01*
X43564Y-43002D01*
X43588Y-42978D01*
X43612Y-42967D01*
X43659Y-42955D01*
X43695Y-42955D01*
X43743Y-42967D01*
X43766Y-42978D01*
X43790Y-43002D01*
X43802Y-43038D01*
X43802Y-43097D01*
X43636Y-42740D02*
X43802Y-42740D01*
X43540Y-42800D02*
X43719Y-42859D01*
X43719Y-42705D01*
X47739Y-43097D02*
X47489Y-43097D01*
X47489Y-43038D01*
X47501Y-43002D01*
X47525Y-42978D01*
X47549Y-42967D01*
X47596Y-42955D01*
X47632Y-42955D01*
X47680Y-42967D01*
X47703Y-42978D01*
X47727Y-43002D01*
X47739Y-43038D01*
X47739Y-43097D01*
X47596Y-42812D02*
X47584Y-42836D01*
X47573Y-42847D01*
X47549Y-42859D01*
X47537Y-42859D01*
X47513Y-42847D01*
X47501Y-42836D01*
X47489Y-42812D01*
X47489Y-42764D01*
X47501Y-42740D01*
X47513Y-42728D01*
X47537Y-42717D01*
X47549Y-42717D01*
X47573Y-42728D01*
X47584Y-42740D01*
X47596Y-42764D01*
X47596Y-42812D01*
X47608Y-42836D01*
X47620Y-42847D01*
X47644Y-42859D01*
X47692Y-42859D01*
X47715Y-42847D01*
X47727Y-42836D01*
X47739Y-42812D01*
X47739Y-42764D01*
X47727Y-42740D01*
X47715Y-42728D01*
X47692Y-42717D01*
X47644Y-42717D01*
X47620Y-42728D01*
X47608Y-42740D01*
X47596Y-42764D01*
X49392Y-43097D02*
X49142Y-43097D01*
X49142Y-43038D01*
X49154Y-43002D01*
X49178Y-42978D01*
X49202Y-42967D01*
X49249Y-42955D01*
X49285Y-42955D01*
X49333Y-42967D01*
X49356Y-42978D01*
X49380Y-43002D01*
X49392Y-43038D01*
X49392Y-43097D01*
X49142Y-42871D02*
X49142Y-42705D01*
X49392Y-42812D01*
X45770Y-43097D02*
X45520Y-43097D01*
X45520Y-43038D01*
X45532Y-43002D01*
X45556Y-42978D01*
X45580Y-42967D01*
X45627Y-42955D01*
X45663Y-42955D01*
X45711Y-42967D01*
X45734Y-42978D01*
X45758Y-43002D01*
X45770Y-43038D01*
X45770Y-43097D01*
X45520Y-42740D02*
X45520Y-42788D01*
X45532Y-42812D01*
X45544Y-42824D01*
X45580Y-42847D01*
X45627Y-42859D01*
X45723Y-42859D01*
X45746Y-42847D01*
X45758Y-42836D01*
X45770Y-42812D01*
X45770Y-42764D01*
X45758Y-42740D01*
X45746Y-42728D01*
X45723Y-42717D01*
X45663Y-42717D01*
X45639Y-42728D01*
X45627Y-42740D01*
X45615Y-42764D01*
X45615Y-42812D01*
X45627Y-42836D01*
X45639Y-42847D01*
X45663Y-42859D01*
X47424Y-43097D02*
X47174Y-43097D01*
X47174Y-43038D01*
X47186Y-43002D01*
X47210Y-42978D01*
X47234Y-42967D01*
X47281Y-42955D01*
X47317Y-42955D01*
X47365Y-42967D01*
X47388Y-42978D01*
X47412Y-43002D01*
X47424Y-43038D01*
X47424Y-43097D01*
X47174Y-42728D02*
X47174Y-42847D01*
X47293Y-42859D01*
X47281Y-42847D01*
X47269Y-42824D01*
X47269Y-42764D01*
X47281Y-42740D01*
X47293Y-42728D01*
X47317Y-42717D01*
X47377Y-42717D01*
X47400Y-42728D01*
X47412Y-42740D01*
X47424Y-42764D01*
X47424Y-42824D01*
X47412Y-42847D01*
X47400Y-42859D01*
X45455Y-43097D02*
X45205Y-43097D01*
X45205Y-43038D01*
X45217Y-43002D01*
X45241Y-42978D01*
X45265Y-42967D01*
X45312Y-42955D01*
X45348Y-42955D01*
X45396Y-42967D01*
X45419Y-42978D01*
X45443Y-43002D01*
X45455Y-43038D01*
X45455Y-43097D01*
X45205Y-42871D02*
X45205Y-42717D01*
X45300Y-42800D01*
X45300Y-42764D01*
X45312Y-42740D01*
X45324Y-42728D01*
X45348Y-42717D01*
X45408Y-42717D01*
X45431Y-42728D01*
X45443Y-42740D01*
X45455Y-42764D01*
X45455Y-42836D01*
X45443Y-42859D01*
X45431Y-42871D01*
X41833Y-43097D02*
X41583Y-43097D01*
X41583Y-43038D01*
X41595Y-43002D01*
X41619Y-42978D01*
X41643Y-42967D01*
X41690Y-42955D01*
X41726Y-42955D01*
X41774Y-42967D01*
X41797Y-42978D01*
X41821Y-43002D01*
X41833Y-43038D01*
X41833Y-43097D01*
X41607Y-42859D02*
X41595Y-42847D01*
X41583Y-42824D01*
X41583Y-42764D01*
X41595Y-42740D01*
X41607Y-42728D01*
X41631Y-42717D01*
X41655Y-42717D01*
X41690Y-42728D01*
X41833Y-42871D01*
X41833Y-42717D01*
X43487Y-43097D02*
X43237Y-43097D01*
X43237Y-43038D01*
X43249Y-43002D01*
X43273Y-42978D01*
X43297Y-42967D01*
X43344Y-42955D01*
X43380Y-42955D01*
X43428Y-42967D01*
X43451Y-42978D01*
X43475Y-43002D01*
X43487Y-43038D01*
X43487Y-43097D01*
X43487Y-42717D02*
X43487Y-42859D01*
X43487Y-42788D02*
X43237Y-42788D01*
X43273Y-42812D01*
X43297Y-42836D01*
X43309Y-42859D01*
X59736Y-46141D02*
X59748Y-46153D01*
X59760Y-46188D01*
X59760Y-46212D01*
X59748Y-46248D01*
X59724Y-46272D01*
X59701Y-46283D01*
X59653Y-46295D01*
X59617Y-46295D01*
X59570Y-46283D01*
X59546Y-46272D01*
X59522Y-46248D01*
X59510Y-46212D01*
X59510Y-46188D01*
X59522Y-46153D01*
X59534Y-46141D01*
X59760Y-45903D02*
X59760Y-46045D01*
X59760Y-45974D02*
X59510Y-45974D01*
X59546Y-45998D01*
X59570Y-46022D01*
X59582Y-46045D01*
X59407Y-37227D02*
X59324Y-37108D01*
X59265Y-37227D02*
X59265Y-36977D01*
X59360Y-36977D01*
X59384Y-36989D01*
X59395Y-37001D01*
X59407Y-37025D01*
X59407Y-37061D01*
X59395Y-37084D01*
X59384Y-37096D01*
X59360Y-37108D01*
X59265Y-37108D01*
X59503Y-37001D02*
X59515Y-36989D01*
X59538Y-36977D01*
X59598Y-36977D01*
X59622Y-36989D01*
X59634Y-37001D01*
X59645Y-37025D01*
X59645Y-37049D01*
X59634Y-37084D01*
X59491Y-37227D01*
X59645Y-37227D01*
X51927Y-35416D02*
X51844Y-35297D01*
X51785Y-35416D02*
X51785Y-35166D01*
X51880Y-35166D01*
X51904Y-35178D01*
X51915Y-35190D01*
X51927Y-35214D01*
X51927Y-35250D01*
X51915Y-35273D01*
X51904Y-35285D01*
X51880Y-35297D01*
X51785Y-35297D01*
X52165Y-35416D02*
X52023Y-35416D01*
X52094Y-35416D02*
X52094Y-35166D01*
X52070Y-35202D01*
X52046Y-35226D01*
X52023Y-35238D01*
X59407Y-36046D02*
X59324Y-35927D01*
X59265Y-36046D02*
X59265Y-35796D01*
X59360Y-35796D01*
X59384Y-35808D01*
X59395Y-35820D01*
X59407Y-35844D01*
X59407Y-35880D01*
X59395Y-35903D01*
X59384Y-35915D01*
X59360Y-35927D01*
X59265Y-35927D01*
X59491Y-35796D02*
X59645Y-35796D01*
X59562Y-35891D01*
X59598Y-35891D01*
X59622Y-35903D01*
X59634Y-35915D01*
X59645Y-35939D01*
X59645Y-35999D01*
X59634Y-36022D01*
X59622Y-36034D01*
X59598Y-36046D01*
X59526Y-36046D01*
X59503Y-36034D01*
X59491Y-36022D01*
X61769Y-39983D02*
X61686Y-39864D01*
X61627Y-39983D02*
X61627Y-39733D01*
X61722Y-39733D01*
X61746Y-39745D01*
X61757Y-39757D01*
X61769Y-39781D01*
X61769Y-39817D01*
X61757Y-39840D01*
X61746Y-39852D01*
X61722Y-39864D01*
X61627Y-39864D01*
X61984Y-39817D02*
X61984Y-39983D01*
X61924Y-39721D02*
X61865Y-39900D01*
X62019Y-39900D01*
X59407Y-38408D02*
X59324Y-38289D01*
X59265Y-38408D02*
X59265Y-38158D01*
X59360Y-38158D01*
X59384Y-38170D01*
X59395Y-38182D01*
X59407Y-38206D01*
X59407Y-38242D01*
X59395Y-38265D01*
X59384Y-38277D01*
X59360Y-38289D01*
X59265Y-38289D01*
X59634Y-38158D02*
X59515Y-38158D01*
X59503Y-38277D01*
X59515Y-38265D01*
X59538Y-38253D01*
X59598Y-38253D01*
X59622Y-38265D01*
X59634Y-38277D01*
X59645Y-38301D01*
X59645Y-38361D01*
X59634Y-38384D01*
X59622Y-38396D01*
X59598Y-38408D01*
X59538Y-38408D01*
X59515Y-38396D01*
X59503Y-38384D01*
X59407Y-39589D02*
X59324Y-39470D01*
X59265Y-39589D02*
X59265Y-39339D01*
X59360Y-39339D01*
X59384Y-39351D01*
X59395Y-39363D01*
X59407Y-39387D01*
X59407Y-39423D01*
X59395Y-39446D01*
X59384Y-39458D01*
X59360Y-39470D01*
X59265Y-39470D01*
X59622Y-39339D02*
X59574Y-39339D01*
X59550Y-39351D01*
X59538Y-39363D01*
X59515Y-39399D01*
X59503Y-39446D01*
X59503Y-39542D01*
X59515Y-39565D01*
X59526Y-39577D01*
X59550Y-39589D01*
X59598Y-39589D01*
X59622Y-39577D01*
X59634Y-39565D01*
X59645Y-39542D01*
X59645Y-39482D01*
X59634Y-39458D01*
X59622Y-39446D01*
X59598Y-39434D01*
X59550Y-39434D01*
X59526Y-39446D01*
X59515Y-39458D01*
X59503Y-39482D01*
X59408Y-43133D02*
X59289Y-43133D01*
X59289Y-42883D01*
X59621Y-43133D02*
X59479Y-43133D01*
X59550Y-43133D02*
X59550Y-42883D01*
X59526Y-42919D01*
X59502Y-42943D01*
X59479Y-42955D01*
X63673Y-46141D02*
X63685Y-46153D01*
X63697Y-46188D01*
X63697Y-46212D01*
X63685Y-46248D01*
X63661Y-46272D01*
X63638Y-46283D01*
X63590Y-46295D01*
X63554Y-46295D01*
X63507Y-46283D01*
X63483Y-46272D01*
X63459Y-46248D01*
X63447Y-46212D01*
X63447Y-46188D01*
X63459Y-46153D01*
X63471Y-46141D01*
X63471Y-46045D02*
X63459Y-46033D01*
X63447Y-46010D01*
X63447Y-45950D01*
X63459Y-45926D01*
X63471Y-45914D01*
X63495Y-45903D01*
X63519Y-45903D01*
X63554Y-45914D01*
X63697Y-46057D01*
X63697Y-45903D01*
X59407Y-40746D02*
X59395Y-40758D01*
X59360Y-40770D01*
X59336Y-40770D01*
X59300Y-40758D01*
X59276Y-40734D01*
X59265Y-40711D01*
X59253Y-40663D01*
X59253Y-40627D01*
X59265Y-40580D01*
X59276Y-40556D01*
X59300Y-40532D01*
X59336Y-40520D01*
X59360Y-40520D01*
X59395Y-40532D01*
X59407Y-40544D01*
X59491Y-40520D02*
X59645Y-40520D01*
X59562Y-40615D01*
X59598Y-40615D01*
X59622Y-40627D01*
X59634Y-40639D01*
X59645Y-40663D01*
X59645Y-40723D01*
X59634Y-40746D01*
X59622Y-40758D01*
X59598Y-40770D01*
X59526Y-40770D01*
X59503Y-40758D01*
X59491Y-40746D01*
X50746Y-43349D02*
X50758Y-43361D01*
X50770Y-43396D01*
X50770Y-43420D01*
X50758Y-43456D01*
X50734Y-43480D01*
X50711Y-43491D01*
X50663Y-43503D01*
X50627Y-43503D01*
X50580Y-43491D01*
X50556Y-43480D01*
X50532Y-43456D01*
X50520Y-43420D01*
X50520Y-43396D01*
X50532Y-43361D01*
X50544Y-43349D01*
X50604Y-43134D02*
X50770Y-43134D01*
X50508Y-43194D02*
X50687Y-43253D01*
X50687Y-43099D01*
X51534Y-39412D02*
X51546Y-39424D01*
X51558Y-39459D01*
X51558Y-39483D01*
X51546Y-39519D01*
X51522Y-39543D01*
X51499Y-39554D01*
X51451Y-39566D01*
X51415Y-39566D01*
X51368Y-39554D01*
X51344Y-39543D01*
X51320Y-39519D01*
X51308Y-39483D01*
X51308Y-39459D01*
X51320Y-39424D01*
X51332Y-39412D01*
X51308Y-39185D02*
X51308Y-39304D01*
X51427Y-39316D01*
X51415Y-39304D01*
X51403Y-39281D01*
X51403Y-39221D01*
X51415Y-39197D01*
X51427Y-39185D01*
X51451Y-39174D01*
X51511Y-39174D01*
X51534Y-39185D01*
X51546Y-39197D01*
X51558Y-39221D01*
X51558Y-39281D01*
X51546Y-39304D01*
X51534Y-39316D01*
X52321Y-43349D02*
X52333Y-43361D01*
X52345Y-43396D01*
X52345Y-43420D01*
X52333Y-43456D01*
X52309Y-43480D01*
X52286Y-43491D01*
X52238Y-43503D01*
X52202Y-43503D01*
X52155Y-43491D01*
X52131Y-43480D01*
X52107Y-43456D01*
X52095Y-43420D01*
X52095Y-43396D01*
X52107Y-43361D01*
X52119Y-43349D01*
X52095Y-43134D02*
X52095Y-43182D01*
X52107Y-43206D01*
X52119Y-43218D01*
X52155Y-43241D01*
X52202Y-43253D01*
X52298Y-43253D01*
X52321Y-43241D01*
X52333Y-43230D01*
X52345Y-43206D01*
X52345Y-43158D01*
X52333Y-43134D01*
X52321Y-43122D01*
X52298Y-43111D01*
X52238Y-43111D01*
X52214Y-43122D01*
X52202Y-43134D01*
X52190Y-43158D01*
X52190Y-43206D01*
X52202Y-43230D01*
X52214Y-43241D01*
X52238Y-43253D01*
X51534Y-37444D02*
X51546Y-37456D01*
X51558Y-37491D01*
X51558Y-37515D01*
X51546Y-37551D01*
X51522Y-37575D01*
X51499Y-37586D01*
X51451Y-37598D01*
X51415Y-37598D01*
X51368Y-37586D01*
X51344Y-37575D01*
X51320Y-37551D01*
X51308Y-37515D01*
X51308Y-37491D01*
X51320Y-37456D01*
X51332Y-37444D01*
X51308Y-37360D02*
X51308Y-37194D01*
X51558Y-37301D01*
X59407Y-41967D02*
X59395Y-41979D01*
X59360Y-41991D01*
X59336Y-41991D01*
X59300Y-41979D01*
X59276Y-41955D01*
X59265Y-41932D01*
X59253Y-41884D01*
X59253Y-41848D01*
X59265Y-41801D01*
X59276Y-41777D01*
X59300Y-41753D01*
X59336Y-41741D01*
X59360Y-41741D01*
X59395Y-41753D01*
X59407Y-41765D01*
X59550Y-41848D02*
X59526Y-41836D01*
X59515Y-41825D01*
X59503Y-41801D01*
X59503Y-41789D01*
X59515Y-41765D01*
X59526Y-41753D01*
X59550Y-41741D01*
X59598Y-41741D01*
X59622Y-41753D01*
X59634Y-41765D01*
X59645Y-41789D01*
X59645Y-41801D01*
X59634Y-41825D01*
X59622Y-41836D01*
X59598Y-41848D01*
X59550Y-41848D01*
X59526Y-41860D01*
X59515Y-41872D01*
X59503Y-41896D01*
X59503Y-41944D01*
X59515Y-41967D01*
X59526Y-41979D01*
X59550Y-41991D01*
X59598Y-41991D01*
X59622Y-41979D01*
X59634Y-41967D01*
X59645Y-41944D01*
X59645Y-41896D01*
X59634Y-41872D01*
X59622Y-41860D01*
X59598Y-41848D01*
X51003Y-41582D02*
X51303Y-41382D01*
X51003Y-41382D02*
X51303Y-41582D01*
X51303Y-41110D02*
X51303Y-41282D01*
X51303Y-41196D02*
X51003Y-41196D01*
X51046Y-41225D01*
X51075Y-41253D01*
X51089Y-41282D01*
G54D17*
X52667Y-48162D02*
X52667Y-47762D01*
X52762Y-47762D01*
X52820Y-47781D01*
X52858Y-47819D01*
X52877Y-47857D01*
X52896Y-47933D01*
X52896Y-47990D01*
X52877Y-48067D01*
X52858Y-48105D01*
X52820Y-48143D01*
X52762Y-48162D01*
X52667Y-48162D01*
X52972Y-48200D02*
X53277Y-48200D01*
X53353Y-48143D02*
X53410Y-48162D01*
X53506Y-48162D01*
X53544Y-48143D01*
X53563Y-48124D01*
X53582Y-48086D01*
X53582Y-48048D01*
X53563Y-48010D01*
X53544Y-47990D01*
X53506Y-47971D01*
X53429Y-47952D01*
X53391Y-47933D01*
X53372Y-47914D01*
X53353Y-47876D01*
X53353Y-47838D01*
X53372Y-47800D01*
X53391Y-47781D01*
X53429Y-47762D01*
X53525Y-47762D01*
X53582Y-47781D01*
X53715Y-47762D02*
X53810Y-48162D01*
X53887Y-47876D01*
X53963Y-48162D01*
X54058Y-47762D01*
X54210Y-48162D02*
X54210Y-47762D01*
X54343Y-47762D02*
X54572Y-47762D01*
X54457Y-48162D02*
X54457Y-47762D01*
X54934Y-48124D02*
X54915Y-48143D01*
X54858Y-48162D01*
X54820Y-48162D01*
X54762Y-48143D01*
X54724Y-48105D01*
X54705Y-48067D01*
X54686Y-47990D01*
X54686Y-47933D01*
X54705Y-47857D01*
X54724Y-47819D01*
X54762Y-47781D01*
X54820Y-47762D01*
X54858Y-47762D01*
X54915Y-47781D01*
X54934Y-47800D01*
X55105Y-48162D02*
X55105Y-47762D01*
X55105Y-47952D02*
X55334Y-47952D01*
X55334Y-48162D02*
X55334Y-47762D01*
X69562Y-48162D02*
X69562Y-47762D01*
X69657Y-47762D01*
X69715Y-47781D01*
X69753Y-47819D01*
X69772Y-47857D01*
X69791Y-47933D01*
X69791Y-47990D01*
X69772Y-48067D01*
X69753Y-48105D01*
X69715Y-48143D01*
X69657Y-48162D01*
X69562Y-48162D01*
X69867Y-48200D02*
X70172Y-48200D01*
X70248Y-48143D02*
X70305Y-48162D01*
X70401Y-48162D01*
X70439Y-48143D01*
X70458Y-48124D01*
X70477Y-48086D01*
X70477Y-48048D01*
X70458Y-48010D01*
X70439Y-47990D01*
X70401Y-47971D01*
X70324Y-47952D01*
X70286Y-47933D01*
X70267Y-47914D01*
X70248Y-47876D01*
X70248Y-47838D01*
X70267Y-47800D01*
X70286Y-47781D01*
X70324Y-47762D01*
X70420Y-47762D01*
X70477Y-47781D01*
X70648Y-47952D02*
X70782Y-47952D01*
X70839Y-48162D02*
X70648Y-48162D01*
X70648Y-47762D01*
X70839Y-47762D01*
X71010Y-48162D02*
X71010Y-47762D01*
X71239Y-48162D01*
X71239Y-47762D01*
X71410Y-48143D02*
X71467Y-48162D01*
X71563Y-48162D01*
X71601Y-48143D01*
X71620Y-48124D01*
X71639Y-48086D01*
X71639Y-48048D01*
X71620Y-48010D01*
X71601Y-47990D01*
X71563Y-47971D01*
X71486Y-47952D01*
X71448Y-47933D01*
X71429Y-47914D01*
X71410Y-47876D01*
X71410Y-47838D01*
X71429Y-47800D01*
X71448Y-47781D01*
X71486Y-47762D01*
X71582Y-47762D01*
X71639Y-47781D01*
X71886Y-47762D02*
X71963Y-47762D01*
X72001Y-47781D01*
X72039Y-47819D01*
X72058Y-47895D01*
X72058Y-48029D01*
X72039Y-48105D01*
X72001Y-48143D01*
X71963Y-48162D01*
X71886Y-48162D01*
X71848Y-48143D01*
X71810Y-48105D01*
X71791Y-48029D01*
X71791Y-47895D01*
X71810Y-47819D01*
X71848Y-47781D01*
X71886Y-47762D01*
X72458Y-48162D02*
X72324Y-47971D01*
X72229Y-48162D02*
X72229Y-47762D01*
X72382Y-47762D01*
X72420Y-47781D01*
X72439Y-47800D01*
X72458Y-47838D01*
X72458Y-47895D01*
X72439Y-47933D01*
X72420Y-47952D01*
X72382Y-47971D01*
X72229Y-47971D01*
X42743Y-48162D02*
X42743Y-47762D01*
X42838Y-47762D01*
X42896Y-47781D01*
X42934Y-47819D01*
X42953Y-47857D01*
X42972Y-47933D01*
X42972Y-47990D01*
X42953Y-48067D01*
X42934Y-48105D01*
X42896Y-48143D01*
X42838Y-48162D01*
X42743Y-48162D01*
X43048Y-48200D02*
X43353Y-48200D01*
X43448Y-48162D02*
X43448Y-47762D01*
X43582Y-48048D01*
X43715Y-47762D01*
X43715Y-48162D01*
X43981Y-47762D02*
X44058Y-47762D01*
X44096Y-47781D01*
X44134Y-47819D01*
X44153Y-47895D01*
X44153Y-48029D01*
X44134Y-48105D01*
X44096Y-48143D01*
X44058Y-48162D01*
X43981Y-48162D01*
X43943Y-48143D01*
X43905Y-48105D01*
X43886Y-48029D01*
X43886Y-47895D01*
X43905Y-47819D01*
X43943Y-47781D01*
X43981Y-47762D01*
X44267Y-47762D02*
X44496Y-47762D01*
X44381Y-48162D02*
X44381Y-47762D01*
X44705Y-47762D02*
X44782Y-47762D01*
X44820Y-47781D01*
X44858Y-47819D01*
X44877Y-47895D01*
X44877Y-48029D01*
X44858Y-48105D01*
X44820Y-48143D01*
X44782Y-48162D01*
X44705Y-48162D01*
X44667Y-48143D01*
X44629Y-48105D01*
X44610Y-48029D01*
X44610Y-47895D01*
X44629Y-47819D01*
X44667Y-47781D01*
X44705Y-47762D01*
X45277Y-48162D02*
X45143Y-47971D01*
X45048Y-48162D02*
X45048Y-47762D01*
X45201Y-47762D01*
X45239Y-47781D01*
X45258Y-47800D01*
X45277Y-47838D01*
X45277Y-47895D01*
X45258Y-47933D01*
X45239Y-47952D01*
X45201Y-47971D01*
X45048Y-47971D01*
X48000Y-47952D02*
X48057Y-47971D01*
X48076Y-47990D01*
X48095Y-48029D01*
X48095Y-48086D01*
X48076Y-48124D01*
X48057Y-48143D01*
X48019Y-48162D01*
X47866Y-48162D01*
X47866Y-47762D01*
X48000Y-47762D01*
X48038Y-47781D01*
X48057Y-47800D01*
X48076Y-47838D01*
X48076Y-47876D01*
X48057Y-47914D01*
X48038Y-47933D01*
X48000Y-47952D01*
X47866Y-47952D01*
X48247Y-48048D02*
X48438Y-48048D01*
X48209Y-48162D02*
X48342Y-47762D01*
X48476Y-48162D01*
X48552Y-47762D02*
X48781Y-47762D01*
X48666Y-48162D02*
X48666Y-47762D01*
X48857Y-47762D02*
X49086Y-47762D01*
X48971Y-48162D02*
X48971Y-47762D01*
X49219Y-47952D02*
X49353Y-47952D01*
X49410Y-48162D02*
X49219Y-48162D01*
X49219Y-47762D01*
X49410Y-47762D01*
X49810Y-48162D02*
X49676Y-47971D01*
X49581Y-48162D02*
X49581Y-47762D01*
X49734Y-47762D01*
X49772Y-47781D01*
X49791Y-47800D01*
X49810Y-47838D01*
X49810Y-47895D01*
X49791Y-47933D01*
X49772Y-47952D01*
X49734Y-47971D01*
X49581Y-47971D01*
X50057Y-47971D02*
X50057Y-48162D01*
X49924Y-47762D02*
X50057Y-47971D01*
X50191Y-47762D01*
X74467Y-48162D02*
X74276Y-48162D01*
X74276Y-47762D01*
X74600Y-48162D02*
X74600Y-47762D01*
X75000Y-47781D02*
X74962Y-47762D01*
X74905Y-47762D01*
X74847Y-47781D01*
X74809Y-47819D01*
X74790Y-47857D01*
X74771Y-47933D01*
X74771Y-47990D01*
X74790Y-48067D01*
X74809Y-48105D01*
X74847Y-48143D01*
X74905Y-48162D01*
X74943Y-48162D01*
X75000Y-48143D01*
X75019Y-48124D01*
X75019Y-47990D01*
X74943Y-47990D01*
X75190Y-48162D02*
X75190Y-47762D01*
X75190Y-47952D02*
X75419Y-47952D01*
X75419Y-48162D02*
X75419Y-47762D01*
X75552Y-47762D02*
X75781Y-47762D01*
X75666Y-48162D02*
X75666Y-47762D01*
X61919Y-43162D02*
X61919Y-42762D01*
X62090Y-43143D02*
X62147Y-43162D01*
X62243Y-43162D01*
X62281Y-43143D01*
X62300Y-43124D01*
X62319Y-43086D01*
X62319Y-43048D01*
X62300Y-43010D01*
X62281Y-42990D01*
X62243Y-42971D01*
X62166Y-42952D01*
X62128Y-42933D01*
X62109Y-42914D01*
X62090Y-42876D01*
X62090Y-42838D01*
X62109Y-42800D01*
X62128Y-42781D01*
X62166Y-42762D01*
X62262Y-42762D01*
X62319Y-42781D01*
X62490Y-43162D02*
X62490Y-42762D01*
X62643Y-42762D01*
X62681Y-42781D01*
X62700Y-42800D01*
X62719Y-42838D01*
X62719Y-42895D01*
X62700Y-42933D01*
X62681Y-42952D01*
X62643Y-42971D01*
X62490Y-42971D01*
X63100Y-43162D02*
X62871Y-43162D01*
X62985Y-43162D02*
X62985Y-42762D01*
X62947Y-42819D01*
X62909Y-42857D01*
X62871Y-42876D01*
G54D10*
X55328Y-42821D02*
X55328Y-42521D01*
X55443Y-42521D01*
X55471Y-42536D01*
X55486Y-42550D01*
X55500Y-42579D01*
X55500Y-42621D01*
X55486Y-42650D01*
X55471Y-42664D01*
X55443Y-42679D01*
X55328Y-42679D01*
X55757Y-42621D02*
X55757Y-42821D01*
X55686Y-42507D02*
X55614Y-42721D01*
X55800Y-42721D01*
G54D17*
X65600Y-48162D02*
X65600Y-47762D01*
X65695Y-47762D01*
X65753Y-47781D01*
X65791Y-47819D01*
X65810Y-47857D01*
X65829Y-47933D01*
X65829Y-47990D01*
X65810Y-48067D01*
X65791Y-48105D01*
X65753Y-48143D01*
X65695Y-48162D01*
X65600Y-48162D01*
X65905Y-48200D02*
X66210Y-48200D01*
X66286Y-48143D02*
X66343Y-48162D01*
X66439Y-48162D01*
X66477Y-48143D01*
X66496Y-48124D01*
X66515Y-48086D01*
X66515Y-48048D01*
X66496Y-48010D01*
X66477Y-47990D01*
X66439Y-47971D01*
X66362Y-47952D01*
X66324Y-47933D01*
X66305Y-47914D01*
X66286Y-47876D01*
X66286Y-47838D01*
X66305Y-47800D01*
X66324Y-47781D01*
X66362Y-47762D01*
X66458Y-47762D01*
X66515Y-47781D01*
X66686Y-47952D02*
X66820Y-47952D01*
X66877Y-48162D02*
X66686Y-48162D01*
X66686Y-47762D01*
X66877Y-47762D01*
X67048Y-48162D02*
X67048Y-47762D01*
X67277Y-48162D01*
X67277Y-47762D01*
X67448Y-48143D02*
X67505Y-48162D01*
X67601Y-48162D01*
X67639Y-48143D01*
X67658Y-48124D01*
X67677Y-48086D01*
X67677Y-48048D01*
X67658Y-48010D01*
X67639Y-47990D01*
X67601Y-47971D01*
X67524Y-47952D01*
X67486Y-47933D01*
X67467Y-47914D01*
X67448Y-47876D01*
X67448Y-47838D01*
X67467Y-47800D01*
X67486Y-47781D01*
X67524Y-47762D01*
X67620Y-47762D01*
X67677Y-47781D01*
X67848Y-47952D02*
X67982Y-47952D01*
X68039Y-48162D02*
X67848Y-48162D01*
X67848Y-47762D01*
X68039Y-47762D01*
X68191Y-47800D02*
X68210Y-47781D01*
X68248Y-47762D01*
X68344Y-47762D01*
X68382Y-47781D01*
X68401Y-47800D01*
X68420Y-47838D01*
X68420Y-47876D01*
X68401Y-47933D01*
X68172Y-48162D01*
X68420Y-48162D01*
G54D11*
X42243Y-38825D02*
X41643Y-38825D01*
X42071Y-38675D01*
X41643Y-38525D01*
X42243Y-38525D01*
X41643Y-38225D02*
X41643Y-38139D01*
X41671Y-38097D01*
X41729Y-38054D01*
X41843Y-38032D01*
X42043Y-38032D01*
X42157Y-38054D01*
X42214Y-38097D01*
X42243Y-38139D01*
X42243Y-38225D01*
X42214Y-38268D01*
X42157Y-38311D01*
X42043Y-38332D01*
X41843Y-38332D01*
X41729Y-38311D01*
X41671Y-38268D01*
X41643Y-38225D01*
X42243Y-37840D02*
X41643Y-37840D01*
X41643Y-37733D01*
X41671Y-37668D01*
X41729Y-37626D01*
X41786Y-37604D01*
X41900Y-37583D01*
X41986Y-37583D01*
X42100Y-37604D01*
X42157Y-37626D01*
X42214Y-37668D01*
X42243Y-37733D01*
X42243Y-37840D01*
X42243Y-37154D02*
X42243Y-37411D01*
X42243Y-37283D02*
X41643Y-37283D01*
X41729Y-37326D01*
X41786Y-37368D01*
X41814Y-37411D01*
X48143Y-40754D02*
X48143Y-40497D01*
X48743Y-40626D02*
X48143Y-40626D01*
X48429Y-40197D02*
X48457Y-40133D01*
X48486Y-40111D01*
X48543Y-40090D01*
X48629Y-40090D01*
X48686Y-40111D01*
X48714Y-40133D01*
X48743Y-40175D01*
X48743Y-40347D01*
X48143Y-40347D01*
X48143Y-40197D01*
X48171Y-40154D01*
X48200Y-40133D01*
X48257Y-40111D01*
X48314Y-40111D01*
X48371Y-40133D01*
X48400Y-40154D01*
X48429Y-40197D01*
X48429Y-40347D01*
X48143Y-39704D02*
X48143Y-39790D01*
X48171Y-39833D01*
X48200Y-39854D01*
X48286Y-39897D01*
X48400Y-39918D01*
X48629Y-39918D01*
X48686Y-39897D01*
X48714Y-39875D01*
X48743Y-39833D01*
X48743Y-39747D01*
X48714Y-39704D01*
X48686Y-39683D01*
X48629Y-39661D01*
X48486Y-39661D01*
X48429Y-39683D01*
X48400Y-39704D01*
X48371Y-39747D01*
X48371Y-39833D01*
X48400Y-39875D01*
X48429Y-39897D01*
X48486Y-39918D01*
X48143Y-39275D02*
X48143Y-39361D01*
X48171Y-39404D01*
X48200Y-39425D01*
X48286Y-39468D01*
X48400Y-39489D01*
X48629Y-39489D01*
X48686Y-39468D01*
X48714Y-39446D01*
X48743Y-39404D01*
X48743Y-39318D01*
X48714Y-39275D01*
X48686Y-39254D01*
X48629Y-39232D01*
X48486Y-39232D01*
X48429Y-39254D01*
X48400Y-39275D01*
X48371Y-39318D01*
X48371Y-39404D01*
X48400Y-39446D01*
X48429Y-39468D01*
X48486Y-39489D01*
X48743Y-38803D02*
X48743Y-39060D01*
X48743Y-38932D02*
X48143Y-38932D01*
X48229Y-38975D01*
X48286Y-39017D01*
X48314Y-39060D01*
X48200Y-38631D02*
X48171Y-38610D01*
X48143Y-38567D01*
X48143Y-38460D01*
X48171Y-38417D01*
X48200Y-38396D01*
X48257Y-38374D01*
X48314Y-38374D01*
X48400Y-38396D01*
X48743Y-38653D01*
X48743Y-38374D01*
X48429Y-38031D02*
X48429Y-38181D01*
X48743Y-38181D02*
X48143Y-38181D01*
X48143Y-37967D01*
X48743Y-37795D02*
X48143Y-37795D01*
X48743Y-37538D01*
X48143Y-37538D01*
X48171Y-37088D02*
X48143Y-37131D01*
X48143Y-37195D01*
X48171Y-37260D01*
X48229Y-37302D01*
X48286Y-37324D01*
X48400Y-37345D01*
X48486Y-37345D01*
X48600Y-37324D01*
X48657Y-37302D01*
X48714Y-37260D01*
X48743Y-37195D01*
X48743Y-37152D01*
X48714Y-37088D01*
X48686Y-37067D01*
X48486Y-37067D01*
X48486Y-37152D01*
X48800Y-36981D02*
X48800Y-36638D01*
X48743Y-36531D02*
X48143Y-36531D01*
X48571Y-36381D01*
X48143Y-36231D01*
X48743Y-36231D01*
X48143Y-35931D02*
X48143Y-35845D01*
X48171Y-35803D01*
X48229Y-35760D01*
X48343Y-35738D01*
X48543Y-35738D01*
X48657Y-35760D01*
X48714Y-35803D01*
X48743Y-35845D01*
X48743Y-35931D01*
X48714Y-35974D01*
X48657Y-36017D01*
X48543Y-36038D01*
X48343Y-36038D01*
X48229Y-36017D01*
X48171Y-35974D01*
X48143Y-35931D01*
X48743Y-35546D02*
X48143Y-35546D01*
X48143Y-35439D01*
X48171Y-35374D01*
X48229Y-35332D01*
X48286Y-35310D01*
X48400Y-35289D01*
X48486Y-35289D01*
X48600Y-35310D01*
X48657Y-35332D01*
X48714Y-35374D01*
X48743Y-35439D01*
X48743Y-35546D01*
X49429Y-39457D02*
X49457Y-39393D01*
X49486Y-39371D01*
X49543Y-39350D01*
X49629Y-39350D01*
X49686Y-39371D01*
X49714Y-39393D01*
X49743Y-39435D01*
X49743Y-39607D01*
X49143Y-39607D01*
X49143Y-39457D01*
X49171Y-39414D01*
X49200Y-39393D01*
X49257Y-39371D01*
X49314Y-39371D01*
X49371Y-39393D01*
X49400Y-39414D01*
X49429Y-39457D01*
X49429Y-39607D01*
X49743Y-38900D02*
X49457Y-39050D01*
X49743Y-39157D02*
X49143Y-39157D01*
X49143Y-38985D01*
X49171Y-38943D01*
X49200Y-38921D01*
X49257Y-38900D01*
X49343Y-38900D01*
X49400Y-38921D01*
X49429Y-38943D01*
X49457Y-38985D01*
X49457Y-39157D01*
X49429Y-38707D02*
X49429Y-38557D01*
X49743Y-38493D02*
X49743Y-38707D01*
X49143Y-38707D01*
X49143Y-38493D01*
X49571Y-38321D02*
X49571Y-38107D01*
X49743Y-38364D02*
X49143Y-38214D01*
X49743Y-38064D01*
X49743Y-37914D02*
X49143Y-37914D01*
X49743Y-37657D02*
X49400Y-37850D01*
X49143Y-37657D02*
X49486Y-37914D01*
X49143Y-37378D02*
X49143Y-37292D01*
X49171Y-37250D01*
X49229Y-37207D01*
X49343Y-37185D01*
X49543Y-37185D01*
X49657Y-37207D01*
X49714Y-37250D01*
X49743Y-37292D01*
X49743Y-37378D01*
X49714Y-37421D01*
X49657Y-37464D01*
X49543Y-37485D01*
X49343Y-37485D01*
X49229Y-37464D01*
X49171Y-37421D01*
X49143Y-37378D01*
X49143Y-36993D02*
X49629Y-36993D01*
X49686Y-36971D01*
X49714Y-36950D01*
X49743Y-36907D01*
X49743Y-36821D01*
X49714Y-36779D01*
X49686Y-36757D01*
X49629Y-36736D01*
X49143Y-36736D01*
X49143Y-36586D02*
X49143Y-36329D01*
X49743Y-36458D02*
X49143Y-36458D01*
X61586Y-33733D02*
X61300Y-33883D01*
X61586Y-33990D02*
X60986Y-33990D01*
X60986Y-33818D01*
X61014Y-33776D01*
X61043Y-33754D01*
X61100Y-33733D01*
X61186Y-33733D01*
X61243Y-33754D01*
X61272Y-33776D01*
X61300Y-33818D01*
X61300Y-33990D01*
X60986Y-33604D02*
X61586Y-33454D01*
X60986Y-33304D01*
X61586Y-32918D02*
X61586Y-33175D01*
X61586Y-33047D02*
X60986Y-33047D01*
X61072Y-33090D01*
X61129Y-33132D01*
X61157Y-33175D01*
G54D10*
X56999Y-33255D02*
X57042Y-33269D01*
X57113Y-33269D01*
X57142Y-33255D01*
X57156Y-33241D01*
X57171Y-33212D01*
X57171Y-33184D01*
X57156Y-33155D01*
X57142Y-33141D01*
X57113Y-33127D01*
X57056Y-33112D01*
X57028Y-33098D01*
X57013Y-33084D01*
X56999Y-33055D01*
X56999Y-33027D01*
X57013Y-32998D01*
X57028Y-32984D01*
X57056Y-32969D01*
X57128Y-32969D01*
X57171Y-32984D01*
X57471Y-33241D02*
X57457Y-33255D01*
X57414Y-33269D01*
X57385Y-33269D01*
X57342Y-33255D01*
X57314Y-33227D01*
X57299Y-33198D01*
X57285Y-33141D01*
X57285Y-33098D01*
X57299Y-33041D01*
X57314Y-33012D01*
X57342Y-32984D01*
X57385Y-32969D01*
X57414Y-32969D01*
X57457Y-32984D01*
X57471Y-32998D01*
X57657Y-32969D02*
X57714Y-32969D01*
X57742Y-32984D01*
X57771Y-33012D01*
X57785Y-33069D01*
X57785Y-33169D01*
X57771Y-33227D01*
X57742Y-33255D01*
X57714Y-33269D01*
X57657Y-33269D01*
X57628Y-33255D01*
X57599Y-33227D01*
X57585Y-33169D01*
X57585Y-33069D01*
X57599Y-33012D01*
X57628Y-32984D01*
X57657Y-32969D01*
X57913Y-33269D02*
X57913Y-32969D01*
X58028Y-32969D01*
X58056Y-32984D01*
X58071Y-32998D01*
X58085Y-33027D01*
X58085Y-33069D01*
X58071Y-33098D01*
X58056Y-33112D01*
X58028Y-33127D01*
X57913Y-33127D01*
X58213Y-33112D02*
X58313Y-33112D01*
X58356Y-33269D02*
X58213Y-33269D01*
X58213Y-32969D01*
X58356Y-32969D01*
X56622Y-44572D02*
X56851Y-44572D01*
X56737Y-44686D02*
X56737Y-44458D01*
X57093Y-44529D02*
X57136Y-44544D01*
X57151Y-44558D01*
X57165Y-44586D01*
X57165Y-44629D01*
X57151Y-44658D01*
X57136Y-44672D01*
X57108Y-44686D01*
X56993Y-44686D01*
X56993Y-44386D01*
X57093Y-44386D01*
X57122Y-44401D01*
X57136Y-44415D01*
X57151Y-44444D01*
X57151Y-44472D01*
X57136Y-44501D01*
X57122Y-44515D01*
X57093Y-44529D01*
X56993Y-44529D01*
X57279Y-44601D02*
X57422Y-44601D01*
X57251Y-44686D02*
X57351Y-44386D01*
X57451Y-44686D01*
X57508Y-44386D02*
X57679Y-44386D01*
X57593Y-44686D02*
X57593Y-44386D01*
X57737Y-44386D02*
X57908Y-44386D01*
X57822Y-44686D02*
X57822Y-44386D01*
X63928Y-44572D02*
X64157Y-44572D01*
X64043Y-44686D02*
X64043Y-44458D01*
X64271Y-44386D02*
X64457Y-44386D01*
X64357Y-44501D01*
X64399Y-44501D01*
X64428Y-44515D01*
X64442Y-44529D01*
X64457Y-44558D01*
X64457Y-44629D01*
X64442Y-44658D01*
X64428Y-44672D01*
X64399Y-44686D01*
X64314Y-44686D01*
X64285Y-44672D01*
X64271Y-44658D01*
X64585Y-44658D02*
X64600Y-44672D01*
X64585Y-44686D01*
X64571Y-44672D01*
X64585Y-44658D01*
X64585Y-44686D01*
X64700Y-44386D02*
X64886Y-44386D01*
X64786Y-44501D01*
X64828Y-44501D01*
X64857Y-44515D01*
X64871Y-44529D01*
X64886Y-44558D01*
X64886Y-44629D01*
X64871Y-44658D01*
X64857Y-44672D01*
X64828Y-44686D01*
X64743Y-44686D01*
X64714Y-44672D01*
X64700Y-44658D01*
X64972Y-44386D02*
X65072Y-44686D01*
X65172Y-44386D01*
X58000Y-45976D02*
X57971Y-45961D01*
X57928Y-45961D01*
X57885Y-45976D01*
X57857Y-46004D01*
X57842Y-46033D01*
X57828Y-46090D01*
X57828Y-46133D01*
X57842Y-46190D01*
X57857Y-46219D01*
X57885Y-46247D01*
X57928Y-46261D01*
X57957Y-46261D01*
X58000Y-46247D01*
X58014Y-46233D01*
X58014Y-46133D01*
X57957Y-46133D01*
X58142Y-46261D02*
X58142Y-45961D01*
X58314Y-46261D01*
X58314Y-45961D01*
X58456Y-46261D02*
X58456Y-45961D01*
X58528Y-45961D01*
X58571Y-45976D01*
X58599Y-46004D01*
X58614Y-46033D01*
X58628Y-46090D01*
X58628Y-46133D01*
X58614Y-46190D01*
X58599Y-46219D01*
X58571Y-46247D01*
X58528Y-46261D01*
X58456Y-46261D01*
X57701Y-35213D02*
X57801Y-35513D01*
X57901Y-35213D01*
X58000Y-35513D02*
X58000Y-35213D01*
X58072Y-35213D01*
X58115Y-35228D01*
X58143Y-35256D01*
X58158Y-35285D01*
X58172Y-35342D01*
X58172Y-35385D01*
X58158Y-35442D01*
X58143Y-35471D01*
X58115Y-35499D01*
X58072Y-35513D01*
X58000Y-35513D01*
X58300Y-35513D02*
X58300Y-35213D01*
X58401Y-35213D02*
X58501Y-35513D01*
X58601Y-35213D01*
X73774Y-43047D02*
X73874Y-43347D01*
X73974Y-43047D01*
X74216Y-43347D02*
X74073Y-43347D01*
X74073Y-43047D01*
X74316Y-43347D02*
X74316Y-43047D01*
X74617Y-43062D02*
X74588Y-43047D01*
X74545Y-43047D01*
X74502Y-43062D01*
X74474Y-43090D01*
X74459Y-43119D01*
X74445Y-43176D01*
X74445Y-43219D01*
X74459Y-43276D01*
X74474Y-43305D01*
X74502Y-43333D01*
X74545Y-43347D01*
X74574Y-43347D01*
X74617Y-43333D01*
X74631Y-43319D01*
X74631Y-43219D01*
X74574Y-43219D01*
X74759Y-43347D02*
X74759Y-43047D01*
X74759Y-43190D02*
X74931Y-43190D01*
X74931Y-43347D02*
X74931Y-43047D01*
X75031Y-43047D02*
X75202Y-43047D01*
X75116Y-43347D02*
X75116Y-43047D01*
X62873Y-32732D02*
X62973Y-33032D01*
X63073Y-32732D01*
X63344Y-33032D02*
X63244Y-32890D01*
X63172Y-33032D02*
X63172Y-32732D01*
X63287Y-32732D01*
X63315Y-32747D01*
X63330Y-32761D01*
X63344Y-32790D01*
X63344Y-32832D01*
X63330Y-32861D01*
X63315Y-32875D01*
X63287Y-32890D01*
X63172Y-32890D01*
X63472Y-32875D02*
X63572Y-32875D01*
X63615Y-33032D02*
X63472Y-33032D01*
X63472Y-32732D01*
X63615Y-32732D01*
X63843Y-32875D02*
X63743Y-32875D01*
X63743Y-33032D02*
X63743Y-32732D01*
X63886Y-32732D01*
X53485Y-31930D02*
X53485Y-31630D01*
X53585Y-31845D01*
X53685Y-31630D01*
X53685Y-31930D01*
X53757Y-31959D02*
X53986Y-31959D01*
X54057Y-31773D02*
X54157Y-31773D01*
X54200Y-31930D02*
X54057Y-31930D01*
X54057Y-31630D01*
X54200Y-31630D01*
X54328Y-31930D02*
X54328Y-31630D01*
X54500Y-31930D01*
X54500Y-31630D01*
X54628Y-31845D02*
X54771Y-31845D01*
X54600Y-31930D02*
X54700Y-31630D01*
X54800Y-31930D01*
X54999Y-31773D02*
X55042Y-31788D01*
X55057Y-31802D01*
X55071Y-31830D01*
X55071Y-31873D01*
X55057Y-31902D01*
X55042Y-31916D01*
X55014Y-31930D01*
X54899Y-31930D01*
X54899Y-31630D01*
X54999Y-31630D01*
X55028Y-31645D01*
X55042Y-31659D01*
X55057Y-31688D01*
X55057Y-31716D01*
X55042Y-31745D01*
X55028Y-31759D01*
X54999Y-31773D01*
X54899Y-31773D01*
X55342Y-31930D02*
X55199Y-31930D01*
X55199Y-31630D01*
X55442Y-31773D02*
X55542Y-31773D01*
X55585Y-31930D02*
X55442Y-31930D01*
X55442Y-31630D01*
X55585Y-31630D01*
X44646Y-32929D02*
X44646Y-33172D01*
X44661Y-33201D01*
X44675Y-33215D01*
X44704Y-33229D01*
X44761Y-33229D01*
X44789Y-33215D01*
X44804Y-33201D01*
X44818Y-33172D01*
X44818Y-32929D01*
X44960Y-33229D02*
X44960Y-32929D01*
X45075Y-32929D01*
X45103Y-32944D01*
X45118Y-32958D01*
X45132Y-32987D01*
X45132Y-33029D01*
X45118Y-33058D01*
X45103Y-33072D01*
X45075Y-33087D01*
X44960Y-33087D01*
X41428Y-33231D02*
X41428Y-32931D01*
X41543Y-32931D01*
X41571Y-32946D01*
X41586Y-32960D01*
X41600Y-32989D01*
X41600Y-33031D01*
X41586Y-33060D01*
X41571Y-33074D01*
X41543Y-33089D01*
X41428Y-33089D01*
X41700Y-32931D02*
X41771Y-33231D01*
X41828Y-33017D01*
X41886Y-33231D01*
X41957Y-32931D01*
X42071Y-33231D02*
X42071Y-32931D01*
X42171Y-33146D01*
X42271Y-32931D01*
X42271Y-33231D01*
X42743Y-33231D02*
X42743Y-32931D01*
X42815Y-32931D01*
X42858Y-32946D01*
X42886Y-32974D01*
X42901Y-33003D01*
X42915Y-33060D01*
X42915Y-33103D01*
X42901Y-33160D01*
X42886Y-33189D01*
X42858Y-33217D01*
X42815Y-33231D01*
X42743Y-33231D01*
X43015Y-32931D02*
X43086Y-33231D01*
X43143Y-33017D01*
X43201Y-33231D01*
X43272Y-32931D01*
X43386Y-33231D02*
X43386Y-32931D01*
X43558Y-33231D01*
X43558Y-32931D01*
X60177Y-37457D02*
X60277Y-37757D01*
X60377Y-37457D01*
X60576Y-37600D02*
X60619Y-37615D01*
X60634Y-37629D01*
X60648Y-37657D01*
X60648Y-37700D01*
X60634Y-37729D01*
X60619Y-37743D01*
X60591Y-37757D01*
X60476Y-37757D01*
X60476Y-37457D01*
X60576Y-37457D01*
X60605Y-37472D01*
X60619Y-37486D01*
X60634Y-37515D01*
X60634Y-37543D01*
X60619Y-37572D01*
X60605Y-37586D01*
X60576Y-37600D01*
X60476Y-37600D01*
X60762Y-37672D02*
X60905Y-37672D01*
X60734Y-37757D02*
X60834Y-37457D01*
X60934Y-37757D01*
X60991Y-37457D02*
X61162Y-37457D01*
X61076Y-37757D02*
X61076Y-37457D01*
X74099Y-31654D02*
X74099Y-31354D01*
X74171Y-31354D01*
X74214Y-31369D01*
X74242Y-31397D01*
X74257Y-31426D01*
X74271Y-31483D01*
X74271Y-31526D01*
X74257Y-31583D01*
X74242Y-31612D01*
X74214Y-31640D01*
X74171Y-31654D01*
X74099Y-31654D01*
X74457Y-31354D02*
X74514Y-31354D01*
X74542Y-31369D01*
X74571Y-31397D01*
X74585Y-31454D01*
X74585Y-31554D01*
X74571Y-31612D01*
X74542Y-31640D01*
X74514Y-31654D01*
X74457Y-31654D01*
X74428Y-31640D01*
X74399Y-31612D01*
X74385Y-31554D01*
X74385Y-31454D01*
X74399Y-31397D01*
X74428Y-31369D01*
X74457Y-31354D01*
X74713Y-31354D02*
X74713Y-31597D01*
X74728Y-31626D01*
X74742Y-31640D01*
X74771Y-31654D01*
X74828Y-31654D01*
X74856Y-31640D01*
X74871Y-31626D01*
X74885Y-31597D01*
X74885Y-31354D01*
X74985Y-31354D02*
X75156Y-31354D01*
X75070Y-31654D02*
X75070Y-31354D01*
X72921Y-31654D02*
X72921Y-31354D01*
X72993Y-31354D01*
X73036Y-31369D01*
X73064Y-31397D01*
X73079Y-31426D01*
X73093Y-31483D01*
X73093Y-31526D01*
X73079Y-31583D01*
X73064Y-31612D01*
X73036Y-31640D01*
X72993Y-31654D01*
X72921Y-31654D01*
X73221Y-31654D02*
X73221Y-31354D01*
X73364Y-31654D02*
X73364Y-31354D01*
X73536Y-31654D01*
X73536Y-31354D01*
X62797Y-36853D02*
X62697Y-36711D01*
X62625Y-36853D02*
X62625Y-36553D01*
X62740Y-36553D01*
X62768Y-36568D01*
X62783Y-36582D01*
X62797Y-36611D01*
X62797Y-36653D01*
X62783Y-36682D01*
X62768Y-36696D01*
X62740Y-36711D01*
X62625Y-36711D01*
X62854Y-36882D02*
X63083Y-36882D01*
X63140Y-36839D02*
X63183Y-36853D01*
X63254Y-36853D01*
X63283Y-36839D01*
X63297Y-36825D01*
X63312Y-36796D01*
X63312Y-36768D01*
X63297Y-36739D01*
X63283Y-36725D01*
X63254Y-36711D01*
X63197Y-36696D01*
X63169Y-36682D01*
X63154Y-36668D01*
X63140Y-36639D01*
X63140Y-36611D01*
X63154Y-36582D01*
X63169Y-36568D01*
X63197Y-36553D01*
X63269Y-36553D01*
X63312Y-36568D01*
X63583Y-36853D02*
X63440Y-36853D01*
X63440Y-36553D01*
X63683Y-36696D02*
X63783Y-36696D01*
X63826Y-36853D02*
X63683Y-36853D01*
X63683Y-36553D01*
X63826Y-36553D01*
X63954Y-36696D02*
X64054Y-36696D01*
X64097Y-36853D02*
X63954Y-36853D01*
X63954Y-36553D01*
X64097Y-36553D01*
X64225Y-36853D02*
X64225Y-36553D01*
X64340Y-36553D01*
X64368Y-36568D01*
X64383Y-36582D01*
X64397Y-36611D01*
X64397Y-36653D01*
X64383Y-36682D01*
X64368Y-36696D01*
X64340Y-36711D01*
X64225Y-36711D01*
X72051Y-43347D02*
X71951Y-43205D01*
X71879Y-43347D02*
X71879Y-43047D01*
X71994Y-43047D01*
X72022Y-43062D01*
X72037Y-43076D01*
X72051Y-43105D01*
X72051Y-43147D01*
X72037Y-43176D01*
X72022Y-43190D01*
X71994Y-43205D01*
X71879Y-43205D01*
X72108Y-43376D02*
X72337Y-43376D01*
X72580Y-43319D02*
X72566Y-43333D01*
X72523Y-43347D01*
X72494Y-43347D01*
X72451Y-43333D01*
X72423Y-43305D01*
X72408Y-43276D01*
X72394Y-43219D01*
X72394Y-43176D01*
X72408Y-43119D01*
X72423Y-43090D01*
X72451Y-43062D01*
X72494Y-43047D01*
X72523Y-43047D01*
X72566Y-43062D01*
X72580Y-43076D01*
X72666Y-43047D02*
X72837Y-43047D01*
X72751Y-43347D02*
X72751Y-43047D01*
X72923Y-43333D02*
X72966Y-43347D01*
X73037Y-43347D01*
X73066Y-43333D01*
X73080Y-43319D01*
X73095Y-43290D01*
X73095Y-43262D01*
X73080Y-43233D01*
X73066Y-43219D01*
X73037Y-43205D01*
X72980Y-43190D01*
X72952Y-43176D01*
X72937Y-43162D01*
X72923Y-43133D01*
X72923Y-43105D01*
X72937Y-43076D01*
X72952Y-43062D01*
X72980Y-43047D01*
X73052Y-43047D01*
X73095Y-43062D01*
M02*
