G04 (created by PCBNEW-RS274X (2012-01-19 BZR 3256)-stable) date Sat 12 Jan 2013 18:22:03 GMT*
G01*
G70*
G90*
%MOIN*%
G04 Gerber Fmt 3.4, Leading zero omitted, Abs format*
%FSLAX34Y34*%
G04 APERTURE LIST*
%ADD10C,0.006000*%
%ADD11C,0.070000*%
%ADD12R,0.070000X0.070000*%
%ADD13R,0.068000X0.068000*%
%ADD14C,0.068000*%
%ADD15C,0.173400*%
%ADD16R,0.063000X0.063000*%
%ADD17C,0.063000*%
G04 APERTURE END LIST*
G54D10*
G54D11*
X72834Y-33465D03*
X72047Y-33465D03*
X71260Y-33465D03*
X70472Y-33465D03*
X69685Y-33465D03*
X68897Y-33465D03*
X68110Y-33465D03*
X67323Y-33465D03*
X66535Y-33465D03*
X66535Y-42126D03*
X67323Y-42126D03*
X68110Y-42126D03*
X68897Y-42126D03*
X69685Y-42126D03*
X70472Y-42126D03*
X71260Y-42126D03*
X72047Y-42126D03*
X72834Y-42126D03*
X73622Y-42126D03*
G54D12*
X73622Y-33465D03*
G54D13*
X52500Y-46000D03*
G54D14*
X53500Y-46000D03*
X54500Y-46000D03*
X55500Y-46000D03*
G54D13*
X69500Y-46000D03*
G54D14*
X70500Y-46000D03*
X71500Y-46000D03*
X72500Y-46000D03*
G54D13*
X42500Y-46000D03*
G54D14*
X43500Y-46000D03*
X44500Y-46000D03*
X45500Y-46000D03*
G54D13*
X47500Y-46000D03*
G54D14*
X48500Y-46000D03*
X49500Y-46000D03*
X50500Y-46000D03*
G54D13*
X74500Y-46000D03*
G54D14*
X75500Y-46000D03*
G54D13*
X63500Y-41000D03*
G54D14*
X63500Y-42000D03*
X62500Y-41000D03*
X62500Y-42000D03*
X61500Y-41000D03*
X61500Y-42000D03*
G54D13*
X55000Y-43500D03*
G54D14*
X56000Y-43500D03*
G54D15*
X77559Y-47244D03*
X40551Y-47244D03*
X77559Y-32283D03*
X40551Y-32283D03*
G54D13*
X66500Y-46000D03*
G54D14*
X67500Y-46000D03*
G54D16*
X42000Y-41000D03*
G54D17*
X43000Y-41000D03*
X44000Y-41000D03*
X45000Y-41000D03*
X46000Y-41000D03*
X47000Y-41000D03*
X48000Y-41000D03*
X49000Y-41000D03*
X49000Y-35000D03*
X48000Y-35000D03*
X47000Y-35000D03*
X46000Y-35000D03*
X45000Y-35000D03*
X44000Y-35000D03*
X43000Y-35000D03*
X42000Y-35000D03*
G54D14*
X57677Y-33898D03*
X57244Y-45315D03*
X64528Y-45315D03*
X58228Y-46890D03*
X58150Y-36142D03*
X74488Y-43976D03*
X63386Y-33661D03*
X54528Y-32559D03*
X44882Y-33858D03*
X42008Y-33858D03*
X42992Y-33858D03*
X60669Y-38386D03*
X74606Y-32283D03*
X73228Y-32283D03*
X63976Y-35827D03*
X72480Y-43976D03*
M02*
