G04 (created by PCBNEW-RS274X (2010-05-09 BZR 2366)-stable) date Sat 11 Sep 2010 14:18:10 BST*
G01*
G70*
G90*
%MOIN*%
G04 Gerber Fmt 3.4, Leading zero omitted, Abs format*
%FSLAX34Y34*%
G04 APERTURE LIST*
%ADD10C,0.006000*%
%ADD11C,0.015000*%
%ADD12C,0.012000*%
%ADD13C,0.010000*%
%ADD14C,0.005000*%
%ADD15C,0.008000*%
%ADD16C,0.011300*%
%ADD17C,0.010700*%
G04 APERTURE END LIST*
G54D10*
G54D11*
X36000Y-44000D02*
X78000Y-44000D01*
X36000Y-64000D02*
X36000Y-44000D01*
X78000Y-64000D02*
X36000Y-64000D01*
X78000Y-44000D02*
X78000Y-64000D01*
X77000Y-44250D02*
X77000Y-45750D01*
X77750Y-45000D02*
X76250Y-45000D01*
X77707Y-45000D02*
X77693Y-45137D01*
X77653Y-45269D01*
X77588Y-45391D01*
X77501Y-45498D01*
X77395Y-45586D01*
X77273Y-45651D01*
X77142Y-45692D01*
X77004Y-45706D01*
X76868Y-45694D01*
X76736Y-45655D01*
X76613Y-45591D01*
X76506Y-45505D01*
X76417Y-45399D01*
X76351Y-45278D01*
X76309Y-45146D01*
X76294Y-45009D01*
X76305Y-44873D01*
X76343Y-44740D01*
X76406Y-44618D01*
X76492Y-44509D01*
X76597Y-44420D01*
X76717Y-44353D01*
X76849Y-44310D01*
X76986Y-44294D01*
X77122Y-44304D01*
X77255Y-44341D01*
X77378Y-44404D01*
X77487Y-44489D01*
X77577Y-44593D01*
X77645Y-44713D01*
X77689Y-44844D01*
X77706Y-44981D01*
X77707Y-45000D01*
X37707Y-45000D02*
X37693Y-45137D01*
X37653Y-45269D01*
X37588Y-45391D01*
X37501Y-45498D01*
X37395Y-45586D01*
X37273Y-45651D01*
X37142Y-45692D01*
X37004Y-45706D01*
X36868Y-45694D01*
X36736Y-45655D01*
X36613Y-45591D01*
X36506Y-45505D01*
X36417Y-45399D01*
X36351Y-45278D01*
X36309Y-45146D01*
X36294Y-45009D01*
X36305Y-44873D01*
X36343Y-44740D01*
X36406Y-44618D01*
X36492Y-44509D01*
X36597Y-44420D01*
X36717Y-44353D01*
X36849Y-44310D01*
X36986Y-44294D01*
X37122Y-44304D01*
X37255Y-44341D01*
X37378Y-44404D01*
X37487Y-44489D01*
X37577Y-44593D01*
X37645Y-44713D01*
X37689Y-44844D01*
X37706Y-44981D01*
X37707Y-45000D01*
X37000Y-44250D02*
X37000Y-45750D01*
X36250Y-45000D02*
X37750Y-45000D01*
X36250Y-45000D02*
X37750Y-45000D01*
X37000Y-44250D02*
X37000Y-45750D01*
X37707Y-45000D02*
X37693Y-45137D01*
X37653Y-45269D01*
X37588Y-45391D01*
X37501Y-45498D01*
X37395Y-45586D01*
X37273Y-45651D01*
X37142Y-45692D01*
X37004Y-45706D01*
X36868Y-45694D01*
X36736Y-45655D01*
X36613Y-45591D01*
X36506Y-45505D01*
X36417Y-45399D01*
X36351Y-45278D01*
X36309Y-45146D01*
X36294Y-45009D01*
X36305Y-44873D01*
X36343Y-44740D01*
X36406Y-44618D01*
X36492Y-44509D01*
X36597Y-44420D01*
X36717Y-44353D01*
X36849Y-44310D01*
X36986Y-44294D01*
X37122Y-44304D01*
X37255Y-44341D01*
X37378Y-44404D01*
X37487Y-44489D01*
X37577Y-44593D01*
X37645Y-44713D01*
X37689Y-44844D01*
X37706Y-44981D01*
X37707Y-45000D01*
X37707Y-45000D02*
X37693Y-45137D01*
X37653Y-45269D01*
X37588Y-45391D01*
X37501Y-45498D01*
X37395Y-45586D01*
X37273Y-45651D01*
X37142Y-45692D01*
X37004Y-45706D01*
X36868Y-45694D01*
X36736Y-45655D01*
X36613Y-45591D01*
X36506Y-45505D01*
X36417Y-45399D01*
X36351Y-45278D01*
X36309Y-45146D01*
X36294Y-45009D01*
X36305Y-44873D01*
X36343Y-44740D01*
X36406Y-44618D01*
X36492Y-44509D01*
X36597Y-44420D01*
X36717Y-44353D01*
X36849Y-44310D01*
X36986Y-44294D01*
X37122Y-44304D01*
X37255Y-44341D01*
X37378Y-44404D01*
X37487Y-44489D01*
X37577Y-44593D01*
X37645Y-44713D01*
X37689Y-44844D01*
X37706Y-44981D01*
X37707Y-45000D01*
X37000Y-44250D02*
X37000Y-45750D01*
X36250Y-45000D02*
X37750Y-45000D01*
X36250Y-45000D02*
X37750Y-45000D01*
X37000Y-44250D02*
X37000Y-45750D01*
X37707Y-45000D02*
X37693Y-45137D01*
X37653Y-45269D01*
X37588Y-45391D01*
X37501Y-45498D01*
X37395Y-45586D01*
X37273Y-45651D01*
X37142Y-45692D01*
X37004Y-45706D01*
X36868Y-45694D01*
X36736Y-45655D01*
X36613Y-45591D01*
X36506Y-45505D01*
X36417Y-45399D01*
X36351Y-45278D01*
X36309Y-45146D01*
X36294Y-45009D01*
X36305Y-44873D01*
X36343Y-44740D01*
X36406Y-44618D01*
X36492Y-44509D01*
X36597Y-44420D01*
X36717Y-44353D01*
X36849Y-44310D01*
X36986Y-44294D01*
X37122Y-44304D01*
X37255Y-44341D01*
X37378Y-44404D01*
X37487Y-44489D01*
X37577Y-44593D01*
X37645Y-44713D01*
X37689Y-44844D01*
X37706Y-44981D01*
X37707Y-45000D01*
G54D12*
X62415Y-45248D02*
X62386Y-45286D01*
X62300Y-45324D01*
X62243Y-45324D01*
X62158Y-45286D01*
X62100Y-45210D01*
X62072Y-45133D01*
X62043Y-44981D01*
X62043Y-44867D01*
X62072Y-44714D01*
X62100Y-44638D01*
X62158Y-44562D01*
X62243Y-44524D01*
X62300Y-44524D01*
X62386Y-44562D01*
X62415Y-44600D01*
X62672Y-45324D02*
X62672Y-44524D01*
X62929Y-45324D02*
X62929Y-44905D01*
X62900Y-44829D01*
X62843Y-44790D01*
X62758Y-44790D01*
X62700Y-44829D01*
X62672Y-44867D01*
X63215Y-45324D02*
X63215Y-44790D01*
X63215Y-44524D02*
X63186Y-44562D01*
X63215Y-44600D01*
X63243Y-44562D01*
X63215Y-44524D01*
X63215Y-44600D01*
X63758Y-45286D02*
X63701Y-45324D01*
X63587Y-45324D01*
X63529Y-45286D01*
X63501Y-45248D01*
X63472Y-45171D01*
X63472Y-44943D01*
X63501Y-44867D01*
X63529Y-44829D01*
X63587Y-44790D01*
X63701Y-44790D01*
X63758Y-44829D01*
X64015Y-45324D02*
X64015Y-44524D01*
X64072Y-45019D02*
X64243Y-45324D01*
X64243Y-44790D02*
X64015Y-45095D01*
X64729Y-45286D02*
X64672Y-45324D01*
X64558Y-45324D01*
X64501Y-45286D01*
X64472Y-45210D01*
X64472Y-44905D01*
X64501Y-44829D01*
X64558Y-44790D01*
X64672Y-44790D01*
X64729Y-44829D01*
X64758Y-44905D01*
X64758Y-44981D01*
X64472Y-45057D01*
X65015Y-44790D02*
X65015Y-45324D01*
X65015Y-44867D02*
X65043Y-44829D01*
X65101Y-44790D01*
X65186Y-44790D01*
X65243Y-44829D01*
X65272Y-44905D01*
X65272Y-45324D01*
X65529Y-45286D02*
X65615Y-45324D01*
X65758Y-45324D01*
X65815Y-45286D01*
X65844Y-45248D01*
X65872Y-45171D01*
X65872Y-45095D01*
X65844Y-45019D01*
X65815Y-44981D01*
X65758Y-44943D01*
X65644Y-44905D01*
X65586Y-44867D01*
X65558Y-44829D01*
X65529Y-44752D01*
X65529Y-44676D01*
X65558Y-44600D01*
X65586Y-44562D01*
X65644Y-44524D01*
X65786Y-44524D01*
X65872Y-44562D01*
X66129Y-45324D02*
X66129Y-44524D01*
X66386Y-45324D02*
X66386Y-44905D01*
X66357Y-44829D01*
X66300Y-44790D01*
X66215Y-44790D01*
X66157Y-44829D01*
X66129Y-44867D01*
X66929Y-45324D02*
X66929Y-44905D01*
X66900Y-44829D01*
X66843Y-44790D01*
X66729Y-44790D01*
X66672Y-44829D01*
X66929Y-45286D02*
X66872Y-45324D01*
X66729Y-45324D01*
X66672Y-45286D01*
X66643Y-45210D01*
X66643Y-45133D01*
X66672Y-45057D01*
X66729Y-45019D01*
X66872Y-45019D01*
X66929Y-44981D01*
X67472Y-45286D02*
X67415Y-45324D01*
X67301Y-45324D01*
X67243Y-45286D01*
X67215Y-45248D01*
X67186Y-45171D01*
X67186Y-44943D01*
X67215Y-44867D01*
X67243Y-44829D01*
X67301Y-44790D01*
X67415Y-44790D01*
X67472Y-44829D01*
X67729Y-45324D02*
X67729Y-44524D01*
X67786Y-45019D02*
X67957Y-45324D01*
X67957Y-44790D02*
X67729Y-45095D01*
X63630Y-46030D02*
X63773Y-46564D01*
X63915Y-46030D01*
X64915Y-46564D02*
X64572Y-46564D01*
X64744Y-46564D02*
X64744Y-45764D01*
X64687Y-45878D01*
X64629Y-45954D01*
X64572Y-45992D01*
X65172Y-46488D02*
X65200Y-46526D01*
X65172Y-46564D01*
X65143Y-46526D01*
X65172Y-46488D01*
X65172Y-46564D01*
X65572Y-45764D02*
X65629Y-45764D01*
X65686Y-45802D01*
X65715Y-45840D01*
X65744Y-45916D01*
X65772Y-46069D01*
X65772Y-46259D01*
X65744Y-46411D01*
X65715Y-46488D01*
X65686Y-46526D01*
X65629Y-46564D01*
X65572Y-46564D01*
X65515Y-46526D01*
X65486Y-46488D01*
X65458Y-46411D01*
X65429Y-46259D01*
X65429Y-46069D01*
X65458Y-45916D01*
X65486Y-45840D01*
X65515Y-45802D01*
X65572Y-45764D01*
X66343Y-46564D02*
X66000Y-46564D01*
X66172Y-46564D02*
X66172Y-45764D01*
X66115Y-45878D01*
X66057Y-45954D01*
X66000Y-45992D01*
X55520Y-52500D02*
X57500Y-52500D01*
X57500Y-52500D02*
X57500Y-53500D01*
X57500Y-53500D02*
X55500Y-53500D01*
X55500Y-53500D02*
X55500Y-52500D01*
X55500Y-52750D02*
X55750Y-52500D01*
X55520Y-53500D02*
X57500Y-53500D01*
X57500Y-53500D02*
X57500Y-54500D01*
X57500Y-54500D02*
X55500Y-54500D01*
X55500Y-54500D02*
X55500Y-53500D01*
X55500Y-53750D02*
X55750Y-53500D01*
X53520Y-45500D02*
X55500Y-45500D01*
X55500Y-45500D02*
X55500Y-46500D01*
X55500Y-46500D02*
X53500Y-46500D01*
X53500Y-46500D02*
X53500Y-45500D01*
X53500Y-45750D02*
X53750Y-45500D01*
X55520Y-45500D02*
X57500Y-45500D01*
X57500Y-45500D02*
X57500Y-46500D01*
X57500Y-46500D02*
X55500Y-46500D01*
X55500Y-46500D02*
X55500Y-45500D01*
X55500Y-45750D02*
X55750Y-45500D01*
X55520Y-46500D02*
X57500Y-46500D01*
X57500Y-46500D02*
X57500Y-47500D01*
X57500Y-47500D02*
X55500Y-47500D01*
X55500Y-47500D02*
X55500Y-46500D01*
X55500Y-46750D02*
X55750Y-46500D01*
G54D13*
X55150Y-58000D02*
X54800Y-58000D01*
X55100Y-58400D02*
X55900Y-58400D01*
X55900Y-58400D02*
X55900Y-58350D01*
X55900Y-58350D02*
X55100Y-58350D01*
X56100Y-58300D02*
X54900Y-58300D01*
X56500Y-57500D02*
X56480Y-57694D01*
X56424Y-57881D01*
X56332Y-58053D01*
X56209Y-58204D01*
X56059Y-58329D01*
X55887Y-58421D01*
X55701Y-58479D01*
X55506Y-58499D01*
X55313Y-58482D01*
X55126Y-58427D01*
X54953Y-58336D01*
X54801Y-58214D01*
X54675Y-58064D01*
X54581Y-57893D01*
X54522Y-57707D01*
X54501Y-57513D01*
X54517Y-57320D01*
X54571Y-57132D01*
X54660Y-56959D01*
X54781Y-56806D01*
X54930Y-56679D01*
X55100Y-56584D01*
X55286Y-56524D01*
X55480Y-56501D01*
X55673Y-56516D01*
X55861Y-56568D01*
X56035Y-56656D01*
X56189Y-56776D01*
X56317Y-56924D01*
X56413Y-57094D01*
X56475Y-57279D01*
X56499Y-57473D01*
X56500Y-57500D01*
X48150Y-58000D02*
X47800Y-58000D01*
X48100Y-58400D02*
X48900Y-58400D01*
X48900Y-58400D02*
X48900Y-58350D01*
X48900Y-58350D02*
X48100Y-58350D01*
X49100Y-58300D02*
X47900Y-58300D01*
X49500Y-57500D02*
X49480Y-57694D01*
X49424Y-57881D01*
X49332Y-58053D01*
X49209Y-58204D01*
X49059Y-58329D01*
X48887Y-58421D01*
X48701Y-58479D01*
X48506Y-58499D01*
X48313Y-58482D01*
X48126Y-58427D01*
X47953Y-58336D01*
X47801Y-58214D01*
X47675Y-58064D01*
X47581Y-57893D01*
X47522Y-57707D01*
X47501Y-57513D01*
X47517Y-57320D01*
X47571Y-57132D01*
X47660Y-56959D01*
X47781Y-56806D01*
X47930Y-56679D01*
X48100Y-56584D01*
X48286Y-56524D01*
X48480Y-56501D01*
X48673Y-56516D01*
X48861Y-56568D01*
X49035Y-56656D01*
X49189Y-56776D01*
X49317Y-56924D01*
X49413Y-57094D01*
X49475Y-57279D01*
X49499Y-57473D01*
X49500Y-57500D01*
G54D12*
X45500Y-58000D02*
X45500Y-55000D01*
X45500Y-55000D02*
X46500Y-55000D01*
X46500Y-55000D02*
X46500Y-58000D01*
X46500Y-58000D02*
X45500Y-58000D01*
X45500Y-55250D02*
X46500Y-55250D01*
X46500Y-55500D02*
X45500Y-55500D01*
X46000Y-58000D02*
X46000Y-58500D01*
X46000Y-55000D02*
X46000Y-54500D01*
X45500Y-55000D02*
X45500Y-58000D01*
X45500Y-58000D02*
X44500Y-58000D01*
X44500Y-58000D02*
X44500Y-55000D01*
X44500Y-55000D02*
X45500Y-55000D01*
X45500Y-57750D02*
X44500Y-57750D01*
X44500Y-57500D02*
X45500Y-57500D01*
X45000Y-55000D02*
X45000Y-54500D01*
X45000Y-58000D02*
X45000Y-58500D01*
X43000Y-58000D02*
X43000Y-55000D01*
X43000Y-55000D02*
X44000Y-55000D01*
X44000Y-55000D02*
X44000Y-58000D01*
X44000Y-58000D02*
X43000Y-58000D01*
X43000Y-55250D02*
X44000Y-55250D01*
X44000Y-55500D02*
X43000Y-55500D01*
X43500Y-58000D02*
X43500Y-58500D01*
X43500Y-55000D02*
X43500Y-54500D01*
X43000Y-55000D02*
X43000Y-58000D01*
X43000Y-58000D02*
X42000Y-58000D01*
X42000Y-58000D02*
X42000Y-55000D01*
X42000Y-55000D02*
X43000Y-55000D01*
X43000Y-57750D02*
X42000Y-57750D01*
X42000Y-57500D02*
X43000Y-57500D01*
X42500Y-55000D02*
X42500Y-54500D01*
X42500Y-58000D02*
X42500Y-58500D01*
X40500Y-58000D02*
X40500Y-55000D01*
X40500Y-55000D02*
X41500Y-55000D01*
X41500Y-55000D02*
X41500Y-58000D01*
X41500Y-58000D02*
X40500Y-58000D01*
X40500Y-55250D02*
X41500Y-55250D01*
X41500Y-55500D02*
X40500Y-55500D01*
X41000Y-58000D02*
X41000Y-58500D01*
X41000Y-55000D02*
X41000Y-54500D01*
X40500Y-55000D02*
X40500Y-58000D01*
X40500Y-58000D02*
X39500Y-58000D01*
X39500Y-58000D02*
X39500Y-55000D01*
X39500Y-55000D02*
X40500Y-55000D01*
X40500Y-57750D02*
X39500Y-57750D01*
X39500Y-57500D02*
X40500Y-57500D01*
X40000Y-55000D02*
X40000Y-54500D01*
X40000Y-58000D02*
X40000Y-58500D01*
X38000Y-58000D02*
X38000Y-55000D01*
X38000Y-55000D02*
X39000Y-55000D01*
X39000Y-55000D02*
X39000Y-58000D01*
X39000Y-58000D02*
X38000Y-58000D01*
X38000Y-55250D02*
X39000Y-55250D01*
X39000Y-55500D02*
X38000Y-55500D01*
X38500Y-58000D02*
X38500Y-58500D01*
X38500Y-55000D02*
X38500Y-54500D01*
X38000Y-55000D02*
X38000Y-58000D01*
X38000Y-58000D02*
X37000Y-58000D01*
X37000Y-58000D02*
X37000Y-55000D01*
X37000Y-55000D02*
X38000Y-55000D01*
X38000Y-57750D02*
X37000Y-57750D01*
X37000Y-57500D02*
X38000Y-57500D01*
X37500Y-55000D02*
X37500Y-54500D01*
X37500Y-58000D02*
X37500Y-58500D01*
G54D11*
X64000Y-51000D02*
X49000Y-51000D01*
X49000Y-51000D02*
X49000Y-49000D01*
X49000Y-49000D02*
X64000Y-49000D01*
X64000Y-49000D02*
X64000Y-51000D01*
X64000Y-50500D02*
X63500Y-50500D01*
X63500Y-50500D02*
X63500Y-49500D01*
X63500Y-49500D02*
X64000Y-49500D01*
G54D13*
X52500Y-55500D02*
X52500Y-56000D01*
X52500Y-56000D02*
X51500Y-56000D01*
X51500Y-56000D02*
X51500Y-55500D01*
X53000Y-55500D02*
X53000Y-59500D01*
X53000Y-59500D02*
X51000Y-59500D01*
X51000Y-59500D02*
X51000Y-55500D01*
X51000Y-55500D02*
X53000Y-55500D01*
G54D11*
X50000Y-54000D02*
X49971Y-54291D01*
X49886Y-54571D01*
X49749Y-54830D01*
X49564Y-55056D01*
X49338Y-55243D01*
X49081Y-55382D01*
X48801Y-55469D01*
X48510Y-55499D01*
X48219Y-55473D01*
X47939Y-55390D01*
X47679Y-55255D01*
X47451Y-55071D01*
X47263Y-54847D01*
X47122Y-54590D01*
X47033Y-54311D01*
X47001Y-54020D01*
X47025Y-53730D01*
X47106Y-53448D01*
X47240Y-53188D01*
X47421Y-52959D01*
X47644Y-52769D01*
X47900Y-52626D01*
X48178Y-52535D01*
X48469Y-52501D01*
X48760Y-52523D01*
X49042Y-52602D01*
X49303Y-52734D01*
X49534Y-52914D01*
X49725Y-53136D01*
X49870Y-53390D01*
X49962Y-53668D01*
X49999Y-53959D01*
X50000Y-54000D01*
G54D14*
X50316Y-46000D02*
X50309Y-46061D01*
X50292Y-46120D01*
X50263Y-46174D01*
X50224Y-46222D01*
X50176Y-46261D01*
X50122Y-46291D01*
X50063Y-46309D01*
X50002Y-46315D01*
X49941Y-46310D01*
X49882Y-46292D01*
X49827Y-46264D01*
X49779Y-46225D01*
X49740Y-46178D01*
X49710Y-46124D01*
X49691Y-46065D01*
X49685Y-46004D01*
X49690Y-45943D01*
X49707Y-45884D01*
X49735Y-45829D01*
X49773Y-45781D01*
X49820Y-45741D01*
X49874Y-45711D01*
X49933Y-45692D01*
X49994Y-45685D01*
X50054Y-45689D01*
X50114Y-45706D01*
X50169Y-45734D01*
X50217Y-45772D01*
X50258Y-45818D01*
X50288Y-45872D01*
X50308Y-45930D01*
X50315Y-45992D01*
X50316Y-46000D01*
G54D12*
X63000Y-47000D02*
X62600Y-47000D01*
X62600Y-47000D02*
X62600Y-47400D01*
X62600Y-47400D02*
X59400Y-47400D01*
X59400Y-47400D02*
X59400Y-46600D01*
X59400Y-46600D02*
X62600Y-46600D01*
X62600Y-46600D02*
X62600Y-47000D01*
X62600Y-47200D02*
X62400Y-47400D01*
X59000Y-47000D02*
X59400Y-47000D01*
X53500Y-47500D02*
X53500Y-46500D01*
X53500Y-46500D02*
X55500Y-46500D01*
X55500Y-46500D02*
X55500Y-47500D01*
X55500Y-47500D02*
X53500Y-47500D01*
G54D11*
X46500Y-52000D02*
X46500Y-46000D01*
X37500Y-46000D02*
X37500Y-52000D01*
X37500Y-46000D02*
X46500Y-46000D01*
X46500Y-52000D02*
X37500Y-52000D01*
G54D14*
X53500Y-54500D02*
X54400Y-54500D01*
X54400Y-54500D02*
X54400Y-52500D01*
X54400Y-52500D02*
X53500Y-52500D01*
X52300Y-54500D02*
X51600Y-53900D01*
X51600Y-53900D02*
X51600Y-53100D01*
X51600Y-53100D02*
X52300Y-52500D01*
X53316Y-53500D02*
X53309Y-53561D01*
X53292Y-53620D01*
X53263Y-53674D01*
X53224Y-53722D01*
X53176Y-53761D01*
X53122Y-53791D01*
X53063Y-53809D01*
X53002Y-53815D01*
X52941Y-53810D01*
X52882Y-53792D01*
X52827Y-53764D01*
X52779Y-53725D01*
X52740Y-53678D01*
X52710Y-53624D01*
X52691Y-53565D01*
X52685Y-53504D01*
X52690Y-53443D01*
X52707Y-53384D01*
X52735Y-53329D01*
X52773Y-53281D01*
X52820Y-53241D01*
X52874Y-53211D01*
X52933Y-53192D01*
X52994Y-53185D01*
X53054Y-53189D01*
X53114Y-53206D01*
X53169Y-53234D01*
X53217Y-53272D01*
X53258Y-53318D01*
X53288Y-53372D01*
X53308Y-53430D01*
X53315Y-53492D01*
X53316Y-53500D01*
G54D11*
X66276Y-48201D02*
X69425Y-45839D01*
X69425Y-45839D02*
X73362Y-45839D01*
X73362Y-45839D02*
X76512Y-48201D01*
X76512Y-48201D02*
X76512Y-58062D01*
X76512Y-58062D02*
X66276Y-58062D01*
X66276Y-58062D02*
X66276Y-48201D01*
G54D12*
X46000Y-60000D02*
X46000Y-63000D01*
X54000Y-63000D02*
X54000Y-60000D01*
X54000Y-62500D02*
X46000Y-62500D01*
X46000Y-60000D02*
X54000Y-60000D01*
X46000Y-63000D02*
X54000Y-63000D01*
X68000Y-62500D02*
X64000Y-62500D01*
X68000Y-63000D02*
X68000Y-60000D01*
X68000Y-60000D02*
X64000Y-60000D01*
X64000Y-60000D02*
X64000Y-63000D01*
X64000Y-63000D02*
X68000Y-63000D01*
X69000Y-60000D02*
X69000Y-63000D01*
X77000Y-63000D02*
X77000Y-60000D01*
X77000Y-62500D02*
X69000Y-62500D01*
X69000Y-60000D02*
X77000Y-60000D01*
X69000Y-63000D02*
X77000Y-63000D01*
X55000Y-60000D02*
X55000Y-63000D01*
X63000Y-63000D02*
X63000Y-60000D01*
X63000Y-62500D02*
X55000Y-62500D01*
X55000Y-60000D02*
X63000Y-60000D01*
X55000Y-63000D02*
X63000Y-63000D01*
X37000Y-60000D02*
X37000Y-63000D01*
X45000Y-63000D02*
X45000Y-60000D01*
X45000Y-62500D02*
X37000Y-62500D01*
X37000Y-60000D02*
X45000Y-60000D01*
X37000Y-63000D02*
X45000Y-63000D01*
X50500Y-45500D02*
X51500Y-45500D01*
X51500Y-45500D02*
X51500Y-47500D01*
X51500Y-47500D02*
X50500Y-47500D01*
X50500Y-47500D02*
X50500Y-45500D01*
X60000Y-58000D02*
X58500Y-56500D01*
X58500Y-56500D02*
X58000Y-56500D01*
X58000Y-56500D02*
X57500Y-57000D01*
X57500Y-57000D02*
X57500Y-58000D01*
X57500Y-58000D02*
X58500Y-59000D01*
X58500Y-59000D02*
X59500Y-59000D01*
X59500Y-59000D02*
X60000Y-58500D01*
X60000Y-58500D02*
X60000Y-58000D01*
X60000Y-57000D02*
X61500Y-58500D01*
X61500Y-58500D02*
X62000Y-58500D01*
X62000Y-58500D02*
X62500Y-58000D01*
X62500Y-58000D02*
X62500Y-57000D01*
X62500Y-57000D02*
X61500Y-56000D01*
X61500Y-56000D02*
X60500Y-56000D01*
X60500Y-56000D02*
X60000Y-56500D01*
X60000Y-56500D02*
X60000Y-57000D01*
G54D11*
X64000Y-59000D02*
X63000Y-59000D01*
X64559Y-59000D02*
X64548Y-59108D01*
X64516Y-59213D01*
X64465Y-59309D01*
X64396Y-59393D01*
X64312Y-59463D01*
X64216Y-59515D01*
X64112Y-59547D01*
X64003Y-59558D01*
X63896Y-59549D01*
X63791Y-59518D01*
X63694Y-59467D01*
X63609Y-59399D01*
X63539Y-59315D01*
X63487Y-59220D01*
X63454Y-59116D01*
X63442Y-59007D01*
X63451Y-58900D01*
X63481Y-58795D01*
X63531Y-58698D01*
X63598Y-58612D01*
X63681Y-58541D01*
X63777Y-58488D01*
X63880Y-58455D01*
X63989Y-58442D01*
X64097Y-58450D01*
X64202Y-58479D01*
X64299Y-58529D01*
X64385Y-58596D01*
X64456Y-58678D01*
X64510Y-58773D01*
X64545Y-58877D01*
X64558Y-58985D01*
X64559Y-59000D01*
X63500Y-54000D02*
X64500Y-54000D01*
X64059Y-54000D02*
X64048Y-54108D01*
X64016Y-54213D01*
X63965Y-54309D01*
X63896Y-54393D01*
X63812Y-54463D01*
X63716Y-54515D01*
X63612Y-54547D01*
X63503Y-54558D01*
X63396Y-54549D01*
X63291Y-54518D01*
X63194Y-54467D01*
X63109Y-54399D01*
X63039Y-54315D01*
X62987Y-54220D01*
X62954Y-54116D01*
X62942Y-54007D01*
X62951Y-53900D01*
X62981Y-53795D01*
X63031Y-53698D01*
X63098Y-53612D01*
X63181Y-53541D01*
X63277Y-53488D01*
X63380Y-53455D01*
X63489Y-53442D01*
X63597Y-53450D01*
X63702Y-53479D01*
X63799Y-53529D01*
X63885Y-53596D01*
X63956Y-53678D01*
X64010Y-53773D01*
X64045Y-53877D01*
X64058Y-53985D01*
X64059Y-54000D01*
X60500Y-54000D02*
X61500Y-54000D01*
X61059Y-54000D02*
X61048Y-54108D01*
X61016Y-54213D01*
X60965Y-54309D01*
X60896Y-54393D01*
X60812Y-54463D01*
X60716Y-54515D01*
X60612Y-54547D01*
X60503Y-54558D01*
X60396Y-54549D01*
X60291Y-54518D01*
X60194Y-54467D01*
X60109Y-54399D01*
X60039Y-54315D01*
X59987Y-54220D01*
X59954Y-54116D01*
X59942Y-54007D01*
X59951Y-53900D01*
X59981Y-53795D01*
X60031Y-53698D01*
X60098Y-53612D01*
X60181Y-53541D01*
X60277Y-53488D01*
X60380Y-53455D01*
X60489Y-53442D01*
X60597Y-53450D01*
X60702Y-53479D01*
X60799Y-53529D01*
X60885Y-53596D01*
X60956Y-53678D01*
X61010Y-53773D01*
X61045Y-53877D01*
X61058Y-53985D01*
X61059Y-54000D01*
X59000Y-53000D02*
X60000Y-53000D01*
X59559Y-53000D02*
X59548Y-53108D01*
X59516Y-53213D01*
X59465Y-53309D01*
X59396Y-53393D01*
X59312Y-53463D01*
X59216Y-53515D01*
X59112Y-53547D01*
X59003Y-53558D01*
X58896Y-53549D01*
X58791Y-53518D01*
X58694Y-53467D01*
X58609Y-53399D01*
X58539Y-53315D01*
X58487Y-53220D01*
X58454Y-53116D01*
X58442Y-53007D01*
X58451Y-52900D01*
X58481Y-52795D01*
X58531Y-52698D01*
X58598Y-52612D01*
X58681Y-52541D01*
X58777Y-52488D01*
X58880Y-52455D01*
X58989Y-52442D01*
X59097Y-52450D01*
X59202Y-52479D01*
X59299Y-52529D01*
X59385Y-52596D01*
X59456Y-52678D01*
X59510Y-52773D01*
X59545Y-52877D01*
X59558Y-52985D01*
X59559Y-53000D01*
X62000Y-53000D02*
X63000Y-53000D01*
X62559Y-53000D02*
X62548Y-53108D01*
X62516Y-53213D01*
X62465Y-53309D01*
X62396Y-53393D01*
X62312Y-53463D01*
X62216Y-53515D01*
X62112Y-53547D01*
X62003Y-53558D01*
X61896Y-53549D01*
X61791Y-53518D01*
X61694Y-53467D01*
X61609Y-53399D01*
X61539Y-53315D01*
X61487Y-53220D01*
X61454Y-53116D01*
X61442Y-53007D01*
X61451Y-52900D01*
X61481Y-52795D01*
X61531Y-52698D01*
X61598Y-52612D01*
X61681Y-52541D01*
X61777Y-52488D01*
X61880Y-52455D01*
X61989Y-52442D01*
X62097Y-52450D01*
X62202Y-52479D01*
X62299Y-52529D01*
X62385Y-52596D01*
X62456Y-52678D01*
X62510Y-52773D01*
X62545Y-52877D01*
X62558Y-52985D01*
X62559Y-53000D01*
G54D15*
X56534Y-52224D02*
X56515Y-52243D01*
X56458Y-52262D01*
X56420Y-52262D01*
X56362Y-52243D01*
X56324Y-52205D01*
X56305Y-52167D01*
X56286Y-52090D01*
X56286Y-52033D01*
X56305Y-51957D01*
X56324Y-51919D01*
X56362Y-51881D01*
X56420Y-51862D01*
X56458Y-51862D01*
X56515Y-51881D01*
X56534Y-51900D01*
X56667Y-51862D02*
X56934Y-51862D01*
X56762Y-52262D01*
X56534Y-55024D02*
X56515Y-55043D01*
X56458Y-55062D01*
X56420Y-55062D01*
X56362Y-55043D01*
X56324Y-55005D01*
X56305Y-54967D01*
X56286Y-54890D01*
X56286Y-54833D01*
X56305Y-54757D01*
X56324Y-54719D01*
X56362Y-54681D01*
X56420Y-54662D01*
X56458Y-54662D01*
X56515Y-54681D01*
X56534Y-54700D01*
X56877Y-54662D02*
X56800Y-54662D01*
X56762Y-54681D01*
X56743Y-54700D01*
X56705Y-54757D01*
X56686Y-54833D01*
X56686Y-54986D01*
X56705Y-55024D01*
X56724Y-55043D01*
X56762Y-55062D01*
X56839Y-55062D01*
X56877Y-55043D01*
X56896Y-55024D01*
X56915Y-54986D01*
X56915Y-54890D01*
X56896Y-54852D01*
X56877Y-54833D01*
X56839Y-54814D01*
X56762Y-54814D01*
X56724Y-54833D01*
X56705Y-54852D01*
X56686Y-54890D01*
X54534Y-45224D02*
X54515Y-45243D01*
X54458Y-45262D01*
X54420Y-45262D01*
X54362Y-45243D01*
X54324Y-45205D01*
X54305Y-45167D01*
X54286Y-45090D01*
X54286Y-45033D01*
X54305Y-44957D01*
X54324Y-44919D01*
X54362Y-44881D01*
X54420Y-44862D01*
X54458Y-44862D01*
X54515Y-44881D01*
X54534Y-44900D01*
X54896Y-44862D02*
X54705Y-44862D01*
X54686Y-45052D01*
X54705Y-45033D01*
X54743Y-45014D01*
X54839Y-45014D01*
X54877Y-45033D01*
X54896Y-45052D01*
X54915Y-45090D01*
X54915Y-45186D01*
X54896Y-45224D01*
X54877Y-45243D01*
X54839Y-45262D01*
X54743Y-45262D01*
X54705Y-45243D01*
X54686Y-45224D01*
X56534Y-45224D02*
X56515Y-45243D01*
X56458Y-45262D01*
X56420Y-45262D01*
X56362Y-45243D01*
X56324Y-45205D01*
X56305Y-45167D01*
X56286Y-45090D01*
X56286Y-45033D01*
X56305Y-44957D01*
X56324Y-44919D01*
X56362Y-44881D01*
X56420Y-44862D01*
X56458Y-44862D01*
X56515Y-44881D01*
X56534Y-44900D01*
X56877Y-44995D02*
X56877Y-45262D01*
X56781Y-44843D02*
X56686Y-45129D01*
X56934Y-45129D01*
X56534Y-48024D02*
X56515Y-48043D01*
X56458Y-48062D01*
X56420Y-48062D01*
X56362Y-48043D01*
X56324Y-48005D01*
X56305Y-47967D01*
X56286Y-47890D01*
X56286Y-47833D01*
X56305Y-47757D01*
X56324Y-47719D01*
X56362Y-47681D01*
X56420Y-47662D01*
X56458Y-47662D01*
X56515Y-47681D01*
X56534Y-47700D01*
X56667Y-47662D02*
X56915Y-47662D01*
X56781Y-47814D01*
X56839Y-47814D01*
X56877Y-47833D01*
X56896Y-47852D01*
X56915Y-47890D01*
X56915Y-47986D01*
X56896Y-48024D01*
X56877Y-48043D01*
X56839Y-48062D01*
X56724Y-48062D01*
X56686Y-48043D01*
X56667Y-48024D01*
G54D12*
X55401Y-59186D02*
X55372Y-59214D01*
X55286Y-59243D01*
X55229Y-59243D01*
X55144Y-59214D01*
X55086Y-59157D01*
X55058Y-59100D01*
X55029Y-58986D01*
X55029Y-58900D01*
X55058Y-58786D01*
X55086Y-58729D01*
X55144Y-58671D01*
X55229Y-58643D01*
X55286Y-58643D01*
X55372Y-58671D01*
X55401Y-58700D01*
X55629Y-58700D02*
X55658Y-58671D01*
X55715Y-58643D01*
X55858Y-58643D01*
X55915Y-58671D01*
X55944Y-58700D01*
X55972Y-58757D01*
X55972Y-58814D01*
X55944Y-58900D01*
X55601Y-59243D01*
X55972Y-59243D01*
X55101Y-56186D02*
X55072Y-56214D01*
X54986Y-56243D01*
X54929Y-56243D01*
X54844Y-56214D01*
X54786Y-56157D01*
X54758Y-56100D01*
X54729Y-55986D01*
X54729Y-55900D01*
X54758Y-55786D01*
X54786Y-55729D01*
X54844Y-55671D01*
X54929Y-55643D01*
X54986Y-55643D01*
X55072Y-55671D01*
X55101Y-55700D01*
X55358Y-56243D02*
X55358Y-55643D01*
X55586Y-55643D01*
X55644Y-55671D01*
X55672Y-55700D01*
X55701Y-55757D01*
X55701Y-55843D01*
X55672Y-55900D01*
X55644Y-55929D01*
X55586Y-55957D01*
X55358Y-55957D01*
X56272Y-56243D02*
X55929Y-56243D01*
X56101Y-56243D02*
X56101Y-55643D01*
X56044Y-55729D01*
X55986Y-55786D01*
X55929Y-55814D01*
X48401Y-59186D02*
X48372Y-59214D01*
X48286Y-59243D01*
X48229Y-59243D01*
X48144Y-59214D01*
X48086Y-59157D01*
X48058Y-59100D01*
X48029Y-58986D01*
X48029Y-58900D01*
X48058Y-58786D01*
X48086Y-58729D01*
X48144Y-58671D01*
X48229Y-58643D01*
X48286Y-58643D01*
X48372Y-58671D01*
X48401Y-58700D01*
X48972Y-59243D02*
X48629Y-59243D01*
X48801Y-59243D02*
X48801Y-58643D01*
X48744Y-58729D01*
X48686Y-58786D01*
X48629Y-58814D01*
X48101Y-56186D02*
X48072Y-56214D01*
X47986Y-56243D01*
X47929Y-56243D01*
X47844Y-56214D01*
X47786Y-56157D01*
X47758Y-56100D01*
X47729Y-55986D01*
X47729Y-55900D01*
X47758Y-55786D01*
X47786Y-55729D01*
X47844Y-55671D01*
X47929Y-55643D01*
X47986Y-55643D01*
X48072Y-55671D01*
X48101Y-55700D01*
X48358Y-56243D02*
X48358Y-55643D01*
X48586Y-55643D01*
X48644Y-55671D01*
X48672Y-55700D01*
X48701Y-55757D01*
X48701Y-55843D01*
X48672Y-55900D01*
X48644Y-55929D01*
X48586Y-55957D01*
X48358Y-55957D01*
X49272Y-56243D02*
X48929Y-56243D01*
X49101Y-56243D02*
X49101Y-55643D01*
X49044Y-55729D01*
X48986Y-55786D01*
X48929Y-55814D01*
G54D15*
X46202Y-56795D02*
X45702Y-56795D01*
X45702Y-56700D01*
X45726Y-56642D01*
X45774Y-56604D01*
X45821Y-56585D01*
X45917Y-56566D01*
X45988Y-56566D01*
X46083Y-56585D01*
X46131Y-56604D01*
X46179Y-56642D01*
X46202Y-56700D01*
X46202Y-56795D01*
X45917Y-56338D02*
X45893Y-56376D01*
X45869Y-56395D01*
X45821Y-56414D01*
X45798Y-56414D01*
X45750Y-56395D01*
X45726Y-56376D01*
X45702Y-56338D01*
X45702Y-56261D01*
X45726Y-56223D01*
X45750Y-56204D01*
X45798Y-56185D01*
X45821Y-56185D01*
X45869Y-56204D01*
X45893Y-56223D01*
X45917Y-56261D01*
X45917Y-56338D01*
X45940Y-56376D01*
X45964Y-56395D01*
X46012Y-56414D01*
X46107Y-56414D01*
X46155Y-56395D01*
X46179Y-56376D01*
X46202Y-56338D01*
X46202Y-56261D01*
X46179Y-56223D01*
X46155Y-56204D01*
X46107Y-56185D01*
X46012Y-56185D01*
X45964Y-56204D01*
X45940Y-56223D01*
X45917Y-56261D01*
X45202Y-56795D02*
X44702Y-56795D01*
X44702Y-56700D01*
X44726Y-56642D01*
X44774Y-56604D01*
X44821Y-56585D01*
X44917Y-56566D01*
X44988Y-56566D01*
X45083Y-56585D01*
X45131Y-56604D01*
X45179Y-56642D01*
X45202Y-56700D01*
X45202Y-56795D01*
X44702Y-56433D02*
X44702Y-56166D01*
X45202Y-56338D01*
X43702Y-56795D02*
X43202Y-56795D01*
X43202Y-56700D01*
X43226Y-56642D01*
X43274Y-56604D01*
X43321Y-56585D01*
X43417Y-56566D01*
X43488Y-56566D01*
X43583Y-56585D01*
X43631Y-56604D01*
X43679Y-56642D01*
X43702Y-56700D01*
X43702Y-56795D01*
X43202Y-56223D02*
X43202Y-56300D01*
X43226Y-56338D01*
X43250Y-56357D01*
X43321Y-56395D01*
X43417Y-56414D01*
X43607Y-56414D01*
X43655Y-56395D01*
X43679Y-56376D01*
X43702Y-56338D01*
X43702Y-56261D01*
X43679Y-56223D01*
X43655Y-56204D01*
X43607Y-56185D01*
X43488Y-56185D01*
X43440Y-56204D01*
X43417Y-56223D01*
X43393Y-56261D01*
X43393Y-56338D01*
X43417Y-56376D01*
X43440Y-56395D01*
X43488Y-56414D01*
X42702Y-56795D02*
X42202Y-56795D01*
X42202Y-56700D01*
X42226Y-56642D01*
X42274Y-56604D01*
X42321Y-56585D01*
X42417Y-56566D01*
X42488Y-56566D01*
X42583Y-56585D01*
X42631Y-56604D01*
X42679Y-56642D01*
X42702Y-56700D01*
X42702Y-56795D01*
X42202Y-56204D02*
X42202Y-56395D01*
X42440Y-56414D01*
X42417Y-56395D01*
X42393Y-56357D01*
X42393Y-56261D01*
X42417Y-56223D01*
X42440Y-56204D01*
X42488Y-56185D01*
X42607Y-56185D01*
X42655Y-56204D01*
X42679Y-56223D01*
X42702Y-56261D01*
X42702Y-56357D01*
X42679Y-56395D01*
X42655Y-56414D01*
X41202Y-56795D02*
X40702Y-56795D01*
X40702Y-56700D01*
X40726Y-56642D01*
X40774Y-56604D01*
X40821Y-56585D01*
X40917Y-56566D01*
X40988Y-56566D01*
X41083Y-56585D01*
X41131Y-56604D01*
X41179Y-56642D01*
X41202Y-56700D01*
X41202Y-56795D01*
X40869Y-56223D02*
X41202Y-56223D01*
X40679Y-56319D02*
X41036Y-56414D01*
X41036Y-56166D01*
X40202Y-56795D02*
X39702Y-56795D01*
X39702Y-56700D01*
X39726Y-56642D01*
X39774Y-56604D01*
X39821Y-56585D01*
X39917Y-56566D01*
X39988Y-56566D01*
X40083Y-56585D01*
X40131Y-56604D01*
X40179Y-56642D01*
X40202Y-56700D01*
X40202Y-56795D01*
X39702Y-56433D02*
X39702Y-56185D01*
X39893Y-56319D01*
X39893Y-56261D01*
X39917Y-56223D01*
X39940Y-56204D01*
X39988Y-56185D01*
X40107Y-56185D01*
X40155Y-56204D01*
X40179Y-56223D01*
X40202Y-56261D01*
X40202Y-56376D01*
X40179Y-56414D01*
X40155Y-56433D01*
X38702Y-56795D02*
X38202Y-56795D01*
X38202Y-56700D01*
X38226Y-56642D01*
X38274Y-56604D01*
X38321Y-56585D01*
X38417Y-56566D01*
X38488Y-56566D01*
X38583Y-56585D01*
X38631Y-56604D01*
X38679Y-56642D01*
X38702Y-56700D01*
X38702Y-56795D01*
X38250Y-56414D02*
X38226Y-56395D01*
X38202Y-56357D01*
X38202Y-56261D01*
X38226Y-56223D01*
X38250Y-56204D01*
X38298Y-56185D01*
X38345Y-56185D01*
X38417Y-56204D01*
X38702Y-56433D01*
X38702Y-56185D01*
X37702Y-56795D02*
X37202Y-56795D01*
X37202Y-56700D01*
X37226Y-56642D01*
X37274Y-56604D01*
X37321Y-56585D01*
X37417Y-56566D01*
X37488Y-56566D01*
X37583Y-56585D01*
X37631Y-56604D01*
X37679Y-56642D01*
X37702Y-56700D01*
X37702Y-56795D01*
X37702Y-56185D02*
X37702Y-56414D01*
X37702Y-56300D02*
X37202Y-56300D01*
X37274Y-56338D01*
X37321Y-56376D01*
X37345Y-56414D01*
G54D16*
X60657Y-49643D02*
X60657Y-50129D01*
X60679Y-50186D01*
X60700Y-50214D01*
X60743Y-50243D01*
X60829Y-50243D01*
X60871Y-50214D01*
X60893Y-50186D01*
X60914Y-50129D01*
X60914Y-49643D01*
X61107Y-49700D02*
X61128Y-49671D01*
X61171Y-49643D01*
X61278Y-49643D01*
X61321Y-49671D01*
X61342Y-49700D01*
X61364Y-49757D01*
X61364Y-49814D01*
X61342Y-49900D01*
X61085Y-50243D01*
X61364Y-50243D01*
X50218Y-50071D02*
X50432Y-50071D01*
X50175Y-50243D02*
X50325Y-49643D01*
X50475Y-50243D01*
X50561Y-49643D02*
X50818Y-49643D01*
X50689Y-50243D02*
X50689Y-49643D01*
X50968Y-50243D02*
X50968Y-49643D01*
X51118Y-50071D01*
X51268Y-49643D01*
X51268Y-50243D01*
X51482Y-49929D02*
X51632Y-49929D01*
X51696Y-50243D02*
X51482Y-50243D01*
X51482Y-49643D01*
X51696Y-49643D01*
X52125Y-49671D02*
X52082Y-49643D01*
X52018Y-49643D01*
X51953Y-49671D01*
X51911Y-49729D01*
X51889Y-49786D01*
X51868Y-49900D01*
X51868Y-49986D01*
X51889Y-50100D01*
X51911Y-50157D01*
X51953Y-50214D01*
X52018Y-50243D01*
X52061Y-50243D01*
X52125Y-50214D01*
X52146Y-50186D01*
X52146Y-49986D01*
X52061Y-49986D01*
X52318Y-50071D02*
X52532Y-50071D01*
X52275Y-50243D02*
X52425Y-49643D01*
X52575Y-50243D01*
X52789Y-49900D02*
X52747Y-49871D01*
X52725Y-49843D01*
X52704Y-49786D01*
X52704Y-49757D01*
X52725Y-49700D01*
X52747Y-49671D01*
X52789Y-49643D01*
X52875Y-49643D01*
X52918Y-49671D01*
X52939Y-49700D01*
X52961Y-49757D01*
X52961Y-49786D01*
X52939Y-49843D01*
X52918Y-49871D01*
X52875Y-49900D01*
X52789Y-49900D01*
X52747Y-49929D01*
X52725Y-49957D01*
X52704Y-50014D01*
X52704Y-50129D01*
X52725Y-50186D01*
X52747Y-50214D01*
X52789Y-50243D01*
X52875Y-50243D01*
X52918Y-50214D01*
X52939Y-50186D01*
X52961Y-50129D01*
X52961Y-50014D01*
X52939Y-49957D01*
X52918Y-49929D01*
X52875Y-49900D01*
X53218Y-49900D02*
X53176Y-49871D01*
X53154Y-49843D01*
X53133Y-49786D01*
X53133Y-49757D01*
X53154Y-49700D01*
X53176Y-49671D01*
X53218Y-49643D01*
X53304Y-49643D01*
X53347Y-49671D01*
X53368Y-49700D01*
X53390Y-49757D01*
X53390Y-49786D01*
X53368Y-49843D01*
X53347Y-49871D01*
X53304Y-49900D01*
X53218Y-49900D01*
X53176Y-49929D01*
X53154Y-49957D01*
X53133Y-50014D01*
X53133Y-50129D01*
X53154Y-50186D01*
X53176Y-50214D01*
X53218Y-50243D01*
X53304Y-50243D01*
X53347Y-50214D01*
X53368Y-50186D01*
X53390Y-50129D01*
X53390Y-50014D01*
X53368Y-49957D01*
X53347Y-49929D01*
X53304Y-49900D01*
X53583Y-50014D02*
X53926Y-50014D01*
X54140Y-50243D02*
X54140Y-49643D01*
X54312Y-49643D01*
X54354Y-49671D01*
X54376Y-49700D01*
X54397Y-49757D01*
X54397Y-49843D01*
X54376Y-49900D01*
X54354Y-49929D01*
X54312Y-49957D01*
X54140Y-49957D01*
X54569Y-50071D02*
X54783Y-50071D01*
X54526Y-50243D02*
X54676Y-49643D01*
X54826Y-50243D01*
G54D15*
X51657Y-54702D02*
X51657Y-55107D01*
X51679Y-55155D01*
X51700Y-55179D01*
X51743Y-55202D01*
X51829Y-55202D01*
X51871Y-55179D01*
X51893Y-55155D01*
X51914Y-55107D01*
X51914Y-54702D01*
X52364Y-55202D02*
X52107Y-55202D01*
X52235Y-55202D02*
X52235Y-54702D01*
X52192Y-54774D01*
X52150Y-54821D01*
X52107Y-54845D01*
X52202Y-58567D02*
X51702Y-58567D01*
X52060Y-58433D01*
X51702Y-58300D01*
X52202Y-58300D01*
X52060Y-58129D02*
X52060Y-57938D01*
X52202Y-58167D02*
X51702Y-58034D01*
X52202Y-57900D01*
X51702Y-57805D02*
X52202Y-57538D01*
X51702Y-57538D02*
X52202Y-57805D01*
X51702Y-57214D02*
X51702Y-57291D01*
X51726Y-57329D01*
X51750Y-57348D01*
X51821Y-57386D01*
X51917Y-57405D01*
X52107Y-57405D01*
X52155Y-57386D01*
X52179Y-57367D01*
X52202Y-57329D01*
X52202Y-57252D01*
X52179Y-57214D01*
X52155Y-57195D01*
X52107Y-57176D01*
X51988Y-57176D01*
X51940Y-57195D01*
X51917Y-57214D01*
X51893Y-57252D01*
X51893Y-57329D01*
X51917Y-57367D01*
X51940Y-57386D01*
X51988Y-57405D01*
X51702Y-56929D02*
X51702Y-56890D01*
X51726Y-56852D01*
X51750Y-56833D01*
X51798Y-56814D01*
X51893Y-56795D01*
X52012Y-56795D01*
X52107Y-56814D01*
X52155Y-56833D01*
X52179Y-56852D01*
X52202Y-56890D01*
X52202Y-56929D01*
X52179Y-56967D01*
X52155Y-56986D01*
X52107Y-57005D01*
X52012Y-57024D01*
X51893Y-57024D01*
X51798Y-57005D01*
X51750Y-56986D01*
X51726Y-56967D01*
X51702Y-56929D01*
X51869Y-56452D02*
X52202Y-56452D01*
X51679Y-56548D02*
X52036Y-56643D01*
X52036Y-56395D01*
X49543Y-53899D02*
X49543Y-54185D01*
X48943Y-54185D01*
X49543Y-53385D02*
X49543Y-53728D01*
X49543Y-53556D02*
X48943Y-53556D01*
X49029Y-53613D01*
X49086Y-53671D01*
X49114Y-53728D01*
X47902Y-55626D02*
X47402Y-55626D01*
X47902Y-55388D02*
X47402Y-55388D01*
X47902Y-55102D01*
X47402Y-55102D01*
X47902Y-54864D02*
X47402Y-54864D01*
X47402Y-54745D01*
X47426Y-54673D01*
X47474Y-54626D01*
X47521Y-54602D01*
X47617Y-54578D01*
X47688Y-54578D01*
X47783Y-54602D01*
X47831Y-54626D01*
X47879Y-54673D01*
X47902Y-54745D01*
X47902Y-54864D01*
X47402Y-54364D02*
X47807Y-54364D01*
X47855Y-54340D01*
X47879Y-54316D01*
X47902Y-54269D01*
X47902Y-54173D01*
X47879Y-54126D01*
X47855Y-54102D01*
X47807Y-54078D01*
X47402Y-54078D01*
X47855Y-53554D02*
X47879Y-53578D01*
X47902Y-53649D01*
X47902Y-53697D01*
X47879Y-53769D01*
X47831Y-53816D01*
X47783Y-53840D01*
X47688Y-53864D01*
X47617Y-53864D01*
X47521Y-53840D01*
X47474Y-53816D01*
X47426Y-53769D01*
X47402Y-53697D01*
X47402Y-53649D01*
X47426Y-53578D01*
X47450Y-53554D01*
X47402Y-53411D02*
X47402Y-53126D01*
X47902Y-53269D02*
X47402Y-53269D01*
X47402Y-52864D02*
X47402Y-52768D01*
X47426Y-52721D01*
X47474Y-52673D01*
X47569Y-52649D01*
X47736Y-52649D01*
X47831Y-52673D01*
X47879Y-52721D01*
X47902Y-52768D01*
X47902Y-52864D01*
X47879Y-52911D01*
X47831Y-52959D01*
X47736Y-52983D01*
X47569Y-52983D01*
X47474Y-52959D01*
X47426Y-52911D01*
X47402Y-52864D01*
X47902Y-52149D02*
X47664Y-52316D01*
X47902Y-52435D02*
X47402Y-52435D01*
X47402Y-52244D01*
X47426Y-52197D01*
X47450Y-52173D01*
X47498Y-52149D01*
X47569Y-52149D01*
X47617Y-52173D01*
X47640Y-52197D01*
X47664Y-52244D01*
X47664Y-52435D01*
G54D14*
X49853Y-45582D02*
X49853Y-45382D01*
X49929Y-45382D01*
X49948Y-45391D01*
X49957Y-45401D01*
X49967Y-45420D01*
X49967Y-45449D01*
X49957Y-45468D01*
X49948Y-45477D01*
X49929Y-45487D01*
X49853Y-45487D01*
X50034Y-45382D02*
X50167Y-45382D01*
X50081Y-45582D01*
G54D15*
X60917Y-47223D02*
X60750Y-46961D01*
X60631Y-47223D02*
X60631Y-46673D01*
X60822Y-46673D01*
X60869Y-46699D01*
X60893Y-46725D01*
X60917Y-46777D01*
X60917Y-46856D01*
X60893Y-46908D01*
X60869Y-46935D01*
X60822Y-46961D01*
X60631Y-46961D01*
X61393Y-47223D02*
X61107Y-47223D01*
X61250Y-47223D02*
X61250Y-46673D01*
X61202Y-46751D01*
X61155Y-46804D01*
X61107Y-46830D01*
X54176Y-47662D02*
X54443Y-48062D01*
X54443Y-47662D02*
X54176Y-48062D01*
X54805Y-48062D02*
X54576Y-48062D01*
X54690Y-48062D02*
X54690Y-47662D01*
X54652Y-47719D01*
X54614Y-47757D01*
X54576Y-47776D01*
G54D16*
X39743Y-49825D02*
X39143Y-49825D01*
X39571Y-49675D01*
X39143Y-49525D01*
X39743Y-49525D01*
X39143Y-49225D02*
X39143Y-49139D01*
X39171Y-49097D01*
X39229Y-49054D01*
X39343Y-49032D01*
X39543Y-49032D01*
X39657Y-49054D01*
X39714Y-49097D01*
X39743Y-49139D01*
X39743Y-49225D01*
X39714Y-49268D01*
X39657Y-49311D01*
X39543Y-49332D01*
X39343Y-49332D01*
X39229Y-49311D01*
X39171Y-49268D01*
X39143Y-49225D01*
X39743Y-48840D02*
X39143Y-48840D01*
X39143Y-48733D01*
X39171Y-48668D01*
X39229Y-48626D01*
X39286Y-48604D01*
X39400Y-48583D01*
X39486Y-48583D01*
X39600Y-48604D01*
X39657Y-48626D01*
X39714Y-48668D01*
X39743Y-48733D01*
X39743Y-48840D01*
X39200Y-48411D02*
X39171Y-48390D01*
X39143Y-48347D01*
X39143Y-48240D01*
X39171Y-48197D01*
X39200Y-48176D01*
X39257Y-48154D01*
X39314Y-48154D01*
X39400Y-48176D01*
X39743Y-48433D01*
X39743Y-48154D01*
X44143Y-51754D02*
X44143Y-51497D01*
X44743Y-51626D02*
X44143Y-51626D01*
X44429Y-51197D02*
X44457Y-51133D01*
X44486Y-51111D01*
X44543Y-51090D01*
X44629Y-51090D01*
X44686Y-51111D01*
X44714Y-51133D01*
X44743Y-51175D01*
X44743Y-51347D01*
X44143Y-51347D01*
X44143Y-51197D01*
X44171Y-51154D01*
X44200Y-51133D01*
X44257Y-51111D01*
X44314Y-51111D01*
X44371Y-51133D01*
X44400Y-51154D01*
X44429Y-51197D01*
X44429Y-51347D01*
X44143Y-50704D02*
X44143Y-50790D01*
X44171Y-50833D01*
X44200Y-50854D01*
X44286Y-50897D01*
X44400Y-50918D01*
X44629Y-50918D01*
X44686Y-50897D01*
X44714Y-50875D01*
X44743Y-50833D01*
X44743Y-50747D01*
X44714Y-50704D01*
X44686Y-50683D01*
X44629Y-50661D01*
X44486Y-50661D01*
X44429Y-50683D01*
X44400Y-50704D01*
X44371Y-50747D01*
X44371Y-50833D01*
X44400Y-50875D01*
X44429Y-50897D01*
X44486Y-50918D01*
X44143Y-50275D02*
X44143Y-50361D01*
X44171Y-50404D01*
X44200Y-50425D01*
X44286Y-50468D01*
X44400Y-50489D01*
X44629Y-50489D01*
X44686Y-50468D01*
X44714Y-50446D01*
X44743Y-50404D01*
X44743Y-50318D01*
X44714Y-50275D01*
X44686Y-50254D01*
X44629Y-50232D01*
X44486Y-50232D01*
X44429Y-50254D01*
X44400Y-50275D01*
X44371Y-50318D01*
X44371Y-50404D01*
X44400Y-50446D01*
X44429Y-50468D01*
X44486Y-50489D01*
X44743Y-49803D02*
X44743Y-50060D01*
X44743Y-49932D02*
X44143Y-49932D01*
X44229Y-49975D01*
X44286Y-50017D01*
X44314Y-50060D01*
X44200Y-49631D02*
X44171Y-49610D01*
X44143Y-49567D01*
X44143Y-49460D01*
X44171Y-49417D01*
X44200Y-49396D01*
X44257Y-49374D01*
X44314Y-49374D01*
X44400Y-49396D01*
X44743Y-49653D01*
X44743Y-49374D01*
X44429Y-49031D02*
X44429Y-49181D01*
X44743Y-49181D02*
X44143Y-49181D01*
X44143Y-48967D01*
X44743Y-48795D02*
X44143Y-48795D01*
X44743Y-48538D01*
X44143Y-48538D01*
X44171Y-48088D02*
X44143Y-48131D01*
X44143Y-48195D01*
X44171Y-48260D01*
X44229Y-48302D01*
X44286Y-48324D01*
X44400Y-48345D01*
X44486Y-48345D01*
X44600Y-48324D01*
X44657Y-48302D01*
X44714Y-48260D01*
X44743Y-48195D01*
X44743Y-48152D01*
X44714Y-48088D01*
X44686Y-48067D01*
X44486Y-48067D01*
X44486Y-48152D01*
X44800Y-47981D02*
X44800Y-47638D01*
X44743Y-47531D02*
X44143Y-47531D01*
X44571Y-47381D01*
X44143Y-47231D01*
X44743Y-47231D01*
X44143Y-46931D02*
X44143Y-46845D01*
X44171Y-46803D01*
X44229Y-46760D01*
X44343Y-46738D01*
X44543Y-46738D01*
X44657Y-46760D01*
X44714Y-46803D01*
X44743Y-46845D01*
X44743Y-46931D01*
X44714Y-46974D01*
X44657Y-47017D01*
X44543Y-47038D01*
X44343Y-47038D01*
X44229Y-47017D01*
X44171Y-46974D01*
X44143Y-46931D01*
X44743Y-46546D02*
X44143Y-46546D01*
X44143Y-46439D01*
X44171Y-46374D01*
X44229Y-46332D01*
X44286Y-46310D01*
X44400Y-46289D01*
X44486Y-46289D01*
X44600Y-46310D01*
X44657Y-46332D01*
X44714Y-46374D01*
X44743Y-46439D01*
X44743Y-46546D01*
G54D12*
X45429Y-50943D02*
X45457Y-50857D01*
X45486Y-50829D01*
X45543Y-50800D01*
X45629Y-50800D01*
X45686Y-50829D01*
X45714Y-50857D01*
X45743Y-50915D01*
X45743Y-51143D01*
X45143Y-51143D01*
X45143Y-50943D01*
X45171Y-50886D01*
X45200Y-50857D01*
X45257Y-50829D01*
X45314Y-50829D01*
X45371Y-50857D01*
X45400Y-50886D01*
X45429Y-50943D01*
X45429Y-51143D01*
X45743Y-50200D02*
X45457Y-50400D01*
X45743Y-50543D02*
X45143Y-50543D01*
X45143Y-50315D01*
X45171Y-50257D01*
X45200Y-50229D01*
X45257Y-50200D01*
X45343Y-50200D01*
X45400Y-50229D01*
X45429Y-50257D01*
X45457Y-50315D01*
X45457Y-50543D01*
X45429Y-49943D02*
X45429Y-49743D01*
X45743Y-49657D02*
X45743Y-49943D01*
X45143Y-49943D01*
X45143Y-49657D01*
X45571Y-49429D02*
X45571Y-49143D01*
X45743Y-49486D02*
X45143Y-49286D01*
X45743Y-49086D01*
X45743Y-48886D02*
X45143Y-48886D01*
X45743Y-48543D02*
X45400Y-48800D01*
X45143Y-48543D02*
X45486Y-48886D01*
X45143Y-48172D02*
X45143Y-48058D01*
X45171Y-48000D01*
X45229Y-47943D01*
X45343Y-47915D01*
X45543Y-47915D01*
X45657Y-47943D01*
X45714Y-48000D01*
X45743Y-48058D01*
X45743Y-48172D01*
X45714Y-48229D01*
X45657Y-48286D01*
X45543Y-48315D01*
X45343Y-48315D01*
X45229Y-48286D01*
X45171Y-48229D01*
X45143Y-48172D01*
X45143Y-47657D02*
X45629Y-47657D01*
X45686Y-47629D01*
X45714Y-47600D01*
X45743Y-47543D01*
X45743Y-47429D01*
X45714Y-47371D01*
X45686Y-47343D01*
X45629Y-47314D01*
X45143Y-47314D01*
X45143Y-47114D02*
X45143Y-46771D01*
X45743Y-46942D02*
X45143Y-46942D01*
G54D14*
X52772Y-53678D02*
X52630Y-53778D01*
X52772Y-53850D02*
X52472Y-53850D01*
X52472Y-53735D01*
X52487Y-53707D01*
X52501Y-53692D01*
X52530Y-53678D01*
X52572Y-53678D01*
X52601Y-53692D01*
X52615Y-53707D01*
X52630Y-53735D01*
X52630Y-53850D01*
X52472Y-53592D02*
X52772Y-53492D01*
X52472Y-53392D01*
X52772Y-53135D02*
X52772Y-53307D01*
X52772Y-53221D02*
X52472Y-53221D01*
X52515Y-53250D01*
X52544Y-53278D01*
X52558Y-53307D01*
X53471Y-53850D02*
X53171Y-53850D01*
X53171Y-53735D01*
X53186Y-53707D01*
X53200Y-53692D01*
X53229Y-53678D01*
X53271Y-53678D01*
X53300Y-53692D01*
X53314Y-53707D01*
X53329Y-53735D01*
X53329Y-53850D01*
X53171Y-53492D02*
X53171Y-53435D01*
X53186Y-53407D01*
X53214Y-53378D01*
X53271Y-53364D01*
X53371Y-53364D01*
X53429Y-53378D01*
X53457Y-53407D01*
X53471Y-53435D01*
X53471Y-53492D01*
X53457Y-53521D01*
X53429Y-53550D01*
X53371Y-53564D01*
X53271Y-53564D01*
X53214Y-53550D01*
X53186Y-53521D01*
X53171Y-53492D01*
X53171Y-53278D02*
X53171Y-53107D01*
X53471Y-53193D02*
X53171Y-53193D01*
G54D12*
X69900Y-57893D02*
X69900Y-57293D01*
X70100Y-57721D01*
X70300Y-57293D01*
X70300Y-57893D01*
X70700Y-57293D02*
X70814Y-57293D01*
X70872Y-57321D01*
X70929Y-57379D01*
X70957Y-57493D01*
X70957Y-57693D01*
X70929Y-57807D01*
X70872Y-57864D01*
X70814Y-57893D01*
X70700Y-57893D01*
X70643Y-57864D01*
X70586Y-57807D01*
X70557Y-57693D01*
X70557Y-57493D01*
X70586Y-57379D01*
X70643Y-57321D01*
X70700Y-57293D01*
X71215Y-57893D02*
X71215Y-57293D01*
X71358Y-57293D01*
X71443Y-57321D01*
X71501Y-57379D01*
X71529Y-57436D01*
X71558Y-57550D01*
X71558Y-57636D01*
X71529Y-57750D01*
X71501Y-57807D01*
X71443Y-57864D01*
X71358Y-57893D01*
X71215Y-57893D01*
X72129Y-57893D02*
X71786Y-57893D01*
X71958Y-57893D02*
X71958Y-57293D01*
X71901Y-57379D01*
X71843Y-57436D01*
X71786Y-57464D01*
X68559Y-44694D02*
X68893Y-45294D01*
X68893Y-44694D02*
X68559Y-45294D01*
X69250Y-44980D02*
X69321Y-45008D01*
X69345Y-45037D01*
X69369Y-45094D01*
X69369Y-45180D01*
X69345Y-45237D01*
X69321Y-45265D01*
X69274Y-45294D01*
X69083Y-45294D01*
X69083Y-44694D01*
X69250Y-44694D01*
X69297Y-44722D01*
X69321Y-44751D01*
X69345Y-44808D01*
X69345Y-44865D01*
X69321Y-44922D01*
X69297Y-44951D01*
X69250Y-44980D01*
X69083Y-44980D01*
X69583Y-44980D02*
X69750Y-44980D01*
X69821Y-45294D02*
X69583Y-45294D01*
X69583Y-44694D01*
X69821Y-44694D01*
X70035Y-44980D02*
X70202Y-44980D01*
X70273Y-45294D02*
X70035Y-45294D01*
X70035Y-44694D01*
X70273Y-44694D01*
X70487Y-45065D02*
X70868Y-45065D01*
X71201Y-44694D02*
X71249Y-44694D01*
X71297Y-44722D01*
X71320Y-44751D01*
X71344Y-44808D01*
X71368Y-44922D01*
X71368Y-45065D01*
X71344Y-45180D01*
X71320Y-45237D01*
X71297Y-45265D01*
X71249Y-45294D01*
X71201Y-45294D01*
X71154Y-45265D01*
X71130Y-45237D01*
X71106Y-45180D01*
X71082Y-45065D01*
X71082Y-44922D01*
X71106Y-44808D01*
X71130Y-44751D01*
X71154Y-44722D01*
X71201Y-44694D01*
X71677Y-44694D02*
X71725Y-44694D01*
X71773Y-44722D01*
X71796Y-44751D01*
X71820Y-44808D01*
X71844Y-44922D01*
X71844Y-45065D01*
X71820Y-45180D01*
X71796Y-45237D01*
X71773Y-45265D01*
X71725Y-45294D01*
X71677Y-45294D01*
X71630Y-45265D01*
X71606Y-45237D01*
X71582Y-45180D01*
X71558Y-45065D01*
X71558Y-44922D01*
X71582Y-44808D01*
X71606Y-44751D01*
X71630Y-44722D01*
X71677Y-44694D01*
X49536Y-59417D02*
X49536Y-58387D01*
X49775Y-58387D01*
X49835Y-58436D01*
X49865Y-58485D01*
X49895Y-58583D01*
X49895Y-58730D01*
X49865Y-58828D01*
X49835Y-58877D01*
X49775Y-58926D01*
X49536Y-58926D01*
X50494Y-59417D02*
X50135Y-59417D01*
X50315Y-59417D02*
X50315Y-58387D01*
X50255Y-58534D01*
X50195Y-58632D01*
X50135Y-58681D01*
X48501Y-63429D02*
X48587Y-63457D01*
X48615Y-63486D01*
X48644Y-63543D01*
X48644Y-63629D01*
X48615Y-63686D01*
X48587Y-63714D01*
X48529Y-63743D01*
X48301Y-63743D01*
X48301Y-63143D01*
X48501Y-63143D01*
X48558Y-63171D01*
X48587Y-63200D01*
X48615Y-63257D01*
X48615Y-63314D01*
X48587Y-63371D01*
X48558Y-63400D01*
X48501Y-63429D01*
X48301Y-63429D01*
X48872Y-63571D02*
X49158Y-63571D01*
X48815Y-63743D02*
X49015Y-63143D01*
X49215Y-63743D01*
X49329Y-63143D02*
X49672Y-63143D01*
X49501Y-63743D02*
X49501Y-63143D01*
X49786Y-63143D02*
X50129Y-63143D01*
X49958Y-63743D02*
X49958Y-63143D01*
X50329Y-63429D02*
X50529Y-63429D01*
X50615Y-63743D02*
X50329Y-63743D01*
X50329Y-63143D01*
X50615Y-63143D01*
X51215Y-63743D02*
X51015Y-63457D01*
X50872Y-63743D02*
X50872Y-63143D01*
X51100Y-63143D01*
X51158Y-63171D01*
X51186Y-63200D01*
X51215Y-63257D01*
X51215Y-63343D01*
X51186Y-63400D01*
X51158Y-63429D01*
X51100Y-63457D01*
X50872Y-63457D01*
X51586Y-63457D02*
X51586Y-63743D01*
X51386Y-63143D02*
X51586Y-63457D01*
X51786Y-63143D01*
X65536Y-59417D02*
X65536Y-58387D01*
X65775Y-58387D01*
X65835Y-58436D01*
X65865Y-58485D01*
X65895Y-58583D01*
X65895Y-58730D01*
X65865Y-58828D01*
X65835Y-58877D01*
X65775Y-58926D01*
X65536Y-58926D01*
X66135Y-58485D02*
X66165Y-58436D01*
X66225Y-58387D01*
X66374Y-58387D01*
X66434Y-58436D01*
X66464Y-58485D01*
X66494Y-58583D01*
X66494Y-58681D01*
X66464Y-58828D01*
X66105Y-59417D01*
X66494Y-59417D01*
X65200Y-63743D02*
X64914Y-63743D01*
X64914Y-63143D01*
X65400Y-63743D02*
X65400Y-63143D01*
X66000Y-63171D02*
X65943Y-63143D01*
X65857Y-63143D01*
X65772Y-63171D01*
X65714Y-63229D01*
X65686Y-63286D01*
X65657Y-63400D01*
X65657Y-63486D01*
X65686Y-63600D01*
X65714Y-63657D01*
X65772Y-63714D01*
X65857Y-63743D01*
X65914Y-63743D01*
X66000Y-63714D01*
X66029Y-63686D01*
X66029Y-63486D01*
X65914Y-63486D01*
X66286Y-63743D02*
X66286Y-63143D01*
X66286Y-63429D02*
X66629Y-63429D01*
X66629Y-63743D02*
X66629Y-63143D01*
X66829Y-63143D02*
X67172Y-63143D01*
X67001Y-63743D02*
X67001Y-63143D01*
X72536Y-59417D02*
X72536Y-58387D01*
X72775Y-58387D01*
X72835Y-58436D01*
X72865Y-58485D01*
X72895Y-58583D01*
X72895Y-58730D01*
X72865Y-58828D01*
X72835Y-58877D01*
X72775Y-58926D01*
X72536Y-58926D01*
X73105Y-58387D02*
X73494Y-58387D01*
X73285Y-58779D01*
X73374Y-58779D01*
X73434Y-58828D01*
X73464Y-58877D01*
X73494Y-58975D01*
X73494Y-59221D01*
X73464Y-59319D01*
X73434Y-59368D01*
X73374Y-59417D01*
X73195Y-59417D01*
X73135Y-59368D01*
X73105Y-59319D01*
X71000Y-63743D02*
X71000Y-63143D01*
X71143Y-63143D01*
X71228Y-63171D01*
X71286Y-63229D01*
X71314Y-63286D01*
X71343Y-63400D01*
X71343Y-63486D01*
X71314Y-63600D01*
X71286Y-63657D01*
X71228Y-63714D01*
X71143Y-63743D01*
X71000Y-63743D01*
X71457Y-63800D02*
X71914Y-63800D01*
X72028Y-63714D02*
X72114Y-63743D01*
X72257Y-63743D01*
X72314Y-63714D01*
X72343Y-63686D01*
X72371Y-63629D01*
X72371Y-63571D01*
X72343Y-63514D01*
X72314Y-63486D01*
X72257Y-63457D01*
X72143Y-63429D01*
X72085Y-63400D01*
X72057Y-63371D01*
X72028Y-63314D01*
X72028Y-63257D01*
X72057Y-63200D01*
X72085Y-63171D01*
X72143Y-63143D01*
X72285Y-63143D01*
X72371Y-63171D01*
X72571Y-63143D02*
X72714Y-63743D01*
X72828Y-63314D01*
X72942Y-63743D01*
X73085Y-63143D01*
X73314Y-63743D02*
X73314Y-63143D01*
X73514Y-63143D02*
X73857Y-63143D01*
X73686Y-63743D02*
X73686Y-63143D01*
X74400Y-63686D02*
X74371Y-63714D01*
X74285Y-63743D01*
X74228Y-63743D01*
X74143Y-63714D01*
X74085Y-63657D01*
X74057Y-63600D01*
X74028Y-63486D01*
X74028Y-63400D01*
X74057Y-63286D01*
X74085Y-63229D01*
X74143Y-63171D01*
X74228Y-63143D01*
X74285Y-63143D01*
X74371Y-63171D01*
X74400Y-63200D01*
X74657Y-63743D02*
X74657Y-63143D01*
X74657Y-63429D02*
X75000Y-63429D01*
X75000Y-63743D02*
X75000Y-63143D01*
X58536Y-59417D02*
X58536Y-58387D01*
X58775Y-58387D01*
X58835Y-58436D01*
X58865Y-58485D01*
X58895Y-58583D01*
X58895Y-58730D01*
X58865Y-58828D01*
X58835Y-58877D01*
X58775Y-58926D01*
X58536Y-58926D01*
X59434Y-58730D02*
X59434Y-59417D01*
X59285Y-58338D02*
X59135Y-59074D01*
X59524Y-59074D01*
X56843Y-63743D02*
X56843Y-63143D01*
X56986Y-63143D01*
X57071Y-63171D01*
X57129Y-63229D01*
X57157Y-63286D01*
X57186Y-63400D01*
X57186Y-63486D01*
X57157Y-63600D01*
X57129Y-63657D01*
X57071Y-63714D01*
X56986Y-63743D01*
X56843Y-63743D01*
X57300Y-63800D02*
X57757Y-63800D01*
X57871Y-63714D02*
X57957Y-63743D01*
X58100Y-63743D01*
X58157Y-63714D01*
X58186Y-63686D01*
X58214Y-63629D01*
X58214Y-63571D01*
X58186Y-63514D01*
X58157Y-63486D01*
X58100Y-63457D01*
X57986Y-63429D01*
X57928Y-63400D01*
X57900Y-63371D01*
X57871Y-63314D01*
X57871Y-63257D01*
X57900Y-63200D01*
X57928Y-63171D01*
X57986Y-63143D01*
X58128Y-63143D01*
X58214Y-63171D01*
X58471Y-63429D02*
X58671Y-63429D01*
X58757Y-63743D02*
X58471Y-63743D01*
X58471Y-63143D01*
X58757Y-63143D01*
X59014Y-63743D02*
X59014Y-63143D01*
X59357Y-63743D01*
X59357Y-63143D01*
X59614Y-63714D02*
X59700Y-63743D01*
X59843Y-63743D01*
X59900Y-63714D01*
X59929Y-63686D01*
X59957Y-63629D01*
X59957Y-63571D01*
X59929Y-63514D01*
X59900Y-63486D01*
X59843Y-63457D01*
X59729Y-63429D01*
X59671Y-63400D01*
X59643Y-63371D01*
X59614Y-63314D01*
X59614Y-63257D01*
X59643Y-63200D01*
X59671Y-63171D01*
X59729Y-63143D01*
X59871Y-63143D01*
X59957Y-63171D01*
X60328Y-63143D02*
X60442Y-63143D01*
X60500Y-63171D01*
X60557Y-63229D01*
X60585Y-63343D01*
X60585Y-63543D01*
X60557Y-63657D01*
X60500Y-63714D01*
X60442Y-63743D01*
X60328Y-63743D01*
X60271Y-63714D01*
X60214Y-63657D01*
X60185Y-63543D01*
X60185Y-63343D01*
X60214Y-63229D01*
X60271Y-63171D01*
X60328Y-63143D01*
X61186Y-63743D02*
X60986Y-63457D01*
X60843Y-63743D02*
X60843Y-63143D01*
X61071Y-63143D01*
X61129Y-63171D01*
X61157Y-63200D01*
X61186Y-63257D01*
X61186Y-63343D01*
X61157Y-63400D01*
X61129Y-63429D01*
X61071Y-63457D01*
X60843Y-63457D01*
X40536Y-59417D02*
X40536Y-58387D01*
X40775Y-58387D01*
X40835Y-58436D01*
X40865Y-58485D01*
X40895Y-58583D01*
X40895Y-58730D01*
X40865Y-58828D01*
X40835Y-58877D01*
X40775Y-58926D01*
X40536Y-58926D01*
X41434Y-58387D02*
X41315Y-58387D01*
X41255Y-58436D01*
X41225Y-58485D01*
X41165Y-58632D01*
X41135Y-58828D01*
X41135Y-59221D01*
X41165Y-59319D01*
X41195Y-59368D01*
X41255Y-59417D01*
X41374Y-59417D01*
X41434Y-59368D01*
X41464Y-59319D01*
X41494Y-59221D01*
X41494Y-58975D01*
X41464Y-58877D01*
X41434Y-58828D01*
X41374Y-58779D01*
X41255Y-58779D01*
X41195Y-58828D01*
X41165Y-58877D01*
X41135Y-58975D01*
X39114Y-63743D02*
X39114Y-63143D01*
X39257Y-63143D01*
X39342Y-63171D01*
X39400Y-63229D01*
X39428Y-63286D01*
X39457Y-63400D01*
X39457Y-63486D01*
X39428Y-63600D01*
X39400Y-63657D01*
X39342Y-63714D01*
X39257Y-63743D01*
X39114Y-63743D01*
X39571Y-63800D02*
X40028Y-63800D01*
X40171Y-63743D02*
X40171Y-63143D01*
X40371Y-63571D01*
X40571Y-63143D01*
X40571Y-63743D01*
X40971Y-63143D02*
X41085Y-63143D01*
X41143Y-63171D01*
X41200Y-63229D01*
X41228Y-63343D01*
X41228Y-63543D01*
X41200Y-63657D01*
X41143Y-63714D01*
X41085Y-63743D01*
X40971Y-63743D01*
X40914Y-63714D01*
X40857Y-63657D01*
X40828Y-63543D01*
X40828Y-63343D01*
X40857Y-63229D01*
X40914Y-63171D01*
X40971Y-63143D01*
X41400Y-63143D02*
X41743Y-63143D01*
X41572Y-63743D02*
X41572Y-63143D01*
X42057Y-63143D02*
X42171Y-63143D01*
X42229Y-63171D01*
X42286Y-63229D01*
X42314Y-63343D01*
X42314Y-63543D01*
X42286Y-63657D01*
X42229Y-63714D01*
X42171Y-63743D01*
X42057Y-63743D01*
X42000Y-63714D01*
X41943Y-63657D01*
X41914Y-63543D01*
X41914Y-63343D01*
X41943Y-63229D01*
X42000Y-63171D01*
X42057Y-63143D01*
X42915Y-63743D02*
X42715Y-63457D01*
X42572Y-63743D02*
X42572Y-63143D01*
X42800Y-63143D01*
X42858Y-63171D01*
X42886Y-63200D01*
X42915Y-63257D01*
X42915Y-63343D01*
X42886Y-63400D01*
X42858Y-63429D01*
X42800Y-63457D01*
X42572Y-63457D01*
G54D17*
X52275Y-46816D02*
X51594Y-46816D01*
X51594Y-46653D01*
X51627Y-46612D01*
X51659Y-46592D01*
X51724Y-46572D01*
X51821Y-46572D01*
X51886Y-46592D01*
X51918Y-46612D01*
X51951Y-46653D01*
X51951Y-46816D01*
X51594Y-46184D02*
X51594Y-46388D01*
X51918Y-46408D01*
X51886Y-46388D01*
X51854Y-46347D01*
X51854Y-46245D01*
X51886Y-46205D01*
X51918Y-46184D01*
X51983Y-46164D01*
X52145Y-46164D01*
X52210Y-46184D01*
X52243Y-46205D01*
X52275Y-46245D01*
X52275Y-46347D01*
X52243Y-46388D01*
X52210Y-46408D01*
G54D15*
X60700Y-58038D02*
X60681Y-58076D01*
X60643Y-58114D01*
X60586Y-58171D01*
X60567Y-58210D01*
X60567Y-58248D01*
X60662Y-58229D02*
X60643Y-58267D01*
X60605Y-58305D01*
X60529Y-58324D01*
X60395Y-58324D01*
X60319Y-58305D01*
X60281Y-58267D01*
X60262Y-58229D01*
X60262Y-58152D01*
X60281Y-58114D01*
X60319Y-58076D01*
X60395Y-58057D01*
X60529Y-58057D01*
X60605Y-58076D01*
X60643Y-58114D01*
X60662Y-58152D01*
X60662Y-58229D01*
X60662Y-57676D02*
X60662Y-57905D01*
X60662Y-57791D02*
X60262Y-57791D01*
X60319Y-57829D01*
X60357Y-57867D01*
X60376Y-57905D01*
X57162Y-59391D02*
X56762Y-59391D01*
X57048Y-59257D01*
X56762Y-59124D01*
X57162Y-59124D01*
X56762Y-58858D02*
X56762Y-58781D01*
X56781Y-58743D01*
X56819Y-58705D01*
X56895Y-58686D01*
X57029Y-58686D01*
X57105Y-58705D01*
X57143Y-58743D01*
X57162Y-58781D01*
X57162Y-58858D01*
X57143Y-58896D01*
X57105Y-58934D01*
X57029Y-58953D01*
X56895Y-58953D01*
X56819Y-58934D01*
X56781Y-58896D01*
X56762Y-58858D01*
X57143Y-58534D02*
X57162Y-58477D01*
X57162Y-58381D01*
X57143Y-58343D01*
X57124Y-58324D01*
X57086Y-58305D01*
X57048Y-58305D01*
X57010Y-58324D01*
X56990Y-58343D01*
X56971Y-58381D01*
X56952Y-58458D01*
X56933Y-58496D01*
X56914Y-58515D01*
X56876Y-58534D01*
X56838Y-58534D01*
X56800Y-58515D01*
X56781Y-58496D01*
X56762Y-58458D01*
X56762Y-58362D01*
X56781Y-58305D01*
X56952Y-58000D02*
X56952Y-58134D01*
X57162Y-58134D02*
X56762Y-58134D01*
X56762Y-57943D01*
X56952Y-57791D02*
X56952Y-57657D01*
X57162Y-57600D02*
X57162Y-57791D01*
X56762Y-57791D01*
X56762Y-57600D01*
X56762Y-57486D02*
X56762Y-57257D01*
X57162Y-57372D02*
X56762Y-57372D01*
X57200Y-57219D02*
X57200Y-56914D01*
X57162Y-56819D02*
X56762Y-56819D01*
X56762Y-56666D01*
X56781Y-56628D01*
X56800Y-56609D01*
X56838Y-56590D01*
X56895Y-56590D01*
X56933Y-56609D01*
X56952Y-56628D01*
X56971Y-56666D01*
X56971Y-56819D01*
X59700Y-57038D02*
X59681Y-57076D01*
X59643Y-57114D01*
X59586Y-57171D01*
X59567Y-57210D01*
X59567Y-57248D01*
X59662Y-57229D02*
X59643Y-57267D01*
X59605Y-57305D01*
X59529Y-57324D01*
X59395Y-57324D01*
X59319Y-57305D01*
X59281Y-57267D01*
X59262Y-57229D01*
X59262Y-57152D01*
X59281Y-57114D01*
X59319Y-57076D01*
X59395Y-57057D01*
X59529Y-57057D01*
X59605Y-57076D01*
X59643Y-57114D01*
X59662Y-57152D01*
X59662Y-57229D01*
X59300Y-56905D02*
X59281Y-56886D01*
X59262Y-56848D01*
X59262Y-56752D01*
X59281Y-56714D01*
X59300Y-56695D01*
X59338Y-56676D01*
X59376Y-56676D01*
X59433Y-56695D01*
X59662Y-56924D01*
X59662Y-56676D01*
X63162Y-58400D02*
X62762Y-58400D01*
X63048Y-58266D01*
X62762Y-58133D01*
X63162Y-58133D01*
X62762Y-57867D02*
X62762Y-57790D01*
X62781Y-57752D01*
X62819Y-57714D01*
X62895Y-57695D01*
X63029Y-57695D01*
X63105Y-57714D01*
X63143Y-57752D01*
X63162Y-57790D01*
X63162Y-57867D01*
X63143Y-57905D01*
X63105Y-57943D01*
X63029Y-57962D01*
X62895Y-57962D01*
X62819Y-57943D01*
X62781Y-57905D01*
X62762Y-57867D01*
X63143Y-57543D02*
X63162Y-57486D01*
X63162Y-57390D01*
X63143Y-57352D01*
X63124Y-57333D01*
X63086Y-57314D01*
X63048Y-57314D01*
X63010Y-57333D01*
X62990Y-57352D01*
X62971Y-57390D01*
X62952Y-57467D01*
X62933Y-57505D01*
X62914Y-57524D01*
X62876Y-57543D01*
X62838Y-57543D01*
X62800Y-57524D01*
X62781Y-57505D01*
X62762Y-57467D01*
X62762Y-57371D01*
X62781Y-57314D01*
X62952Y-57009D02*
X62952Y-57143D01*
X63162Y-57143D02*
X62762Y-57143D01*
X62762Y-56952D01*
X62952Y-56800D02*
X62952Y-56666D01*
X63162Y-56609D02*
X63162Y-56800D01*
X62762Y-56800D01*
X62762Y-56609D01*
X62762Y-56495D02*
X62762Y-56266D01*
X63162Y-56381D02*
X62762Y-56381D01*
X63200Y-56228D02*
X63200Y-55923D01*
X63162Y-55828D02*
X62762Y-55828D01*
X63162Y-55599D01*
X62762Y-55599D01*
X63817Y-58223D02*
X63650Y-57961D01*
X63531Y-58223D02*
X63531Y-57673D01*
X63722Y-57673D01*
X63769Y-57699D01*
X63793Y-57725D01*
X63817Y-57777D01*
X63817Y-57856D01*
X63793Y-57908D01*
X63769Y-57935D01*
X63722Y-57961D01*
X63531Y-57961D01*
X64007Y-57725D02*
X64031Y-57699D01*
X64079Y-57673D01*
X64198Y-57673D01*
X64245Y-57699D01*
X64269Y-57725D01*
X64293Y-57777D01*
X64293Y-57830D01*
X64269Y-57908D01*
X63983Y-58223D01*
X64293Y-58223D01*
X63517Y-55223D02*
X63350Y-54961D01*
X63231Y-55223D02*
X63231Y-54673D01*
X63422Y-54673D01*
X63469Y-54699D01*
X63493Y-54725D01*
X63517Y-54777D01*
X63517Y-54856D01*
X63493Y-54908D01*
X63469Y-54935D01*
X63422Y-54961D01*
X63231Y-54961D01*
X63683Y-54673D02*
X63993Y-54673D01*
X63826Y-54882D01*
X63898Y-54882D01*
X63945Y-54908D01*
X63969Y-54935D01*
X63993Y-54987D01*
X63993Y-55118D01*
X63969Y-55170D01*
X63945Y-55196D01*
X63898Y-55223D01*
X63755Y-55223D01*
X63707Y-55196D01*
X63683Y-55170D01*
X60517Y-55223D02*
X60350Y-54961D01*
X60231Y-55223D02*
X60231Y-54673D01*
X60422Y-54673D01*
X60469Y-54699D01*
X60493Y-54725D01*
X60517Y-54777D01*
X60517Y-54856D01*
X60493Y-54908D01*
X60469Y-54935D01*
X60422Y-54961D01*
X60231Y-54961D01*
X60945Y-54856D02*
X60945Y-55223D01*
X60826Y-54646D02*
X60707Y-55039D01*
X61017Y-55039D01*
X59017Y-54223D02*
X58850Y-53961D01*
X58731Y-54223D02*
X58731Y-53673D01*
X58922Y-53673D01*
X58969Y-53699D01*
X58993Y-53725D01*
X59017Y-53777D01*
X59017Y-53856D01*
X58993Y-53908D01*
X58969Y-53935D01*
X58922Y-53961D01*
X58731Y-53961D01*
X59469Y-53673D02*
X59231Y-53673D01*
X59207Y-53935D01*
X59231Y-53908D01*
X59279Y-53882D01*
X59398Y-53882D01*
X59445Y-53908D01*
X59469Y-53935D01*
X59493Y-53987D01*
X59493Y-54118D01*
X59469Y-54170D01*
X59445Y-54196D01*
X59398Y-54223D01*
X59279Y-54223D01*
X59231Y-54196D01*
X59207Y-54170D01*
X62017Y-54223D02*
X61850Y-53961D01*
X61731Y-54223D02*
X61731Y-53673D01*
X61922Y-53673D01*
X61969Y-53699D01*
X61993Y-53725D01*
X62017Y-53777D01*
X62017Y-53856D01*
X61993Y-53908D01*
X61969Y-53935D01*
X61922Y-53961D01*
X61731Y-53961D01*
X62445Y-53673D02*
X62350Y-53673D01*
X62302Y-53699D01*
X62279Y-53725D01*
X62231Y-53804D01*
X62207Y-53908D01*
X62207Y-54118D01*
X62231Y-54170D01*
X62255Y-54196D01*
X62302Y-54223D01*
X62398Y-54223D01*
X62445Y-54196D01*
X62469Y-54170D01*
X62493Y-54118D01*
X62493Y-53987D01*
X62469Y-53935D01*
X62445Y-53908D01*
X62398Y-53882D01*
X62302Y-53882D01*
X62255Y-53908D01*
X62231Y-53935D01*
X62207Y-53987D01*
M02*
